%TF.GenerationSoftware,KiCad,Pcbnew,(6.0.2)*%
%TF.CreationDate,2022-02-21T21:29:37+01:00*%
%TF.ProjectId,tapa,74617061-2e6b-4696-9361-645f70636258,rev?*%
%TF.SameCoordinates,Original*%
%TF.FileFunction,Legend,Top*%
%TF.FilePolarity,Positive*%
%FSLAX46Y46*%
G04 Gerber Fmt 4.6, Leading zero omitted, Abs format (unit mm)*
G04 Created by KiCad (PCBNEW (6.0.2)) date 2022-02-21 21:29:37*
%MOMM*%
%LPD*%
G01*
G04 APERTURE LIST*
%ADD10C,0.150000*%
%ADD11C,0.120000*%
G04 APERTURE END LIST*
D10*
%TO.C,SW1*%
X72961666Y-60289761D02*
X73104523Y-60337380D01*
X73342619Y-60337380D01*
X73437857Y-60289761D01*
X73485476Y-60242142D01*
X73533095Y-60146904D01*
X73533095Y-60051666D01*
X73485476Y-59956428D01*
X73437857Y-59908809D01*
X73342619Y-59861190D01*
X73152142Y-59813571D01*
X73056904Y-59765952D01*
X73009285Y-59718333D01*
X72961666Y-59623095D01*
X72961666Y-59527857D01*
X73009285Y-59432619D01*
X73056904Y-59385000D01*
X73152142Y-59337380D01*
X73390238Y-59337380D01*
X73533095Y-59385000D01*
X73866428Y-59337380D02*
X74104523Y-60337380D01*
X74295000Y-59623095D01*
X74485476Y-60337380D01*
X74723571Y-59337380D01*
X75628333Y-60337380D02*
X75056904Y-60337380D01*
X75342619Y-60337380D02*
X75342619Y-59337380D01*
X75247380Y-59480238D01*
X75152142Y-59575476D01*
X75056904Y-59623095D01*
%TO.C,SW3*%
X116776666Y-58264761D02*
X116919523Y-58312380D01*
X117157619Y-58312380D01*
X117252857Y-58264761D01*
X117300476Y-58217142D01*
X117348095Y-58121904D01*
X117348095Y-58026666D01*
X117300476Y-57931428D01*
X117252857Y-57883809D01*
X117157619Y-57836190D01*
X116967142Y-57788571D01*
X116871904Y-57740952D01*
X116824285Y-57693333D01*
X116776666Y-57598095D01*
X116776666Y-57502857D01*
X116824285Y-57407619D01*
X116871904Y-57360000D01*
X116967142Y-57312380D01*
X117205238Y-57312380D01*
X117348095Y-57360000D01*
X117681428Y-57312380D02*
X117919523Y-58312380D01*
X118110000Y-57598095D01*
X118300476Y-58312380D01*
X118538571Y-57312380D01*
X118824285Y-57312380D02*
X119443333Y-57312380D01*
X119110000Y-57693333D01*
X119252857Y-57693333D01*
X119348095Y-57740952D01*
X119395714Y-57788571D01*
X119443333Y-57883809D01*
X119443333Y-58121904D01*
X119395714Y-58217142D01*
X119348095Y-58264761D01*
X119252857Y-58312380D01*
X118967142Y-58312380D01*
X118871904Y-58264761D01*
X118824285Y-58217142D01*
%TO.C,SW2*%
X88836666Y-60289761D02*
X88979523Y-60337380D01*
X89217619Y-60337380D01*
X89312857Y-60289761D01*
X89360476Y-60242142D01*
X89408095Y-60146904D01*
X89408095Y-60051666D01*
X89360476Y-59956428D01*
X89312857Y-59908809D01*
X89217619Y-59861190D01*
X89027142Y-59813571D01*
X88931904Y-59765952D01*
X88884285Y-59718333D01*
X88836666Y-59623095D01*
X88836666Y-59527857D01*
X88884285Y-59432619D01*
X88931904Y-59385000D01*
X89027142Y-59337380D01*
X89265238Y-59337380D01*
X89408095Y-59385000D01*
X89741428Y-59337380D02*
X89979523Y-60337380D01*
X90170000Y-59623095D01*
X90360476Y-60337380D01*
X90598571Y-59337380D01*
X90931904Y-59432619D02*
X90979523Y-59385000D01*
X91074761Y-59337380D01*
X91312857Y-59337380D01*
X91408095Y-59385000D01*
X91455714Y-59432619D01*
X91503333Y-59527857D01*
X91503333Y-59623095D01*
X91455714Y-59765952D01*
X90884285Y-60337380D01*
X91503333Y-60337380D01*
%TO.C,J4*%
X131746666Y-73822380D02*
X131746666Y-74536666D01*
X131699047Y-74679523D01*
X131603809Y-74774761D01*
X131460952Y-74822380D01*
X131365714Y-74822380D01*
X132651428Y-74155714D02*
X132651428Y-74822380D01*
X132413333Y-73774761D02*
X132175238Y-74489047D01*
X132794285Y-74489047D01*
%TO.C,J1*%
X91106666Y-73822380D02*
X91106666Y-74536666D01*
X91059047Y-74679523D01*
X90963809Y-74774761D01*
X90820952Y-74822380D01*
X90725714Y-74822380D01*
X92106666Y-74822380D02*
X91535238Y-74822380D01*
X91820952Y-74822380D02*
X91820952Y-73822380D01*
X91725714Y-73965238D01*
X91630476Y-74060476D01*
X91535238Y-74108095D01*
%TO.C,SW6*%
X144716666Y-58264761D02*
X144859523Y-58312380D01*
X145097619Y-58312380D01*
X145192857Y-58264761D01*
X145240476Y-58217142D01*
X145288095Y-58121904D01*
X145288095Y-58026666D01*
X145240476Y-57931428D01*
X145192857Y-57883809D01*
X145097619Y-57836190D01*
X144907142Y-57788571D01*
X144811904Y-57740952D01*
X144764285Y-57693333D01*
X144716666Y-57598095D01*
X144716666Y-57502857D01*
X144764285Y-57407619D01*
X144811904Y-57360000D01*
X144907142Y-57312380D01*
X145145238Y-57312380D01*
X145288095Y-57360000D01*
X145621428Y-57312380D02*
X145859523Y-58312380D01*
X146050000Y-57598095D01*
X146240476Y-58312380D01*
X146478571Y-57312380D01*
X147288095Y-57312380D02*
X147097619Y-57312380D01*
X147002380Y-57360000D01*
X146954761Y-57407619D01*
X146859523Y-57550476D01*
X146811904Y-57740952D01*
X146811904Y-58121904D01*
X146859523Y-58217142D01*
X146907142Y-58264761D01*
X147002380Y-58312380D01*
X147192857Y-58312380D01*
X147288095Y-58264761D01*
X147335714Y-58217142D01*
X147383333Y-58121904D01*
X147383333Y-57883809D01*
X147335714Y-57788571D01*
X147288095Y-57740952D01*
X147192857Y-57693333D01*
X147002380Y-57693333D01*
X146907142Y-57740952D01*
X146859523Y-57788571D01*
X146811904Y-57883809D01*
%TO.C,J5*%
X102531666Y-57312380D02*
X102531666Y-58026666D01*
X102484047Y-58169523D01*
X102388809Y-58264761D01*
X102245952Y-58312380D01*
X102150714Y-58312380D01*
X103484047Y-57312380D02*
X103007857Y-57312380D01*
X102960238Y-57788571D01*
X103007857Y-57740952D01*
X103103095Y-57693333D01*
X103341190Y-57693333D01*
X103436428Y-57740952D01*
X103484047Y-57788571D01*
X103531666Y-57883809D01*
X103531666Y-58121904D01*
X103484047Y-58217142D01*
X103436428Y-58264761D01*
X103341190Y-58312380D01*
X103103095Y-58312380D01*
X103007857Y-58264761D01*
X102960238Y-58217142D01*
%TO.C,SW4*%
X129476666Y-58264761D02*
X129619523Y-58312380D01*
X129857619Y-58312380D01*
X129952857Y-58264761D01*
X130000476Y-58217142D01*
X130048095Y-58121904D01*
X130048095Y-58026666D01*
X130000476Y-57931428D01*
X129952857Y-57883809D01*
X129857619Y-57836190D01*
X129667142Y-57788571D01*
X129571904Y-57740952D01*
X129524285Y-57693333D01*
X129476666Y-57598095D01*
X129476666Y-57502857D01*
X129524285Y-57407619D01*
X129571904Y-57360000D01*
X129667142Y-57312380D01*
X129905238Y-57312380D01*
X130048095Y-57360000D01*
X130381428Y-57312380D02*
X130619523Y-58312380D01*
X130810000Y-57598095D01*
X131000476Y-58312380D01*
X131238571Y-57312380D01*
X132048095Y-57645714D02*
X132048095Y-58312380D01*
X131810000Y-57264761D02*
X131571904Y-57979047D01*
X132190952Y-57979047D01*
%TO.C,SW5*%
X137096666Y-58264761D02*
X137239523Y-58312380D01*
X137477619Y-58312380D01*
X137572857Y-58264761D01*
X137620476Y-58217142D01*
X137668095Y-58121904D01*
X137668095Y-58026666D01*
X137620476Y-57931428D01*
X137572857Y-57883809D01*
X137477619Y-57836190D01*
X137287142Y-57788571D01*
X137191904Y-57740952D01*
X137144285Y-57693333D01*
X137096666Y-57598095D01*
X137096666Y-57502857D01*
X137144285Y-57407619D01*
X137191904Y-57360000D01*
X137287142Y-57312380D01*
X137525238Y-57312380D01*
X137668095Y-57360000D01*
X138001428Y-57312380D02*
X138239523Y-58312380D01*
X138430000Y-57598095D01*
X138620476Y-58312380D01*
X138858571Y-57312380D01*
X139715714Y-57312380D02*
X139239523Y-57312380D01*
X139191904Y-57788571D01*
X139239523Y-57740952D01*
X139334761Y-57693333D01*
X139572857Y-57693333D01*
X139668095Y-57740952D01*
X139715714Y-57788571D01*
X139763333Y-57883809D01*
X139763333Y-58121904D01*
X139715714Y-58217142D01*
X139668095Y-58264761D01*
X139572857Y-58312380D01*
X139334761Y-58312380D01*
X139239523Y-58264761D01*
X139191904Y-58217142D01*
%TO.C,J3*%
X119046666Y-73822380D02*
X119046666Y-74536666D01*
X118999047Y-74679523D01*
X118903809Y-74774761D01*
X118760952Y-74822380D01*
X118665714Y-74822380D01*
X119427619Y-73822380D02*
X120046666Y-73822380D01*
X119713333Y-74203333D01*
X119856190Y-74203333D01*
X119951428Y-74250952D01*
X119999047Y-74298571D01*
X120046666Y-74393809D01*
X120046666Y-74631904D01*
X119999047Y-74727142D01*
X119951428Y-74774761D01*
X119856190Y-74822380D01*
X119570476Y-74822380D01*
X119475238Y-74774761D01*
X119427619Y-74727142D01*
%TO.C,J2*%
X102531666Y-73822380D02*
X102531666Y-74536666D01*
X102484047Y-74679523D01*
X102388809Y-74774761D01*
X102245952Y-74822380D01*
X102150714Y-74822380D01*
X102960238Y-73917619D02*
X103007857Y-73870000D01*
X103103095Y-73822380D01*
X103341190Y-73822380D01*
X103436428Y-73870000D01*
X103484047Y-73917619D01*
X103531666Y-74012857D01*
X103531666Y-74108095D01*
X103484047Y-74250952D01*
X102912619Y-74822380D01*
X103531666Y-74822380D01*
D11*
%TO.C,SW1*%
X76545000Y-60885000D02*
X72045000Y-60885000D01*
X70795000Y-63385000D02*
X70795000Y-64885000D01*
X72045000Y-67385000D02*
X76545000Y-67385000D01*
X77795000Y-64885000D02*
X77795000Y-63385000D01*
%TO.C,SW3*%
X110140000Y-65600000D02*
X126080000Y-65600000D01*
X110140000Y-65080000D02*
X126080000Y-65080000D01*
X126080000Y-58860000D02*
X126080000Y-65600000D01*
X109900000Y-65840000D02*
X110300000Y-65840000D01*
X109900000Y-65200000D02*
X109900000Y-65840000D01*
X110140000Y-58860000D02*
X110140000Y-65600000D01*
X110140000Y-59980000D02*
X126080000Y-59980000D01*
X110140000Y-58860000D02*
X126080000Y-58860000D01*
%TO.C,SW2*%
X93670000Y-64885000D02*
X93670000Y-63385000D01*
X86670000Y-63385000D02*
X86670000Y-64885000D01*
X92420000Y-60885000D02*
X87920000Y-60885000D01*
X87920000Y-67385000D02*
X92420000Y-67385000D01*
%TO.C,J4*%
X127680000Y-82350000D02*
X128080000Y-82350000D01*
X127920000Y-76490000D02*
X136240000Y-76490000D01*
X127920000Y-82110000D02*
X136240000Y-82110000D01*
X127920000Y-81590000D02*
X136240000Y-81590000D01*
X127920000Y-75370000D02*
X136240000Y-75370000D01*
X136240000Y-75370000D02*
X136240000Y-82110000D01*
X127920000Y-75370000D02*
X127920000Y-82110000D01*
X127680000Y-81710000D02*
X127680000Y-82350000D01*
%TO.C,J1*%
X87040000Y-81710000D02*
X87040000Y-82350000D01*
X87280000Y-76490000D02*
X95600000Y-76490000D01*
X87040000Y-82350000D02*
X87440000Y-82350000D01*
X87280000Y-75370000D02*
X95600000Y-75370000D01*
X95600000Y-75370000D02*
X95600000Y-82110000D01*
X87280000Y-81590000D02*
X95600000Y-81590000D01*
X87280000Y-75370000D02*
X87280000Y-82110000D01*
X87280000Y-82110000D02*
X95600000Y-82110000D01*
%TO.C,SW6*%
X143160000Y-65600000D02*
X148940000Y-65600000D01*
X142920000Y-65840000D02*
X143320000Y-65840000D01*
X143160000Y-65080000D02*
X148940000Y-65080000D01*
X148940000Y-58860000D02*
X148940000Y-65600000D01*
X143160000Y-58860000D02*
X148940000Y-58860000D01*
X143160000Y-58860000D02*
X143160000Y-65600000D01*
X143160000Y-59980000D02*
X148940000Y-59980000D01*
X142920000Y-65200000D02*
X142920000Y-65840000D01*
%TO.C,J5*%
X97435000Y-58860000D02*
X108296000Y-58860000D01*
X97195000Y-65840000D02*
X97595000Y-65840000D01*
X108296000Y-58860000D02*
X108296000Y-65600000D01*
X97195000Y-65200000D02*
X97195000Y-65840000D01*
X97435000Y-59980000D02*
X108296000Y-59980000D01*
X97435000Y-58860000D02*
X97435000Y-65600000D01*
X97435000Y-65080000D02*
X108296000Y-65080000D01*
X97435000Y-65600000D02*
X108296000Y-65600000D01*
%TO.C,SW4*%
X127920000Y-59980000D02*
X133700000Y-59980000D01*
X133700000Y-58860000D02*
X133700000Y-65600000D01*
X127920000Y-58860000D02*
X133700000Y-58860000D01*
X127680000Y-65840000D02*
X128080000Y-65840000D01*
X127920000Y-65080000D02*
X133700000Y-65080000D01*
X127680000Y-65200000D02*
X127680000Y-65840000D01*
X127920000Y-65600000D02*
X133700000Y-65600000D01*
X127920000Y-58860000D02*
X127920000Y-65600000D01*
%TO.C,SW5*%
X135540000Y-65080000D02*
X141320000Y-65080000D01*
X135300000Y-65200000D02*
X135300000Y-65840000D01*
X135540000Y-65600000D02*
X141320000Y-65600000D01*
X135540000Y-58860000D02*
X141320000Y-58860000D01*
X135300000Y-65840000D02*
X135700000Y-65840000D01*
X141320000Y-58860000D02*
X141320000Y-65600000D01*
X135540000Y-59980000D02*
X141320000Y-59980000D01*
X135540000Y-58860000D02*
X135540000Y-65600000D01*
%TO.C,J3*%
X112440000Y-82350000D02*
X112840000Y-82350000D01*
X112680000Y-75370000D02*
X126080000Y-75370000D01*
X112680000Y-76490000D02*
X126080000Y-76490000D01*
X112680000Y-82110000D02*
X126080000Y-82110000D01*
X112440000Y-81710000D02*
X112440000Y-82350000D01*
X112680000Y-75370000D02*
X112680000Y-82110000D01*
X112680000Y-81590000D02*
X126080000Y-81590000D01*
X126080000Y-75370000D02*
X126080000Y-82110000D01*
%TO.C,J2*%
X97435000Y-75370000D02*
X97435000Y-82110000D01*
X97435000Y-75370000D02*
X108296000Y-75370000D01*
X97195000Y-82350000D02*
X97595000Y-82350000D01*
X97435000Y-76490000D02*
X108296000Y-76490000D01*
X97195000Y-81710000D02*
X97195000Y-82350000D01*
X97435000Y-82110000D02*
X108296000Y-82110000D01*
X108296000Y-75370000D02*
X108296000Y-82110000D01*
X97435000Y-81590000D02*
X108296000Y-81590000D01*
%TD*%
M02*
