%TF.GenerationSoftware,KiCad,Pcbnew,(6.0.2)*%
%TF.CreationDate,2022-02-22T20:29:11+01:00*%
%TF.ProjectId,tapa,74617061-2e6b-4696-9361-645f70636258,rev?*%
%TF.SameCoordinates,Original*%
%TF.FileFunction,Soldermask,Top*%
%TF.FilePolarity,Negative*%
%FSLAX46Y46*%
G04 Gerber Fmt 4.6, Leading zero omitted, Abs format (unit mm)*
G04 Created by KiCad (PCBNEW (6.0.2)) date 2022-02-22 20:29:11*
%MOMM*%
%LPD*%
G01*
G04 APERTURE LIST*
%ADD10R,2.100000X2.100000*%
%ADD11C,2.100000*%
%ADD12C,5.600000*%
%ADD13C,2.000000*%
G04 APERTURE END LIST*
D10*
%TO.C,SW3*%
X100330000Y-59690000D03*
D11*
X102870000Y-59690000D03*
X105410000Y-59690000D03*
X107950000Y-59690000D03*
X110490000Y-59690000D03*
X113030000Y-59690000D03*
%TD*%
D12*
%TO.C,H3*%
X71688161Y-84856054D03*
%TD*%
%TO.C,H4*%
X151688161Y-84856054D03*
%TD*%
D10*
%TO.C,J4*%
X128270000Y-80645000D03*
D11*
X130810000Y-80645000D03*
X133350000Y-80645000D03*
%TD*%
D12*
%TO.C,H1*%
X71688161Y-54856054D03*
%TD*%
D10*
%TO.C,J1*%
X88900000Y-80650000D03*
D11*
X91440000Y-80650000D03*
X93980000Y-80650000D03*
%TD*%
D10*
%TO.C,SW6*%
X134620000Y-59690000D03*
D11*
X137160000Y-59690000D03*
%TD*%
D12*
%TO.C,H2*%
X151688161Y-54856054D03*
%TD*%
D10*
%TO.C,J5*%
X86355000Y-59695000D03*
D11*
X88895000Y-59695000D03*
X91435000Y-59695000D03*
X93975000Y-59695000D03*
%TD*%
D10*
%TO.C,SW4*%
X119380000Y-59690000D03*
D11*
X121920000Y-59690000D03*
%TD*%
D10*
%TO.C,SW5*%
X127000000Y-59690000D03*
D11*
X129540000Y-59690000D03*
%TD*%
D10*
%TO.C,J2*%
X100325000Y-80645000D03*
D11*
X102865000Y-80645000D03*
X105405000Y-80645000D03*
X107945000Y-80645000D03*
%TD*%
D10*
%TO.C,J3*%
X114295000Y-80645000D03*
D11*
X116835000Y-80645000D03*
X119375000Y-80645000D03*
X121915000Y-80645000D03*
%TD*%
D13*
%TO.C,SW2*%
X146610000Y-67600000D03*
X153110000Y-67600000D03*
X153110000Y-72100000D03*
X146610000Y-72100000D03*
%TD*%
%TO.C,SW1*%
X70410000Y-67600000D03*
X76910000Y-67600000D03*
X76910000Y-72100000D03*
X70410000Y-72100000D03*
%TD*%
M02*
