%TF.GenerationSoftware,KiCad,Pcbnew,(6.0.2)*%
%TF.CreationDate,2022-02-22T20:29:11+01:00*%
%TF.ProjectId,tapa,74617061-2e6b-4696-9361-645f70636258,rev?*%
%TF.SameCoordinates,Original*%
%TF.FileFunction,Copper,L2,Bot*%
%TF.FilePolarity,Positive*%
%FSLAX46Y46*%
G04 Gerber Fmt 4.6, Leading zero omitted, Abs format (unit mm)*
G04 Created by KiCad (PCBNEW (6.0.2)) date 2022-02-22 20:29:11*
%MOMM*%
%LPD*%
G01*
G04 APERTURE LIST*
%TA.AperFunction,ComponentPad*%
%ADD10R,2.100000X2.100000*%
%TD*%
%TA.AperFunction,ComponentPad*%
%ADD11C,2.100000*%
%TD*%
%TA.AperFunction,ComponentPad*%
%ADD12C,5.600000*%
%TD*%
%TA.AperFunction,ComponentPad*%
%ADD13C,2.000000*%
%TD*%
%TA.AperFunction,Conductor*%
%ADD14C,0.250000*%
%TD*%
%TA.AperFunction,Conductor*%
%ADD15C,0.500000*%
%TD*%
G04 APERTURE END LIST*
D10*
%TO.P,SW3,1,B*%
%TO.N,GND*%
X100330000Y-59690000D03*
D11*
%TO.P,SW3,2,A*%
%TO.N,UP*%
X102870000Y-59690000D03*
%TO.P,SW3,3,C*%
%TO.N,DOWN*%
X105410000Y-59690000D03*
%TO.P,SW3,4,A*%
%TO.N,AVANCE*%
X107950000Y-59690000D03*
%TO.P,SW3,5,B*%
%TO.N,MICRO24V*%
X110490000Y-59690000D03*
%TO.P,SW3,6,C*%
%TO.N,RETROCESO*%
X113030000Y-59690000D03*
%TD*%
D12*
%TO.P,H3,1,1*%
%TO.N,GND*%
X71688161Y-84856054D03*
%TD*%
%TO.P,H4,1,1*%
%TO.N,GND*%
X151688161Y-84856054D03*
%TD*%
D10*
%TO.P,J4,1,Pin_1*%
%TO.N,LR24V*%
X128270000Y-80645000D03*
D11*
%TO.P,J4,2,Pin_2*%
%TO.N,MICRO24V*%
X130810000Y-80645000D03*
%TO.P,J4,3,Pin_3*%
%TO.N,EMER24V*%
X133350000Y-80645000D03*
%TD*%
D12*
%TO.P,H1,1,1*%
%TO.N,GND*%
X71688161Y-54856054D03*
%TD*%
D10*
%TO.P,J1,1,Pin_1*%
%TO.N,GND*%
X88900000Y-80650000D03*
D11*
%TO.P,J1,2,Pin_2*%
%TO.N,+5V*%
X91440000Y-80650000D03*
%TO.P,J1,3,Pin_3*%
%TO.N,+24V*%
X93980000Y-80650000D03*
%TD*%
D10*
%TO.P,SW6,1*%
%TO.N,EMER24V*%
X134620000Y-59690000D03*
D11*
%TO.P,SW6,2*%
%TO.N,+24V*%
X137160000Y-59690000D03*
%TD*%
D12*
%TO.P,H2,1,1*%
%TO.N,GND*%
X151688161Y-54856054D03*
%TD*%
D10*
%TO.P,J5,1,Pin_1*%
%TO.N,GND*%
X86355000Y-59695000D03*
D11*
%TO.P,J5,2,Pin_2*%
%TO.N,+5V*%
X88895000Y-59695000D03*
%TO.P,J5,3,Pin_3*%
%TO.N,SDA*%
X91435000Y-59695000D03*
%TO.P,J5,4,Pin_4*%
%TO.N,SCL*%
X93975000Y-59695000D03*
%TD*%
D10*
%TO.P,SW4,1*%
%TO.N,LR24V*%
X119380000Y-59690000D03*
D11*
%TO.P,SW4,2*%
%TO.N,+24V*%
X121920000Y-59690000D03*
%TD*%
D10*
%TO.P,SW5,1*%
%TO.N,MICRO24V*%
X127000000Y-59690000D03*
D11*
%TO.P,SW5,2*%
%TO.N,+24V*%
X129540000Y-59690000D03*
%TD*%
D10*
%TO.P,J2,1,Pin_1*%
%TO.N,ENTER*%
X100325000Y-80645000D03*
D11*
%TO.P,J2,2,Pin_2*%
%TO.N,ESC*%
X102865000Y-80645000D03*
%TO.P,J2,3,Pin_3*%
%TO.N,SDA*%
X105405000Y-80645000D03*
%TO.P,J2,4,Pin_4*%
%TO.N,SCL*%
X107945000Y-80645000D03*
%TD*%
D10*
%TO.P,J3,1,Pin_1*%
%TO.N,UP*%
X114295000Y-80645000D03*
D11*
%TO.P,J3,2,Pin_2*%
%TO.N,DOWN*%
X116835000Y-80645000D03*
%TO.P,J3,3,Pin_3*%
%TO.N,AVANCE*%
X119375000Y-80645000D03*
%TO.P,J3,4,Pin_4*%
%TO.N,RETROCESO*%
X121915000Y-80645000D03*
%TD*%
D13*
%TO.P,SW2,1,1*%
%TO.N,GND*%
X146610000Y-67600000D03*
X153110000Y-67600000D03*
%TO.P,SW2,2,2*%
%TO.N,ESC*%
X153110000Y-72100000D03*
X146610000Y-72100000D03*
%TD*%
%TO.P,SW1,1,1*%
%TO.N,GND*%
X70410000Y-67600000D03*
X76910000Y-67600000D03*
%TO.P,SW1,2,2*%
%TO.N,ENTER*%
X76910000Y-72100000D03*
X70410000Y-72100000D03*
%TD*%
D14*
%TO.N,+5V*%
X88895000Y-59695000D02*
X88895000Y-66035000D01*
X91440000Y-68580000D02*
X91440000Y-80650000D01*
X88895000Y-66035000D02*
X91440000Y-68580000D01*
D15*
%TO.N,+24V*%
X129754924Y-68580000D02*
X137160000Y-61174924D01*
X93980000Y-72390000D02*
X97790000Y-68580000D01*
X121920000Y-63500000D02*
X121920000Y-59690000D01*
X116840000Y-68580000D02*
X121920000Y-63500000D01*
X122134924Y-68580000D02*
X129754924Y-68580000D01*
X97790000Y-68580000D02*
X116840000Y-68580000D01*
X122134924Y-68580000D02*
X129540000Y-61174924D01*
X116840000Y-68580000D02*
X122134924Y-68580000D01*
X137160000Y-61174924D02*
X137160000Y-59690000D01*
X129540000Y-61174924D02*
X129540000Y-59690000D01*
X93980000Y-80650000D02*
X93980000Y-72390000D01*
%TD*%
%TA.AperFunction,Conductor*%
%TO.N,GND*%
G36*
X70282681Y-51648002D02*
G01*
X70329174Y-51701658D01*
X70339278Y-51771932D01*
X70309784Y-51836512D01*
X70267211Y-51868472D01*
X70146195Y-51924133D01*
X70140152Y-51927319D01*
X69838562Y-52107817D01*
X69832916Y-52111625D01*
X69552569Y-52323650D01*
X69547372Y-52328041D01*
X69546133Y-52329209D01*
X69538111Y-52342916D01*
X69538147Y-52343758D01*
X69543198Y-52351880D01*
X71675351Y-54484034D01*
X71689292Y-54491646D01*
X71691127Y-54491515D01*
X71697741Y-54487264D01*
X73830959Y-52354045D01*
X73838573Y-52340101D01*
X73838505Y-52339143D01*
X73833997Y-52332326D01*
X73832579Y-52331119D01*
X73552974Y-52118118D01*
X73547348Y-52114294D01*
X73246375Y-51932735D01*
X73240363Y-51929538D01*
X73108411Y-51868288D01*
X73055045Y-51821463D01*
X73035464Y-51753220D01*
X73055888Y-51685225D01*
X73109830Y-51639065D01*
X73161462Y-51628000D01*
X150214560Y-51628000D01*
X150282681Y-51648002D01*
X150329174Y-51701658D01*
X150339278Y-51771932D01*
X150309784Y-51836512D01*
X150267211Y-51868472D01*
X150146195Y-51924133D01*
X150140152Y-51927319D01*
X149838562Y-52107817D01*
X149832916Y-52111625D01*
X149552569Y-52323650D01*
X149547372Y-52328041D01*
X149546133Y-52329209D01*
X149538111Y-52342916D01*
X149538147Y-52343758D01*
X149543198Y-52351880D01*
X151675351Y-54484034D01*
X151689292Y-54491646D01*
X151691127Y-54491515D01*
X151697741Y-54487264D01*
X153830959Y-52354045D01*
X153838573Y-52340101D01*
X153838505Y-52339143D01*
X153833997Y-52332326D01*
X153832579Y-52331119D01*
X153552974Y-52118118D01*
X153547348Y-52114294D01*
X153246375Y-51932735D01*
X153240363Y-51929538D01*
X153108411Y-51868288D01*
X153055045Y-51821463D01*
X153035464Y-51753220D01*
X153055888Y-51685225D01*
X153109830Y-51639065D01*
X153161462Y-51628000D01*
X155406000Y-51628000D01*
X155474121Y-51648002D01*
X155520614Y-51701658D01*
X155532000Y-51754000D01*
X155532000Y-87946000D01*
X155511998Y-88014121D01*
X155458342Y-88060614D01*
X155406000Y-88072000D01*
X153188740Y-88072000D01*
X153120619Y-88051998D01*
X153074126Y-87998342D01*
X153064022Y-87928068D01*
X153093516Y-87863488D01*
X153136489Y-87831345D01*
X153219879Y-87793342D01*
X153225938Y-87790175D01*
X153528156Y-87610730D01*
X153533820Y-87606938D01*
X153814893Y-87395903D01*
X153820119Y-87391518D01*
X153829774Y-87382482D01*
X153837843Y-87368804D01*
X153837815Y-87368078D01*
X153832673Y-87359777D01*
X151700971Y-85228074D01*
X151687030Y-85220462D01*
X151685195Y-85220593D01*
X151678581Y-85224844D01*
X149544935Y-87358491D01*
X149537321Y-87372435D01*
X149537398Y-87373524D01*
X149539859Y-87377260D01*
X149813793Y-87587458D01*
X149819423Y-87591313D01*
X150119752Y-87773916D01*
X150125754Y-87777134D01*
X150242663Y-87831898D01*
X150295866Y-87878908D01*
X150315208Y-87947219D01*
X150294548Y-88015143D01*
X150240445Y-88061115D01*
X150189214Y-88072000D01*
X73188740Y-88072000D01*
X73120619Y-88051998D01*
X73074126Y-87998342D01*
X73064022Y-87928068D01*
X73093516Y-87863488D01*
X73136489Y-87831345D01*
X73219879Y-87793342D01*
X73225938Y-87790175D01*
X73528156Y-87610730D01*
X73533820Y-87606938D01*
X73814893Y-87395903D01*
X73820119Y-87391518D01*
X73829774Y-87382482D01*
X73837843Y-87368804D01*
X73837815Y-87368078D01*
X73832673Y-87359777D01*
X71700971Y-85228074D01*
X71687030Y-85220462D01*
X71685195Y-85220593D01*
X71678581Y-85224844D01*
X69544935Y-87358491D01*
X69537321Y-87372435D01*
X69537398Y-87373524D01*
X69539859Y-87377260D01*
X69813793Y-87587458D01*
X69819423Y-87591313D01*
X70119752Y-87773916D01*
X70125754Y-87777134D01*
X70242663Y-87831898D01*
X70295866Y-87878908D01*
X70315208Y-87947219D01*
X70294548Y-88015143D01*
X70240445Y-88061115D01*
X70189214Y-88072000D01*
X67309000Y-88072000D01*
X67240879Y-88051998D01*
X67194386Y-87998342D01*
X67183000Y-87946000D01*
X67183000Y-84847886D01*
X68375494Y-84847886D01*
X68393278Y-85198947D01*
X68393988Y-85205703D01*
X68449581Y-85552777D01*
X68451020Y-85559432D01*
X68543769Y-85898464D01*
X68545918Y-85904925D01*
X68674742Y-86231966D01*
X68677573Y-86238149D01*
X68840964Y-86549364D01*
X68844447Y-86555206D01*
X69040491Y-86846950D01*
X69044594Y-86852394D01*
X69164586Y-86994890D01*
X69177325Y-87003333D01*
X69187769Y-86997235D01*
X71316141Y-84868864D01*
X71322518Y-84857185D01*
X72052569Y-84857185D01*
X72052700Y-84859020D01*
X72056951Y-84865634D01*
X74187170Y-86995852D01*
X74200766Y-87003277D01*
X74210379Y-86996576D01*
X74310679Y-86879966D01*
X74314837Y-86874568D01*
X74513923Y-86584894D01*
X74517471Y-86579083D01*
X74684103Y-86269613D01*
X74687010Y-86263435D01*
X74819251Y-85937767D01*
X74821465Y-85931337D01*
X74917759Y-85593291D01*
X74919266Y-85586661D01*
X74978493Y-85240172D01*
X74979273Y-85233432D01*
X75000829Y-84880979D01*
X75000945Y-84877377D01*
X75001014Y-84857873D01*
X75000922Y-84854248D01*
X75000577Y-84847886D01*
X148375494Y-84847886D01*
X148393278Y-85198947D01*
X148393988Y-85205703D01*
X148449581Y-85552777D01*
X148451020Y-85559432D01*
X148543769Y-85898464D01*
X148545918Y-85904925D01*
X148674742Y-86231966D01*
X148677573Y-86238149D01*
X148840964Y-86549364D01*
X148844447Y-86555206D01*
X149040491Y-86846950D01*
X149044594Y-86852394D01*
X149164586Y-86994890D01*
X149177325Y-87003333D01*
X149187769Y-86997235D01*
X151316141Y-84868864D01*
X151322518Y-84857185D01*
X152052569Y-84857185D01*
X152052700Y-84859020D01*
X152056951Y-84865634D01*
X154187170Y-86995852D01*
X154200766Y-87003277D01*
X154210379Y-86996576D01*
X154310679Y-86879966D01*
X154314837Y-86874568D01*
X154513923Y-86584894D01*
X154517471Y-86579083D01*
X154684103Y-86269613D01*
X154687010Y-86263435D01*
X154819251Y-85937767D01*
X154821465Y-85931337D01*
X154917759Y-85593291D01*
X154919266Y-85586661D01*
X154978493Y-85240172D01*
X154979273Y-85233432D01*
X155000829Y-84880979D01*
X155000945Y-84877377D01*
X155001014Y-84857873D01*
X155000922Y-84854248D01*
X154981827Y-84501669D01*
X154981092Y-84494903D01*
X154924291Y-84148039D01*
X154922824Y-84141367D01*
X154828897Y-83802681D01*
X154826723Y-83796217D01*
X154696759Y-83469632D01*
X154693903Y-83463452D01*
X154529430Y-83152817D01*
X154525930Y-83146991D01*
X154328858Y-82855916D01*
X154324751Y-82850507D01*
X154211726Y-82717233D01*
X154198901Y-82708797D01*
X154188577Y-82714849D01*
X152060181Y-84843244D01*
X152052569Y-84857185D01*
X151322518Y-84857185D01*
X151323753Y-84854923D01*
X151323622Y-84853088D01*
X151319371Y-84846474D01*
X149189153Y-82716257D01*
X149175616Y-82708865D01*
X149165914Y-82715653D01*
X149058591Y-82841311D01*
X149054457Y-82846718D01*
X148856376Y-83137095D01*
X148852858Y-83142905D01*
X148687295Y-83452976D01*
X148684420Y-83459141D01*
X148553316Y-83785272D01*
X148551123Y-83791712D01*
X148456007Y-84130098D01*
X148454524Y-84136733D01*
X148396511Y-84483408D01*
X148395752Y-84490180D01*
X148375518Y-84841091D01*
X148375494Y-84847886D01*
X75000577Y-84847886D01*
X74981827Y-84501669D01*
X74981092Y-84494903D01*
X74924291Y-84148039D01*
X74922824Y-84141367D01*
X74828897Y-83802681D01*
X74826723Y-83796217D01*
X74696759Y-83469632D01*
X74693903Y-83463452D01*
X74529430Y-83152817D01*
X74525930Y-83146991D01*
X74328858Y-82855916D01*
X74324751Y-82850507D01*
X74211726Y-82717233D01*
X74198901Y-82708797D01*
X74188577Y-82714849D01*
X72060181Y-84843244D01*
X72052569Y-84857185D01*
X71322518Y-84857185D01*
X71323753Y-84854923D01*
X71323622Y-84853088D01*
X71319371Y-84846474D01*
X69189153Y-82716257D01*
X69175616Y-82708865D01*
X69165914Y-82715653D01*
X69058591Y-82841311D01*
X69054457Y-82846718D01*
X68856376Y-83137095D01*
X68852858Y-83142905D01*
X68687295Y-83452976D01*
X68684420Y-83459141D01*
X68553316Y-83785272D01*
X68551123Y-83791712D01*
X68456007Y-84130098D01*
X68454524Y-84136733D01*
X68396511Y-84483408D01*
X68395752Y-84490180D01*
X68375518Y-84841091D01*
X68375494Y-84847886D01*
X67183000Y-84847886D01*
X67183000Y-82342916D01*
X69538111Y-82342916D01*
X69538147Y-82343758D01*
X69543198Y-82351880D01*
X71675351Y-84484034D01*
X71689292Y-84491646D01*
X71691127Y-84491515D01*
X71697741Y-84487264D01*
X73830959Y-82354045D01*
X73837036Y-82342916D01*
X149538111Y-82342916D01*
X149538147Y-82343758D01*
X149543198Y-82351880D01*
X151675351Y-84484034D01*
X151689292Y-84491646D01*
X151691127Y-84491515D01*
X151697741Y-84487264D01*
X153830959Y-82354045D01*
X153838573Y-82340101D01*
X153838505Y-82339143D01*
X153833997Y-82332326D01*
X153832579Y-82331119D01*
X153552974Y-82118118D01*
X153547348Y-82114294D01*
X153246375Y-81932735D01*
X153240363Y-81929538D01*
X152921531Y-81781541D01*
X152915231Y-81779021D01*
X152582290Y-81666327D01*
X152575712Y-81664491D01*
X152232578Y-81588421D01*
X152225839Y-81587305D01*
X151876471Y-81548734D01*
X151869690Y-81548355D01*
X151518176Y-81547741D01*
X151511403Y-81548096D01*
X151161881Y-81585449D01*
X151155171Y-81586536D01*
X150811747Y-81661415D01*
X150805172Y-81663226D01*
X150471844Y-81774756D01*
X150465522Y-81777259D01*
X150146195Y-81924133D01*
X150140152Y-81927319D01*
X149838562Y-82107817D01*
X149832916Y-82111625D01*
X149552569Y-82323650D01*
X149547372Y-82328041D01*
X149546133Y-82329209D01*
X149538111Y-82342916D01*
X73837036Y-82342916D01*
X73838573Y-82340101D01*
X73838505Y-82339143D01*
X73833997Y-82332326D01*
X73832579Y-82331119D01*
X73552974Y-82118118D01*
X73547348Y-82114294D01*
X73246375Y-81932735D01*
X73240363Y-81929538D01*
X72921531Y-81781541D01*
X72915231Y-81779021D01*
X72813742Y-81744669D01*
X87342001Y-81744669D01*
X87342371Y-81751490D01*
X87347895Y-81802352D01*
X87351521Y-81817604D01*
X87396676Y-81938054D01*
X87405214Y-81953649D01*
X87481715Y-82055724D01*
X87494276Y-82068285D01*
X87596351Y-82144786D01*
X87611946Y-82153324D01*
X87732394Y-82198478D01*
X87747649Y-82202105D01*
X87798514Y-82207631D01*
X87805328Y-82208000D01*
X88627885Y-82208000D01*
X88643124Y-82203525D01*
X88644329Y-82202135D01*
X88646000Y-82194452D01*
X88646000Y-80922115D01*
X88641525Y-80906876D01*
X88640135Y-80905671D01*
X88632452Y-80904000D01*
X87360116Y-80904000D01*
X87344877Y-80908475D01*
X87343672Y-80909865D01*
X87342001Y-80917548D01*
X87342001Y-81744669D01*
X72813742Y-81744669D01*
X72582290Y-81666327D01*
X72575712Y-81664491D01*
X72232578Y-81588421D01*
X72225839Y-81587305D01*
X71876471Y-81548734D01*
X71869690Y-81548355D01*
X71518176Y-81547741D01*
X71511403Y-81548096D01*
X71161881Y-81585449D01*
X71155171Y-81586536D01*
X70811747Y-81661415D01*
X70805172Y-81663226D01*
X70471844Y-81774756D01*
X70465522Y-81777259D01*
X70146195Y-81924133D01*
X70140152Y-81927319D01*
X69838562Y-82107817D01*
X69832916Y-82111625D01*
X69552569Y-82323650D01*
X69547372Y-82328041D01*
X69546133Y-82329209D01*
X69538111Y-82342916D01*
X67183000Y-82342916D01*
X67183000Y-80377885D01*
X87342000Y-80377885D01*
X87346475Y-80393124D01*
X87347865Y-80394329D01*
X87355548Y-80396000D01*
X88627885Y-80396000D01*
X88643124Y-80391525D01*
X88644329Y-80390135D01*
X88646000Y-80382452D01*
X88646000Y-79110116D01*
X88641525Y-79094877D01*
X88640135Y-79093672D01*
X88632452Y-79092001D01*
X87805331Y-79092001D01*
X87798510Y-79092371D01*
X87747648Y-79097895D01*
X87732396Y-79101521D01*
X87611946Y-79146676D01*
X87596351Y-79155214D01*
X87494276Y-79231715D01*
X87481715Y-79244276D01*
X87405214Y-79346351D01*
X87396676Y-79361946D01*
X87351522Y-79482394D01*
X87347895Y-79497649D01*
X87342369Y-79548514D01*
X87342000Y-79555328D01*
X87342000Y-80377885D01*
X67183000Y-80377885D01*
X67183000Y-72100000D01*
X68896835Y-72100000D01*
X68915465Y-72336711D01*
X68970895Y-72567594D01*
X68972788Y-72572165D01*
X68972789Y-72572167D01*
X69027471Y-72704181D01*
X69061760Y-72786963D01*
X69064346Y-72791183D01*
X69183241Y-72985202D01*
X69183245Y-72985208D01*
X69185824Y-72989416D01*
X69340031Y-73169969D01*
X69520584Y-73324176D01*
X69524792Y-73326755D01*
X69524798Y-73326759D01*
X69718817Y-73445654D01*
X69723037Y-73448240D01*
X69727607Y-73450133D01*
X69727611Y-73450135D01*
X69937833Y-73537211D01*
X69942406Y-73539105D01*
X70022609Y-73558360D01*
X70168476Y-73593380D01*
X70168482Y-73593381D01*
X70173289Y-73594535D01*
X70410000Y-73613165D01*
X70646711Y-73594535D01*
X70651518Y-73593381D01*
X70651524Y-73593380D01*
X70797391Y-73558360D01*
X70877594Y-73539105D01*
X70882167Y-73537211D01*
X71092389Y-73450135D01*
X71092393Y-73450133D01*
X71096963Y-73448240D01*
X71101183Y-73445654D01*
X71295202Y-73326759D01*
X71295208Y-73326755D01*
X71299416Y-73324176D01*
X71479969Y-73169969D01*
X71634176Y-72989416D01*
X71636755Y-72985208D01*
X71636759Y-72985202D01*
X71755654Y-72791183D01*
X71758240Y-72786963D01*
X71792530Y-72704181D01*
X71847211Y-72572167D01*
X71847212Y-72572165D01*
X71849105Y-72567594D01*
X71904535Y-72336711D01*
X71923165Y-72100000D01*
X75396835Y-72100000D01*
X75415465Y-72336711D01*
X75470895Y-72567594D01*
X75472788Y-72572165D01*
X75472789Y-72572167D01*
X75527471Y-72704181D01*
X75561760Y-72786963D01*
X75564346Y-72791183D01*
X75683241Y-72985202D01*
X75683245Y-72985208D01*
X75685824Y-72989416D01*
X75840031Y-73169969D01*
X76020584Y-73324176D01*
X76024792Y-73326755D01*
X76024798Y-73326759D01*
X76218817Y-73445654D01*
X76223037Y-73448240D01*
X76227607Y-73450133D01*
X76227611Y-73450135D01*
X76437833Y-73537211D01*
X76442406Y-73539105D01*
X76522609Y-73558360D01*
X76668476Y-73593380D01*
X76668482Y-73593381D01*
X76673289Y-73594535D01*
X76910000Y-73613165D01*
X77146711Y-73594535D01*
X77151518Y-73593381D01*
X77151524Y-73593380D01*
X77297391Y-73558360D01*
X77377594Y-73539105D01*
X77382167Y-73537211D01*
X77592389Y-73450135D01*
X77592393Y-73450133D01*
X77596963Y-73448240D01*
X77601183Y-73445654D01*
X77795202Y-73326759D01*
X77795208Y-73326755D01*
X77799416Y-73324176D01*
X77979969Y-73169969D01*
X78134176Y-72989416D01*
X78136755Y-72985208D01*
X78136759Y-72985202D01*
X78255654Y-72791183D01*
X78258240Y-72786963D01*
X78292530Y-72704181D01*
X78347211Y-72572167D01*
X78347212Y-72572165D01*
X78349105Y-72567594D01*
X78404535Y-72336711D01*
X78423165Y-72100000D01*
X78404535Y-71863289D01*
X78398242Y-71837073D01*
X78350260Y-71637218D01*
X78349105Y-71632406D01*
X78258240Y-71413037D01*
X78255654Y-71408817D01*
X78136759Y-71214798D01*
X78136755Y-71214792D01*
X78134176Y-71210584D01*
X77979969Y-71030031D01*
X77799416Y-70875824D01*
X77795208Y-70873245D01*
X77795202Y-70873241D01*
X77601183Y-70754346D01*
X77596963Y-70751760D01*
X77592393Y-70749867D01*
X77592389Y-70749865D01*
X77382167Y-70662789D01*
X77382165Y-70662788D01*
X77377594Y-70660895D01*
X77297391Y-70641640D01*
X77151524Y-70606620D01*
X77151518Y-70606619D01*
X77146711Y-70605465D01*
X76910000Y-70586835D01*
X76673289Y-70605465D01*
X76668482Y-70606619D01*
X76668476Y-70606620D01*
X76522609Y-70641640D01*
X76442406Y-70660895D01*
X76437835Y-70662788D01*
X76437833Y-70662789D01*
X76227611Y-70749865D01*
X76227607Y-70749867D01*
X76223037Y-70751760D01*
X76218817Y-70754346D01*
X76024798Y-70873241D01*
X76024792Y-70873245D01*
X76020584Y-70875824D01*
X75840031Y-71030031D01*
X75685824Y-71210584D01*
X75683245Y-71214792D01*
X75683241Y-71214798D01*
X75564346Y-71408817D01*
X75561760Y-71413037D01*
X75470895Y-71632406D01*
X75469740Y-71637218D01*
X75421759Y-71837073D01*
X75415465Y-71863289D01*
X75396835Y-72100000D01*
X71923165Y-72100000D01*
X71904535Y-71863289D01*
X71898242Y-71837073D01*
X71850260Y-71637218D01*
X71849105Y-71632406D01*
X71758240Y-71413037D01*
X71755654Y-71408817D01*
X71636759Y-71214798D01*
X71636755Y-71214792D01*
X71634176Y-71210584D01*
X71479969Y-71030031D01*
X71299416Y-70875824D01*
X71295208Y-70873245D01*
X71295202Y-70873241D01*
X71101183Y-70754346D01*
X71096963Y-70751760D01*
X71092393Y-70749867D01*
X71092389Y-70749865D01*
X70882167Y-70662789D01*
X70882165Y-70662788D01*
X70877594Y-70660895D01*
X70797391Y-70641640D01*
X70651524Y-70606620D01*
X70651518Y-70606619D01*
X70646711Y-70605465D01*
X70410000Y-70586835D01*
X70173289Y-70605465D01*
X70168482Y-70606619D01*
X70168476Y-70606620D01*
X70022609Y-70641640D01*
X69942406Y-70660895D01*
X69937835Y-70662788D01*
X69937833Y-70662789D01*
X69727611Y-70749865D01*
X69727607Y-70749867D01*
X69723037Y-70751760D01*
X69718817Y-70754346D01*
X69524798Y-70873241D01*
X69524792Y-70873245D01*
X69520584Y-70875824D01*
X69340031Y-71030031D01*
X69185824Y-71210584D01*
X69183245Y-71214792D01*
X69183241Y-71214798D01*
X69064346Y-71408817D01*
X69061760Y-71413037D01*
X68970895Y-71632406D01*
X68969740Y-71637218D01*
X68921759Y-71837073D01*
X68915465Y-71863289D01*
X68896835Y-72100000D01*
X67183000Y-72100000D01*
X67183000Y-68832670D01*
X69542160Y-68832670D01*
X69547887Y-68840320D01*
X69719042Y-68945205D01*
X69727837Y-68949687D01*
X69937988Y-69036734D01*
X69947373Y-69039783D01*
X70168554Y-69092885D01*
X70178301Y-69094428D01*
X70405070Y-69112275D01*
X70414930Y-69112275D01*
X70641699Y-69094428D01*
X70651446Y-69092885D01*
X70872627Y-69039783D01*
X70882012Y-69036734D01*
X71092163Y-68949687D01*
X71100958Y-68945205D01*
X71268445Y-68842568D01*
X71277400Y-68832670D01*
X76042160Y-68832670D01*
X76047887Y-68840320D01*
X76219042Y-68945205D01*
X76227837Y-68949687D01*
X76437988Y-69036734D01*
X76447373Y-69039783D01*
X76668554Y-69092885D01*
X76678301Y-69094428D01*
X76905070Y-69112275D01*
X76914930Y-69112275D01*
X77141699Y-69094428D01*
X77151446Y-69092885D01*
X77372627Y-69039783D01*
X77382012Y-69036734D01*
X77592163Y-68949687D01*
X77600958Y-68945205D01*
X77768445Y-68842568D01*
X77777907Y-68832110D01*
X77774124Y-68823334D01*
X76922812Y-67972022D01*
X76908868Y-67964408D01*
X76907035Y-67964539D01*
X76900420Y-67968790D01*
X76048920Y-68820290D01*
X76042160Y-68832670D01*
X71277400Y-68832670D01*
X71277907Y-68832110D01*
X71274124Y-68823334D01*
X70422812Y-67972022D01*
X70408868Y-67964408D01*
X70407035Y-67964539D01*
X70400420Y-67968790D01*
X69548920Y-68820290D01*
X69542160Y-68832670D01*
X67183000Y-68832670D01*
X67183000Y-67604930D01*
X68897725Y-67604930D01*
X68915572Y-67831699D01*
X68917115Y-67841446D01*
X68970217Y-68062627D01*
X68973266Y-68072012D01*
X69060313Y-68282163D01*
X69064795Y-68290958D01*
X69167432Y-68458445D01*
X69177890Y-68467907D01*
X69186666Y-68464124D01*
X70037978Y-67612812D01*
X70044356Y-67601132D01*
X70774408Y-67601132D01*
X70774539Y-67602965D01*
X70778790Y-67609580D01*
X71630290Y-68461080D01*
X71642670Y-68467840D01*
X71650320Y-68462113D01*
X71755205Y-68290958D01*
X71759687Y-68282163D01*
X71846734Y-68072012D01*
X71849783Y-68062627D01*
X71902885Y-67841446D01*
X71904428Y-67831699D01*
X71922275Y-67604930D01*
X75397725Y-67604930D01*
X75415572Y-67831699D01*
X75417115Y-67841446D01*
X75470217Y-68062627D01*
X75473266Y-68072012D01*
X75560313Y-68282163D01*
X75564795Y-68290958D01*
X75667432Y-68458445D01*
X75677890Y-68467907D01*
X75686666Y-68464124D01*
X76537978Y-67612812D01*
X76544356Y-67601132D01*
X77274408Y-67601132D01*
X77274539Y-67602965D01*
X77278790Y-67609580D01*
X78130290Y-68461080D01*
X78142670Y-68467840D01*
X78150320Y-68462113D01*
X78255205Y-68290958D01*
X78259687Y-68282163D01*
X78346734Y-68072012D01*
X78349783Y-68062627D01*
X78402885Y-67841446D01*
X78404428Y-67831699D01*
X78422275Y-67604930D01*
X78422275Y-67595070D01*
X78404428Y-67368301D01*
X78402885Y-67358554D01*
X78349783Y-67137373D01*
X78346734Y-67127988D01*
X78259687Y-66917837D01*
X78255205Y-66909042D01*
X78152568Y-66741555D01*
X78142110Y-66732093D01*
X78133334Y-66735876D01*
X77282022Y-67587188D01*
X77274408Y-67601132D01*
X76544356Y-67601132D01*
X76545592Y-67598868D01*
X76545461Y-67597035D01*
X76541210Y-67590420D01*
X75689710Y-66738920D01*
X75677330Y-66732160D01*
X75669680Y-66737887D01*
X75564795Y-66909042D01*
X75560313Y-66917837D01*
X75473266Y-67127988D01*
X75470217Y-67137373D01*
X75417115Y-67358554D01*
X75415572Y-67368301D01*
X75397725Y-67595070D01*
X75397725Y-67604930D01*
X71922275Y-67604930D01*
X71922275Y-67595070D01*
X71904428Y-67368301D01*
X71902885Y-67358554D01*
X71849783Y-67137373D01*
X71846734Y-67127988D01*
X71759687Y-66917837D01*
X71755205Y-66909042D01*
X71652568Y-66741555D01*
X71642110Y-66732093D01*
X71633334Y-66735876D01*
X70782022Y-67587188D01*
X70774408Y-67601132D01*
X70044356Y-67601132D01*
X70045592Y-67598868D01*
X70045461Y-67597035D01*
X70041210Y-67590420D01*
X69189710Y-66738920D01*
X69177330Y-66732160D01*
X69169680Y-66737887D01*
X69064795Y-66909042D01*
X69060313Y-66917837D01*
X68973266Y-67127988D01*
X68970217Y-67137373D01*
X68917115Y-67358554D01*
X68915572Y-67368301D01*
X68897725Y-67595070D01*
X68897725Y-67604930D01*
X67183000Y-67604930D01*
X67183000Y-66367890D01*
X69542093Y-66367890D01*
X69545876Y-66376666D01*
X70397188Y-67227978D01*
X70411132Y-67235592D01*
X70412965Y-67235461D01*
X70419580Y-67231210D01*
X71271080Y-66379710D01*
X71277534Y-66367890D01*
X76042093Y-66367890D01*
X76045876Y-66376666D01*
X76897188Y-67227978D01*
X76911132Y-67235592D01*
X76912965Y-67235461D01*
X76919580Y-67231210D01*
X77771080Y-66379710D01*
X77777840Y-66367330D01*
X77772113Y-66359680D01*
X77600958Y-66254795D01*
X77592163Y-66250313D01*
X77382012Y-66163266D01*
X77372627Y-66160217D01*
X77151446Y-66107115D01*
X77141699Y-66105572D01*
X76914930Y-66087725D01*
X76905070Y-66087725D01*
X76678301Y-66105572D01*
X76668554Y-66107115D01*
X76447373Y-66160217D01*
X76437988Y-66163266D01*
X76227837Y-66250313D01*
X76219042Y-66254795D01*
X76051555Y-66357432D01*
X76042093Y-66367890D01*
X71277534Y-66367890D01*
X71277840Y-66367330D01*
X71272113Y-66359680D01*
X71100958Y-66254795D01*
X71092163Y-66250313D01*
X70882012Y-66163266D01*
X70872627Y-66160217D01*
X70651446Y-66107115D01*
X70641699Y-66105572D01*
X70414930Y-66087725D01*
X70405070Y-66087725D01*
X70178301Y-66105572D01*
X70168554Y-66107115D01*
X69947373Y-66160217D01*
X69937988Y-66163266D01*
X69727837Y-66250313D01*
X69719042Y-66254795D01*
X69551555Y-66357432D01*
X69542093Y-66367890D01*
X67183000Y-66367890D01*
X67183000Y-60789669D01*
X84797001Y-60789669D01*
X84797371Y-60796490D01*
X84802895Y-60847352D01*
X84806521Y-60862604D01*
X84851676Y-60983054D01*
X84860214Y-60998649D01*
X84936715Y-61100724D01*
X84949276Y-61113285D01*
X85051351Y-61189786D01*
X85066946Y-61198324D01*
X85187394Y-61243478D01*
X85202649Y-61247105D01*
X85253514Y-61252631D01*
X85260328Y-61253000D01*
X86082885Y-61253000D01*
X86098124Y-61248525D01*
X86099329Y-61247135D01*
X86101000Y-61239452D01*
X86101000Y-61234884D01*
X86609000Y-61234884D01*
X86613475Y-61250123D01*
X86614865Y-61251328D01*
X86622548Y-61252999D01*
X87449669Y-61252999D01*
X87456490Y-61252629D01*
X87507352Y-61247105D01*
X87522604Y-61243479D01*
X87643054Y-61198324D01*
X87658649Y-61189786D01*
X87760724Y-61113285D01*
X87773281Y-61100728D01*
X87840698Y-61010773D01*
X87897558Y-60968258D01*
X87968376Y-60963232D01*
X88007359Y-60978905D01*
X88051632Y-61006035D01*
X88185268Y-61087927D01*
X88189846Y-61089823D01*
X88192703Y-61091279D01*
X88244318Y-61140027D01*
X88261500Y-61203546D01*
X88261500Y-65956233D01*
X88260973Y-65967416D01*
X88259298Y-65974909D01*
X88259547Y-65982835D01*
X88259547Y-65982836D01*
X88261438Y-66042986D01*
X88261500Y-66046945D01*
X88261500Y-66074856D01*
X88261997Y-66078790D01*
X88261997Y-66078791D01*
X88262005Y-66078856D01*
X88262938Y-66090693D01*
X88264327Y-66134889D01*
X88269978Y-66154339D01*
X88273987Y-66173700D01*
X88276526Y-66193797D01*
X88279445Y-66201168D01*
X88279445Y-66201170D01*
X88292804Y-66234912D01*
X88296649Y-66246142D01*
X88308982Y-66288593D01*
X88313015Y-66295412D01*
X88313017Y-66295417D01*
X88319293Y-66306028D01*
X88327988Y-66323776D01*
X88335448Y-66342617D01*
X88340110Y-66349033D01*
X88340110Y-66349034D01*
X88361436Y-66378387D01*
X88367952Y-66388307D01*
X88390458Y-66426362D01*
X88404779Y-66440683D01*
X88417619Y-66455716D01*
X88429528Y-66472107D01*
X88435634Y-66477158D01*
X88463605Y-66500298D01*
X88472384Y-66508288D01*
X90769595Y-68805499D01*
X90803621Y-68867811D01*
X90806500Y-68894594D01*
X90806500Y-79141454D01*
X90786498Y-79209575D01*
X90737703Y-79253721D01*
X90734846Y-79255177D01*
X90730268Y-79257073D01*
X90726044Y-79259662D01*
X90726043Y-79259662D01*
X90552359Y-79366095D01*
X90483826Y-79384633D01*
X90416149Y-79363176D01*
X90385698Y-79334227D01*
X90318281Y-79244272D01*
X90305724Y-79231715D01*
X90203649Y-79155214D01*
X90188054Y-79146676D01*
X90067606Y-79101522D01*
X90052351Y-79097895D01*
X90001486Y-79092369D01*
X89994672Y-79092000D01*
X89172115Y-79092000D01*
X89156876Y-79096475D01*
X89155671Y-79097865D01*
X89154000Y-79105548D01*
X89154000Y-82189884D01*
X89158475Y-82205123D01*
X89159865Y-82206328D01*
X89167548Y-82207999D01*
X89994669Y-82207999D01*
X90001490Y-82207629D01*
X90052352Y-82202105D01*
X90067604Y-82198479D01*
X90188054Y-82153324D01*
X90203649Y-82144786D01*
X90305724Y-82068285D01*
X90318281Y-82055728D01*
X90385698Y-81965773D01*
X90442558Y-81923258D01*
X90513376Y-81918232D01*
X90552359Y-81933905D01*
X90730268Y-82042927D01*
X90874967Y-82102864D01*
X90952335Y-82134911D01*
X90952337Y-82134912D01*
X90956908Y-82136805D01*
X91025715Y-82153324D01*
X91190630Y-82192917D01*
X91190636Y-82192918D01*
X91195443Y-82194072D01*
X91440000Y-82213319D01*
X91684557Y-82194072D01*
X91689364Y-82192918D01*
X91689370Y-82192917D01*
X91854285Y-82153324D01*
X91923092Y-82136805D01*
X91927663Y-82134912D01*
X91927665Y-82134911D01*
X92005033Y-82102864D01*
X92149732Y-82042927D01*
X92285485Y-81959738D01*
X92354670Y-81917342D01*
X92354673Y-81917340D01*
X92358896Y-81914752D01*
X92364751Y-81909752D01*
X92541677Y-81758641D01*
X92545433Y-81755433D01*
X92614189Y-81674931D01*
X92673640Y-81636122D01*
X92744635Y-81635616D01*
X92805811Y-81674931D01*
X92874567Y-81755433D01*
X92878323Y-81758641D01*
X93055250Y-81909752D01*
X93061104Y-81914752D01*
X93065327Y-81917340D01*
X93065330Y-81917342D01*
X93134515Y-81959738D01*
X93270268Y-82042927D01*
X93414967Y-82102864D01*
X93492335Y-82134911D01*
X93492337Y-82134912D01*
X93496908Y-82136805D01*
X93565715Y-82153324D01*
X93730630Y-82192917D01*
X93730636Y-82192918D01*
X93735443Y-82194072D01*
X93980000Y-82213319D01*
X94224557Y-82194072D01*
X94229364Y-82192918D01*
X94229370Y-82192917D01*
X94394285Y-82153324D01*
X94463092Y-82136805D01*
X94467663Y-82134912D01*
X94467665Y-82134911D01*
X94545033Y-82102864D01*
X94689732Y-82042927D01*
X94825485Y-81959738D01*
X94894670Y-81917342D01*
X94894673Y-81917340D01*
X94898896Y-81914752D01*
X94904751Y-81909752D01*
X95081677Y-81758641D01*
X95085433Y-81755433D01*
X95095937Y-81743134D01*
X98766500Y-81743134D01*
X98773255Y-81805316D01*
X98824385Y-81941705D01*
X98911739Y-82058261D01*
X99028295Y-82145615D01*
X99164684Y-82196745D01*
X99226866Y-82203500D01*
X101423134Y-82203500D01*
X101485316Y-82196745D01*
X101621705Y-82145615D01*
X101738261Y-82058261D01*
X101811128Y-81961035D01*
X101867988Y-81918521D01*
X101938806Y-81913496D01*
X101977789Y-81929168D01*
X102155268Y-82037927D01*
X102299967Y-82097864D01*
X102377335Y-82129911D01*
X102377337Y-82129912D01*
X102381908Y-82131805D01*
X102402735Y-82136805D01*
X102615630Y-82187917D01*
X102615636Y-82187918D01*
X102620443Y-82189072D01*
X102865000Y-82208319D01*
X103109557Y-82189072D01*
X103114364Y-82187918D01*
X103114370Y-82187917D01*
X103327265Y-82136805D01*
X103348092Y-82131805D01*
X103352663Y-82129912D01*
X103352665Y-82129911D01*
X103430033Y-82097864D01*
X103574732Y-82037927D01*
X103755229Y-81927319D01*
X103779670Y-81912342D01*
X103779673Y-81912340D01*
X103783896Y-81909752D01*
X103970433Y-81750433D01*
X103979585Y-81739717D01*
X104039189Y-81669931D01*
X104098640Y-81631122D01*
X104169635Y-81630616D01*
X104230811Y-81669931D01*
X104290415Y-81739717D01*
X104299567Y-81750433D01*
X104486104Y-81909752D01*
X104490327Y-81912340D01*
X104490330Y-81912342D01*
X104514771Y-81927319D01*
X104695268Y-82037927D01*
X104839967Y-82097864D01*
X104917335Y-82129911D01*
X104917337Y-82129912D01*
X104921908Y-82131805D01*
X104942735Y-82136805D01*
X105155630Y-82187917D01*
X105155636Y-82187918D01*
X105160443Y-82189072D01*
X105405000Y-82208319D01*
X105649557Y-82189072D01*
X105654364Y-82187918D01*
X105654370Y-82187917D01*
X105867265Y-82136805D01*
X105888092Y-82131805D01*
X105892663Y-82129912D01*
X105892665Y-82129911D01*
X105970033Y-82097864D01*
X106114732Y-82037927D01*
X106295229Y-81927319D01*
X106319670Y-81912342D01*
X106319673Y-81912340D01*
X106323896Y-81909752D01*
X106510433Y-81750433D01*
X106519585Y-81739717D01*
X106579189Y-81669931D01*
X106638640Y-81631122D01*
X106709635Y-81630616D01*
X106770811Y-81669931D01*
X106830415Y-81739717D01*
X106839567Y-81750433D01*
X107026104Y-81909752D01*
X107030327Y-81912340D01*
X107030330Y-81912342D01*
X107054771Y-81927319D01*
X107235268Y-82037927D01*
X107379967Y-82097864D01*
X107457335Y-82129911D01*
X107457337Y-82129912D01*
X107461908Y-82131805D01*
X107482735Y-82136805D01*
X107695630Y-82187917D01*
X107695636Y-82187918D01*
X107700443Y-82189072D01*
X107945000Y-82208319D01*
X108189557Y-82189072D01*
X108194364Y-82187918D01*
X108194370Y-82187917D01*
X108407265Y-82136805D01*
X108428092Y-82131805D01*
X108432663Y-82129912D01*
X108432665Y-82129911D01*
X108510033Y-82097864D01*
X108654732Y-82037927D01*
X108835229Y-81927319D01*
X108859670Y-81912342D01*
X108859673Y-81912340D01*
X108863896Y-81909752D01*
X109050433Y-81750433D01*
X109056667Y-81743134D01*
X112736500Y-81743134D01*
X112743255Y-81805316D01*
X112794385Y-81941705D01*
X112881739Y-82058261D01*
X112998295Y-82145615D01*
X113134684Y-82196745D01*
X113196866Y-82203500D01*
X115393134Y-82203500D01*
X115455316Y-82196745D01*
X115591705Y-82145615D01*
X115708261Y-82058261D01*
X115781128Y-81961035D01*
X115837988Y-81918521D01*
X115908806Y-81913496D01*
X115947789Y-81929168D01*
X116125268Y-82037927D01*
X116269967Y-82097864D01*
X116347335Y-82129911D01*
X116347337Y-82129912D01*
X116351908Y-82131805D01*
X116372735Y-82136805D01*
X116585630Y-82187917D01*
X116585636Y-82187918D01*
X116590443Y-82189072D01*
X116835000Y-82208319D01*
X117079557Y-82189072D01*
X117084364Y-82187918D01*
X117084370Y-82187917D01*
X117297265Y-82136805D01*
X117318092Y-82131805D01*
X117322663Y-82129912D01*
X117322665Y-82129911D01*
X117400033Y-82097864D01*
X117544732Y-82037927D01*
X117725229Y-81927319D01*
X117749670Y-81912342D01*
X117749673Y-81912340D01*
X117753896Y-81909752D01*
X117940433Y-81750433D01*
X117949585Y-81739717D01*
X118009189Y-81669931D01*
X118068640Y-81631122D01*
X118139635Y-81630616D01*
X118200811Y-81669931D01*
X118260415Y-81739717D01*
X118269567Y-81750433D01*
X118456104Y-81909752D01*
X118460327Y-81912340D01*
X118460330Y-81912342D01*
X118484771Y-81927319D01*
X118665268Y-82037927D01*
X118809967Y-82097864D01*
X118887335Y-82129911D01*
X118887337Y-82129912D01*
X118891908Y-82131805D01*
X118912735Y-82136805D01*
X119125630Y-82187917D01*
X119125636Y-82187918D01*
X119130443Y-82189072D01*
X119375000Y-82208319D01*
X119619557Y-82189072D01*
X119624364Y-82187918D01*
X119624370Y-82187917D01*
X119837265Y-82136805D01*
X119858092Y-82131805D01*
X119862663Y-82129912D01*
X119862665Y-82129911D01*
X119940033Y-82097864D01*
X120084732Y-82037927D01*
X120265229Y-81927319D01*
X120289670Y-81912342D01*
X120289673Y-81912340D01*
X120293896Y-81909752D01*
X120480433Y-81750433D01*
X120489585Y-81739717D01*
X120549189Y-81669931D01*
X120608640Y-81631122D01*
X120679635Y-81630616D01*
X120740811Y-81669931D01*
X120800415Y-81739717D01*
X120809567Y-81750433D01*
X120996104Y-81909752D01*
X121000327Y-81912340D01*
X121000330Y-81912342D01*
X121024771Y-81927319D01*
X121205268Y-82037927D01*
X121349967Y-82097864D01*
X121427335Y-82129911D01*
X121427337Y-82129912D01*
X121431908Y-82131805D01*
X121452735Y-82136805D01*
X121665630Y-82187917D01*
X121665636Y-82187918D01*
X121670443Y-82189072D01*
X121915000Y-82208319D01*
X122159557Y-82189072D01*
X122164364Y-82187918D01*
X122164370Y-82187917D01*
X122377265Y-82136805D01*
X122398092Y-82131805D01*
X122402663Y-82129912D01*
X122402665Y-82129911D01*
X122480033Y-82097864D01*
X122624732Y-82037927D01*
X122805229Y-81927319D01*
X122829670Y-81912342D01*
X122829673Y-81912340D01*
X122833896Y-81909752D01*
X123020433Y-81750433D01*
X123026667Y-81743134D01*
X126711500Y-81743134D01*
X126718255Y-81805316D01*
X126769385Y-81941705D01*
X126856739Y-82058261D01*
X126973295Y-82145615D01*
X127109684Y-82196745D01*
X127171866Y-82203500D01*
X129368134Y-82203500D01*
X129430316Y-82196745D01*
X129566705Y-82145615D01*
X129683261Y-82058261D01*
X129756128Y-81961035D01*
X129812988Y-81918521D01*
X129883806Y-81913496D01*
X129922789Y-81929168D01*
X130100268Y-82037927D01*
X130244967Y-82097864D01*
X130322335Y-82129911D01*
X130322337Y-82129912D01*
X130326908Y-82131805D01*
X130347735Y-82136805D01*
X130560630Y-82187917D01*
X130560636Y-82187918D01*
X130565443Y-82189072D01*
X130810000Y-82208319D01*
X131054557Y-82189072D01*
X131059364Y-82187918D01*
X131059370Y-82187917D01*
X131272265Y-82136805D01*
X131293092Y-82131805D01*
X131297663Y-82129912D01*
X131297665Y-82129911D01*
X131375033Y-82097864D01*
X131519732Y-82037927D01*
X131700229Y-81927319D01*
X131724670Y-81912342D01*
X131724673Y-81912340D01*
X131728896Y-81909752D01*
X131915433Y-81750433D01*
X131924585Y-81739717D01*
X131984189Y-81669931D01*
X132043640Y-81631122D01*
X132114635Y-81630616D01*
X132175811Y-81669931D01*
X132235415Y-81739717D01*
X132244567Y-81750433D01*
X132431104Y-81909752D01*
X132435327Y-81912340D01*
X132435330Y-81912342D01*
X132459771Y-81927319D01*
X132640268Y-82037927D01*
X132784967Y-82097864D01*
X132862335Y-82129911D01*
X132862337Y-82129912D01*
X132866908Y-82131805D01*
X132887735Y-82136805D01*
X133100630Y-82187917D01*
X133100636Y-82187918D01*
X133105443Y-82189072D01*
X133350000Y-82208319D01*
X133594557Y-82189072D01*
X133599364Y-82187918D01*
X133599370Y-82187917D01*
X133812265Y-82136805D01*
X133833092Y-82131805D01*
X133837663Y-82129912D01*
X133837665Y-82129911D01*
X133915033Y-82097864D01*
X134059732Y-82037927D01*
X134240229Y-81927319D01*
X134264670Y-81912342D01*
X134264673Y-81912340D01*
X134268896Y-81909752D01*
X134455433Y-81750433D01*
X134464585Y-81739717D01*
X134611535Y-81567663D01*
X134611537Y-81567660D01*
X134614752Y-81563896D01*
X134624276Y-81548355D01*
X134659738Y-81490485D01*
X134742927Y-81354732D01*
X134836805Y-81128092D01*
X134887352Y-80917548D01*
X134892917Y-80894370D01*
X134892918Y-80894364D01*
X134894072Y-80889557D01*
X134913319Y-80645000D01*
X134894072Y-80400443D01*
X134892605Y-80394329D01*
X134856649Y-80244563D01*
X134836805Y-80161908D01*
X134742927Y-79935268D01*
X134614752Y-79726104D01*
X134455433Y-79539567D01*
X134278517Y-79388465D01*
X134272663Y-79383465D01*
X134272660Y-79383463D01*
X134268896Y-79380248D01*
X134264673Y-79377660D01*
X134264670Y-79377658D01*
X134176825Y-79323827D01*
X134059732Y-79252073D01*
X133915033Y-79192136D01*
X133837665Y-79160089D01*
X133837663Y-79160088D01*
X133833092Y-79158195D01*
X133750437Y-79138351D01*
X133599370Y-79102083D01*
X133599364Y-79102082D01*
X133594557Y-79100928D01*
X133350000Y-79081681D01*
X133105443Y-79100928D01*
X133100636Y-79102082D01*
X133100630Y-79102083D01*
X132949563Y-79138351D01*
X132866908Y-79158195D01*
X132862337Y-79160088D01*
X132862335Y-79160089D01*
X132784967Y-79192136D01*
X132640268Y-79252073D01*
X132523175Y-79323827D01*
X132435330Y-79377658D01*
X132435327Y-79377660D01*
X132431104Y-79380248D01*
X132427340Y-79383463D01*
X132427337Y-79383465D01*
X132421483Y-79388465D01*
X132244567Y-79539567D01*
X132241359Y-79543323D01*
X132175811Y-79620069D01*
X132116360Y-79658878D01*
X132045365Y-79659384D01*
X131984189Y-79620069D01*
X131918641Y-79543323D01*
X131915433Y-79539567D01*
X131738517Y-79388465D01*
X131732663Y-79383465D01*
X131732660Y-79383463D01*
X131728896Y-79380248D01*
X131724673Y-79377660D01*
X131724670Y-79377658D01*
X131636825Y-79323827D01*
X131519732Y-79252073D01*
X131375033Y-79192136D01*
X131297665Y-79160089D01*
X131297663Y-79160088D01*
X131293092Y-79158195D01*
X131210437Y-79138351D01*
X131059370Y-79102083D01*
X131059364Y-79102082D01*
X131054557Y-79100928D01*
X130810000Y-79081681D01*
X130565443Y-79100928D01*
X130560636Y-79102082D01*
X130560630Y-79102083D01*
X130409563Y-79138351D01*
X130326908Y-79158195D01*
X130322337Y-79160088D01*
X130322335Y-79160089D01*
X130244967Y-79192136D01*
X130100268Y-79252073D01*
X129974791Y-79328965D01*
X129922788Y-79360832D01*
X129854255Y-79379370D01*
X129786578Y-79357913D01*
X129756128Y-79328965D01*
X129722814Y-79284515D01*
X129683261Y-79231739D01*
X129566705Y-79144385D01*
X129430316Y-79093255D01*
X129368134Y-79086500D01*
X127171866Y-79086500D01*
X127109684Y-79093255D01*
X126973295Y-79144385D01*
X126856739Y-79231739D01*
X126769385Y-79348295D01*
X126718255Y-79484684D01*
X126711500Y-79546866D01*
X126711500Y-81743134D01*
X123026667Y-81743134D01*
X123029585Y-81739717D01*
X123176535Y-81567663D01*
X123176537Y-81567660D01*
X123179752Y-81563896D01*
X123189276Y-81548355D01*
X123224738Y-81490485D01*
X123307927Y-81354732D01*
X123401805Y-81128092D01*
X123452352Y-80917548D01*
X123457917Y-80894370D01*
X123457918Y-80894364D01*
X123459072Y-80889557D01*
X123478319Y-80645000D01*
X123459072Y-80400443D01*
X123457605Y-80394329D01*
X123421649Y-80244563D01*
X123401805Y-80161908D01*
X123307927Y-79935268D01*
X123179752Y-79726104D01*
X123020433Y-79539567D01*
X122843517Y-79388465D01*
X122837663Y-79383465D01*
X122837660Y-79383463D01*
X122833896Y-79380248D01*
X122829673Y-79377660D01*
X122829670Y-79377658D01*
X122741825Y-79323827D01*
X122624732Y-79252073D01*
X122480033Y-79192136D01*
X122402665Y-79160089D01*
X122402663Y-79160088D01*
X122398092Y-79158195D01*
X122315437Y-79138351D01*
X122164370Y-79102083D01*
X122164364Y-79102082D01*
X122159557Y-79100928D01*
X121915000Y-79081681D01*
X121670443Y-79100928D01*
X121665636Y-79102082D01*
X121665630Y-79102083D01*
X121514563Y-79138351D01*
X121431908Y-79158195D01*
X121427337Y-79160088D01*
X121427335Y-79160089D01*
X121349967Y-79192136D01*
X121205268Y-79252073D01*
X121088175Y-79323827D01*
X121000330Y-79377658D01*
X121000327Y-79377660D01*
X120996104Y-79380248D01*
X120992340Y-79383463D01*
X120992337Y-79383465D01*
X120986483Y-79388465D01*
X120809567Y-79539567D01*
X120806359Y-79543323D01*
X120740811Y-79620069D01*
X120681360Y-79658878D01*
X120610365Y-79659384D01*
X120549189Y-79620069D01*
X120483641Y-79543323D01*
X120480433Y-79539567D01*
X120303517Y-79388465D01*
X120297663Y-79383465D01*
X120297660Y-79383463D01*
X120293896Y-79380248D01*
X120289673Y-79377660D01*
X120289670Y-79377658D01*
X120201825Y-79323827D01*
X120084732Y-79252073D01*
X119940033Y-79192136D01*
X119862665Y-79160089D01*
X119862663Y-79160088D01*
X119858092Y-79158195D01*
X119775437Y-79138351D01*
X119624370Y-79102083D01*
X119624364Y-79102082D01*
X119619557Y-79100928D01*
X119375000Y-79081681D01*
X119130443Y-79100928D01*
X119125636Y-79102082D01*
X119125630Y-79102083D01*
X118974563Y-79138351D01*
X118891908Y-79158195D01*
X118887337Y-79160088D01*
X118887335Y-79160089D01*
X118809967Y-79192136D01*
X118665268Y-79252073D01*
X118548175Y-79323827D01*
X118460330Y-79377658D01*
X118460327Y-79377660D01*
X118456104Y-79380248D01*
X118452340Y-79383463D01*
X118452337Y-79383465D01*
X118446483Y-79388465D01*
X118269567Y-79539567D01*
X118266359Y-79543323D01*
X118200811Y-79620069D01*
X118141360Y-79658878D01*
X118070365Y-79659384D01*
X118009189Y-79620069D01*
X117943641Y-79543323D01*
X117940433Y-79539567D01*
X117763517Y-79388465D01*
X117757663Y-79383465D01*
X117757660Y-79383463D01*
X117753896Y-79380248D01*
X117749673Y-79377660D01*
X117749670Y-79377658D01*
X117661825Y-79323827D01*
X117544732Y-79252073D01*
X117400033Y-79192136D01*
X117322665Y-79160089D01*
X117322663Y-79160088D01*
X117318092Y-79158195D01*
X117235437Y-79138351D01*
X117084370Y-79102083D01*
X117084364Y-79102082D01*
X117079557Y-79100928D01*
X116835000Y-79081681D01*
X116590443Y-79100928D01*
X116585636Y-79102082D01*
X116585630Y-79102083D01*
X116434563Y-79138351D01*
X116351908Y-79158195D01*
X116347337Y-79160088D01*
X116347335Y-79160089D01*
X116269967Y-79192136D01*
X116125268Y-79252073D01*
X115999791Y-79328965D01*
X115947788Y-79360832D01*
X115879255Y-79379370D01*
X115811578Y-79357913D01*
X115781128Y-79328965D01*
X115747814Y-79284515D01*
X115708261Y-79231739D01*
X115591705Y-79144385D01*
X115455316Y-79093255D01*
X115393134Y-79086500D01*
X113196866Y-79086500D01*
X113134684Y-79093255D01*
X112998295Y-79144385D01*
X112881739Y-79231739D01*
X112794385Y-79348295D01*
X112743255Y-79484684D01*
X112736500Y-79546866D01*
X112736500Y-81743134D01*
X109056667Y-81743134D01*
X109059585Y-81739717D01*
X109206535Y-81567663D01*
X109206537Y-81567660D01*
X109209752Y-81563896D01*
X109219276Y-81548355D01*
X109254738Y-81490485D01*
X109337927Y-81354732D01*
X109431805Y-81128092D01*
X109482352Y-80917548D01*
X109487917Y-80894370D01*
X109487918Y-80894364D01*
X109489072Y-80889557D01*
X109508319Y-80645000D01*
X109489072Y-80400443D01*
X109487605Y-80394329D01*
X109451649Y-80244563D01*
X109431805Y-80161908D01*
X109337927Y-79935268D01*
X109209752Y-79726104D01*
X109050433Y-79539567D01*
X108873517Y-79388465D01*
X108867663Y-79383465D01*
X108867660Y-79383463D01*
X108863896Y-79380248D01*
X108859673Y-79377660D01*
X108859670Y-79377658D01*
X108771825Y-79323827D01*
X108654732Y-79252073D01*
X108510033Y-79192136D01*
X108432665Y-79160089D01*
X108432663Y-79160088D01*
X108428092Y-79158195D01*
X108345437Y-79138351D01*
X108194370Y-79102083D01*
X108194364Y-79102082D01*
X108189557Y-79100928D01*
X107945000Y-79081681D01*
X107700443Y-79100928D01*
X107695636Y-79102082D01*
X107695630Y-79102083D01*
X107544563Y-79138351D01*
X107461908Y-79158195D01*
X107457337Y-79160088D01*
X107457335Y-79160089D01*
X107379967Y-79192136D01*
X107235268Y-79252073D01*
X107118175Y-79323827D01*
X107030330Y-79377658D01*
X107030327Y-79377660D01*
X107026104Y-79380248D01*
X107022340Y-79383463D01*
X107022337Y-79383465D01*
X107016483Y-79388465D01*
X106839567Y-79539567D01*
X106836359Y-79543323D01*
X106770811Y-79620069D01*
X106711360Y-79658878D01*
X106640365Y-79659384D01*
X106579189Y-79620069D01*
X106513641Y-79543323D01*
X106510433Y-79539567D01*
X106333517Y-79388465D01*
X106327663Y-79383465D01*
X106327660Y-79383463D01*
X106323896Y-79380248D01*
X106319673Y-79377660D01*
X106319670Y-79377658D01*
X106231825Y-79323827D01*
X106114732Y-79252073D01*
X105970033Y-79192136D01*
X105892665Y-79160089D01*
X105892663Y-79160088D01*
X105888092Y-79158195D01*
X105805437Y-79138351D01*
X105654370Y-79102083D01*
X105654364Y-79102082D01*
X105649557Y-79100928D01*
X105405000Y-79081681D01*
X105160443Y-79100928D01*
X105155636Y-79102082D01*
X105155630Y-79102083D01*
X105004563Y-79138351D01*
X104921908Y-79158195D01*
X104917337Y-79160088D01*
X104917335Y-79160089D01*
X104839967Y-79192136D01*
X104695268Y-79252073D01*
X104578175Y-79323827D01*
X104490330Y-79377658D01*
X104490327Y-79377660D01*
X104486104Y-79380248D01*
X104482340Y-79383463D01*
X104482337Y-79383465D01*
X104476483Y-79388465D01*
X104299567Y-79539567D01*
X104296359Y-79543323D01*
X104230811Y-79620069D01*
X104171360Y-79658878D01*
X104100365Y-79659384D01*
X104039189Y-79620069D01*
X103973641Y-79543323D01*
X103970433Y-79539567D01*
X103793517Y-79388465D01*
X103787663Y-79383465D01*
X103787660Y-79383463D01*
X103783896Y-79380248D01*
X103779673Y-79377660D01*
X103779670Y-79377658D01*
X103691825Y-79323827D01*
X103574732Y-79252073D01*
X103430033Y-79192136D01*
X103352665Y-79160089D01*
X103352663Y-79160088D01*
X103348092Y-79158195D01*
X103265437Y-79138351D01*
X103114370Y-79102083D01*
X103114364Y-79102082D01*
X103109557Y-79100928D01*
X102865000Y-79081681D01*
X102620443Y-79100928D01*
X102615636Y-79102082D01*
X102615630Y-79102083D01*
X102464563Y-79138351D01*
X102381908Y-79158195D01*
X102377337Y-79160088D01*
X102377335Y-79160089D01*
X102299967Y-79192136D01*
X102155268Y-79252073D01*
X102029791Y-79328965D01*
X101977788Y-79360832D01*
X101909255Y-79379370D01*
X101841578Y-79357913D01*
X101811128Y-79328965D01*
X101777814Y-79284515D01*
X101738261Y-79231739D01*
X101621705Y-79144385D01*
X101485316Y-79093255D01*
X101423134Y-79086500D01*
X99226866Y-79086500D01*
X99164684Y-79093255D01*
X99028295Y-79144385D01*
X98911739Y-79231739D01*
X98824385Y-79348295D01*
X98773255Y-79484684D01*
X98766500Y-79546866D01*
X98766500Y-81743134D01*
X95095937Y-81743134D01*
X95158459Y-81669931D01*
X95241535Y-81572663D01*
X95241537Y-81572660D01*
X95244752Y-81568896D01*
X95257340Y-81548355D01*
X95289738Y-81495485D01*
X95372927Y-81359732D01*
X95466805Y-81133092D01*
X95517456Y-80922115D01*
X95522917Y-80899370D01*
X95522918Y-80899364D01*
X95524072Y-80894557D01*
X95543319Y-80650000D01*
X95524072Y-80405443D01*
X95521717Y-80395630D01*
X95467960Y-80171720D01*
X95466805Y-80166908D01*
X95372927Y-79940268D01*
X95244752Y-79731104D01*
X95237265Y-79722337D01*
X95088641Y-79548323D01*
X95085433Y-79544567D01*
X95015320Y-79484684D01*
X94902663Y-79388465D01*
X94902660Y-79388463D01*
X94898896Y-79385248D01*
X94798665Y-79323827D01*
X94751034Y-79271179D01*
X94738500Y-79216394D01*
X94738500Y-72756371D01*
X94758502Y-72688250D01*
X94775405Y-72667276D01*
X95342681Y-72100000D01*
X145096835Y-72100000D01*
X145115465Y-72336711D01*
X145170895Y-72567594D01*
X145172788Y-72572165D01*
X145172789Y-72572167D01*
X145227471Y-72704181D01*
X145261760Y-72786963D01*
X145264346Y-72791183D01*
X145383241Y-72985202D01*
X145383245Y-72985208D01*
X145385824Y-72989416D01*
X145540031Y-73169969D01*
X145720584Y-73324176D01*
X145724792Y-73326755D01*
X145724798Y-73326759D01*
X145918817Y-73445654D01*
X145923037Y-73448240D01*
X145927607Y-73450133D01*
X145927611Y-73450135D01*
X146137833Y-73537211D01*
X146142406Y-73539105D01*
X146222609Y-73558360D01*
X146368476Y-73593380D01*
X146368482Y-73593381D01*
X146373289Y-73594535D01*
X146610000Y-73613165D01*
X146846711Y-73594535D01*
X146851518Y-73593381D01*
X146851524Y-73593380D01*
X146997391Y-73558360D01*
X147077594Y-73539105D01*
X147082167Y-73537211D01*
X147292389Y-73450135D01*
X147292393Y-73450133D01*
X147296963Y-73448240D01*
X147301183Y-73445654D01*
X147495202Y-73326759D01*
X147495208Y-73326755D01*
X147499416Y-73324176D01*
X147679969Y-73169969D01*
X147834176Y-72989416D01*
X147836755Y-72985208D01*
X147836759Y-72985202D01*
X147955654Y-72791183D01*
X147958240Y-72786963D01*
X147992530Y-72704181D01*
X148047211Y-72572167D01*
X148047212Y-72572165D01*
X148049105Y-72567594D01*
X148104535Y-72336711D01*
X148123165Y-72100000D01*
X151596835Y-72100000D01*
X151615465Y-72336711D01*
X151670895Y-72567594D01*
X151672788Y-72572165D01*
X151672789Y-72572167D01*
X151727471Y-72704181D01*
X151761760Y-72786963D01*
X151764346Y-72791183D01*
X151883241Y-72985202D01*
X151883245Y-72985208D01*
X151885824Y-72989416D01*
X152040031Y-73169969D01*
X152220584Y-73324176D01*
X152224792Y-73326755D01*
X152224798Y-73326759D01*
X152418817Y-73445654D01*
X152423037Y-73448240D01*
X152427607Y-73450133D01*
X152427611Y-73450135D01*
X152637833Y-73537211D01*
X152642406Y-73539105D01*
X152722609Y-73558360D01*
X152868476Y-73593380D01*
X152868482Y-73593381D01*
X152873289Y-73594535D01*
X153110000Y-73613165D01*
X153346711Y-73594535D01*
X153351518Y-73593381D01*
X153351524Y-73593380D01*
X153497391Y-73558360D01*
X153577594Y-73539105D01*
X153582167Y-73537211D01*
X153792389Y-73450135D01*
X153792393Y-73450133D01*
X153796963Y-73448240D01*
X153801183Y-73445654D01*
X153995202Y-73326759D01*
X153995208Y-73326755D01*
X153999416Y-73324176D01*
X154179969Y-73169969D01*
X154334176Y-72989416D01*
X154336755Y-72985208D01*
X154336759Y-72985202D01*
X154455654Y-72791183D01*
X154458240Y-72786963D01*
X154492530Y-72704181D01*
X154547211Y-72572167D01*
X154547212Y-72572165D01*
X154549105Y-72567594D01*
X154604535Y-72336711D01*
X154623165Y-72100000D01*
X154604535Y-71863289D01*
X154598242Y-71837073D01*
X154550260Y-71637218D01*
X154549105Y-71632406D01*
X154458240Y-71413037D01*
X154455654Y-71408817D01*
X154336759Y-71214798D01*
X154336755Y-71214792D01*
X154334176Y-71210584D01*
X154179969Y-71030031D01*
X153999416Y-70875824D01*
X153995208Y-70873245D01*
X153995202Y-70873241D01*
X153801183Y-70754346D01*
X153796963Y-70751760D01*
X153792393Y-70749867D01*
X153792389Y-70749865D01*
X153582167Y-70662789D01*
X153582165Y-70662788D01*
X153577594Y-70660895D01*
X153497391Y-70641640D01*
X153351524Y-70606620D01*
X153351518Y-70606619D01*
X153346711Y-70605465D01*
X153110000Y-70586835D01*
X152873289Y-70605465D01*
X152868482Y-70606619D01*
X152868476Y-70606620D01*
X152722609Y-70641640D01*
X152642406Y-70660895D01*
X152637835Y-70662788D01*
X152637833Y-70662789D01*
X152427611Y-70749865D01*
X152427607Y-70749867D01*
X152423037Y-70751760D01*
X152418817Y-70754346D01*
X152224798Y-70873241D01*
X152224792Y-70873245D01*
X152220584Y-70875824D01*
X152040031Y-71030031D01*
X151885824Y-71210584D01*
X151883245Y-71214792D01*
X151883241Y-71214798D01*
X151764346Y-71408817D01*
X151761760Y-71413037D01*
X151670895Y-71632406D01*
X151669740Y-71637218D01*
X151621759Y-71837073D01*
X151615465Y-71863289D01*
X151596835Y-72100000D01*
X148123165Y-72100000D01*
X148104535Y-71863289D01*
X148098242Y-71837073D01*
X148050260Y-71637218D01*
X148049105Y-71632406D01*
X147958240Y-71413037D01*
X147955654Y-71408817D01*
X147836759Y-71214798D01*
X147836755Y-71214792D01*
X147834176Y-71210584D01*
X147679969Y-71030031D01*
X147499416Y-70875824D01*
X147495208Y-70873245D01*
X147495202Y-70873241D01*
X147301183Y-70754346D01*
X147296963Y-70751760D01*
X147292393Y-70749867D01*
X147292389Y-70749865D01*
X147082167Y-70662789D01*
X147082165Y-70662788D01*
X147077594Y-70660895D01*
X146997391Y-70641640D01*
X146851524Y-70606620D01*
X146851518Y-70606619D01*
X146846711Y-70605465D01*
X146610000Y-70586835D01*
X146373289Y-70605465D01*
X146368482Y-70606619D01*
X146368476Y-70606620D01*
X146222609Y-70641640D01*
X146142406Y-70660895D01*
X146137835Y-70662788D01*
X146137833Y-70662789D01*
X145927611Y-70749865D01*
X145927607Y-70749867D01*
X145923037Y-70751760D01*
X145918817Y-70754346D01*
X145724798Y-70873241D01*
X145724792Y-70873245D01*
X145720584Y-70875824D01*
X145540031Y-71030031D01*
X145385824Y-71210584D01*
X145383245Y-71214792D01*
X145383241Y-71214798D01*
X145264346Y-71408817D01*
X145261760Y-71413037D01*
X145170895Y-71632406D01*
X145169740Y-71637218D01*
X145121759Y-71837073D01*
X145115465Y-71863289D01*
X145096835Y-72100000D01*
X95342681Y-72100000D01*
X98067276Y-69375405D01*
X98129588Y-69341379D01*
X98156371Y-69338500D01*
X116772930Y-69338500D01*
X116791880Y-69339933D01*
X116806115Y-69342099D01*
X116806119Y-69342099D01*
X116813349Y-69343199D01*
X116820641Y-69342606D01*
X116820644Y-69342606D01*
X116866018Y-69338915D01*
X116876233Y-69338500D01*
X122067854Y-69338500D01*
X122086804Y-69339933D01*
X122101039Y-69342099D01*
X122101043Y-69342099D01*
X122108273Y-69343199D01*
X122115565Y-69342606D01*
X122115568Y-69342606D01*
X122160942Y-69338915D01*
X122171157Y-69338500D01*
X129687854Y-69338500D01*
X129706804Y-69339933D01*
X129721039Y-69342099D01*
X129721043Y-69342099D01*
X129728273Y-69343199D01*
X129735565Y-69342606D01*
X129735568Y-69342606D01*
X129780942Y-69338915D01*
X129791157Y-69338500D01*
X129799217Y-69338500D01*
X129812507Y-69336951D01*
X129827431Y-69335211D01*
X129831806Y-69334778D01*
X129897263Y-69329454D01*
X129897266Y-69329453D01*
X129904561Y-69328860D01*
X129911525Y-69326604D01*
X129917484Y-69325413D01*
X129923339Y-69324029D01*
X129930605Y-69323182D01*
X129999251Y-69298265D01*
X130003379Y-69296848D01*
X130065860Y-69276607D01*
X130065862Y-69276606D01*
X130072823Y-69274351D01*
X130079078Y-69270555D01*
X130084552Y-69268049D01*
X130089982Y-69265330D01*
X130096861Y-69262833D01*
X130157900Y-69222814D01*
X130161604Y-69220477D01*
X130224031Y-69182595D01*
X130232408Y-69175197D01*
X130232432Y-69175224D01*
X130235424Y-69172571D01*
X130238657Y-69169868D01*
X130244776Y-69165856D01*
X130298052Y-69109617D01*
X130300430Y-69107175D01*
X130574935Y-68832670D01*
X145742160Y-68832670D01*
X145747887Y-68840320D01*
X145919042Y-68945205D01*
X145927837Y-68949687D01*
X146137988Y-69036734D01*
X146147373Y-69039783D01*
X146368554Y-69092885D01*
X146378301Y-69094428D01*
X146605070Y-69112275D01*
X146614930Y-69112275D01*
X146841699Y-69094428D01*
X146851446Y-69092885D01*
X147072627Y-69039783D01*
X147082012Y-69036734D01*
X147292163Y-68949687D01*
X147300958Y-68945205D01*
X147468445Y-68842568D01*
X147477400Y-68832670D01*
X152242160Y-68832670D01*
X152247887Y-68840320D01*
X152419042Y-68945205D01*
X152427837Y-68949687D01*
X152637988Y-69036734D01*
X152647373Y-69039783D01*
X152868554Y-69092885D01*
X152878301Y-69094428D01*
X153105070Y-69112275D01*
X153114930Y-69112275D01*
X153341699Y-69094428D01*
X153351446Y-69092885D01*
X153572627Y-69039783D01*
X153582012Y-69036734D01*
X153792163Y-68949687D01*
X153800958Y-68945205D01*
X153968445Y-68842568D01*
X153977907Y-68832110D01*
X153974124Y-68823334D01*
X153122812Y-67972022D01*
X153108868Y-67964408D01*
X153107035Y-67964539D01*
X153100420Y-67968790D01*
X152248920Y-68820290D01*
X152242160Y-68832670D01*
X147477400Y-68832670D01*
X147477907Y-68832110D01*
X147474124Y-68823334D01*
X146622812Y-67972022D01*
X146608868Y-67964408D01*
X146607035Y-67964539D01*
X146600420Y-67968790D01*
X145748920Y-68820290D01*
X145742160Y-68832670D01*
X130574935Y-68832670D01*
X131802675Y-67604930D01*
X145097725Y-67604930D01*
X145115572Y-67831699D01*
X145117115Y-67841446D01*
X145170217Y-68062627D01*
X145173266Y-68072012D01*
X145260313Y-68282163D01*
X145264795Y-68290958D01*
X145367432Y-68458445D01*
X145377890Y-68467907D01*
X145386666Y-68464124D01*
X146237978Y-67612812D01*
X146244356Y-67601132D01*
X146974408Y-67601132D01*
X146974539Y-67602965D01*
X146978790Y-67609580D01*
X147830290Y-68461080D01*
X147842670Y-68467840D01*
X147850320Y-68462113D01*
X147955205Y-68290958D01*
X147959687Y-68282163D01*
X148046734Y-68072012D01*
X148049783Y-68062627D01*
X148102885Y-67841446D01*
X148104428Y-67831699D01*
X148122275Y-67604930D01*
X151597725Y-67604930D01*
X151615572Y-67831699D01*
X151617115Y-67841446D01*
X151670217Y-68062627D01*
X151673266Y-68072012D01*
X151760313Y-68282163D01*
X151764795Y-68290958D01*
X151867432Y-68458445D01*
X151877890Y-68467907D01*
X151886666Y-68464124D01*
X152737978Y-67612812D01*
X152744356Y-67601132D01*
X153474408Y-67601132D01*
X153474539Y-67602965D01*
X153478790Y-67609580D01*
X154330290Y-68461080D01*
X154342670Y-68467840D01*
X154350320Y-68462113D01*
X154455205Y-68290958D01*
X154459687Y-68282163D01*
X154546734Y-68072012D01*
X154549783Y-68062627D01*
X154602885Y-67841446D01*
X154604428Y-67831699D01*
X154622275Y-67604930D01*
X154622275Y-67595070D01*
X154604428Y-67368301D01*
X154602885Y-67358554D01*
X154549783Y-67137373D01*
X154546734Y-67127988D01*
X154459687Y-66917837D01*
X154455205Y-66909042D01*
X154352568Y-66741555D01*
X154342110Y-66732093D01*
X154333334Y-66735876D01*
X153482022Y-67587188D01*
X153474408Y-67601132D01*
X152744356Y-67601132D01*
X152745592Y-67598868D01*
X152745461Y-67597035D01*
X152741210Y-67590420D01*
X151889710Y-66738920D01*
X151877330Y-66732160D01*
X151869680Y-66737887D01*
X151764795Y-66909042D01*
X151760313Y-66917837D01*
X151673266Y-67127988D01*
X151670217Y-67137373D01*
X151617115Y-67358554D01*
X151615572Y-67368301D01*
X151597725Y-67595070D01*
X151597725Y-67604930D01*
X148122275Y-67604930D01*
X148122275Y-67595070D01*
X148104428Y-67368301D01*
X148102885Y-67358554D01*
X148049783Y-67137373D01*
X148046734Y-67127988D01*
X147959687Y-66917837D01*
X147955205Y-66909042D01*
X147852568Y-66741555D01*
X147842110Y-66732093D01*
X147833334Y-66735876D01*
X146982022Y-67587188D01*
X146974408Y-67601132D01*
X146244356Y-67601132D01*
X146245592Y-67598868D01*
X146245461Y-67597035D01*
X146241210Y-67590420D01*
X145389710Y-66738920D01*
X145377330Y-66732160D01*
X145369680Y-66737887D01*
X145264795Y-66909042D01*
X145260313Y-66917837D01*
X145173266Y-67127988D01*
X145170217Y-67137373D01*
X145117115Y-67358554D01*
X145115572Y-67368301D01*
X145097725Y-67595070D01*
X145097725Y-67604930D01*
X131802675Y-67604930D01*
X133039715Y-66367890D01*
X145742093Y-66367890D01*
X145745876Y-66376666D01*
X146597188Y-67227978D01*
X146611132Y-67235592D01*
X146612965Y-67235461D01*
X146619580Y-67231210D01*
X147471080Y-66379710D01*
X147477534Y-66367890D01*
X152242093Y-66367890D01*
X152245876Y-66376666D01*
X153097188Y-67227978D01*
X153111132Y-67235592D01*
X153112965Y-67235461D01*
X153119580Y-67231210D01*
X153971080Y-66379710D01*
X153977840Y-66367330D01*
X153972113Y-66359680D01*
X153800958Y-66254795D01*
X153792163Y-66250313D01*
X153582012Y-66163266D01*
X153572627Y-66160217D01*
X153351446Y-66107115D01*
X153341699Y-66105572D01*
X153114930Y-66087725D01*
X153105070Y-66087725D01*
X152878301Y-66105572D01*
X152868554Y-66107115D01*
X152647373Y-66160217D01*
X152637988Y-66163266D01*
X152427837Y-66250313D01*
X152419042Y-66254795D01*
X152251555Y-66357432D01*
X152242093Y-66367890D01*
X147477534Y-66367890D01*
X147477840Y-66367330D01*
X147472113Y-66359680D01*
X147300958Y-66254795D01*
X147292163Y-66250313D01*
X147082012Y-66163266D01*
X147072627Y-66160217D01*
X146851446Y-66107115D01*
X146841699Y-66105572D01*
X146614930Y-66087725D01*
X146605070Y-66087725D01*
X146378301Y-66105572D01*
X146368554Y-66107115D01*
X146147373Y-66160217D01*
X146137988Y-66163266D01*
X145927837Y-66250313D01*
X145919042Y-66254795D01*
X145751555Y-66357432D01*
X145742093Y-66367890D01*
X133039715Y-66367890D01*
X137648911Y-61758694D01*
X137663323Y-61746308D01*
X137674918Y-61737775D01*
X137674923Y-61737770D01*
X137680818Y-61733432D01*
X137685557Y-61727854D01*
X137685560Y-61727851D01*
X137715035Y-61693156D01*
X137721965Y-61685640D01*
X137727660Y-61679945D01*
X137745281Y-61657673D01*
X137748072Y-61654269D01*
X137790591Y-61604221D01*
X137790592Y-61604219D01*
X137795333Y-61598639D01*
X137798661Y-61592123D01*
X137802028Y-61587074D01*
X137805195Y-61581945D01*
X137809734Y-61576208D01*
X137840655Y-61510049D01*
X137842561Y-61506149D01*
X137875769Y-61441116D01*
X137877508Y-61434008D01*
X137879607Y-61428365D01*
X137881524Y-61422602D01*
X137884622Y-61415974D01*
X137899487Y-61344507D01*
X137900457Y-61340223D01*
X137916473Y-61274769D01*
X137917808Y-61269314D01*
X137918500Y-61258160D01*
X137918536Y-61258162D01*
X137918775Y-61254169D01*
X137919149Y-61249977D01*
X137920640Y-61242809D01*
X137918546Y-61165403D01*
X137918500Y-61161996D01*
X137918500Y-61123606D01*
X137938502Y-61055485D01*
X137978665Y-61016173D01*
X137995209Y-61006035D01*
X138078896Y-60954752D01*
X138210499Y-60842352D01*
X138261677Y-60798641D01*
X138265433Y-60795433D01*
X138274626Y-60784669D01*
X138421535Y-60612663D01*
X138421537Y-60612660D01*
X138424752Y-60608896D01*
X138552927Y-60399732D01*
X138646805Y-60173092D01*
X138697456Y-59962115D01*
X138702917Y-59939370D01*
X138702918Y-59939364D01*
X138704072Y-59934557D01*
X138723319Y-59690000D01*
X138704072Y-59445443D01*
X138702605Y-59439329D01*
X138666649Y-59289563D01*
X138646805Y-59206908D01*
X138552927Y-58980268D01*
X138424752Y-58771104D01*
X138265433Y-58584567D01*
X138198493Y-58527394D01*
X138082663Y-58428465D01*
X138082660Y-58428463D01*
X138078896Y-58425248D01*
X138074673Y-58422660D01*
X138074670Y-58422658D01*
X137995209Y-58373965D01*
X137869732Y-58297073D01*
X137725033Y-58237136D01*
X137647665Y-58205089D01*
X137647663Y-58205088D01*
X137643092Y-58203195D01*
X137560437Y-58183351D01*
X137409370Y-58147083D01*
X137409364Y-58147082D01*
X137404557Y-58145928D01*
X137160000Y-58126681D01*
X136915443Y-58145928D01*
X136910636Y-58147082D01*
X136910630Y-58147083D01*
X136759563Y-58183351D01*
X136676908Y-58203195D01*
X136672337Y-58205088D01*
X136672335Y-58205089D01*
X136594967Y-58237136D01*
X136450268Y-58297073D01*
X136324791Y-58373965D01*
X136272788Y-58405832D01*
X136204255Y-58424370D01*
X136136578Y-58402913D01*
X136106128Y-58373965D01*
X136100918Y-58367013D01*
X136033261Y-58276739D01*
X135916705Y-58189385D01*
X135780316Y-58138255D01*
X135718134Y-58131500D01*
X133521866Y-58131500D01*
X133459684Y-58138255D01*
X133323295Y-58189385D01*
X133206739Y-58276739D01*
X133119385Y-58393295D01*
X133068255Y-58529684D01*
X133061500Y-58591866D01*
X133061500Y-60788134D01*
X133068255Y-60850316D01*
X133119385Y-60986705D01*
X133206739Y-61103261D01*
X133323295Y-61190615D01*
X133459684Y-61241745D01*
X133521866Y-61248500D01*
X135709553Y-61248500D01*
X135777674Y-61268502D01*
X135824167Y-61322158D01*
X135834271Y-61392432D01*
X135804777Y-61457012D01*
X135798648Y-61463595D01*
X129477648Y-67784595D01*
X129415336Y-67818621D01*
X129388553Y-67821500D01*
X124270295Y-67821500D01*
X124202174Y-67801498D01*
X124155681Y-67747842D01*
X124145577Y-67677568D01*
X124175071Y-67612988D01*
X124181200Y-67606405D01*
X130028911Y-61758694D01*
X130043323Y-61746308D01*
X130054918Y-61737775D01*
X130054923Y-61737770D01*
X130060818Y-61733432D01*
X130065557Y-61727854D01*
X130065560Y-61727851D01*
X130095035Y-61693156D01*
X130101965Y-61685640D01*
X130107660Y-61679945D01*
X130125281Y-61657673D01*
X130128072Y-61654269D01*
X130170591Y-61604221D01*
X130170592Y-61604219D01*
X130175333Y-61598639D01*
X130178661Y-61592123D01*
X130182028Y-61587074D01*
X130185195Y-61581945D01*
X130189734Y-61576208D01*
X130220655Y-61510049D01*
X130222561Y-61506149D01*
X130255769Y-61441116D01*
X130257508Y-61434008D01*
X130259607Y-61428365D01*
X130261524Y-61422602D01*
X130264622Y-61415974D01*
X130279487Y-61344507D01*
X130280457Y-61340223D01*
X130296473Y-61274769D01*
X130297808Y-61269314D01*
X130298500Y-61258160D01*
X130298536Y-61258162D01*
X130298775Y-61254169D01*
X130299149Y-61249977D01*
X130300640Y-61242809D01*
X130298546Y-61165403D01*
X130298500Y-61161996D01*
X130298500Y-61123606D01*
X130318502Y-61055485D01*
X130358665Y-61016173D01*
X130375209Y-61006035D01*
X130458896Y-60954752D01*
X130590499Y-60842352D01*
X130641677Y-60798641D01*
X130645433Y-60795433D01*
X130654626Y-60784669D01*
X130801535Y-60612663D01*
X130801537Y-60612660D01*
X130804752Y-60608896D01*
X130932927Y-60399732D01*
X131026805Y-60173092D01*
X131077456Y-59962115D01*
X131082917Y-59939370D01*
X131082918Y-59939364D01*
X131084072Y-59934557D01*
X131103319Y-59690000D01*
X131084072Y-59445443D01*
X131082605Y-59439329D01*
X131046649Y-59289563D01*
X131026805Y-59206908D01*
X130932927Y-58980268D01*
X130804752Y-58771104D01*
X130645433Y-58584567D01*
X130578493Y-58527394D01*
X130462663Y-58428465D01*
X130462660Y-58428463D01*
X130458896Y-58425248D01*
X130454673Y-58422660D01*
X130454670Y-58422658D01*
X130375209Y-58373965D01*
X130249732Y-58297073D01*
X130105033Y-58237136D01*
X130027665Y-58205089D01*
X130027663Y-58205088D01*
X130023092Y-58203195D01*
X129940437Y-58183351D01*
X129789370Y-58147083D01*
X129789364Y-58147082D01*
X129784557Y-58145928D01*
X129540000Y-58126681D01*
X129295443Y-58145928D01*
X129290636Y-58147082D01*
X129290630Y-58147083D01*
X129139563Y-58183351D01*
X129056908Y-58203195D01*
X129052337Y-58205088D01*
X129052335Y-58205089D01*
X128974967Y-58237136D01*
X128830268Y-58297073D01*
X128704791Y-58373965D01*
X128652788Y-58405832D01*
X128584255Y-58424370D01*
X128516578Y-58402913D01*
X128486128Y-58373965D01*
X128480918Y-58367013D01*
X128413261Y-58276739D01*
X128296705Y-58189385D01*
X128160316Y-58138255D01*
X128098134Y-58131500D01*
X125901866Y-58131500D01*
X125839684Y-58138255D01*
X125703295Y-58189385D01*
X125586739Y-58276739D01*
X125499385Y-58393295D01*
X125448255Y-58529684D01*
X125441500Y-58591866D01*
X125441500Y-60788134D01*
X125448255Y-60850316D01*
X125499385Y-60986705D01*
X125586739Y-61103261D01*
X125703295Y-61190615D01*
X125839684Y-61241745D01*
X125901866Y-61248500D01*
X128089553Y-61248500D01*
X128157674Y-61268502D01*
X128204167Y-61322158D01*
X128214271Y-61392432D01*
X128184777Y-61457012D01*
X128178648Y-61463595D01*
X121857648Y-67784595D01*
X121795336Y-67818621D01*
X121768553Y-67821500D01*
X118975371Y-67821500D01*
X118907250Y-67801498D01*
X118860757Y-67747842D01*
X118850653Y-67677568D01*
X118880147Y-67612988D01*
X118886276Y-67606405D01*
X122408911Y-64083770D01*
X122423323Y-64071384D01*
X122434918Y-64062851D01*
X122434923Y-64062846D01*
X122440818Y-64058508D01*
X122445557Y-64052930D01*
X122445560Y-64052927D01*
X122475035Y-64018232D01*
X122481965Y-64010716D01*
X122487660Y-64005021D01*
X122505281Y-63982749D01*
X122508072Y-63979345D01*
X122550591Y-63929297D01*
X122550592Y-63929295D01*
X122555333Y-63923715D01*
X122558661Y-63917199D01*
X122562028Y-63912150D01*
X122565195Y-63907021D01*
X122569734Y-63901284D01*
X122600655Y-63835125D01*
X122602561Y-63831225D01*
X122635769Y-63766192D01*
X122637508Y-63759084D01*
X122639607Y-63753441D01*
X122641524Y-63747678D01*
X122644622Y-63741050D01*
X122659487Y-63669583D01*
X122660457Y-63665299D01*
X122676473Y-63599845D01*
X122677808Y-63594390D01*
X122678500Y-63583236D01*
X122678536Y-63583238D01*
X122678775Y-63579245D01*
X122679149Y-63575053D01*
X122680640Y-63567885D01*
X122678546Y-63490479D01*
X122678500Y-63487072D01*
X122678500Y-61123606D01*
X122698502Y-61055485D01*
X122738665Y-61016173D01*
X122755209Y-61006035D01*
X122838896Y-60954752D01*
X122970499Y-60842352D01*
X123021677Y-60798641D01*
X123025433Y-60795433D01*
X123034626Y-60784669D01*
X123181535Y-60612663D01*
X123181537Y-60612660D01*
X123184752Y-60608896D01*
X123312927Y-60399732D01*
X123406805Y-60173092D01*
X123457456Y-59962115D01*
X123462917Y-59939370D01*
X123462918Y-59939364D01*
X123464072Y-59934557D01*
X123483319Y-59690000D01*
X123464072Y-59445443D01*
X123462605Y-59439329D01*
X123426649Y-59289563D01*
X123406805Y-59206908D01*
X123312927Y-58980268D01*
X123184752Y-58771104D01*
X123025433Y-58584567D01*
X122958493Y-58527394D01*
X122842663Y-58428465D01*
X122842660Y-58428463D01*
X122838896Y-58425248D01*
X122834673Y-58422660D01*
X122834670Y-58422658D01*
X122755209Y-58373965D01*
X122629732Y-58297073D01*
X122485033Y-58237136D01*
X122407665Y-58205089D01*
X122407663Y-58205088D01*
X122403092Y-58203195D01*
X122320437Y-58183351D01*
X122169370Y-58147083D01*
X122169364Y-58147082D01*
X122164557Y-58145928D01*
X121920000Y-58126681D01*
X121675443Y-58145928D01*
X121670636Y-58147082D01*
X121670630Y-58147083D01*
X121519563Y-58183351D01*
X121436908Y-58203195D01*
X121432337Y-58205088D01*
X121432335Y-58205089D01*
X121354967Y-58237136D01*
X121210268Y-58297073D01*
X121084791Y-58373965D01*
X121032788Y-58405832D01*
X120964255Y-58424370D01*
X120896578Y-58402913D01*
X120866128Y-58373965D01*
X120860918Y-58367013D01*
X120793261Y-58276739D01*
X120676705Y-58189385D01*
X120540316Y-58138255D01*
X120478134Y-58131500D01*
X118281866Y-58131500D01*
X118219684Y-58138255D01*
X118083295Y-58189385D01*
X117966739Y-58276739D01*
X117879385Y-58393295D01*
X117828255Y-58529684D01*
X117821500Y-58591866D01*
X117821500Y-60788134D01*
X117828255Y-60850316D01*
X117879385Y-60986705D01*
X117966739Y-61103261D01*
X118083295Y-61190615D01*
X118219684Y-61241745D01*
X118281866Y-61248500D01*
X120478134Y-61248500D01*
X120540316Y-61241745D01*
X120676705Y-61190615D01*
X120793261Y-61103261D01*
X120866128Y-61006035D01*
X120922988Y-60963521D01*
X120993806Y-60958496D01*
X121032787Y-60974167D01*
X121084791Y-61006035D01*
X121101335Y-61016173D01*
X121148966Y-61068821D01*
X121161500Y-61123606D01*
X121161500Y-63133629D01*
X121141498Y-63201750D01*
X121124595Y-63222724D01*
X116562724Y-67784595D01*
X116500412Y-67818621D01*
X116473629Y-67821500D01*
X97857070Y-67821500D01*
X97838120Y-67820067D01*
X97823885Y-67817901D01*
X97823881Y-67817901D01*
X97816651Y-67816801D01*
X97809359Y-67817394D01*
X97809356Y-67817394D01*
X97763982Y-67821085D01*
X97753767Y-67821500D01*
X97745707Y-67821500D01*
X97742073Y-67821924D01*
X97742067Y-67821924D01*
X97729042Y-67823443D01*
X97717480Y-67824791D01*
X97713132Y-67825221D01*
X97691059Y-67827016D01*
X97647662Y-67830546D01*
X97647659Y-67830547D01*
X97640364Y-67831140D01*
X97633400Y-67833396D01*
X97627461Y-67834583D01*
X97621590Y-67835970D01*
X97614319Y-67836818D01*
X97607443Y-67839314D01*
X97607434Y-67839316D01*
X97545702Y-67861725D01*
X97541598Y-67863135D01*
X97472101Y-67885648D01*
X97465846Y-67889444D01*
X97460387Y-67891943D01*
X97454939Y-67894671D01*
X97448063Y-67897167D01*
X97387010Y-67937195D01*
X97383327Y-67939519D01*
X97325686Y-67974496D01*
X97325682Y-67974499D01*
X97320893Y-67977405D01*
X97316694Y-67981114D01*
X97316689Y-67981117D01*
X97312516Y-67984803D01*
X97312492Y-67984776D01*
X97309500Y-67987429D01*
X97306267Y-67990132D01*
X97300148Y-67994144D01*
X97295116Y-67999456D01*
X97246872Y-68050383D01*
X97244494Y-68052825D01*
X93491089Y-71806230D01*
X93476677Y-71818616D01*
X93465082Y-71827149D01*
X93465077Y-71827154D01*
X93459182Y-71831492D01*
X93454443Y-71837070D01*
X93454440Y-71837073D01*
X93424965Y-71871768D01*
X93418035Y-71879284D01*
X93412340Y-71884979D01*
X93410060Y-71887861D01*
X93394719Y-71907251D01*
X93391928Y-71910655D01*
X93349409Y-71960703D01*
X93344667Y-71966285D01*
X93341339Y-71972801D01*
X93337972Y-71977850D01*
X93334805Y-71982979D01*
X93330266Y-71988716D01*
X93299345Y-72054875D01*
X93297442Y-72058769D01*
X93264231Y-72123808D01*
X93262492Y-72130916D01*
X93260393Y-72136559D01*
X93258476Y-72142322D01*
X93255378Y-72148950D01*
X93253888Y-72156112D01*
X93253888Y-72156113D01*
X93240514Y-72220412D01*
X93239544Y-72224696D01*
X93222192Y-72295610D01*
X93221500Y-72306764D01*
X93221464Y-72306762D01*
X93221225Y-72310755D01*
X93220851Y-72314947D01*
X93219360Y-72322115D01*
X93219558Y-72329432D01*
X93221454Y-72399521D01*
X93221500Y-72402928D01*
X93221500Y-79216394D01*
X93201498Y-79284515D01*
X93161335Y-79323827D01*
X93061104Y-79385248D01*
X93057340Y-79388463D01*
X93057337Y-79388465D01*
X92944680Y-79484684D01*
X92874567Y-79544567D01*
X92871359Y-79548323D01*
X92805811Y-79625069D01*
X92746360Y-79663878D01*
X92675365Y-79664384D01*
X92614189Y-79625069D01*
X92548641Y-79548323D01*
X92545433Y-79544567D01*
X92475320Y-79484684D01*
X92362663Y-79388465D01*
X92362660Y-79388463D01*
X92358896Y-79385248D01*
X92354673Y-79382660D01*
X92354670Y-79382658D01*
X92153957Y-79259662D01*
X92153956Y-79259662D01*
X92149732Y-79257073D01*
X92145154Y-79255177D01*
X92142297Y-79253721D01*
X92090682Y-79204973D01*
X92073500Y-79141454D01*
X92073500Y-68658768D01*
X92074027Y-68647585D01*
X92075702Y-68640092D01*
X92073562Y-68572001D01*
X92073500Y-68568044D01*
X92073500Y-68540144D01*
X92072996Y-68536153D01*
X92072063Y-68524311D01*
X92070923Y-68488036D01*
X92070674Y-68480111D01*
X92068461Y-68472493D01*
X92065021Y-68460652D01*
X92061012Y-68441293D01*
X92060846Y-68439983D01*
X92058474Y-68421203D01*
X92055558Y-68413837D01*
X92055556Y-68413831D01*
X92042200Y-68380098D01*
X92038355Y-68368868D01*
X92028230Y-68334017D01*
X92028230Y-68334016D01*
X92026019Y-68326407D01*
X92015705Y-68308966D01*
X92007008Y-68291213D01*
X92002472Y-68279758D01*
X91999552Y-68272383D01*
X91973563Y-68236612D01*
X91967047Y-68226692D01*
X91948578Y-68195463D01*
X91944542Y-68188638D01*
X91930221Y-68174317D01*
X91917380Y-68159283D01*
X91910131Y-68149306D01*
X91905472Y-68142893D01*
X91871395Y-68114702D01*
X91862616Y-68106712D01*
X89565405Y-65809500D01*
X89531379Y-65747188D01*
X89528500Y-65720405D01*
X89528500Y-61203546D01*
X89548502Y-61135425D01*
X89597297Y-61091279D01*
X89600154Y-61089823D01*
X89604732Y-61087927D01*
X89617111Y-61080341D01*
X89809670Y-60962342D01*
X89809673Y-60962340D01*
X89813896Y-60959752D01*
X89819751Y-60954752D01*
X89996677Y-60803641D01*
X90000433Y-60800433D01*
X90069189Y-60719931D01*
X90128640Y-60681122D01*
X90199635Y-60680616D01*
X90260811Y-60719931D01*
X90329567Y-60800433D01*
X90333323Y-60803641D01*
X90510250Y-60954752D01*
X90516104Y-60959752D01*
X90520327Y-60962340D01*
X90520330Y-60962342D01*
X90589515Y-61004738D01*
X90725268Y-61087927D01*
X90839938Y-61135425D01*
X90947335Y-61179911D01*
X90947337Y-61179912D01*
X90951908Y-61181805D01*
X91020715Y-61198324D01*
X91185630Y-61237917D01*
X91185636Y-61237918D01*
X91190443Y-61239072D01*
X91435000Y-61258319D01*
X91679557Y-61239072D01*
X91684364Y-61237918D01*
X91684370Y-61237917D01*
X91849285Y-61198324D01*
X91918092Y-61181805D01*
X91922663Y-61179912D01*
X91922665Y-61179911D01*
X92030062Y-61135425D01*
X92144732Y-61087927D01*
X92280485Y-61004738D01*
X92349670Y-60962342D01*
X92349673Y-60962340D01*
X92353896Y-60959752D01*
X92359751Y-60954752D01*
X92536677Y-60803641D01*
X92540433Y-60800433D01*
X92609189Y-60719931D01*
X92668640Y-60681122D01*
X92739635Y-60680616D01*
X92800811Y-60719931D01*
X92869567Y-60800433D01*
X92873323Y-60803641D01*
X93050250Y-60954752D01*
X93056104Y-60959752D01*
X93060327Y-60962340D01*
X93060330Y-60962342D01*
X93129515Y-61004738D01*
X93265268Y-61087927D01*
X93379938Y-61135425D01*
X93487335Y-61179911D01*
X93487337Y-61179912D01*
X93491908Y-61181805D01*
X93560715Y-61198324D01*
X93725630Y-61237917D01*
X93725636Y-61237918D01*
X93730443Y-61239072D01*
X93975000Y-61258319D01*
X94219557Y-61239072D01*
X94224364Y-61237918D01*
X94224370Y-61237917D01*
X94389285Y-61198324D01*
X94458092Y-61181805D01*
X94462663Y-61179912D01*
X94462665Y-61179911D01*
X94570062Y-61135425D01*
X94684732Y-61087927D01*
X94820485Y-61004738D01*
X94889670Y-60962342D01*
X94889673Y-60962340D01*
X94893896Y-60959752D01*
X94899751Y-60954752D01*
X95076677Y-60803641D01*
X95080433Y-60800433D01*
X95093897Y-60784669D01*
X98772001Y-60784669D01*
X98772371Y-60791490D01*
X98777895Y-60842352D01*
X98781521Y-60857604D01*
X98826676Y-60978054D01*
X98835214Y-60993649D01*
X98911715Y-61095724D01*
X98924276Y-61108285D01*
X99026351Y-61184786D01*
X99041946Y-61193324D01*
X99162394Y-61238478D01*
X99177649Y-61242105D01*
X99228514Y-61247631D01*
X99235328Y-61248000D01*
X100057885Y-61248000D01*
X100073124Y-61243525D01*
X100074329Y-61242135D01*
X100076000Y-61234452D01*
X100076000Y-61229884D01*
X100584000Y-61229884D01*
X100588475Y-61245123D01*
X100589865Y-61246328D01*
X100597548Y-61247999D01*
X101424669Y-61247999D01*
X101431490Y-61247629D01*
X101482352Y-61242105D01*
X101497604Y-61238479D01*
X101618054Y-61193324D01*
X101633649Y-61184786D01*
X101735724Y-61108285D01*
X101748281Y-61095728D01*
X101815698Y-61005773D01*
X101872558Y-60963258D01*
X101943376Y-60958232D01*
X101982359Y-60973905D01*
X102160268Y-61082927D01*
X102248572Y-61119504D01*
X102382335Y-61174911D01*
X102382337Y-61174912D01*
X102386908Y-61176805D01*
X102421997Y-61185229D01*
X102620630Y-61232917D01*
X102620636Y-61232918D01*
X102625443Y-61234072D01*
X102870000Y-61253319D01*
X103114557Y-61234072D01*
X103119364Y-61232918D01*
X103119370Y-61232917D01*
X103318003Y-61185229D01*
X103353092Y-61176805D01*
X103357663Y-61174912D01*
X103357665Y-61174911D01*
X103491428Y-61119504D01*
X103579732Y-61082927D01*
X103725027Y-60993891D01*
X103784670Y-60957342D01*
X103784676Y-60957338D01*
X103788896Y-60954752D01*
X103920499Y-60842352D01*
X103971677Y-60798641D01*
X103975433Y-60795433D01*
X103984626Y-60784669D01*
X104044189Y-60714931D01*
X104103640Y-60676122D01*
X104174635Y-60675616D01*
X104235811Y-60714931D01*
X104295374Y-60784669D01*
X104304567Y-60795433D01*
X104308323Y-60798641D01*
X104359502Y-60842352D01*
X104491104Y-60954752D01*
X104495324Y-60957338D01*
X104495330Y-60957342D01*
X104554973Y-60993891D01*
X104700268Y-61082927D01*
X104788572Y-61119504D01*
X104922335Y-61174911D01*
X104922337Y-61174912D01*
X104926908Y-61176805D01*
X104961997Y-61185229D01*
X105160630Y-61232917D01*
X105160636Y-61232918D01*
X105165443Y-61234072D01*
X105410000Y-61253319D01*
X105654557Y-61234072D01*
X105659364Y-61232918D01*
X105659370Y-61232917D01*
X105858003Y-61185229D01*
X105893092Y-61176805D01*
X105897663Y-61174912D01*
X105897665Y-61174911D01*
X106031428Y-61119504D01*
X106119732Y-61082927D01*
X106265027Y-60993891D01*
X106324670Y-60957342D01*
X106324676Y-60957338D01*
X106328896Y-60954752D01*
X106460499Y-60842352D01*
X106511677Y-60798641D01*
X106515433Y-60795433D01*
X106524626Y-60784669D01*
X106584189Y-60714931D01*
X106643640Y-60676122D01*
X106714635Y-60675616D01*
X106775811Y-60714931D01*
X106835374Y-60784669D01*
X106844567Y-60795433D01*
X106848323Y-60798641D01*
X106899502Y-60842352D01*
X107031104Y-60954752D01*
X107035324Y-60957338D01*
X107035330Y-60957342D01*
X107094973Y-60993891D01*
X107240268Y-61082927D01*
X107328572Y-61119504D01*
X107462335Y-61174911D01*
X107462337Y-61174912D01*
X107466908Y-61176805D01*
X107501997Y-61185229D01*
X107700630Y-61232917D01*
X107700636Y-61232918D01*
X107705443Y-61234072D01*
X107950000Y-61253319D01*
X108194557Y-61234072D01*
X108199364Y-61232918D01*
X108199370Y-61232917D01*
X108398003Y-61185229D01*
X108433092Y-61176805D01*
X108437663Y-61174912D01*
X108437665Y-61174911D01*
X108571428Y-61119504D01*
X108659732Y-61082927D01*
X108805027Y-60993891D01*
X108864670Y-60957342D01*
X108864676Y-60957338D01*
X108868896Y-60954752D01*
X109000499Y-60842352D01*
X109051677Y-60798641D01*
X109055433Y-60795433D01*
X109064626Y-60784669D01*
X109124189Y-60714931D01*
X109183640Y-60676122D01*
X109254635Y-60675616D01*
X109315811Y-60714931D01*
X109375374Y-60784669D01*
X109384567Y-60795433D01*
X109388323Y-60798641D01*
X109439502Y-60842352D01*
X109571104Y-60954752D01*
X109575324Y-60957338D01*
X109575330Y-60957342D01*
X109634973Y-60993891D01*
X109780268Y-61082927D01*
X109868572Y-61119504D01*
X110002335Y-61174911D01*
X110002337Y-61174912D01*
X110006908Y-61176805D01*
X110041997Y-61185229D01*
X110240630Y-61232917D01*
X110240636Y-61232918D01*
X110245443Y-61234072D01*
X110490000Y-61253319D01*
X110734557Y-61234072D01*
X110739364Y-61232918D01*
X110739370Y-61232917D01*
X110938003Y-61185229D01*
X110973092Y-61176805D01*
X110977663Y-61174912D01*
X110977665Y-61174911D01*
X111111428Y-61119504D01*
X111199732Y-61082927D01*
X111345027Y-60993891D01*
X111404670Y-60957342D01*
X111404676Y-60957338D01*
X111408896Y-60954752D01*
X111540499Y-60842352D01*
X111591677Y-60798641D01*
X111595433Y-60795433D01*
X111604626Y-60784669D01*
X111664189Y-60714931D01*
X111723640Y-60676122D01*
X111794635Y-60675616D01*
X111855811Y-60714931D01*
X111915374Y-60784669D01*
X111924567Y-60795433D01*
X111928323Y-60798641D01*
X111979502Y-60842352D01*
X112111104Y-60954752D01*
X112115324Y-60957338D01*
X112115330Y-60957342D01*
X112174973Y-60993891D01*
X112320268Y-61082927D01*
X112408572Y-61119504D01*
X112542335Y-61174911D01*
X112542337Y-61174912D01*
X112546908Y-61176805D01*
X112581997Y-61185229D01*
X112780630Y-61232917D01*
X112780636Y-61232918D01*
X112785443Y-61234072D01*
X113030000Y-61253319D01*
X113274557Y-61234072D01*
X113279364Y-61232918D01*
X113279370Y-61232917D01*
X113478003Y-61185229D01*
X113513092Y-61176805D01*
X113517663Y-61174912D01*
X113517665Y-61174911D01*
X113651428Y-61119504D01*
X113739732Y-61082927D01*
X113885027Y-60993891D01*
X113944670Y-60957342D01*
X113944676Y-60957338D01*
X113948896Y-60954752D01*
X114080499Y-60842352D01*
X114131677Y-60798641D01*
X114135433Y-60795433D01*
X114144626Y-60784669D01*
X114291535Y-60612663D01*
X114291537Y-60612660D01*
X114294752Y-60608896D01*
X114422927Y-60399732D01*
X114516805Y-60173092D01*
X114567456Y-59962115D01*
X114572917Y-59939370D01*
X114572918Y-59939364D01*
X114574072Y-59934557D01*
X114593319Y-59690000D01*
X114574072Y-59445443D01*
X114572605Y-59439329D01*
X114536649Y-59289563D01*
X114516805Y-59206908D01*
X114422927Y-58980268D01*
X114294752Y-58771104D01*
X114135433Y-58584567D01*
X114068493Y-58527394D01*
X113952663Y-58428465D01*
X113952660Y-58428463D01*
X113948896Y-58425248D01*
X113944673Y-58422660D01*
X113944670Y-58422658D01*
X113865209Y-58373965D01*
X113739732Y-58297073D01*
X113595033Y-58237136D01*
X113517665Y-58205089D01*
X113517663Y-58205088D01*
X113513092Y-58203195D01*
X113430437Y-58183351D01*
X113279370Y-58147083D01*
X113279364Y-58147082D01*
X113274557Y-58145928D01*
X113030000Y-58126681D01*
X112785443Y-58145928D01*
X112780636Y-58147082D01*
X112780630Y-58147083D01*
X112629563Y-58183351D01*
X112546908Y-58203195D01*
X112542337Y-58205088D01*
X112542335Y-58205089D01*
X112464967Y-58237136D01*
X112320268Y-58297073D01*
X112194791Y-58373965D01*
X112115330Y-58422658D01*
X112115327Y-58422660D01*
X112111104Y-58425248D01*
X112107340Y-58428463D01*
X112107337Y-58428465D01*
X111991507Y-58527394D01*
X111924567Y-58584567D01*
X111921359Y-58588323D01*
X111855811Y-58665069D01*
X111796360Y-58703878D01*
X111725365Y-58704384D01*
X111664189Y-58665069D01*
X111598641Y-58588323D01*
X111595433Y-58584567D01*
X111528493Y-58527394D01*
X111412663Y-58428465D01*
X111412660Y-58428463D01*
X111408896Y-58425248D01*
X111404673Y-58422660D01*
X111404670Y-58422658D01*
X111325209Y-58373965D01*
X111199732Y-58297073D01*
X111055033Y-58237136D01*
X110977665Y-58205089D01*
X110977663Y-58205088D01*
X110973092Y-58203195D01*
X110890437Y-58183351D01*
X110739370Y-58147083D01*
X110739364Y-58147082D01*
X110734557Y-58145928D01*
X110490000Y-58126681D01*
X110245443Y-58145928D01*
X110240636Y-58147082D01*
X110240630Y-58147083D01*
X110089563Y-58183351D01*
X110006908Y-58203195D01*
X110002337Y-58205088D01*
X110002335Y-58205089D01*
X109924967Y-58237136D01*
X109780268Y-58297073D01*
X109654791Y-58373965D01*
X109575330Y-58422658D01*
X109575327Y-58422660D01*
X109571104Y-58425248D01*
X109567340Y-58428463D01*
X109567337Y-58428465D01*
X109451507Y-58527394D01*
X109384567Y-58584567D01*
X109381359Y-58588323D01*
X109315811Y-58665069D01*
X109256360Y-58703878D01*
X109185365Y-58704384D01*
X109124189Y-58665069D01*
X109058641Y-58588323D01*
X109055433Y-58584567D01*
X108988493Y-58527394D01*
X108872663Y-58428465D01*
X108872660Y-58428463D01*
X108868896Y-58425248D01*
X108864673Y-58422660D01*
X108864670Y-58422658D01*
X108785209Y-58373965D01*
X108659732Y-58297073D01*
X108515033Y-58237136D01*
X108437665Y-58205089D01*
X108437663Y-58205088D01*
X108433092Y-58203195D01*
X108350437Y-58183351D01*
X108199370Y-58147083D01*
X108199364Y-58147082D01*
X108194557Y-58145928D01*
X107950000Y-58126681D01*
X107705443Y-58145928D01*
X107700636Y-58147082D01*
X107700630Y-58147083D01*
X107549563Y-58183351D01*
X107466908Y-58203195D01*
X107462337Y-58205088D01*
X107462335Y-58205089D01*
X107384967Y-58237136D01*
X107240268Y-58297073D01*
X107114791Y-58373965D01*
X107035330Y-58422658D01*
X107035327Y-58422660D01*
X107031104Y-58425248D01*
X107027340Y-58428463D01*
X107027337Y-58428465D01*
X106911507Y-58527394D01*
X106844567Y-58584567D01*
X106841359Y-58588323D01*
X106775811Y-58665069D01*
X106716360Y-58703878D01*
X106645365Y-58704384D01*
X106584189Y-58665069D01*
X106518641Y-58588323D01*
X106515433Y-58584567D01*
X106448493Y-58527394D01*
X106332663Y-58428465D01*
X106332660Y-58428463D01*
X106328896Y-58425248D01*
X106324673Y-58422660D01*
X106324670Y-58422658D01*
X106245209Y-58373965D01*
X106119732Y-58297073D01*
X105975033Y-58237136D01*
X105897665Y-58205089D01*
X105897663Y-58205088D01*
X105893092Y-58203195D01*
X105810437Y-58183351D01*
X105659370Y-58147083D01*
X105659364Y-58147082D01*
X105654557Y-58145928D01*
X105410000Y-58126681D01*
X105165443Y-58145928D01*
X105160636Y-58147082D01*
X105160630Y-58147083D01*
X105009563Y-58183351D01*
X104926908Y-58203195D01*
X104922337Y-58205088D01*
X104922335Y-58205089D01*
X104844967Y-58237136D01*
X104700268Y-58297073D01*
X104574791Y-58373965D01*
X104495330Y-58422658D01*
X104495327Y-58422660D01*
X104491104Y-58425248D01*
X104487340Y-58428463D01*
X104487337Y-58428465D01*
X104371507Y-58527394D01*
X104304567Y-58584567D01*
X104301359Y-58588323D01*
X104235811Y-58665069D01*
X104176360Y-58703878D01*
X104105365Y-58704384D01*
X104044189Y-58665069D01*
X103978641Y-58588323D01*
X103975433Y-58584567D01*
X103908493Y-58527394D01*
X103792663Y-58428465D01*
X103792660Y-58428463D01*
X103788896Y-58425248D01*
X103784673Y-58422660D01*
X103784670Y-58422658D01*
X103705209Y-58373965D01*
X103579732Y-58297073D01*
X103435033Y-58237136D01*
X103357665Y-58205089D01*
X103357663Y-58205088D01*
X103353092Y-58203195D01*
X103270437Y-58183351D01*
X103119370Y-58147083D01*
X103119364Y-58147082D01*
X103114557Y-58145928D01*
X102870000Y-58126681D01*
X102625443Y-58145928D01*
X102620636Y-58147082D01*
X102620630Y-58147083D01*
X102469563Y-58183351D01*
X102386908Y-58203195D01*
X102382337Y-58205088D01*
X102382335Y-58205089D01*
X102304967Y-58237136D01*
X102160268Y-58297073D01*
X102014579Y-58386351D01*
X101982359Y-58406095D01*
X101913826Y-58424633D01*
X101846149Y-58403176D01*
X101815698Y-58374227D01*
X101748281Y-58284272D01*
X101735724Y-58271715D01*
X101633649Y-58195214D01*
X101618054Y-58186676D01*
X101497606Y-58141522D01*
X101482351Y-58137895D01*
X101431486Y-58132369D01*
X101424672Y-58132000D01*
X100602115Y-58132000D01*
X100586876Y-58136475D01*
X100585671Y-58137865D01*
X100584000Y-58145548D01*
X100584000Y-61229884D01*
X100076000Y-61229884D01*
X100076000Y-59962115D01*
X100071525Y-59946876D01*
X100070135Y-59945671D01*
X100062452Y-59944000D01*
X98790116Y-59944000D01*
X98774877Y-59948475D01*
X98773672Y-59949865D01*
X98772001Y-59957548D01*
X98772001Y-60784669D01*
X95093897Y-60784669D01*
X95239752Y-60613896D01*
X95367927Y-60404732D01*
X95461805Y-60178092D01*
X95512456Y-59967115D01*
X95517917Y-59944370D01*
X95517918Y-59944364D01*
X95519072Y-59939557D01*
X95538319Y-59695000D01*
X95519072Y-59450443D01*
X95516717Y-59440630D01*
X95511256Y-59417885D01*
X98772000Y-59417885D01*
X98776475Y-59433124D01*
X98777865Y-59434329D01*
X98785548Y-59436000D01*
X100057885Y-59436000D01*
X100073124Y-59431525D01*
X100074329Y-59430135D01*
X100076000Y-59422452D01*
X100076000Y-58150116D01*
X100071525Y-58134877D01*
X100070135Y-58133672D01*
X100062452Y-58132001D01*
X99235331Y-58132001D01*
X99228510Y-58132371D01*
X99177648Y-58137895D01*
X99162396Y-58141521D01*
X99041946Y-58186676D01*
X99026351Y-58195214D01*
X98924276Y-58271715D01*
X98911715Y-58284276D01*
X98835214Y-58386351D01*
X98826676Y-58401946D01*
X98781522Y-58522394D01*
X98777895Y-58537649D01*
X98772369Y-58588514D01*
X98772000Y-58595328D01*
X98772000Y-59417885D01*
X95511256Y-59417885D01*
X95462960Y-59216720D01*
X95461805Y-59211908D01*
X95367927Y-58985268D01*
X95239752Y-58776104D01*
X95232265Y-58767337D01*
X95083641Y-58593323D01*
X95080433Y-58589567D01*
X95025500Y-58542649D01*
X94897663Y-58433465D01*
X94897660Y-58433463D01*
X94893896Y-58430248D01*
X94889673Y-58427660D01*
X94889670Y-58427658D01*
X94802050Y-58373965D01*
X94684732Y-58302073D01*
X94540033Y-58242136D01*
X94462665Y-58210089D01*
X94462663Y-58210088D01*
X94458092Y-58208195D01*
X94368459Y-58186676D01*
X94224370Y-58152083D01*
X94224364Y-58152082D01*
X94219557Y-58150928D01*
X93975000Y-58131681D01*
X93730443Y-58150928D01*
X93725636Y-58152082D01*
X93725630Y-58152083D01*
X93581541Y-58186676D01*
X93491908Y-58208195D01*
X93487337Y-58210088D01*
X93487335Y-58210089D01*
X93409967Y-58242136D01*
X93265268Y-58302073D01*
X93147950Y-58373965D01*
X93060330Y-58427658D01*
X93060327Y-58427660D01*
X93056104Y-58430248D01*
X93052340Y-58433463D01*
X93052337Y-58433465D01*
X92924500Y-58542649D01*
X92869567Y-58589567D01*
X92866359Y-58593323D01*
X92800811Y-58670069D01*
X92741360Y-58708878D01*
X92670365Y-58709384D01*
X92609189Y-58670069D01*
X92543641Y-58593323D01*
X92540433Y-58589567D01*
X92485500Y-58542649D01*
X92357663Y-58433465D01*
X92357660Y-58433463D01*
X92353896Y-58430248D01*
X92349673Y-58427660D01*
X92349670Y-58427658D01*
X92262050Y-58373965D01*
X92144732Y-58302073D01*
X92000033Y-58242136D01*
X91922665Y-58210089D01*
X91922663Y-58210088D01*
X91918092Y-58208195D01*
X91828459Y-58186676D01*
X91684370Y-58152083D01*
X91684364Y-58152082D01*
X91679557Y-58150928D01*
X91435000Y-58131681D01*
X91190443Y-58150928D01*
X91185636Y-58152082D01*
X91185630Y-58152083D01*
X91041541Y-58186676D01*
X90951908Y-58208195D01*
X90947337Y-58210088D01*
X90947335Y-58210089D01*
X90869967Y-58242136D01*
X90725268Y-58302073D01*
X90607950Y-58373965D01*
X90520330Y-58427658D01*
X90520327Y-58427660D01*
X90516104Y-58430248D01*
X90512340Y-58433463D01*
X90512337Y-58433465D01*
X90384500Y-58542649D01*
X90329567Y-58589567D01*
X90326359Y-58593323D01*
X90260811Y-58670069D01*
X90201360Y-58708878D01*
X90130365Y-58709384D01*
X90069189Y-58670069D01*
X90003641Y-58593323D01*
X90000433Y-58589567D01*
X89945500Y-58542649D01*
X89817663Y-58433465D01*
X89817660Y-58433463D01*
X89813896Y-58430248D01*
X89809673Y-58427660D01*
X89809670Y-58427658D01*
X89722050Y-58373965D01*
X89604732Y-58302073D01*
X89460033Y-58242136D01*
X89382665Y-58210089D01*
X89382663Y-58210088D01*
X89378092Y-58208195D01*
X89288459Y-58186676D01*
X89144370Y-58152083D01*
X89144364Y-58152082D01*
X89139557Y-58150928D01*
X88895000Y-58131681D01*
X88650443Y-58150928D01*
X88645636Y-58152082D01*
X88645630Y-58152083D01*
X88501541Y-58186676D01*
X88411908Y-58208195D01*
X88407337Y-58210088D01*
X88407335Y-58210089D01*
X88329967Y-58242136D01*
X88185268Y-58302073D01*
X88048133Y-58386109D01*
X88007359Y-58411095D01*
X87938826Y-58429633D01*
X87871149Y-58408176D01*
X87840698Y-58379227D01*
X87773281Y-58289272D01*
X87760724Y-58276715D01*
X87658649Y-58200214D01*
X87643054Y-58191676D01*
X87522606Y-58146522D01*
X87507351Y-58142895D01*
X87456486Y-58137369D01*
X87449672Y-58137000D01*
X86627115Y-58137000D01*
X86611876Y-58141475D01*
X86610671Y-58142865D01*
X86609000Y-58150548D01*
X86609000Y-61234884D01*
X86101000Y-61234884D01*
X86101000Y-59967115D01*
X86096525Y-59951876D01*
X86095135Y-59950671D01*
X86087452Y-59949000D01*
X84815116Y-59949000D01*
X84799877Y-59953475D01*
X84798672Y-59954865D01*
X84797001Y-59962548D01*
X84797001Y-60789669D01*
X67183000Y-60789669D01*
X67183000Y-59422885D01*
X84797000Y-59422885D01*
X84801475Y-59438124D01*
X84802865Y-59439329D01*
X84810548Y-59441000D01*
X86082885Y-59441000D01*
X86098124Y-59436525D01*
X86099329Y-59435135D01*
X86101000Y-59427452D01*
X86101000Y-58155116D01*
X86096525Y-58139877D01*
X86095135Y-58138672D01*
X86087452Y-58137001D01*
X85260331Y-58137001D01*
X85253510Y-58137371D01*
X85202648Y-58142895D01*
X85187396Y-58146521D01*
X85066946Y-58191676D01*
X85051351Y-58200214D01*
X84949276Y-58276715D01*
X84936715Y-58289276D01*
X84860214Y-58391351D01*
X84851676Y-58406946D01*
X84806522Y-58527394D01*
X84802895Y-58542649D01*
X84797369Y-58593514D01*
X84797000Y-58600328D01*
X84797000Y-59422885D01*
X67183000Y-59422885D01*
X67183000Y-57372435D01*
X69537321Y-57372435D01*
X69537398Y-57373524D01*
X69539859Y-57377260D01*
X69813793Y-57587458D01*
X69819423Y-57591313D01*
X70119752Y-57773916D01*
X70125754Y-57777134D01*
X70444058Y-57926238D01*
X70450363Y-57928786D01*
X70782904Y-58042641D01*
X70789474Y-58044500D01*
X71132344Y-58121768D01*
X71139073Y-58122907D01*
X71488304Y-58162697D01*
X71495094Y-58163100D01*
X71846580Y-58164940D01*
X71853381Y-58164608D01*
X72203014Y-58128477D01*
X72209742Y-58127411D01*
X72553435Y-58053730D01*
X72559983Y-58051951D01*
X72893710Y-57941581D01*
X72900052Y-57939095D01*
X73219879Y-57793342D01*
X73225938Y-57790175D01*
X73528156Y-57610730D01*
X73533820Y-57606938D01*
X73814893Y-57395903D01*
X73820119Y-57391518D01*
X73829774Y-57382482D01*
X73835701Y-57372435D01*
X149537321Y-57372435D01*
X149537398Y-57373524D01*
X149539859Y-57377260D01*
X149813793Y-57587458D01*
X149819423Y-57591313D01*
X150119752Y-57773916D01*
X150125754Y-57777134D01*
X150444058Y-57926238D01*
X150450363Y-57928786D01*
X150782904Y-58042641D01*
X150789474Y-58044500D01*
X151132344Y-58121768D01*
X151139073Y-58122907D01*
X151488304Y-58162697D01*
X151495094Y-58163100D01*
X151846580Y-58164940D01*
X151853381Y-58164608D01*
X152203014Y-58128477D01*
X152209742Y-58127411D01*
X152553435Y-58053730D01*
X152559983Y-58051951D01*
X152893710Y-57941581D01*
X152900052Y-57939095D01*
X153219879Y-57793342D01*
X153225938Y-57790175D01*
X153528156Y-57610730D01*
X153533820Y-57606938D01*
X153814893Y-57395903D01*
X153820119Y-57391518D01*
X153829774Y-57382482D01*
X153837843Y-57368804D01*
X153837815Y-57368078D01*
X153832673Y-57359777D01*
X151700971Y-55228074D01*
X151687030Y-55220462D01*
X151685195Y-55220593D01*
X151678581Y-55224844D01*
X149544935Y-57358491D01*
X149537321Y-57372435D01*
X73835701Y-57372435D01*
X73837843Y-57368804D01*
X73837815Y-57368078D01*
X73832673Y-57359777D01*
X71700971Y-55228074D01*
X71687030Y-55220462D01*
X71685195Y-55220593D01*
X71678581Y-55224844D01*
X69544935Y-57358491D01*
X69537321Y-57372435D01*
X67183000Y-57372435D01*
X67183000Y-54847886D01*
X68375494Y-54847886D01*
X68393278Y-55198947D01*
X68393988Y-55205703D01*
X68449581Y-55552777D01*
X68451020Y-55559432D01*
X68543769Y-55898464D01*
X68545918Y-55904925D01*
X68674742Y-56231966D01*
X68677573Y-56238149D01*
X68840964Y-56549364D01*
X68844447Y-56555206D01*
X69040491Y-56846950D01*
X69044594Y-56852394D01*
X69164586Y-56994890D01*
X69177325Y-57003333D01*
X69187769Y-56997235D01*
X71316141Y-54868864D01*
X71322518Y-54857185D01*
X72052569Y-54857185D01*
X72052700Y-54859020D01*
X72056951Y-54865634D01*
X74187170Y-56995852D01*
X74200766Y-57003277D01*
X74210379Y-56996576D01*
X74310679Y-56879966D01*
X74314837Y-56874568D01*
X74513923Y-56584894D01*
X74517471Y-56579083D01*
X74684103Y-56269613D01*
X74687010Y-56263435D01*
X74819251Y-55937767D01*
X74821465Y-55931337D01*
X74917759Y-55593291D01*
X74919266Y-55586661D01*
X74978493Y-55240172D01*
X74979273Y-55233432D01*
X75000829Y-54880979D01*
X75000945Y-54877377D01*
X75001014Y-54857873D01*
X75000922Y-54854248D01*
X75000577Y-54847886D01*
X148375494Y-54847886D01*
X148393278Y-55198947D01*
X148393988Y-55205703D01*
X148449581Y-55552777D01*
X148451020Y-55559432D01*
X148543769Y-55898464D01*
X148545918Y-55904925D01*
X148674742Y-56231966D01*
X148677573Y-56238149D01*
X148840964Y-56549364D01*
X148844447Y-56555206D01*
X149040491Y-56846950D01*
X149044594Y-56852394D01*
X149164586Y-56994890D01*
X149177325Y-57003333D01*
X149187769Y-56997235D01*
X151316141Y-54868864D01*
X151322518Y-54857185D01*
X152052569Y-54857185D01*
X152052700Y-54859020D01*
X152056951Y-54865634D01*
X154187170Y-56995852D01*
X154200766Y-57003277D01*
X154210379Y-56996576D01*
X154310679Y-56879966D01*
X154314837Y-56874568D01*
X154513923Y-56584894D01*
X154517471Y-56579083D01*
X154684103Y-56269613D01*
X154687010Y-56263435D01*
X154819251Y-55937767D01*
X154821465Y-55931337D01*
X154917759Y-55593291D01*
X154919266Y-55586661D01*
X154978493Y-55240172D01*
X154979273Y-55233432D01*
X155000829Y-54880979D01*
X155000945Y-54877377D01*
X155001014Y-54857873D01*
X155000922Y-54854248D01*
X154981827Y-54501669D01*
X154981092Y-54494903D01*
X154924291Y-54148039D01*
X154922824Y-54141367D01*
X154828897Y-53802681D01*
X154826723Y-53796217D01*
X154696759Y-53469632D01*
X154693903Y-53463452D01*
X154529430Y-53152817D01*
X154525930Y-53146991D01*
X154328858Y-52855916D01*
X154324751Y-52850507D01*
X154211726Y-52717233D01*
X154198901Y-52708797D01*
X154188577Y-52714849D01*
X152060181Y-54843244D01*
X152052569Y-54857185D01*
X151322518Y-54857185D01*
X151323753Y-54854923D01*
X151323622Y-54853088D01*
X151319371Y-54846474D01*
X149189153Y-52716257D01*
X149175616Y-52708865D01*
X149165914Y-52715653D01*
X149058591Y-52841311D01*
X149054457Y-52846718D01*
X148856376Y-53137095D01*
X148852858Y-53142905D01*
X148687295Y-53452976D01*
X148684420Y-53459141D01*
X148553316Y-53785272D01*
X148551123Y-53791712D01*
X148456007Y-54130098D01*
X148454524Y-54136733D01*
X148396511Y-54483408D01*
X148395752Y-54490180D01*
X148375518Y-54841091D01*
X148375494Y-54847886D01*
X75000577Y-54847886D01*
X74981827Y-54501669D01*
X74981092Y-54494903D01*
X74924291Y-54148039D01*
X74922824Y-54141367D01*
X74828897Y-53802681D01*
X74826723Y-53796217D01*
X74696759Y-53469632D01*
X74693903Y-53463452D01*
X74529430Y-53152817D01*
X74525930Y-53146991D01*
X74328858Y-52855916D01*
X74324751Y-52850507D01*
X74211726Y-52717233D01*
X74198901Y-52708797D01*
X74188577Y-52714849D01*
X72060181Y-54843244D01*
X72052569Y-54857185D01*
X71322518Y-54857185D01*
X71323753Y-54854923D01*
X71323622Y-54853088D01*
X71319371Y-54846474D01*
X69189153Y-52716257D01*
X69175616Y-52708865D01*
X69165914Y-52715653D01*
X69058591Y-52841311D01*
X69054457Y-52846718D01*
X68856376Y-53137095D01*
X68852858Y-53142905D01*
X68687295Y-53452976D01*
X68684420Y-53459141D01*
X68553316Y-53785272D01*
X68551123Y-53791712D01*
X68456007Y-54130098D01*
X68454524Y-54136733D01*
X68396511Y-54483408D01*
X68395752Y-54490180D01*
X68375518Y-54841091D01*
X68375494Y-54847886D01*
X67183000Y-54847886D01*
X67183000Y-51754000D01*
X67203002Y-51685879D01*
X67256658Y-51639386D01*
X67309000Y-51628000D01*
X70214560Y-51628000D01*
X70282681Y-51648002D01*
G37*
%TD.AperFunction*%
%TD*%
M02*
