M48
; DRILL file {KiCad (6.0.2)} date Tue Feb 22 20:29:13 2022
; FORMAT={-:-/ absolute / inch / decimal}
; #@! TF.CreationDate,2022-02-22T20:29:13+01:00
; #@! TF.GenerationSoftware,Kicad,Pcbnew,(6.0.2)
; #@! TF.FileFunction,Plated,1,2,PTH
FMAT,2
INCH
; #@! TA.AperFunction,Plated,PTH,ComponentDrill
T1C0.0433
; #@! TA.AperFunction,Plated,PTH,ComponentDrill
T2C0.1260
%
G90
G05
T1
X2.772Y-2.6614
X2.772Y-2.8386
X3.028Y-2.6614
X3.028Y-2.8386
X3.3998Y-2.3502
X3.4998Y-2.3502
X3.5Y-3.1752
X3.5998Y-2.3502
X3.6Y-3.1752
X3.6998Y-2.3502
X3.7Y-3.1752
X3.9498Y-3.175
X3.95Y-2.35
X4.0498Y-3.175
X4.05Y-2.35
X4.1498Y-3.175
X4.15Y-2.35
X4.2498Y-3.175
X4.25Y-2.35
X4.35Y-2.35
X4.45Y-2.35
X4.4998Y-3.175
X4.5998Y-3.175
X4.6998Y-3.175
X4.7Y-2.35
X4.7998Y-3.175
X4.8Y-2.35
X5.0Y-2.35
X5.05Y-3.175
X5.1Y-2.35
X5.15Y-3.175
X5.25Y-3.175
X5.3Y-2.35
X5.4Y-2.35
X5.772Y-2.6614
X5.772Y-2.8386
X6.028Y-2.6614
X6.028Y-2.8386
T2
X2.8224Y-2.1597
X2.8224Y-3.3408
X5.972Y-2.1597
X5.972Y-3.3408
T0
M30
