%TF.GenerationSoftware,KiCad,Pcbnew,(6.0.2)*%
%TF.CreationDate,2022-03-23T11:18:18+01:00*%
%TF.ProjectId,tapa,74617061-2e6b-4696-9361-645f70636258,rev?*%
%TF.SameCoordinates,Original*%
%TF.FileFunction,Legend,Top*%
%TF.FilePolarity,Positive*%
%FSLAX46Y46*%
G04 Gerber Fmt 4.6, Leading zero omitted, Abs format (unit mm)*
G04 Created by KiCad (PCBNEW (6.0.2)) date 2022-03-23 11:18:18*
%MOMM*%
%LPD*%
G01*
G04 APERTURE LIST*
%ADD10C,0.150000*%
%ADD11C,0.100000*%
%ADD12C,0.120000*%
G04 APERTURE END LIST*
D10*
X111760000Y-109100545D02*
X161290000Y-109100545D01*
X111760000Y-111640545D02*
X111760000Y-109100545D01*
X161290000Y-110370545D02*
X161290000Y-111640545D01*
X161290000Y-109100545D02*
X161290000Y-110370545D01*
D11*
X113919046Y-117395605D02*
X113871427Y-117371795D01*
X113799999Y-117371795D01*
X113728570Y-117395605D01*
X113680951Y-117443224D01*
X113657141Y-117490843D01*
X113633332Y-117586081D01*
X113633332Y-117657509D01*
X113657141Y-117752747D01*
X113680951Y-117800366D01*
X113728570Y-117847985D01*
X113799999Y-117871795D01*
X113847618Y-117871795D01*
X113919046Y-117847985D01*
X113942856Y-117824176D01*
X113942856Y-117657509D01*
X113847618Y-117657509D01*
X114157141Y-117871795D02*
X114157141Y-117371795D01*
X114442856Y-117871795D01*
X114442856Y-117371795D01*
X114680951Y-117871795D02*
X114680951Y-117371795D01*
X114799999Y-117371795D01*
X114871427Y-117395605D01*
X114919046Y-117443224D01*
X114942856Y-117490843D01*
X114966665Y-117586081D01*
X114966665Y-117657509D01*
X114942856Y-117752747D01*
X114919046Y-117800366D01*
X114871427Y-117847985D01*
X114799999Y-117871795D01*
X114680951Y-117871795D01*
X152956047Y-88239279D02*
X152956047Y-88739279D01*
X152789380Y-88382136D01*
X152622713Y-88739279D01*
X152622713Y-88239279D01*
X152384618Y-88239279D02*
X152384618Y-88739279D01*
X151860809Y-88286898D02*
X151884618Y-88263089D01*
X151956047Y-88239279D01*
X152003666Y-88239279D01*
X152075094Y-88263089D01*
X152122713Y-88310708D01*
X152146523Y-88358327D01*
X152170333Y-88453565D01*
X152170333Y-88524993D01*
X152146523Y-88620231D01*
X152122713Y-88667850D01*
X152075094Y-88715470D01*
X152003666Y-88739279D01*
X151956047Y-88739279D01*
X151884618Y-88715470D01*
X151860809Y-88691660D01*
X141299522Y-117871795D02*
X141299522Y-117371795D01*
X141418570Y-117371795D01*
X141489999Y-117395605D01*
X141537618Y-117443224D01*
X141561427Y-117490843D01*
X141585237Y-117586081D01*
X141585237Y-117657509D01*
X141561427Y-117752747D01*
X141537618Y-117800366D01*
X141489999Y-117847985D01*
X141418570Y-117871795D01*
X141299522Y-117871795D01*
X141894760Y-117371795D02*
X141989999Y-117371795D01*
X142037618Y-117395605D01*
X142085237Y-117443224D01*
X142109046Y-117538462D01*
X142109046Y-117705128D01*
X142085237Y-117800366D01*
X142037618Y-117847985D01*
X141989999Y-117871795D01*
X141894760Y-117871795D01*
X141847141Y-117847985D01*
X141799522Y-117800366D01*
X141775713Y-117705128D01*
X141775713Y-117538462D01*
X141799522Y-117443224D01*
X141847141Y-117395605D01*
X141894760Y-117371795D01*
X142275713Y-117371795D02*
X142394760Y-117871795D01*
X142489999Y-117514652D01*
X142585237Y-117871795D01*
X142704284Y-117371795D01*
X142894760Y-117871795D02*
X142894760Y-117371795D01*
X143180475Y-117871795D01*
X143180475Y-117371795D01*
X163175571Y-88691660D02*
X163151761Y-88715470D01*
X163104142Y-88739279D01*
X162985094Y-88739279D01*
X162937475Y-88715470D01*
X162913666Y-88691660D01*
X162889856Y-88644041D01*
X162889856Y-88596422D01*
X162913666Y-88524993D01*
X163199380Y-88239279D01*
X162889856Y-88239279D01*
X162461285Y-88572612D02*
X162461285Y-88239279D01*
X162580333Y-88763089D02*
X162699380Y-88405946D01*
X162389856Y-88405946D01*
X162270809Y-88739279D02*
X162104142Y-88239279D01*
X161937475Y-88739279D01*
X126131285Y-88715470D02*
X126178904Y-88739279D01*
X126250333Y-88739279D01*
X126321761Y-88715470D01*
X126369380Y-88667850D01*
X126393190Y-88620231D01*
X126416999Y-88524993D01*
X126416999Y-88453565D01*
X126393190Y-88358327D01*
X126369380Y-88310708D01*
X126321761Y-88263089D01*
X126250333Y-88239279D01*
X126202713Y-88239279D01*
X126131285Y-88263089D01*
X126107475Y-88286898D01*
X126107475Y-88453565D01*
X126202713Y-88453565D01*
X125893190Y-88239279D02*
X125893190Y-88739279D01*
X125607475Y-88239279D01*
X125607475Y-88739279D01*
X125369380Y-88239279D02*
X125369380Y-88739279D01*
X125250333Y-88739279D01*
X125178904Y-88715470D01*
X125131285Y-88667850D01*
X125107475Y-88620231D01*
X125083666Y-88524993D01*
X125083666Y-88453565D01*
X125107475Y-88358327D01*
X125131285Y-88310708D01*
X125178904Y-88263089D01*
X125250333Y-88239279D01*
X125369380Y-88239279D01*
X155674284Y-117871795D02*
X155674284Y-117371795D01*
X155840951Y-117728938D01*
X156007618Y-117371795D01*
X156007618Y-117871795D01*
X156245713Y-117871795D02*
X156245713Y-117371795D01*
X156769522Y-117824176D02*
X156745713Y-117847985D01*
X156674284Y-117871795D01*
X156626665Y-117871795D01*
X156555237Y-117847985D01*
X156507618Y-117800366D01*
X156483808Y-117752747D01*
X156459999Y-117657509D01*
X156459999Y-117586081D01*
X156483808Y-117490843D01*
X156507618Y-117443224D01*
X156555237Y-117395605D01*
X156626665Y-117371795D01*
X156674284Y-117371795D01*
X156745713Y-117395605D01*
X156769522Y-117419414D01*
X147935571Y-88691660D02*
X147911761Y-88715470D01*
X147864142Y-88739279D01*
X147745094Y-88739279D01*
X147697475Y-88715470D01*
X147673666Y-88691660D01*
X147649856Y-88644041D01*
X147649856Y-88596422D01*
X147673666Y-88524993D01*
X147959380Y-88239279D01*
X147649856Y-88239279D01*
X147221285Y-88572612D02*
X147221285Y-88239279D01*
X147340333Y-88763089D02*
X147459380Y-88405946D01*
X147149856Y-88405946D01*
X147030809Y-88739279D02*
X146864142Y-88239279D01*
X146697475Y-88739279D01*
X119995571Y-88263089D02*
X119924142Y-88239279D01*
X119805094Y-88239279D01*
X119757475Y-88263089D01*
X119733666Y-88286898D01*
X119709856Y-88334517D01*
X119709856Y-88382136D01*
X119733666Y-88429755D01*
X119757475Y-88453565D01*
X119805094Y-88477374D01*
X119900333Y-88501184D01*
X119947952Y-88524993D01*
X119971761Y-88548803D01*
X119995571Y-88596422D01*
X119995571Y-88644041D01*
X119971761Y-88691660D01*
X119947952Y-88715470D01*
X119900333Y-88739279D01*
X119781285Y-88739279D01*
X119709856Y-88715470D01*
X119209856Y-88286898D02*
X119233666Y-88263089D01*
X119305094Y-88239279D01*
X119352713Y-88239279D01*
X119424142Y-88263089D01*
X119471761Y-88310708D01*
X119495571Y-88358327D01*
X119519380Y-88453565D01*
X119519380Y-88524993D01*
X119495571Y-88620231D01*
X119471761Y-88667850D01*
X119424142Y-88715470D01*
X119352713Y-88739279D01*
X119305094Y-88739279D01*
X119233666Y-88715470D01*
X119209856Y-88691660D01*
X118757475Y-88239279D02*
X118995571Y-88239279D01*
X118995571Y-88739279D01*
X136446047Y-88239279D02*
X136446047Y-88739279D01*
X136279380Y-88382136D01*
X136112713Y-88739279D01*
X136112713Y-88239279D01*
X135874618Y-88239279D02*
X135874618Y-88739279D01*
X135350809Y-88286898D02*
X135374618Y-88263089D01*
X135446047Y-88239279D01*
X135493666Y-88239279D01*
X135565094Y-88263089D01*
X135612713Y-88310708D01*
X135636523Y-88358327D01*
X135660333Y-88453565D01*
X135660333Y-88524993D01*
X135636523Y-88620231D01*
X135612713Y-88667850D01*
X135565094Y-88715470D01*
X135493666Y-88739279D01*
X135446047Y-88739279D01*
X135374618Y-88715470D01*
X135350809Y-88691660D01*
X116744760Y-117371795D02*
X116506665Y-117371795D01*
X116482856Y-117609890D01*
X116506665Y-117586081D01*
X116554284Y-117562271D01*
X116673332Y-117562271D01*
X116720951Y-117586081D01*
X116744760Y-117609890D01*
X116768570Y-117657509D01*
X116768570Y-117776557D01*
X116744760Y-117824176D01*
X116720951Y-117847985D01*
X116673332Y-117871795D01*
X116554284Y-117871795D01*
X116506665Y-117847985D01*
X116482856Y-117824176D01*
X116911427Y-117371795D02*
X117078094Y-117871795D01*
X117244760Y-117371795D01*
X146808094Y-117871795D02*
X146641427Y-117633700D01*
X146522379Y-117871795D02*
X146522379Y-117371795D01*
X146712856Y-117371795D01*
X146760475Y-117395605D01*
X146784284Y-117419414D01*
X146808094Y-117467033D01*
X146808094Y-117538462D01*
X146784284Y-117586081D01*
X146760475Y-117609890D01*
X146712856Y-117633700D01*
X146522379Y-117633700D01*
X147022379Y-117609890D02*
X147189046Y-117609890D01*
X147260475Y-117871795D02*
X147022379Y-117871795D01*
X147022379Y-117371795D01*
X147260475Y-117371795D01*
X147403332Y-117371795D02*
X147689046Y-117371795D01*
X147546189Y-117871795D02*
X147546189Y-117371795D01*
X148141427Y-117871795D02*
X147974760Y-117633700D01*
X147855713Y-117871795D02*
X147855713Y-117371795D01*
X148046189Y-117371795D01*
X148093808Y-117395605D01*
X148117618Y-117419414D01*
X148141427Y-117467033D01*
X148141427Y-117538462D01*
X148117618Y-117586081D01*
X148093808Y-117609890D01*
X148046189Y-117633700D01*
X147855713Y-117633700D01*
X127674760Y-117609890D02*
X127841427Y-117609890D01*
X127912856Y-117871795D02*
X127674760Y-117871795D01*
X127674760Y-117371795D01*
X127912856Y-117371795D01*
X128103332Y-117847985D02*
X128174760Y-117871795D01*
X128293808Y-117871795D01*
X128341427Y-117847985D01*
X128365237Y-117824176D01*
X128389046Y-117776557D01*
X128389046Y-117728938D01*
X128365237Y-117681319D01*
X128341427Y-117657509D01*
X128293808Y-117633700D01*
X128198570Y-117609890D01*
X128150951Y-117586081D01*
X128127141Y-117562271D01*
X128103332Y-117514652D01*
X128103332Y-117467033D01*
X128127141Y-117419414D01*
X128150951Y-117395605D01*
X128198570Y-117371795D01*
X128317618Y-117371795D01*
X128389046Y-117395605D01*
X128889046Y-117824176D02*
X128865237Y-117847985D01*
X128793808Y-117871795D01*
X128746189Y-117871795D01*
X128674760Y-117847985D01*
X128627141Y-117800366D01*
X128603332Y-117752747D01*
X128579522Y-117657509D01*
X128579522Y-117586081D01*
X128603332Y-117490843D01*
X128627141Y-117443224D01*
X128674760Y-117395605D01*
X128746189Y-117371795D01*
X128793808Y-117371795D01*
X128865237Y-117395605D01*
X128889046Y-117419414D01*
X132754760Y-117847985D02*
X132826189Y-117871795D01*
X132945237Y-117871795D01*
X132992856Y-117847985D01*
X133016665Y-117824176D01*
X133040475Y-117776557D01*
X133040475Y-117728938D01*
X133016665Y-117681319D01*
X132992856Y-117657509D01*
X132945237Y-117633700D01*
X132849999Y-117609890D01*
X132802379Y-117586081D01*
X132778570Y-117562271D01*
X132754760Y-117514652D01*
X132754760Y-117467033D01*
X132778570Y-117419414D01*
X132802379Y-117395605D01*
X132849999Y-117371795D01*
X132969046Y-117371795D01*
X133040475Y-117395605D01*
X133540475Y-117824176D02*
X133516665Y-117847985D01*
X133445237Y-117871795D01*
X133397618Y-117871795D01*
X133326189Y-117847985D01*
X133278570Y-117800366D01*
X133254760Y-117752747D01*
X133230951Y-117657509D01*
X133230951Y-117586081D01*
X133254760Y-117490843D01*
X133278570Y-117443224D01*
X133326189Y-117395605D01*
X133397618Y-117371795D01*
X133445237Y-117371795D01*
X133516665Y-117395605D01*
X133540475Y-117419414D01*
X133992856Y-117871795D02*
X133754760Y-117871795D01*
X133754760Y-117371795D01*
X128683190Y-88739279D02*
X128683190Y-88334517D01*
X128659380Y-88286898D01*
X128635571Y-88263089D01*
X128587952Y-88239279D01*
X128492713Y-88239279D01*
X128445094Y-88263089D01*
X128421285Y-88286898D01*
X128397475Y-88334517D01*
X128397475Y-88739279D01*
X128159380Y-88239279D02*
X128159380Y-88739279D01*
X127968904Y-88739279D01*
X127921285Y-88715470D01*
X127897475Y-88691660D01*
X127873666Y-88644041D01*
X127873666Y-88572612D01*
X127897475Y-88524993D01*
X127921285Y-88501184D01*
X127968904Y-88477374D01*
X128159380Y-88477374D01*
X118784760Y-117419414D02*
X118808570Y-117395605D01*
X118856189Y-117371795D01*
X118975237Y-117371795D01*
X119022856Y-117395605D01*
X119046665Y-117419414D01*
X119070475Y-117467033D01*
X119070475Y-117514652D01*
X119046665Y-117586081D01*
X118760951Y-117871795D01*
X119070475Y-117871795D01*
X119499046Y-117538462D02*
X119499046Y-117871795D01*
X119379999Y-117347985D02*
X119260951Y-117705128D01*
X119570475Y-117705128D01*
X119689522Y-117371795D02*
X119856189Y-117871795D01*
X120022856Y-117371795D01*
X144895571Y-88239279D02*
X145133666Y-88239279D01*
X145133666Y-88739279D01*
X144443190Y-88239279D02*
X144609856Y-88477374D01*
X144728904Y-88239279D02*
X144728904Y-88739279D01*
X144538428Y-88739279D01*
X144490809Y-88715470D01*
X144466999Y-88691660D01*
X144443190Y-88644041D01*
X144443190Y-88572612D01*
X144466999Y-88524993D01*
X144490809Y-88501184D01*
X144538428Y-88477374D01*
X144728904Y-88477374D01*
X153574760Y-117871795D02*
X153336665Y-117871795D01*
X153336665Y-117371795D01*
X154027141Y-117871795D02*
X153860475Y-117633700D01*
X153741427Y-117871795D02*
X153741427Y-117371795D01*
X153931903Y-117371795D01*
X153979522Y-117395605D01*
X154003332Y-117419414D01*
X154027141Y-117467033D01*
X154027141Y-117538462D01*
X154003332Y-117586081D01*
X153979522Y-117609890D01*
X153931903Y-117633700D01*
X153741427Y-117633700D01*
X155555571Y-88691660D02*
X155531761Y-88715470D01*
X155484142Y-88739279D01*
X155365094Y-88739279D01*
X155317475Y-88715470D01*
X155293666Y-88691660D01*
X155269856Y-88644041D01*
X155269856Y-88596422D01*
X155293666Y-88524993D01*
X155579380Y-88239279D01*
X155269856Y-88239279D01*
X154841285Y-88572612D02*
X154841285Y-88239279D01*
X154960333Y-88763089D02*
X155079380Y-88405946D01*
X154769856Y-88405946D01*
X154650809Y-88739279D02*
X154484142Y-88239279D01*
X154317475Y-88739279D01*
X138962237Y-88239279D02*
X139128904Y-88477374D01*
X139247952Y-88239279D02*
X139247952Y-88739279D01*
X139057475Y-88739279D01*
X139009856Y-88715470D01*
X138986047Y-88691660D01*
X138962237Y-88644041D01*
X138962237Y-88572612D01*
X138986047Y-88524993D01*
X139009856Y-88501184D01*
X139057475Y-88477374D01*
X139247952Y-88477374D01*
X138747952Y-88501184D02*
X138581285Y-88501184D01*
X138509856Y-88239279D02*
X138747952Y-88239279D01*
X138747952Y-88739279D01*
X138509856Y-88739279D01*
X138366999Y-88739279D02*
X138081285Y-88739279D01*
X138224142Y-88239279D02*
X138224142Y-88739279D01*
X137628904Y-88239279D02*
X137795571Y-88477374D01*
X137914618Y-88239279D02*
X137914618Y-88739279D01*
X137724142Y-88739279D01*
X137676523Y-88715470D01*
X137652713Y-88691660D01*
X137628904Y-88644041D01*
X137628904Y-88572612D01*
X137652713Y-88524993D01*
X137676523Y-88501184D01*
X137724142Y-88477374D01*
X137914618Y-88477374D01*
X157880951Y-117609890D02*
X158047618Y-117609890D01*
X158119046Y-117871795D02*
X157880951Y-117871795D01*
X157880951Y-117371795D01*
X158119046Y-117371795D01*
X158333332Y-117871795D02*
X158333332Y-117371795D01*
X158499999Y-117728938D01*
X158666665Y-117371795D01*
X158666665Y-117871795D01*
X158904760Y-117609890D02*
X159071427Y-117609890D01*
X159142856Y-117871795D02*
X158904760Y-117871795D01*
X158904760Y-117371795D01*
X159142856Y-117371795D01*
X159642856Y-117871795D02*
X159476189Y-117633700D01*
X159357141Y-117871795D02*
X159357141Y-117371795D01*
X159547618Y-117371795D01*
X159595237Y-117395605D01*
X159619046Y-117419414D01*
X159642856Y-117467033D01*
X159642856Y-117538462D01*
X159619046Y-117586081D01*
X159595237Y-117609890D01*
X159547618Y-117633700D01*
X159357141Y-117633700D01*
X112161285Y-88715470D02*
X112208904Y-88739279D01*
X112280333Y-88739279D01*
X112351761Y-88715470D01*
X112399380Y-88667850D01*
X112423190Y-88620231D01*
X112446999Y-88524993D01*
X112446999Y-88453565D01*
X112423190Y-88358327D01*
X112399380Y-88310708D01*
X112351761Y-88263089D01*
X112280333Y-88239279D01*
X112232713Y-88239279D01*
X112161285Y-88263089D01*
X112137475Y-88286898D01*
X112137475Y-88453565D01*
X112232713Y-88453565D01*
X111923190Y-88239279D02*
X111923190Y-88739279D01*
X111637475Y-88239279D01*
X111637475Y-88739279D01*
X111399380Y-88239279D02*
X111399380Y-88739279D01*
X111280333Y-88739279D01*
X111208904Y-88715470D01*
X111161285Y-88667850D01*
X111137475Y-88620231D01*
X111113666Y-88524993D01*
X111113666Y-88453565D01*
X111137475Y-88358327D01*
X111161285Y-88310708D01*
X111208904Y-88263089D01*
X111280333Y-88239279D01*
X111399380Y-88239279D01*
X124694284Y-117609890D02*
X124860951Y-117609890D01*
X124932379Y-117871795D02*
X124694284Y-117871795D01*
X124694284Y-117371795D01*
X124932379Y-117371795D01*
X125146665Y-117871795D02*
X125146665Y-117371795D01*
X125432379Y-117871795D01*
X125432379Y-117371795D01*
X125599046Y-117371795D02*
X125884760Y-117371795D01*
X125741903Y-117871795D02*
X125741903Y-117371795D01*
X126051427Y-117609890D02*
X126218094Y-117609890D01*
X126289522Y-117871795D02*
X126051427Y-117871795D01*
X126051427Y-117371795D01*
X126289522Y-117371795D01*
X126789522Y-117871795D02*
X126622856Y-117633700D01*
X126503808Y-117871795D02*
X126503808Y-117371795D01*
X126694284Y-117371795D01*
X126741903Y-117395605D01*
X126765713Y-117419414D01*
X126789522Y-117467033D01*
X126789522Y-117538462D01*
X126765713Y-117586081D01*
X126741903Y-117609890D01*
X126694284Y-117633700D01*
X126503808Y-117633700D01*
X131770809Y-88239279D02*
X131770809Y-88739279D01*
X131651761Y-88739279D01*
X131580333Y-88715470D01*
X131532713Y-88667850D01*
X131508904Y-88620231D01*
X131485094Y-88524993D01*
X131485094Y-88453565D01*
X131508904Y-88358327D01*
X131532713Y-88310708D01*
X131580333Y-88263089D01*
X131651761Y-88239279D01*
X131770809Y-88239279D01*
X131175571Y-88739279D02*
X131080333Y-88739279D01*
X131032713Y-88715470D01*
X130985094Y-88667850D01*
X130961285Y-88572612D01*
X130961285Y-88405946D01*
X130985094Y-88310708D01*
X131032713Y-88263089D01*
X131080333Y-88239279D01*
X131175571Y-88239279D01*
X131223190Y-88263089D01*
X131270809Y-88310708D01*
X131294618Y-88405946D01*
X131294618Y-88572612D01*
X131270809Y-88667850D01*
X131223190Y-88715470D01*
X131175571Y-88739279D01*
X130794618Y-88739279D02*
X130675571Y-88239279D01*
X130580333Y-88596422D01*
X130485094Y-88239279D01*
X130366047Y-88739279D01*
X130175571Y-88239279D02*
X130175571Y-88739279D01*
X129889856Y-88239279D01*
X129889856Y-88739279D01*
X160909380Y-88501184D02*
X160742713Y-88501184D01*
X160671285Y-88239279D02*
X160909380Y-88239279D01*
X160909380Y-88739279D01*
X160671285Y-88739279D01*
X160456999Y-88239279D02*
X160456999Y-88739279D01*
X160290333Y-88382136D01*
X160123666Y-88739279D01*
X160123666Y-88239279D01*
X159885571Y-88501184D02*
X159718904Y-88501184D01*
X159647475Y-88239279D02*
X159885571Y-88239279D01*
X159885571Y-88739279D01*
X159647475Y-88739279D01*
X159147475Y-88239279D02*
X159314142Y-88477374D01*
X159433190Y-88239279D02*
X159433190Y-88739279D01*
X159242713Y-88739279D01*
X159195094Y-88715470D01*
X159171285Y-88691660D01*
X159147475Y-88644041D01*
X159147475Y-88572612D01*
X159171285Y-88524993D01*
X159195094Y-88501184D01*
X159242713Y-88477374D01*
X159433190Y-88477374D01*
X144446665Y-117728938D02*
X144684760Y-117728938D01*
X144399046Y-117871795D02*
X144565713Y-117371795D01*
X144732379Y-117871795D01*
X144827618Y-117371795D02*
X144994284Y-117871795D01*
X145160951Y-117371795D01*
D10*
X133113555Y-108426666D02*
X133065936Y-108474285D01*
X132923078Y-108521904D01*
X132827840Y-108521904D01*
X132684983Y-108474285D01*
X132589745Y-108379047D01*
X132542126Y-108283809D01*
X132494507Y-108093333D01*
X132494507Y-107950476D01*
X132542126Y-107760000D01*
X132589745Y-107664762D01*
X132684983Y-107569524D01*
X132827840Y-107521904D01*
X132923078Y-107521904D01*
X133065936Y-107569524D01*
X133113555Y-107617143D01*
X133684983Y-108521904D02*
X133589745Y-108474285D01*
X133542126Y-108426666D01*
X133494507Y-108331428D01*
X133494507Y-108045714D01*
X133542126Y-107950476D01*
X133589745Y-107902857D01*
X133684983Y-107855238D01*
X133827840Y-107855238D01*
X133923078Y-107902857D01*
X133970697Y-107950476D01*
X134018317Y-108045714D01*
X134018317Y-108331428D01*
X133970697Y-108426666D01*
X133923078Y-108474285D01*
X133827840Y-108521904D01*
X133684983Y-108521904D01*
X134446888Y-107855238D02*
X134446888Y-108521904D01*
X134446888Y-107950476D02*
X134494507Y-107902857D01*
X134589745Y-107855238D01*
X134732602Y-107855238D01*
X134827840Y-107902857D01*
X134875459Y-107998095D01*
X134875459Y-108521904D01*
X135732602Y-108474285D02*
X135637364Y-108521904D01*
X135446888Y-108521904D01*
X135351650Y-108474285D01*
X135304031Y-108379047D01*
X135304031Y-107998095D01*
X135351650Y-107902857D01*
X135446888Y-107855238D01*
X135637364Y-107855238D01*
X135732602Y-107902857D01*
X135780221Y-107998095D01*
X135780221Y-108093333D01*
X135304031Y-108188571D01*
X136113555Y-108521904D02*
X136637364Y-107855238D01*
X136113555Y-107855238D02*
X136637364Y-108521904D01*
X137018317Y-108521904D02*
X137018317Y-107855238D01*
X137018317Y-107521904D02*
X136970697Y-107569524D01*
X137018317Y-107617143D01*
X137065936Y-107569524D01*
X137018317Y-107521904D01*
X137018317Y-107617143D01*
X137637364Y-108521904D02*
X137542126Y-108474285D01*
X137494507Y-108426666D01*
X137446888Y-108331428D01*
X137446888Y-108045714D01*
X137494507Y-107950476D01*
X137542126Y-107902857D01*
X137637364Y-107855238D01*
X137780221Y-107855238D01*
X137875459Y-107902857D01*
X137923078Y-107950476D01*
X137970697Y-108045714D01*
X137970697Y-108331428D01*
X137923078Y-108426666D01*
X137875459Y-108474285D01*
X137780221Y-108521904D01*
X137637364Y-108521904D01*
X138399269Y-107855238D02*
X138399269Y-108521904D01*
X138399269Y-107950476D02*
X138446888Y-107902857D01*
X138542126Y-107855238D01*
X138684983Y-107855238D01*
X138780221Y-107902857D01*
X138827840Y-107998095D01*
X138827840Y-108521904D01*
X139684983Y-108474285D02*
X139589745Y-108521904D01*
X139399269Y-108521904D01*
X139304031Y-108474285D01*
X139256412Y-108379047D01*
X139256412Y-107998095D01*
X139304031Y-107902857D01*
X139399269Y-107855238D01*
X139589745Y-107855238D01*
X139684983Y-107902857D01*
X139732602Y-107998095D01*
X139732602Y-108093333D01*
X139256412Y-108188571D01*
X140113555Y-108474285D02*
X140208793Y-108521904D01*
X140399269Y-108521904D01*
X140494507Y-108474285D01*
X140542126Y-108379047D01*
X140542126Y-108331428D01*
X140494507Y-108236190D01*
X140399269Y-108188571D01*
X140256412Y-108188571D01*
X140161174Y-108140952D01*
X140113555Y-108045714D01*
X140113555Y-107998095D01*
X140161174Y-107902857D01*
X140256412Y-107855238D01*
X140399269Y-107855238D01*
X140494507Y-107902857D01*
D11*
X139307141Y-117371795D02*
X139307141Y-117776557D01*
X139330951Y-117824176D01*
X139354760Y-117847985D01*
X139402379Y-117871795D01*
X139497618Y-117871795D01*
X139545237Y-117847985D01*
X139569046Y-117824176D01*
X139592856Y-117776557D01*
X139592856Y-117371795D01*
X139830951Y-117871795D02*
X139830951Y-117371795D01*
X140021427Y-117371795D01*
X140069046Y-117395605D01*
X140092856Y-117419414D01*
X140116665Y-117467033D01*
X140116665Y-117538462D01*
X140092856Y-117586081D01*
X140069046Y-117609890D01*
X140021427Y-117633700D01*
X139830951Y-117633700D01*
X117467475Y-88263089D02*
X117396047Y-88239279D01*
X117276999Y-88239279D01*
X117229380Y-88263089D01*
X117205571Y-88286898D01*
X117181761Y-88334517D01*
X117181761Y-88382136D01*
X117205571Y-88429755D01*
X117229380Y-88453565D01*
X117276999Y-88477374D01*
X117372237Y-88501184D01*
X117419856Y-88524993D01*
X117443666Y-88548803D01*
X117467475Y-88596422D01*
X117467475Y-88644041D01*
X117443666Y-88691660D01*
X117419856Y-88715470D01*
X117372237Y-88739279D01*
X117253190Y-88739279D01*
X117181761Y-88715470D01*
X116967475Y-88239279D02*
X116967475Y-88739279D01*
X116848428Y-88739279D01*
X116776999Y-88715470D01*
X116729380Y-88667850D01*
X116705571Y-88620231D01*
X116681761Y-88524993D01*
X116681761Y-88453565D01*
X116705571Y-88358327D01*
X116729380Y-88310708D01*
X116776999Y-88263089D01*
X116848428Y-88239279D01*
X116967475Y-88239279D01*
X116491285Y-88382136D02*
X116253190Y-88382136D01*
X116538904Y-88239279D02*
X116372237Y-88739279D01*
X116205571Y-88239279D01*
X133703666Y-88382136D02*
X133465571Y-88382136D01*
X133751285Y-88239279D02*
X133584618Y-88739279D01*
X133417952Y-88239279D01*
X133322713Y-88739279D02*
X133156047Y-88239279D01*
X132989380Y-88739279D01*
X114415571Y-88739279D02*
X114653666Y-88739279D01*
X114677475Y-88501184D01*
X114653666Y-88524993D01*
X114606047Y-88548803D01*
X114486999Y-88548803D01*
X114439380Y-88524993D01*
X114415571Y-88501184D01*
X114391761Y-88453565D01*
X114391761Y-88334517D01*
X114415571Y-88286898D01*
X114439380Y-88263089D01*
X114486999Y-88239279D01*
X114606047Y-88239279D01*
X114653666Y-88263089D01*
X114677475Y-88286898D01*
X114248904Y-88739279D02*
X114082237Y-88239279D01*
X113915571Y-88739279D01*
X130202856Y-117847985D02*
X130274284Y-117871795D01*
X130393332Y-117871795D01*
X130440951Y-117847985D01*
X130464760Y-117824176D01*
X130488570Y-117776557D01*
X130488570Y-117728938D01*
X130464760Y-117681319D01*
X130440951Y-117657509D01*
X130393332Y-117633700D01*
X130298094Y-117609890D01*
X130250475Y-117586081D01*
X130226665Y-117562271D01*
X130202856Y-117514652D01*
X130202856Y-117467033D01*
X130226665Y-117419414D01*
X130250475Y-117395605D01*
X130298094Y-117371795D01*
X130417141Y-117371795D01*
X130488570Y-117395605D01*
X130702856Y-117871795D02*
X130702856Y-117371795D01*
X130821903Y-117371795D01*
X130893332Y-117395605D01*
X130940951Y-117443224D01*
X130964760Y-117490843D01*
X130988570Y-117586081D01*
X130988570Y-117657509D01*
X130964760Y-117752747D01*
X130940951Y-117800366D01*
X130893332Y-117847985D01*
X130821903Y-117871795D01*
X130702856Y-117871795D01*
X131179046Y-117728938D02*
X131417141Y-117728938D01*
X131131427Y-117871795D02*
X131298094Y-117371795D01*
X131464760Y-117871795D01*
D10*
%TO.C,SW3*%
X133413333Y-94112310D02*
X133270476Y-94064691D01*
X133032380Y-94064691D01*
X132937142Y-94112310D01*
X132889523Y-94159929D01*
X132841904Y-94255167D01*
X132841904Y-94350405D01*
X132889523Y-94445643D01*
X132937142Y-94493262D01*
X133032380Y-94540881D01*
X133222857Y-94588500D01*
X133318095Y-94636119D01*
X133365714Y-94683738D01*
X133413333Y-94778976D01*
X133413333Y-94874214D01*
X133365714Y-94969452D01*
X133318095Y-95017072D01*
X133222857Y-95064691D01*
X132984761Y-95064691D01*
X132841904Y-95017072D01*
X132508571Y-95064691D02*
X132270476Y-94064691D01*
X132080000Y-94778976D01*
X131889523Y-94064691D01*
X131651428Y-95064691D01*
X131365714Y-95064691D02*
X130746666Y-95064691D01*
X131080000Y-94683738D01*
X130937142Y-94683738D01*
X130841904Y-94636119D01*
X130794285Y-94588500D01*
X130746666Y-94493262D01*
X130746666Y-94255167D01*
X130794285Y-94159929D01*
X130841904Y-94112310D01*
X130937142Y-94064691D01*
X131222857Y-94064691D01*
X131318095Y-94112310D01*
X131365714Y-94159929D01*
X137627619Y-97031973D02*
X137484761Y-96984354D01*
X137437142Y-96936735D01*
X137389523Y-96841497D01*
X137389523Y-96698640D01*
X137437142Y-96603402D01*
X137484761Y-96555783D01*
X137580000Y-96508164D01*
X137960952Y-96508164D01*
X137960952Y-97508164D01*
X137627619Y-97508164D01*
X137532380Y-97460545D01*
X137484761Y-97412925D01*
X137437142Y-97317687D01*
X137437142Y-97222449D01*
X137484761Y-97127211D01*
X137532380Y-97079592D01*
X137627619Y-97031973D01*
X137960952Y-97031973D01*
X136818095Y-96508164D02*
X136913333Y-96555783D01*
X136960952Y-96603402D01*
X137008571Y-96698640D01*
X137008571Y-96984354D01*
X136960952Y-97079592D01*
X136913333Y-97127211D01*
X136818095Y-97174830D01*
X136675238Y-97174830D01*
X136580000Y-97127211D01*
X136532380Y-97079592D01*
X136484761Y-96984354D01*
X136484761Y-96698640D01*
X136532380Y-96603402D01*
X136580000Y-96555783D01*
X136675238Y-96508164D01*
X136818095Y-96508164D01*
X136199047Y-97174830D02*
X135818095Y-97174830D01*
X136056190Y-97508164D02*
X136056190Y-96651021D01*
X136008571Y-96555783D01*
X135913333Y-96508164D01*
X135818095Y-96508164D01*
X135341904Y-96508164D02*
X135437142Y-96555783D01*
X135484761Y-96603402D01*
X135532380Y-96698640D01*
X135532380Y-96984354D01*
X135484761Y-97079592D01*
X135437142Y-97127211D01*
X135341904Y-97174830D01*
X135199047Y-97174830D01*
X135103809Y-97127211D01*
X135056190Y-97079592D01*
X135008571Y-96984354D01*
X135008571Y-96698640D01*
X135056190Y-96603402D01*
X135103809Y-96555783D01*
X135199047Y-96508164D01*
X135341904Y-96508164D01*
X135151428Y-97555783D02*
X135294285Y-97412925D01*
X134580000Y-97174830D02*
X134580000Y-96508164D01*
X134580000Y-97079592D02*
X134532380Y-97127211D01*
X134437142Y-97174830D01*
X134294285Y-97174830D01*
X134199047Y-97127211D01*
X134151428Y-97031973D01*
X134151428Y-96508164D01*
X132960952Y-96555783D02*
X132818095Y-96508164D01*
X132580000Y-96508164D01*
X132484761Y-96555783D01*
X132437142Y-96603402D01*
X132389523Y-96698640D01*
X132389523Y-96793878D01*
X132437142Y-96889116D01*
X132484761Y-96936735D01*
X132580000Y-96984354D01*
X132770476Y-97031973D01*
X132865714Y-97079592D01*
X132913333Y-97127211D01*
X132960952Y-97222449D01*
X132960952Y-97317687D01*
X132913333Y-97412925D01*
X132865714Y-97460545D01*
X132770476Y-97508164D01*
X132532380Y-97508164D01*
X132389523Y-97460545D01*
X131580000Y-96555783D02*
X131675238Y-96508164D01*
X131865714Y-96508164D01*
X131960952Y-96555783D01*
X132008571Y-96651021D01*
X132008571Y-97031973D01*
X131960952Y-97127211D01*
X131865714Y-97174830D01*
X131675238Y-97174830D01*
X131580000Y-97127211D01*
X131532380Y-97031973D01*
X131532380Y-96936735D01*
X132008571Y-96841497D01*
X130960952Y-96508164D02*
X131056190Y-96555783D01*
X131103809Y-96651021D01*
X131103809Y-97508164D01*
X130199047Y-96555783D02*
X130294285Y-96508164D01*
X130484761Y-96508164D01*
X130580000Y-96555783D01*
X130627619Y-96651021D01*
X130627619Y-97031973D01*
X130580000Y-97127211D01*
X130484761Y-97174830D01*
X130294285Y-97174830D01*
X130199047Y-97127211D01*
X130151428Y-97031973D01*
X130151428Y-96936735D01*
X130627619Y-96841497D01*
X129294285Y-96555783D02*
X129389523Y-96508164D01*
X129580000Y-96508164D01*
X129675238Y-96555783D01*
X129722857Y-96603402D01*
X129770476Y-96698640D01*
X129770476Y-96984354D01*
X129722857Y-97079592D01*
X129675238Y-97127211D01*
X129580000Y-97174830D01*
X129389523Y-97174830D01*
X129294285Y-97127211D01*
X128437142Y-96555783D02*
X128532380Y-96508164D01*
X128722857Y-96508164D01*
X128818095Y-96555783D01*
X128865714Y-96603402D01*
X128913333Y-96698640D01*
X128913333Y-96984354D01*
X128865714Y-97079592D01*
X128818095Y-97127211D01*
X128722857Y-97174830D01*
X128532380Y-97174830D01*
X128437142Y-97127211D01*
X128008571Y-96508164D02*
X128008571Y-97174830D01*
X128008571Y-97508164D02*
X128056190Y-97460545D01*
X128008571Y-97412925D01*
X127960952Y-97460545D01*
X128008571Y-97508164D01*
X128008571Y-97412925D01*
X127389523Y-96508164D02*
X127484761Y-96555783D01*
X127532380Y-96603402D01*
X127580000Y-96698640D01*
X127580000Y-96984354D01*
X127532380Y-97079592D01*
X127484761Y-97127211D01*
X127389523Y-97174830D01*
X127246666Y-97174830D01*
X127151428Y-97127211D01*
X127103809Y-97079592D01*
X127056190Y-96984354D01*
X127056190Y-96698640D01*
X127103809Y-96603402D01*
X127151428Y-96555783D01*
X127246666Y-96508164D01*
X127389523Y-96508164D01*
X127199047Y-97555783D02*
X127341904Y-97412925D01*
X126627619Y-97174830D02*
X126627619Y-96508164D01*
X126627619Y-97079592D02*
X126580000Y-97127211D01*
X126484761Y-97174830D01*
X126341904Y-97174830D01*
X126246666Y-97127211D01*
X126199047Y-97031973D01*
X126199047Y-96508164D01*
%TO.C,H3*%
X96325123Y-114381262D02*
X96325123Y-113381262D01*
X96325123Y-113857453D02*
X96896551Y-113857453D01*
X96896551Y-114381262D02*
X96896551Y-113381262D01*
X97277504Y-113381262D02*
X97896551Y-113381262D01*
X97563218Y-113762215D01*
X97706075Y-113762215D01*
X97801313Y-113809834D01*
X97848932Y-113857453D01*
X97896551Y-113952691D01*
X97896551Y-114190786D01*
X97848932Y-114286024D01*
X97801313Y-114333643D01*
X97706075Y-114381262D01*
X97420361Y-114381262D01*
X97325123Y-114333643D01*
X97277504Y-114286024D01*
%TO.C,H4*%
X176323551Y-114355196D02*
X176323551Y-113355196D01*
X176323551Y-113831387D02*
X176894979Y-113831387D01*
X176894979Y-114355196D02*
X176894979Y-113355196D01*
X177799741Y-113688530D02*
X177799741Y-114355196D01*
X177561646Y-113307577D02*
X177323551Y-114021863D01*
X177942598Y-114021863D01*
%TO.C,J4*%
X155876666Y-114968619D02*
X155876666Y-115682905D01*
X155829047Y-115825762D01*
X155733809Y-115921000D01*
X155590952Y-115968619D01*
X155495714Y-115968619D01*
X156781428Y-115301953D02*
X156781428Y-115968619D01*
X156543333Y-114921000D02*
X156305238Y-115635286D01*
X156924285Y-115635286D01*
%TO.C,H1*%
X96336696Y-41216630D02*
X96336696Y-40216630D01*
X96336696Y-40692821D02*
X96908124Y-40692821D01*
X96908124Y-41216630D02*
X96908124Y-40216630D01*
X97908124Y-41216630D02*
X97336696Y-41216630D01*
X97622410Y-41216630D02*
X97622410Y-40216630D01*
X97527172Y-40359488D01*
X97431934Y-40454726D01*
X97336696Y-40502345D01*
%TO.C,J1*%
X116506666Y-115067102D02*
X116506666Y-115781388D01*
X116459047Y-115924245D01*
X116363809Y-116019483D01*
X116220952Y-116067102D01*
X116125714Y-116067102D01*
X117506666Y-116067102D02*
X116935238Y-116067102D01*
X117220952Y-116067102D02*
X117220952Y-115067102D01*
X117125714Y-115209960D01*
X117030476Y-115305198D01*
X116935238Y-115352817D01*
%TO.C,SW6*%
X162623333Y-94169778D02*
X162480476Y-94122159D01*
X162242380Y-94122159D01*
X162147142Y-94169778D01*
X162099523Y-94217397D01*
X162051904Y-94312635D01*
X162051904Y-94407873D01*
X162099523Y-94503111D01*
X162147142Y-94550730D01*
X162242380Y-94598349D01*
X162432857Y-94645968D01*
X162528095Y-94693587D01*
X162575714Y-94741206D01*
X162623333Y-94836444D01*
X162623333Y-94931682D01*
X162575714Y-95026920D01*
X162528095Y-95074540D01*
X162432857Y-95122159D01*
X162194761Y-95122159D01*
X162051904Y-95074540D01*
X161718571Y-95122159D02*
X161480476Y-94122159D01*
X161290000Y-94836444D01*
X161099523Y-94122159D01*
X160861428Y-95122159D01*
X160051904Y-95122159D02*
X160242380Y-95122159D01*
X160337619Y-95074540D01*
X160385238Y-95026920D01*
X160480476Y-94884063D01*
X160528095Y-94693587D01*
X160528095Y-94312635D01*
X160480476Y-94217397D01*
X160432857Y-94169778D01*
X160337619Y-94122159D01*
X160147142Y-94122159D01*
X160051904Y-94169778D01*
X160004285Y-94217397D01*
X159956666Y-94312635D01*
X159956666Y-94550730D01*
X160004285Y-94645968D01*
X160051904Y-94693587D01*
X160147142Y-94741206D01*
X160337619Y-94741206D01*
X160432857Y-94693587D01*
X160480476Y-94645968D01*
X160528095Y-94550730D01*
X165670952Y-97031973D02*
X165337619Y-97031973D01*
X165194761Y-96508164D02*
X165670952Y-96508164D01*
X165670952Y-97508164D01*
X165194761Y-97508164D01*
X164766190Y-96508164D02*
X164766190Y-97508164D01*
X164432857Y-96793878D01*
X164099523Y-97508164D01*
X164099523Y-96508164D01*
X163623333Y-97031973D02*
X163290000Y-97031973D01*
X163147142Y-96508164D02*
X163623333Y-96508164D01*
X163623333Y-97508164D01*
X163147142Y-97508164D01*
X162147142Y-96508164D02*
X162480476Y-96984354D01*
X162718571Y-96508164D02*
X162718571Y-97508164D01*
X162337619Y-97508164D01*
X162242380Y-97460545D01*
X162194761Y-97412925D01*
X162147142Y-97317687D01*
X162147142Y-97174830D01*
X162194761Y-97079592D01*
X162242380Y-97031973D01*
X162337619Y-96984354D01*
X162718571Y-96984354D01*
X161194761Y-97460545D02*
X161290000Y-97508164D01*
X161432857Y-97508164D01*
X161575714Y-97460545D01*
X161670952Y-97365306D01*
X161718571Y-97270068D01*
X161766190Y-97079592D01*
X161766190Y-96936735D01*
X161718571Y-96746259D01*
X161670952Y-96651021D01*
X161575714Y-96555783D01*
X161432857Y-96508164D01*
X161337619Y-96508164D01*
X161194761Y-96555783D01*
X161147142Y-96603402D01*
X161147142Y-96936735D01*
X161337619Y-96936735D01*
X160718571Y-97031973D02*
X160385238Y-97031973D01*
X160242380Y-96508164D02*
X160718571Y-96508164D01*
X160718571Y-97508164D01*
X160242380Y-97508164D01*
X159813809Y-96508164D02*
X159813809Y-97508164D01*
X159242380Y-96508164D01*
X159242380Y-97508164D01*
X158194761Y-96603402D02*
X158242380Y-96555783D01*
X158385238Y-96508164D01*
X158480476Y-96508164D01*
X158623333Y-96555783D01*
X158718571Y-96651021D01*
X158766190Y-96746259D01*
X158813809Y-96936735D01*
X158813809Y-97079592D01*
X158766190Y-97270068D01*
X158718571Y-97365306D01*
X158623333Y-97460545D01*
X158480476Y-97508164D01*
X158385238Y-97508164D01*
X158242380Y-97460545D01*
X158194761Y-97412925D01*
X157766190Y-96508164D02*
X157766190Y-97508164D01*
X157337619Y-96793878D02*
X156861428Y-96793878D01*
X157432857Y-96508164D02*
X157099523Y-97508164D01*
X156766190Y-96508164D01*
%TO.C,H2*%
X176366917Y-41231124D02*
X176366917Y-40231124D01*
X176366917Y-40707315D02*
X176938345Y-40707315D01*
X176938345Y-41231124D02*
X176938345Y-40231124D01*
X177366917Y-40326363D02*
X177414536Y-40278744D01*
X177509774Y-40231124D01*
X177747869Y-40231124D01*
X177843107Y-40278744D01*
X177890726Y-40326363D01*
X177938345Y-40421601D01*
X177938345Y-40516839D01*
X177890726Y-40659696D01*
X177319298Y-41231124D01*
X177938345Y-41231124D01*
%TO.C,J5*%
X115898833Y-95123237D02*
X115898833Y-94408951D01*
X115946452Y-94266094D01*
X116041690Y-94170856D01*
X116184547Y-94123237D01*
X116279785Y-94123237D01*
X114946452Y-95123237D02*
X115422642Y-95123237D01*
X115470261Y-94647046D01*
X115422642Y-94694665D01*
X115327404Y-94742284D01*
X115089309Y-94742284D01*
X114994071Y-94694665D01*
X114946452Y-94647046D01*
X114898833Y-94551808D01*
X114898833Y-94313713D01*
X114946452Y-94218475D01*
X114994071Y-94170856D01*
X115089309Y-94123237D01*
X115327404Y-94123237D01*
X115422642Y-94170856D01*
X115470261Y-94218475D01*
X116255476Y-96513164D02*
X116731666Y-96513164D01*
X116731666Y-97513164D01*
X115350714Y-96608402D02*
X115398333Y-96560783D01*
X115541190Y-96513164D01*
X115636428Y-96513164D01*
X115779285Y-96560783D01*
X115874523Y-96656021D01*
X115922142Y-96751259D01*
X115969761Y-96941735D01*
X115969761Y-97084592D01*
X115922142Y-97275068D01*
X115874523Y-97370306D01*
X115779285Y-97465545D01*
X115636428Y-97513164D01*
X115541190Y-97513164D01*
X115398333Y-97465545D01*
X115350714Y-97417925D01*
X114922142Y-96513164D02*
X114922142Y-97513164D01*
X114684047Y-97513164D01*
X114541190Y-97465545D01*
X114445952Y-97370306D01*
X114398333Y-97275068D01*
X114350714Y-97084592D01*
X114350714Y-96941735D01*
X114398333Y-96751259D01*
X114445952Y-96656021D01*
X114541190Y-96560783D01*
X114684047Y-96513164D01*
X114922142Y-96513164D01*
%TO.C,SW4*%
X147383333Y-94218745D02*
X147240476Y-94171126D01*
X147002380Y-94171126D01*
X146907142Y-94218745D01*
X146859523Y-94266364D01*
X146811904Y-94361602D01*
X146811904Y-94456840D01*
X146859523Y-94552078D01*
X146907142Y-94599697D01*
X147002380Y-94647316D01*
X147192857Y-94694935D01*
X147288095Y-94742554D01*
X147335714Y-94790173D01*
X147383333Y-94885411D01*
X147383333Y-94980649D01*
X147335714Y-95075887D01*
X147288095Y-95123507D01*
X147192857Y-95171126D01*
X146954761Y-95171126D01*
X146811904Y-95123507D01*
X146478571Y-95171126D02*
X146240476Y-94171126D01*
X146050000Y-94885411D01*
X145859523Y-94171126D01*
X145621428Y-95171126D01*
X144811904Y-94837792D02*
X144811904Y-94171126D01*
X145050000Y-95218745D02*
X145288095Y-94504459D01*
X144669047Y-94504459D01*
X146240476Y-96508164D02*
X146716666Y-96508164D01*
X146716666Y-97508164D01*
X145335714Y-96508164D02*
X145669047Y-96984354D01*
X145907142Y-96508164D02*
X145907142Y-97508164D01*
X145526190Y-97508164D01*
X145430952Y-97460545D01*
X145383333Y-97412925D01*
X145335714Y-97317687D01*
X145335714Y-97174830D01*
X145383333Y-97079592D01*
X145430952Y-97031973D01*
X145526190Y-96984354D01*
X145907142Y-96984354D01*
%TO.C,SW5*%
X155003333Y-94194399D02*
X154860476Y-94146780D01*
X154622380Y-94146780D01*
X154527142Y-94194399D01*
X154479523Y-94242018D01*
X154431904Y-94337256D01*
X154431904Y-94432494D01*
X154479523Y-94527732D01*
X154527142Y-94575351D01*
X154622380Y-94622970D01*
X154812857Y-94670589D01*
X154908095Y-94718208D01*
X154955714Y-94765827D01*
X155003333Y-94861065D01*
X155003333Y-94956303D01*
X154955714Y-95051541D01*
X154908095Y-95099161D01*
X154812857Y-95146780D01*
X154574761Y-95146780D01*
X154431904Y-95099161D01*
X154098571Y-95146780D02*
X153860476Y-94146780D01*
X153670000Y-94861065D01*
X153479523Y-94146780D01*
X153241428Y-95146780D01*
X152384285Y-95146780D02*
X152860476Y-95146780D01*
X152908095Y-94670589D01*
X152860476Y-94718208D01*
X152765238Y-94765827D01*
X152527142Y-94765827D01*
X152431904Y-94718208D01*
X152384285Y-94670589D01*
X152336666Y-94575351D01*
X152336666Y-94337256D01*
X152384285Y-94242018D01*
X152431904Y-94194399D01*
X152527142Y-94146780D01*
X152765238Y-94146780D01*
X152860476Y-94194399D01*
X152908095Y-94242018D01*
X155765238Y-96508164D02*
X155765238Y-97508164D01*
X155431904Y-96793878D01*
X155098571Y-97508164D01*
X155098571Y-96508164D01*
X154622380Y-96508164D02*
X154622380Y-97508164D01*
X153574761Y-96603402D02*
X153622380Y-96555783D01*
X153765238Y-96508164D01*
X153860476Y-96508164D01*
X154003333Y-96555783D01*
X154098571Y-96651021D01*
X154146190Y-96746259D01*
X154193809Y-96936735D01*
X154193809Y-97079592D01*
X154146190Y-97270068D01*
X154098571Y-97365306D01*
X154003333Y-97460545D01*
X153860476Y-97508164D01*
X153765238Y-97508164D01*
X153622380Y-97460545D01*
X153574761Y-97412925D01*
X152574761Y-96508164D02*
X152908095Y-96984354D01*
X153146190Y-96508164D02*
X153146190Y-97508164D01*
X152765238Y-97508164D01*
X152670000Y-97460545D01*
X152622380Y-97412925D01*
X152574761Y-97317687D01*
X152574761Y-97174830D01*
X152622380Y-97079592D01*
X152670000Y-97031973D01*
X152765238Y-96984354D01*
X153146190Y-96984354D01*
X151955714Y-97508164D02*
X151765238Y-97508164D01*
X151670000Y-97460545D01*
X151574761Y-97365306D01*
X151527142Y-97174830D01*
X151527142Y-96841497D01*
X151574761Y-96651021D01*
X151670000Y-96555783D01*
X151765238Y-96508164D01*
X151955714Y-96508164D01*
X152050952Y-96555783D01*
X152146190Y-96651021D01*
X152193809Y-96841497D01*
X152193809Y-97174830D01*
X152146190Y-97365306D01*
X152050952Y-97460545D01*
X151955714Y-97508164D01*
%TO.C,J2*%
X129202166Y-114993240D02*
X129202166Y-115707526D01*
X129154547Y-115850383D01*
X129059309Y-115945621D01*
X128916452Y-115993240D01*
X128821214Y-115993240D01*
X129630738Y-115088479D02*
X129678357Y-115040860D01*
X129773595Y-114993240D01*
X130011690Y-114993240D01*
X130106928Y-115040860D01*
X130154547Y-115088479D01*
X130202166Y-115183717D01*
X130202166Y-115278955D01*
X130154547Y-115421812D01*
X129583119Y-115993240D01*
X130202166Y-115993240D01*
%TO.C,J3*%
X143172166Y-114993240D02*
X143172166Y-115707526D01*
X143124547Y-115850383D01*
X143029309Y-115945621D01*
X142886452Y-115993240D01*
X142791214Y-115993240D01*
X143553119Y-114993240D02*
X144172166Y-114993240D01*
X143838833Y-115374193D01*
X143981690Y-115374193D01*
X144076928Y-115421812D01*
X144124547Y-115469431D01*
X144172166Y-115564669D01*
X144172166Y-115802764D01*
X144124547Y-115898002D01*
X144076928Y-115945621D01*
X143981690Y-115993240D01*
X143695976Y-115993240D01*
X143600738Y-115945621D01*
X143553119Y-115898002D01*
D12*
%TO.C,SW3*%
X124110000Y-95960545D02*
X140050000Y-95960545D01*
X124110000Y-95440545D02*
X140050000Y-95440545D01*
X140050000Y-89220545D02*
X140050000Y-95960545D01*
X123870000Y-96200545D02*
X124270000Y-96200545D01*
X123870000Y-95560545D02*
X123870000Y-96200545D01*
X124110000Y-89220545D02*
X124110000Y-95960545D01*
X124110000Y-90340545D02*
X140050000Y-90340545D01*
X124110000Y-89220545D02*
X140050000Y-89220545D01*
%TO.C,J4*%
X151810000Y-117155545D02*
X152210000Y-117155545D01*
X152050000Y-111295545D02*
X160370000Y-111295545D01*
X152050000Y-116915545D02*
X160370000Y-116915545D01*
X152050000Y-116395545D02*
X160370000Y-116395545D01*
X152050000Y-110175545D02*
X160370000Y-110175545D01*
X160370000Y-110175545D02*
X160370000Y-116915545D01*
X152050000Y-110175545D02*
X152050000Y-116915545D01*
X151810000Y-116515545D02*
X151810000Y-117155545D01*
%TO.C,J1*%
X112440000Y-116520545D02*
X112440000Y-117160545D01*
X112680000Y-111300545D02*
X121000000Y-111300545D01*
X112440000Y-117160545D02*
X112840000Y-117160545D01*
X112680000Y-110180545D02*
X121000000Y-110180545D01*
X121000000Y-110180545D02*
X121000000Y-116920545D01*
X112680000Y-116400545D02*
X121000000Y-116400545D01*
X112680000Y-110180545D02*
X112680000Y-116920545D01*
X112680000Y-116920545D02*
X121000000Y-116920545D01*
%TO.C,SW6*%
X158400000Y-95960545D02*
X164180000Y-95960545D01*
X158160000Y-96200545D02*
X158560000Y-96200545D01*
X158400000Y-95440545D02*
X164180000Y-95440545D01*
X164180000Y-89220545D02*
X164180000Y-95960545D01*
X158400000Y-89220545D02*
X164180000Y-89220545D01*
X158400000Y-89220545D02*
X158400000Y-95960545D01*
X158400000Y-90340545D02*
X164180000Y-90340545D01*
X158160000Y-95560545D02*
X158160000Y-96200545D01*
%TO.C,J5*%
X110135000Y-89225545D02*
X120996000Y-89225545D01*
X109895000Y-96205545D02*
X110295000Y-96205545D01*
X120996000Y-89225545D02*
X120996000Y-95965545D01*
X109895000Y-95565545D02*
X109895000Y-96205545D01*
X110135000Y-90345545D02*
X120996000Y-90345545D01*
X110135000Y-89225545D02*
X110135000Y-95965545D01*
X110135000Y-95445545D02*
X120996000Y-95445545D01*
X110135000Y-95965545D02*
X120996000Y-95965545D01*
%TO.C,SW4*%
X143160000Y-90340545D02*
X148940000Y-90340545D01*
X148940000Y-89220545D02*
X148940000Y-95960545D01*
X143160000Y-89220545D02*
X148940000Y-89220545D01*
X142920000Y-96200545D02*
X143320000Y-96200545D01*
X143160000Y-95440545D02*
X148940000Y-95440545D01*
X142920000Y-95560545D02*
X142920000Y-96200545D01*
X143160000Y-95960545D02*
X148940000Y-95960545D01*
X143160000Y-89220545D02*
X143160000Y-95960545D01*
%TO.C,SW5*%
X150780000Y-95440545D02*
X156560000Y-95440545D01*
X150540000Y-95560545D02*
X150540000Y-96200545D01*
X150780000Y-95960545D02*
X156560000Y-95960545D01*
X150780000Y-89220545D02*
X156560000Y-89220545D01*
X150540000Y-96200545D02*
X150940000Y-96200545D01*
X156560000Y-89220545D02*
X156560000Y-95960545D01*
X150780000Y-90340545D02*
X156560000Y-90340545D01*
X150780000Y-89220545D02*
X150780000Y-95960545D01*
%TO.C,J2*%
X124105000Y-110175545D02*
X124105000Y-116915545D01*
X124105000Y-110175545D02*
X134966000Y-110175545D01*
X123865000Y-117155545D02*
X124265000Y-117155545D01*
X124105000Y-111295545D02*
X134966000Y-111295545D01*
X123865000Y-116515545D02*
X123865000Y-117155545D01*
X124105000Y-116915545D02*
X134966000Y-116915545D01*
X134966000Y-110175545D02*
X134966000Y-116915545D01*
X124105000Y-116395545D02*
X134966000Y-116395545D01*
%TO.C,J3*%
X138075000Y-116915545D02*
X148936000Y-116915545D01*
X138075000Y-110175545D02*
X138075000Y-116915545D01*
X138075000Y-116395545D02*
X148936000Y-116395545D01*
X138075000Y-110175545D02*
X148936000Y-110175545D01*
X138075000Y-111295545D02*
X148936000Y-111295545D01*
X148936000Y-110175545D02*
X148936000Y-116915545D01*
X137835000Y-116515545D02*
X137835000Y-117155545D01*
X137835000Y-117155545D02*
X138235000Y-117155545D01*
%TD*%
M02*
