M48
; DRILL file {KiCad (6.0.2)} date Wed Mar 23 11:18:20 2022
; FORMAT={-:-/ absolute / inch / decimal}
; #@! TF.CreationDate,2022-03-23T11:18:20+01:00
; #@! TF.GenerationSoftware,Kicad,Pcbnew,(6.0.2)
; #@! TF.FileFunction,Plated,1,2,PTH
FMAT,2
INCH
; #@! TA.AperFunction,Plated,PTH,ComponentDrill
T1C0.0433
; #@! TA.AperFunction,Plated,PTH,ComponentDrill
T2C0.0512
; #@! TA.AperFunction,Plated,PTH,ComponentDrill
T3C0.1260
%
G90
G05
T1
X4.3998Y-3.6455
X4.4998Y-3.6455
X4.5Y-4.4705
X4.5998Y-3.6455
X4.6Y-4.4705
X4.6998Y-3.6455
X4.7Y-4.4705
X4.9498Y-4.4703
X4.95Y-3.6453
X5.0498Y-4.4703
X5.05Y-3.6453
X5.1498Y-4.4703
X5.15Y-3.6453
X5.2498Y-4.4703
X5.25Y-3.6453
X5.35Y-3.6453
X5.45Y-3.6453
X5.4998Y-4.4703
X5.5998Y-4.4703
X5.6998Y-4.4703
X5.7Y-3.6453
X5.7998Y-4.4703
X5.8Y-3.6453
X6.0Y-3.6453
X6.05Y-4.4703
X6.1Y-3.6453
X6.15Y-4.4703
X6.25Y-4.4703
X6.3Y-3.6453
X6.4Y-3.6453
T2
X3.8035Y-2.0516
X3.8035Y-2.2484
X4.2957Y-2.0516
X4.2957Y-2.2484
X6.4858Y-2.0516
X6.4858Y-2.2484
X6.978Y-2.0516
X6.978Y-2.2484
T3
X3.8224Y-1.45
X3.8224Y-4.6361
X6.972Y-1.45
X6.972Y-4.6361
T0
M30
