%TF.GenerationSoftware,KiCad,Pcbnew,(6.0.2)*%
%TF.CreationDate,2022-02-22T20:29:11+01:00*%
%TF.ProjectId,tapa,74617061-2e6b-4696-9361-645f70636258,rev?*%
%TF.SameCoordinates,Original*%
%TF.FileFunction,Legend,Top*%
%TF.FilePolarity,Positive*%
%FSLAX46Y46*%
G04 Gerber Fmt 4.6, Leading zero omitted, Abs format (unit mm)*
G04 Created by KiCad (PCBNEW (6.0.2)) date 2022-02-22 20:29:11*
%MOMM*%
%LPD*%
G01*
G04 APERTURE LIST*
%ADD10C,0.150000*%
%ADD11C,0.100000*%
%ADD12C,0.120000*%
G04 APERTURE END LIST*
D10*
X86360000Y-76200000D02*
X135890000Y-76200000D01*
X86360000Y-78740000D02*
X86360000Y-76200000D01*
X135890000Y-77470000D02*
X135890000Y-78740000D01*
X135890000Y-76200000D02*
X135890000Y-77470000D01*
D11*
X88519046Y-84495060D02*
X88471427Y-84471250D01*
X88399999Y-84471250D01*
X88328570Y-84495060D01*
X88280951Y-84542679D01*
X88257141Y-84590298D01*
X88233332Y-84685536D01*
X88233332Y-84756964D01*
X88257141Y-84852202D01*
X88280951Y-84899821D01*
X88328570Y-84947440D01*
X88399999Y-84971250D01*
X88447618Y-84971250D01*
X88519046Y-84947440D01*
X88542856Y-84923631D01*
X88542856Y-84756964D01*
X88447618Y-84756964D01*
X88757141Y-84971250D02*
X88757141Y-84471250D01*
X89042856Y-84971250D01*
X89042856Y-84471250D01*
X89280951Y-84971250D02*
X89280951Y-84471250D01*
X89399999Y-84471250D01*
X89471427Y-84495060D01*
X89519046Y-84542679D01*
X89542856Y-84590298D01*
X89566665Y-84685536D01*
X89566665Y-84756964D01*
X89542856Y-84852202D01*
X89519046Y-84899821D01*
X89471427Y-84947440D01*
X89399999Y-84971250D01*
X89280951Y-84971250D01*
X127556047Y-55338734D02*
X127556047Y-55838734D01*
X127389380Y-55481591D01*
X127222713Y-55838734D01*
X127222713Y-55338734D01*
X126984618Y-55338734D02*
X126984618Y-55838734D01*
X126460809Y-55386353D02*
X126484618Y-55362544D01*
X126556047Y-55338734D01*
X126603666Y-55338734D01*
X126675094Y-55362544D01*
X126722713Y-55410163D01*
X126746523Y-55457782D01*
X126770333Y-55553020D01*
X126770333Y-55624448D01*
X126746523Y-55719686D01*
X126722713Y-55767305D01*
X126675094Y-55814925D01*
X126603666Y-55838734D01*
X126556047Y-55838734D01*
X126484618Y-55814925D01*
X126460809Y-55791115D01*
X115899522Y-84971250D02*
X115899522Y-84471250D01*
X116018570Y-84471250D01*
X116089999Y-84495060D01*
X116137618Y-84542679D01*
X116161427Y-84590298D01*
X116185237Y-84685536D01*
X116185237Y-84756964D01*
X116161427Y-84852202D01*
X116137618Y-84899821D01*
X116089999Y-84947440D01*
X116018570Y-84971250D01*
X115899522Y-84971250D01*
X116494760Y-84471250D02*
X116589999Y-84471250D01*
X116637618Y-84495060D01*
X116685237Y-84542679D01*
X116709046Y-84637917D01*
X116709046Y-84804583D01*
X116685237Y-84899821D01*
X116637618Y-84947440D01*
X116589999Y-84971250D01*
X116494760Y-84971250D01*
X116447141Y-84947440D01*
X116399522Y-84899821D01*
X116375713Y-84804583D01*
X116375713Y-84637917D01*
X116399522Y-84542679D01*
X116447141Y-84495060D01*
X116494760Y-84471250D01*
X116875713Y-84471250D02*
X116994760Y-84971250D01*
X117089999Y-84614107D01*
X117185237Y-84971250D01*
X117304284Y-84471250D01*
X117494760Y-84971250D02*
X117494760Y-84471250D01*
X117780475Y-84971250D01*
X117780475Y-84471250D01*
X137775571Y-55791115D02*
X137751761Y-55814925D01*
X137704142Y-55838734D01*
X137585094Y-55838734D01*
X137537475Y-55814925D01*
X137513666Y-55791115D01*
X137489856Y-55743496D01*
X137489856Y-55695877D01*
X137513666Y-55624448D01*
X137799380Y-55338734D01*
X137489856Y-55338734D01*
X137061285Y-55672067D02*
X137061285Y-55338734D01*
X137180333Y-55862544D02*
X137299380Y-55505401D01*
X136989856Y-55505401D01*
X136870809Y-55838734D02*
X136704142Y-55338734D01*
X136537475Y-55838734D01*
X100731285Y-55814925D02*
X100778904Y-55838734D01*
X100850333Y-55838734D01*
X100921761Y-55814925D01*
X100969380Y-55767305D01*
X100993190Y-55719686D01*
X101016999Y-55624448D01*
X101016999Y-55553020D01*
X100993190Y-55457782D01*
X100969380Y-55410163D01*
X100921761Y-55362544D01*
X100850333Y-55338734D01*
X100802713Y-55338734D01*
X100731285Y-55362544D01*
X100707475Y-55386353D01*
X100707475Y-55553020D01*
X100802713Y-55553020D01*
X100493190Y-55338734D02*
X100493190Y-55838734D01*
X100207475Y-55338734D01*
X100207475Y-55838734D01*
X99969380Y-55338734D02*
X99969380Y-55838734D01*
X99850333Y-55838734D01*
X99778904Y-55814925D01*
X99731285Y-55767305D01*
X99707475Y-55719686D01*
X99683666Y-55624448D01*
X99683666Y-55553020D01*
X99707475Y-55457782D01*
X99731285Y-55410163D01*
X99778904Y-55362544D01*
X99850333Y-55338734D01*
X99969380Y-55338734D01*
X130274284Y-84971250D02*
X130274284Y-84471250D01*
X130440951Y-84828393D01*
X130607618Y-84471250D01*
X130607618Y-84971250D01*
X130845713Y-84971250D02*
X130845713Y-84471250D01*
X131369522Y-84923631D02*
X131345713Y-84947440D01*
X131274284Y-84971250D01*
X131226665Y-84971250D01*
X131155237Y-84947440D01*
X131107618Y-84899821D01*
X131083808Y-84852202D01*
X131059999Y-84756964D01*
X131059999Y-84685536D01*
X131083808Y-84590298D01*
X131107618Y-84542679D01*
X131155237Y-84495060D01*
X131226665Y-84471250D01*
X131274284Y-84471250D01*
X131345713Y-84495060D01*
X131369522Y-84518869D01*
X122535571Y-55791115D02*
X122511761Y-55814925D01*
X122464142Y-55838734D01*
X122345094Y-55838734D01*
X122297475Y-55814925D01*
X122273666Y-55791115D01*
X122249856Y-55743496D01*
X122249856Y-55695877D01*
X122273666Y-55624448D01*
X122559380Y-55338734D01*
X122249856Y-55338734D01*
X121821285Y-55672067D02*
X121821285Y-55338734D01*
X121940333Y-55862544D02*
X122059380Y-55505401D01*
X121749856Y-55505401D01*
X121630809Y-55838734D02*
X121464142Y-55338734D01*
X121297475Y-55838734D01*
X94595571Y-55362544D02*
X94524142Y-55338734D01*
X94405094Y-55338734D01*
X94357475Y-55362544D01*
X94333666Y-55386353D01*
X94309856Y-55433972D01*
X94309856Y-55481591D01*
X94333666Y-55529210D01*
X94357475Y-55553020D01*
X94405094Y-55576829D01*
X94500333Y-55600639D01*
X94547952Y-55624448D01*
X94571761Y-55648258D01*
X94595571Y-55695877D01*
X94595571Y-55743496D01*
X94571761Y-55791115D01*
X94547952Y-55814925D01*
X94500333Y-55838734D01*
X94381285Y-55838734D01*
X94309856Y-55814925D01*
X93809856Y-55386353D02*
X93833666Y-55362544D01*
X93905094Y-55338734D01*
X93952713Y-55338734D01*
X94024142Y-55362544D01*
X94071761Y-55410163D01*
X94095571Y-55457782D01*
X94119380Y-55553020D01*
X94119380Y-55624448D01*
X94095571Y-55719686D01*
X94071761Y-55767305D01*
X94024142Y-55814925D01*
X93952713Y-55838734D01*
X93905094Y-55838734D01*
X93833666Y-55814925D01*
X93809856Y-55791115D01*
X93357475Y-55338734D02*
X93595571Y-55338734D01*
X93595571Y-55838734D01*
X111046047Y-55338734D02*
X111046047Y-55838734D01*
X110879380Y-55481591D01*
X110712713Y-55838734D01*
X110712713Y-55338734D01*
X110474618Y-55338734D02*
X110474618Y-55838734D01*
X109950809Y-55386353D02*
X109974618Y-55362544D01*
X110046047Y-55338734D01*
X110093666Y-55338734D01*
X110165094Y-55362544D01*
X110212713Y-55410163D01*
X110236523Y-55457782D01*
X110260333Y-55553020D01*
X110260333Y-55624448D01*
X110236523Y-55719686D01*
X110212713Y-55767305D01*
X110165094Y-55814925D01*
X110093666Y-55838734D01*
X110046047Y-55838734D01*
X109974618Y-55814925D01*
X109950809Y-55791115D01*
X91344760Y-84471250D02*
X91106665Y-84471250D01*
X91082856Y-84709345D01*
X91106665Y-84685536D01*
X91154284Y-84661726D01*
X91273332Y-84661726D01*
X91320951Y-84685536D01*
X91344760Y-84709345D01*
X91368570Y-84756964D01*
X91368570Y-84876012D01*
X91344760Y-84923631D01*
X91320951Y-84947440D01*
X91273332Y-84971250D01*
X91154284Y-84971250D01*
X91106665Y-84947440D01*
X91082856Y-84923631D01*
X91511427Y-84471250D02*
X91678094Y-84971250D01*
X91844760Y-84471250D01*
X121408094Y-84971250D02*
X121241427Y-84733155D01*
X121122379Y-84971250D02*
X121122379Y-84471250D01*
X121312856Y-84471250D01*
X121360475Y-84495060D01*
X121384284Y-84518869D01*
X121408094Y-84566488D01*
X121408094Y-84637917D01*
X121384284Y-84685536D01*
X121360475Y-84709345D01*
X121312856Y-84733155D01*
X121122379Y-84733155D01*
X121622379Y-84709345D02*
X121789046Y-84709345D01*
X121860475Y-84971250D02*
X121622379Y-84971250D01*
X121622379Y-84471250D01*
X121860475Y-84471250D01*
X122003332Y-84471250D02*
X122289046Y-84471250D01*
X122146189Y-84971250D02*
X122146189Y-84471250D01*
X122741427Y-84971250D02*
X122574760Y-84733155D01*
X122455713Y-84971250D02*
X122455713Y-84471250D01*
X122646189Y-84471250D01*
X122693808Y-84495060D01*
X122717618Y-84518869D01*
X122741427Y-84566488D01*
X122741427Y-84637917D01*
X122717618Y-84685536D01*
X122693808Y-84709345D01*
X122646189Y-84733155D01*
X122455713Y-84733155D01*
X102274760Y-84709345D02*
X102441427Y-84709345D01*
X102512856Y-84971250D02*
X102274760Y-84971250D01*
X102274760Y-84471250D01*
X102512856Y-84471250D01*
X102703332Y-84947440D02*
X102774760Y-84971250D01*
X102893808Y-84971250D01*
X102941427Y-84947440D01*
X102965237Y-84923631D01*
X102989046Y-84876012D01*
X102989046Y-84828393D01*
X102965237Y-84780774D01*
X102941427Y-84756964D01*
X102893808Y-84733155D01*
X102798570Y-84709345D01*
X102750951Y-84685536D01*
X102727141Y-84661726D01*
X102703332Y-84614107D01*
X102703332Y-84566488D01*
X102727141Y-84518869D01*
X102750951Y-84495060D01*
X102798570Y-84471250D01*
X102917618Y-84471250D01*
X102989046Y-84495060D01*
X103489046Y-84923631D02*
X103465237Y-84947440D01*
X103393808Y-84971250D01*
X103346189Y-84971250D01*
X103274760Y-84947440D01*
X103227141Y-84899821D01*
X103203332Y-84852202D01*
X103179522Y-84756964D01*
X103179522Y-84685536D01*
X103203332Y-84590298D01*
X103227141Y-84542679D01*
X103274760Y-84495060D01*
X103346189Y-84471250D01*
X103393808Y-84471250D01*
X103465237Y-84495060D01*
X103489046Y-84518869D01*
X107354760Y-84947440D02*
X107426189Y-84971250D01*
X107545237Y-84971250D01*
X107592856Y-84947440D01*
X107616665Y-84923631D01*
X107640475Y-84876012D01*
X107640475Y-84828393D01*
X107616665Y-84780774D01*
X107592856Y-84756964D01*
X107545237Y-84733155D01*
X107449999Y-84709345D01*
X107402379Y-84685536D01*
X107378570Y-84661726D01*
X107354760Y-84614107D01*
X107354760Y-84566488D01*
X107378570Y-84518869D01*
X107402379Y-84495060D01*
X107449999Y-84471250D01*
X107569046Y-84471250D01*
X107640475Y-84495060D01*
X108140475Y-84923631D02*
X108116665Y-84947440D01*
X108045237Y-84971250D01*
X107997618Y-84971250D01*
X107926189Y-84947440D01*
X107878570Y-84899821D01*
X107854760Y-84852202D01*
X107830951Y-84756964D01*
X107830951Y-84685536D01*
X107854760Y-84590298D01*
X107878570Y-84542679D01*
X107926189Y-84495060D01*
X107997618Y-84471250D01*
X108045237Y-84471250D01*
X108116665Y-84495060D01*
X108140475Y-84518869D01*
X108592856Y-84971250D02*
X108354760Y-84971250D01*
X108354760Y-84471250D01*
X103283190Y-55838734D02*
X103283190Y-55433972D01*
X103259380Y-55386353D01*
X103235571Y-55362544D01*
X103187952Y-55338734D01*
X103092713Y-55338734D01*
X103045094Y-55362544D01*
X103021285Y-55386353D01*
X102997475Y-55433972D01*
X102997475Y-55838734D01*
X102759380Y-55338734D02*
X102759380Y-55838734D01*
X102568904Y-55838734D01*
X102521285Y-55814925D01*
X102497475Y-55791115D01*
X102473666Y-55743496D01*
X102473666Y-55672067D01*
X102497475Y-55624448D01*
X102521285Y-55600639D01*
X102568904Y-55576829D01*
X102759380Y-55576829D01*
X93384760Y-84518869D02*
X93408570Y-84495060D01*
X93456189Y-84471250D01*
X93575237Y-84471250D01*
X93622856Y-84495060D01*
X93646665Y-84518869D01*
X93670475Y-84566488D01*
X93670475Y-84614107D01*
X93646665Y-84685536D01*
X93360951Y-84971250D01*
X93670475Y-84971250D01*
X94099046Y-84637917D02*
X94099046Y-84971250D01*
X93979999Y-84447440D02*
X93860951Y-84804583D01*
X94170475Y-84804583D01*
X94289522Y-84471250D02*
X94456189Y-84971250D01*
X94622856Y-84471250D01*
X119495571Y-55338734D02*
X119733666Y-55338734D01*
X119733666Y-55838734D01*
X119043190Y-55338734D02*
X119209856Y-55576829D01*
X119328904Y-55338734D02*
X119328904Y-55838734D01*
X119138428Y-55838734D01*
X119090809Y-55814925D01*
X119066999Y-55791115D01*
X119043190Y-55743496D01*
X119043190Y-55672067D01*
X119066999Y-55624448D01*
X119090809Y-55600639D01*
X119138428Y-55576829D01*
X119328904Y-55576829D01*
X128174760Y-84971250D02*
X127936665Y-84971250D01*
X127936665Y-84471250D01*
X128627141Y-84971250D02*
X128460475Y-84733155D01*
X128341427Y-84971250D02*
X128341427Y-84471250D01*
X128531903Y-84471250D01*
X128579522Y-84495060D01*
X128603332Y-84518869D01*
X128627141Y-84566488D01*
X128627141Y-84637917D01*
X128603332Y-84685536D01*
X128579522Y-84709345D01*
X128531903Y-84733155D01*
X128341427Y-84733155D01*
X130155571Y-55791115D02*
X130131761Y-55814925D01*
X130084142Y-55838734D01*
X129965094Y-55838734D01*
X129917475Y-55814925D01*
X129893666Y-55791115D01*
X129869856Y-55743496D01*
X129869856Y-55695877D01*
X129893666Y-55624448D01*
X130179380Y-55338734D01*
X129869856Y-55338734D01*
X129441285Y-55672067D02*
X129441285Y-55338734D01*
X129560333Y-55862544D02*
X129679380Y-55505401D01*
X129369856Y-55505401D01*
X129250809Y-55838734D02*
X129084142Y-55338734D01*
X128917475Y-55838734D01*
X113562237Y-55338734D02*
X113728904Y-55576829D01*
X113847952Y-55338734D02*
X113847952Y-55838734D01*
X113657475Y-55838734D01*
X113609856Y-55814925D01*
X113586047Y-55791115D01*
X113562237Y-55743496D01*
X113562237Y-55672067D01*
X113586047Y-55624448D01*
X113609856Y-55600639D01*
X113657475Y-55576829D01*
X113847952Y-55576829D01*
X113347952Y-55600639D02*
X113181285Y-55600639D01*
X113109856Y-55338734D02*
X113347952Y-55338734D01*
X113347952Y-55838734D01*
X113109856Y-55838734D01*
X112966999Y-55838734D02*
X112681285Y-55838734D01*
X112824142Y-55338734D02*
X112824142Y-55838734D01*
X112228904Y-55338734D02*
X112395571Y-55576829D01*
X112514618Y-55338734D02*
X112514618Y-55838734D01*
X112324142Y-55838734D01*
X112276523Y-55814925D01*
X112252713Y-55791115D01*
X112228904Y-55743496D01*
X112228904Y-55672067D01*
X112252713Y-55624448D01*
X112276523Y-55600639D01*
X112324142Y-55576829D01*
X112514618Y-55576829D01*
X132480951Y-84709345D02*
X132647618Y-84709345D01*
X132719046Y-84971250D02*
X132480951Y-84971250D01*
X132480951Y-84471250D01*
X132719046Y-84471250D01*
X132933332Y-84971250D02*
X132933332Y-84471250D01*
X133099999Y-84828393D01*
X133266665Y-84471250D01*
X133266665Y-84971250D01*
X133504760Y-84709345D02*
X133671427Y-84709345D01*
X133742856Y-84971250D02*
X133504760Y-84971250D01*
X133504760Y-84471250D01*
X133742856Y-84471250D01*
X134242856Y-84971250D02*
X134076189Y-84733155D01*
X133957141Y-84971250D02*
X133957141Y-84471250D01*
X134147618Y-84471250D01*
X134195237Y-84495060D01*
X134219046Y-84518869D01*
X134242856Y-84566488D01*
X134242856Y-84637917D01*
X134219046Y-84685536D01*
X134195237Y-84709345D01*
X134147618Y-84733155D01*
X133957141Y-84733155D01*
X86761285Y-55814925D02*
X86808904Y-55838734D01*
X86880333Y-55838734D01*
X86951761Y-55814925D01*
X86999380Y-55767305D01*
X87023190Y-55719686D01*
X87046999Y-55624448D01*
X87046999Y-55553020D01*
X87023190Y-55457782D01*
X86999380Y-55410163D01*
X86951761Y-55362544D01*
X86880333Y-55338734D01*
X86832713Y-55338734D01*
X86761285Y-55362544D01*
X86737475Y-55386353D01*
X86737475Y-55553020D01*
X86832713Y-55553020D01*
X86523190Y-55338734D02*
X86523190Y-55838734D01*
X86237475Y-55338734D01*
X86237475Y-55838734D01*
X85999380Y-55338734D02*
X85999380Y-55838734D01*
X85880333Y-55838734D01*
X85808904Y-55814925D01*
X85761285Y-55767305D01*
X85737475Y-55719686D01*
X85713666Y-55624448D01*
X85713666Y-55553020D01*
X85737475Y-55457782D01*
X85761285Y-55410163D01*
X85808904Y-55362544D01*
X85880333Y-55338734D01*
X85999380Y-55338734D01*
X99294284Y-84709345D02*
X99460951Y-84709345D01*
X99532379Y-84971250D02*
X99294284Y-84971250D01*
X99294284Y-84471250D01*
X99532379Y-84471250D01*
X99746665Y-84971250D02*
X99746665Y-84471250D01*
X100032379Y-84971250D01*
X100032379Y-84471250D01*
X100199046Y-84471250D02*
X100484760Y-84471250D01*
X100341903Y-84971250D02*
X100341903Y-84471250D01*
X100651427Y-84709345D02*
X100818094Y-84709345D01*
X100889522Y-84971250D02*
X100651427Y-84971250D01*
X100651427Y-84471250D01*
X100889522Y-84471250D01*
X101389522Y-84971250D02*
X101222856Y-84733155D01*
X101103808Y-84971250D02*
X101103808Y-84471250D01*
X101294284Y-84471250D01*
X101341903Y-84495060D01*
X101365713Y-84518869D01*
X101389522Y-84566488D01*
X101389522Y-84637917D01*
X101365713Y-84685536D01*
X101341903Y-84709345D01*
X101294284Y-84733155D01*
X101103808Y-84733155D01*
X106370809Y-55338734D02*
X106370809Y-55838734D01*
X106251761Y-55838734D01*
X106180333Y-55814925D01*
X106132713Y-55767305D01*
X106108904Y-55719686D01*
X106085094Y-55624448D01*
X106085094Y-55553020D01*
X106108904Y-55457782D01*
X106132713Y-55410163D01*
X106180333Y-55362544D01*
X106251761Y-55338734D01*
X106370809Y-55338734D01*
X105775571Y-55838734D02*
X105680333Y-55838734D01*
X105632713Y-55814925D01*
X105585094Y-55767305D01*
X105561285Y-55672067D01*
X105561285Y-55505401D01*
X105585094Y-55410163D01*
X105632713Y-55362544D01*
X105680333Y-55338734D01*
X105775571Y-55338734D01*
X105823190Y-55362544D01*
X105870809Y-55410163D01*
X105894618Y-55505401D01*
X105894618Y-55672067D01*
X105870809Y-55767305D01*
X105823190Y-55814925D01*
X105775571Y-55838734D01*
X105394618Y-55838734D02*
X105275571Y-55338734D01*
X105180333Y-55695877D01*
X105085094Y-55338734D01*
X104966047Y-55838734D01*
X104775571Y-55338734D02*
X104775571Y-55838734D01*
X104489856Y-55338734D01*
X104489856Y-55838734D01*
X135509380Y-55600639D02*
X135342713Y-55600639D01*
X135271285Y-55338734D02*
X135509380Y-55338734D01*
X135509380Y-55838734D01*
X135271285Y-55838734D01*
X135056999Y-55338734D02*
X135056999Y-55838734D01*
X134890333Y-55481591D01*
X134723666Y-55838734D01*
X134723666Y-55338734D01*
X134485571Y-55600639D02*
X134318904Y-55600639D01*
X134247475Y-55338734D02*
X134485571Y-55338734D01*
X134485571Y-55838734D01*
X134247475Y-55838734D01*
X133747475Y-55338734D02*
X133914142Y-55576829D01*
X134033190Y-55338734D02*
X134033190Y-55838734D01*
X133842713Y-55838734D01*
X133795094Y-55814925D01*
X133771285Y-55791115D01*
X133747475Y-55743496D01*
X133747475Y-55672067D01*
X133771285Y-55624448D01*
X133795094Y-55600639D01*
X133842713Y-55576829D01*
X134033190Y-55576829D01*
X119046665Y-84828393D02*
X119284760Y-84828393D01*
X118999046Y-84971250D02*
X119165713Y-84471250D01*
X119332379Y-84971250D01*
X119427618Y-84471250D02*
X119594284Y-84971250D01*
X119760951Y-84471250D01*
D10*
X107713555Y-75526121D02*
X107665936Y-75573740D01*
X107523078Y-75621359D01*
X107427840Y-75621359D01*
X107284983Y-75573740D01*
X107189745Y-75478502D01*
X107142126Y-75383264D01*
X107094507Y-75192788D01*
X107094507Y-75049931D01*
X107142126Y-74859455D01*
X107189745Y-74764217D01*
X107284983Y-74668979D01*
X107427840Y-74621359D01*
X107523078Y-74621359D01*
X107665936Y-74668979D01*
X107713555Y-74716598D01*
X108284983Y-75621359D02*
X108189745Y-75573740D01*
X108142126Y-75526121D01*
X108094507Y-75430883D01*
X108094507Y-75145169D01*
X108142126Y-75049931D01*
X108189745Y-75002312D01*
X108284983Y-74954693D01*
X108427840Y-74954693D01*
X108523078Y-75002312D01*
X108570697Y-75049931D01*
X108618317Y-75145169D01*
X108618317Y-75430883D01*
X108570697Y-75526121D01*
X108523078Y-75573740D01*
X108427840Y-75621359D01*
X108284983Y-75621359D01*
X109046888Y-74954693D02*
X109046888Y-75621359D01*
X109046888Y-75049931D02*
X109094507Y-75002312D01*
X109189745Y-74954693D01*
X109332602Y-74954693D01*
X109427840Y-75002312D01*
X109475459Y-75097550D01*
X109475459Y-75621359D01*
X110332602Y-75573740D02*
X110237364Y-75621359D01*
X110046888Y-75621359D01*
X109951650Y-75573740D01*
X109904031Y-75478502D01*
X109904031Y-75097550D01*
X109951650Y-75002312D01*
X110046888Y-74954693D01*
X110237364Y-74954693D01*
X110332602Y-75002312D01*
X110380221Y-75097550D01*
X110380221Y-75192788D01*
X109904031Y-75288026D01*
X110713555Y-75621359D02*
X111237364Y-74954693D01*
X110713555Y-74954693D02*
X111237364Y-75621359D01*
X111618317Y-75621359D02*
X111618317Y-74954693D01*
X111618317Y-74621359D02*
X111570697Y-74668979D01*
X111618317Y-74716598D01*
X111665936Y-74668979D01*
X111618317Y-74621359D01*
X111618317Y-74716598D01*
X112237364Y-75621359D02*
X112142126Y-75573740D01*
X112094507Y-75526121D01*
X112046888Y-75430883D01*
X112046888Y-75145169D01*
X112094507Y-75049931D01*
X112142126Y-75002312D01*
X112237364Y-74954693D01*
X112380221Y-74954693D01*
X112475459Y-75002312D01*
X112523078Y-75049931D01*
X112570697Y-75145169D01*
X112570697Y-75430883D01*
X112523078Y-75526121D01*
X112475459Y-75573740D01*
X112380221Y-75621359D01*
X112237364Y-75621359D01*
X112999269Y-74954693D02*
X112999269Y-75621359D01*
X112999269Y-75049931D02*
X113046888Y-75002312D01*
X113142126Y-74954693D01*
X113284983Y-74954693D01*
X113380221Y-75002312D01*
X113427840Y-75097550D01*
X113427840Y-75621359D01*
X114284983Y-75573740D02*
X114189745Y-75621359D01*
X113999269Y-75621359D01*
X113904031Y-75573740D01*
X113856412Y-75478502D01*
X113856412Y-75097550D01*
X113904031Y-75002312D01*
X113999269Y-74954693D01*
X114189745Y-74954693D01*
X114284983Y-75002312D01*
X114332602Y-75097550D01*
X114332602Y-75192788D01*
X113856412Y-75288026D01*
X114713555Y-75573740D02*
X114808793Y-75621359D01*
X114999269Y-75621359D01*
X115094507Y-75573740D01*
X115142126Y-75478502D01*
X115142126Y-75430883D01*
X115094507Y-75335645D01*
X114999269Y-75288026D01*
X114856412Y-75288026D01*
X114761174Y-75240407D01*
X114713555Y-75145169D01*
X114713555Y-75097550D01*
X114761174Y-75002312D01*
X114856412Y-74954693D01*
X114999269Y-74954693D01*
X115094507Y-75002312D01*
D11*
X113907141Y-84471250D02*
X113907141Y-84876012D01*
X113930951Y-84923631D01*
X113954760Y-84947440D01*
X114002379Y-84971250D01*
X114097618Y-84971250D01*
X114145237Y-84947440D01*
X114169046Y-84923631D01*
X114192856Y-84876012D01*
X114192856Y-84471250D01*
X114430951Y-84971250D02*
X114430951Y-84471250D01*
X114621427Y-84471250D01*
X114669046Y-84495060D01*
X114692856Y-84518869D01*
X114716665Y-84566488D01*
X114716665Y-84637917D01*
X114692856Y-84685536D01*
X114669046Y-84709345D01*
X114621427Y-84733155D01*
X114430951Y-84733155D01*
X92067475Y-55362544D02*
X91996047Y-55338734D01*
X91876999Y-55338734D01*
X91829380Y-55362544D01*
X91805571Y-55386353D01*
X91781761Y-55433972D01*
X91781761Y-55481591D01*
X91805571Y-55529210D01*
X91829380Y-55553020D01*
X91876999Y-55576829D01*
X91972237Y-55600639D01*
X92019856Y-55624448D01*
X92043666Y-55648258D01*
X92067475Y-55695877D01*
X92067475Y-55743496D01*
X92043666Y-55791115D01*
X92019856Y-55814925D01*
X91972237Y-55838734D01*
X91853190Y-55838734D01*
X91781761Y-55814925D01*
X91567475Y-55338734D02*
X91567475Y-55838734D01*
X91448428Y-55838734D01*
X91376999Y-55814925D01*
X91329380Y-55767305D01*
X91305571Y-55719686D01*
X91281761Y-55624448D01*
X91281761Y-55553020D01*
X91305571Y-55457782D01*
X91329380Y-55410163D01*
X91376999Y-55362544D01*
X91448428Y-55338734D01*
X91567475Y-55338734D01*
X91091285Y-55481591D02*
X90853190Y-55481591D01*
X91138904Y-55338734D02*
X90972237Y-55838734D01*
X90805571Y-55338734D01*
X108303666Y-55481591D02*
X108065571Y-55481591D01*
X108351285Y-55338734D02*
X108184618Y-55838734D01*
X108017952Y-55338734D01*
X107922713Y-55838734D02*
X107756047Y-55338734D01*
X107589380Y-55838734D01*
X89015571Y-55838734D02*
X89253666Y-55838734D01*
X89277475Y-55600639D01*
X89253666Y-55624448D01*
X89206047Y-55648258D01*
X89086999Y-55648258D01*
X89039380Y-55624448D01*
X89015571Y-55600639D01*
X88991761Y-55553020D01*
X88991761Y-55433972D01*
X89015571Y-55386353D01*
X89039380Y-55362544D01*
X89086999Y-55338734D01*
X89206047Y-55338734D01*
X89253666Y-55362544D01*
X89277475Y-55386353D01*
X88848904Y-55838734D02*
X88682237Y-55338734D01*
X88515571Y-55838734D01*
X104802856Y-84947440D02*
X104874284Y-84971250D01*
X104993332Y-84971250D01*
X105040951Y-84947440D01*
X105064760Y-84923631D01*
X105088570Y-84876012D01*
X105088570Y-84828393D01*
X105064760Y-84780774D01*
X105040951Y-84756964D01*
X104993332Y-84733155D01*
X104898094Y-84709345D01*
X104850475Y-84685536D01*
X104826665Y-84661726D01*
X104802856Y-84614107D01*
X104802856Y-84566488D01*
X104826665Y-84518869D01*
X104850475Y-84495060D01*
X104898094Y-84471250D01*
X105017141Y-84471250D01*
X105088570Y-84495060D01*
X105302856Y-84971250D02*
X105302856Y-84471250D01*
X105421903Y-84471250D01*
X105493332Y-84495060D01*
X105540951Y-84542679D01*
X105564760Y-84590298D01*
X105588570Y-84685536D01*
X105588570Y-84756964D01*
X105564760Y-84852202D01*
X105540951Y-84899821D01*
X105493332Y-84947440D01*
X105421903Y-84971250D01*
X105302856Y-84971250D01*
X105779046Y-84828393D02*
X106017141Y-84828393D01*
X105731427Y-84971250D02*
X105898094Y-84471250D01*
X106064760Y-84971250D01*
D10*
%TO.C,SW3*%
X108013333Y-61211765D02*
X107870476Y-61164146D01*
X107632380Y-61164146D01*
X107537142Y-61211765D01*
X107489523Y-61259384D01*
X107441904Y-61354622D01*
X107441904Y-61449860D01*
X107489523Y-61545098D01*
X107537142Y-61592717D01*
X107632380Y-61640336D01*
X107822857Y-61687955D01*
X107918095Y-61735574D01*
X107965714Y-61783193D01*
X108013333Y-61878431D01*
X108013333Y-61973669D01*
X107965714Y-62068907D01*
X107918095Y-62116527D01*
X107822857Y-62164146D01*
X107584761Y-62164146D01*
X107441904Y-62116527D01*
X107108571Y-62164146D02*
X106870476Y-61164146D01*
X106680000Y-61878431D01*
X106489523Y-61164146D01*
X106251428Y-62164146D01*
X105965714Y-62164146D02*
X105346666Y-62164146D01*
X105680000Y-61783193D01*
X105537142Y-61783193D01*
X105441904Y-61735574D01*
X105394285Y-61687955D01*
X105346666Y-61592717D01*
X105346666Y-61354622D01*
X105394285Y-61259384D01*
X105441904Y-61211765D01*
X105537142Y-61164146D01*
X105822857Y-61164146D01*
X105918095Y-61211765D01*
X105965714Y-61259384D01*
X112227619Y-64131428D02*
X112084761Y-64083809D01*
X112037142Y-64036190D01*
X111989523Y-63940952D01*
X111989523Y-63798095D01*
X112037142Y-63702857D01*
X112084761Y-63655238D01*
X112180000Y-63607619D01*
X112560952Y-63607619D01*
X112560952Y-64607619D01*
X112227619Y-64607619D01*
X112132380Y-64560000D01*
X112084761Y-64512380D01*
X112037142Y-64417142D01*
X112037142Y-64321904D01*
X112084761Y-64226666D01*
X112132380Y-64179047D01*
X112227619Y-64131428D01*
X112560952Y-64131428D01*
X111418095Y-63607619D02*
X111513333Y-63655238D01*
X111560952Y-63702857D01*
X111608571Y-63798095D01*
X111608571Y-64083809D01*
X111560952Y-64179047D01*
X111513333Y-64226666D01*
X111418095Y-64274285D01*
X111275238Y-64274285D01*
X111180000Y-64226666D01*
X111132380Y-64179047D01*
X111084761Y-64083809D01*
X111084761Y-63798095D01*
X111132380Y-63702857D01*
X111180000Y-63655238D01*
X111275238Y-63607619D01*
X111418095Y-63607619D01*
X110799047Y-64274285D02*
X110418095Y-64274285D01*
X110656190Y-64607619D02*
X110656190Y-63750476D01*
X110608571Y-63655238D01*
X110513333Y-63607619D01*
X110418095Y-63607619D01*
X109941904Y-63607619D02*
X110037142Y-63655238D01*
X110084761Y-63702857D01*
X110132380Y-63798095D01*
X110132380Y-64083809D01*
X110084761Y-64179047D01*
X110037142Y-64226666D01*
X109941904Y-64274285D01*
X109799047Y-64274285D01*
X109703809Y-64226666D01*
X109656190Y-64179047D01*
X109608571Y-64083809D01*
X109608571Y-63798095D01*
X109656190Y-63702857D01*
X109703809Y-63655238D01*
X109799047Y-63607619D01*
X109941904Y-63607619D01*
X109751428Y-64655238D02*
X109894285Y-64512380D01*
X109180000Y-64274285D02*
X109180000Y-63607619D01*
X109180000Y-64179047D02*
X109132380Y-64226666D01*
X109037142Y-64274285D01*
X108894285Y-64274285D01*
X108799047Y-64226666D01*
X108751428Y-64131428D01*
X108751428Y-63607619D01*
X107560952Y-63655238D02*
X107418095Y-63607619D01*
X107180000Y-63607619D01*
X107084761Y-63655238D01*
X107037142Y-63702857D01*
X106989523Y-63798095D01*
X106989523Y-63893333D01*
X107037142Y-63988571D01*
X107084761Y-64036190D01*
X107180000Y-64083809D01*
X107370476Y-64131428D01*
X107465714Y-64179047D01*
X107513333Y-64226666D01*
X107560952Y-64321904D01*
X107560952Y-64417142D01*
X107513333Y-64512380D01*
X107465714Y-64560000D01*
X107370476Y-64607619D01*
X107132380Y-64607619D01*
X106989523Y-64560000D01*
X106180000Y-63655238D02*
X106275238Y-63607619D01*
X106465714Y-63607619D01*
X106560952Y-63655238D01*
X106608571Y-63750476D01*
X106608571Y-64131428D01*
X106560952Y-64226666D01*
X106465714Y-64274285D01*
X106275238Y-64274285D01*
X106180000Y-64226666D01*
X106132380Y-64131428D01*
X106132380Y-64036190D01*
X106608571Y-63940952D01*
X105560952Y-63607619D02*
X105656190Y-63655238D01*
X105703809Y-63750476D01*
X105703809Y-64607619D01*
X104799047Y-63655238D02*
X104894285Y-63607619D01*
X105084761Y-63607619D01*
X105180000Y-63655238D01*
X105227619Y-63750476D01*
X105227619Y-64131428D01*
X105180000Y-64226666D01*
X105084761Y-64274285D01*
X104894285Y-64274285D01*
X104799047Y-64226666D01*
X104751428Y-64131428D01*
X104751428Y-64036190D01*
X105227619Y-63940952D01*
X103894285Y-63655238D02*
X103989523Y-63607619D01*
X104180000Y-63607619D01*
X104275238Y-63655238D01*
X104322857Y-63702857D01*
X104370476Y-63798095D01*
X104370476Y-64083809D01*
X104322857Y-64179047D01*
X104275238Y-64226666D01*
X104180000Y-64274285D01*
X103989523Y-64274285D01*
X103894285Y-64226666D01*
X103037142Y-63655238D02*
X103132380Y-63607619D01*
X103322857Y-63607619D01*
X103418095Y-63655238D01*
X103465714Y-63702857D01*
X103513333Y-63798095D01*
X103513333Y-64083809D01*
X103465714Y-64179047D01*
X103418095Y-64226666D01*
X103322857Y-64274285D01*
X103132380Y-64274285D01*
X103037142Y-64226666D01*
X102608571Y-63607619D02*
X102608571Y-64274285D01*
X102608571Y-64607619D02*
X102656190Y-64560000D01*
X102608571Y-64512380D01*
X102560952Y-64560000D01*
X102608571Y-64607619D01*
X102608571Y-64512380D01*
X101989523Y-63607619D02*
X102084761Y-63655238D01*
X102132380Y-63702857D01*
X102180000Y-63798095D01*
X102180000Y-64083809D01*
X102132380Y-64179047D01*
X102084761Y-64226666D01*
X101989523Y-64274285D01*
X101846666Y-64274285D01*
X101751428Y-64226666D01*
X101703809Y-64179047D01*
X101656190Y-64083809D01*
X101656190Y-63798095D01*
X101703809Y-63702857D01*
X101751428Y-63655238D01*
X101846666Y-63607619D01*
X101989523Y-63607619D01*
X101799047Y-64655238D02*
X101941904Y-64512380D01*
X101227619Y-64274285D02*
X101227619Y-63607619D01*
X101227619Y-64179047D02*
X101180000Y-64226666D01*
X101084761Y-64274285D01*
X100941904Y-64274285D01*
X100846666Y-64226666D01*
X100799047Y-64131428D01*
X100799047Y-63607619D01*
%TO.C,H3*%
X70925123Y-81480717D02*
X70925123Y-80480717D01*
X70925123Y-80956908D02*
X71496551Y-80956908D01*
X71496551Y-81480717D02*
X71496551Y-80480717D01*
X71877504Y-80480717D02*
X72496551Y-80480717D01*
X72163218Y-80861670D01*
X72306075Y-80861670D01*
X72401313Y-80909289D01*
X72448932Y-80956908D01*
X72496551Y-81052146D01*
X72496551Y-81290241D01*
X72448932Y-81385479D01*
X72401313Y-81433098D01*
X72306075Y-81480717D01*
X72020361Y-81480717D01*
X71925123Y-81433098D01*
X71877504Y-81385479D01*
%TO.C,H4*%
X150923551Y-81454651D02*
X150923551Y-80454651D01*
X150923551Y-80930842D02*
X151494979Y-80930842D01*
X151494979Y-81454651D02*
X151494979Y-80454651D01*
X152399741Y-80787985D02*
X152399741Y-81454651D01*
X152161646Y-80407032D02*
X151923551Y-81121318D01*
X152542598Y-81121318D01*
%TO.C,J4*%
X130476666Y-82068074D02*
X130476666Y-82782360D01*
X130429047Y-82925217D01*
X130333809Y-83020455D01*
X130190952Y-83068074D01*
X130095714Y-83068074D01*
X131381428Y-82401408D02*
X131381428Y-83068074D01*
X131143333Y-82020455D02*
X130905238Y-82734741D01*
X131524285Y-82734741D01*
%TO.C,H1*%
X70936696Y-59242684D02*
X70936696Y-58242684D01*
X70936696Y-58718875D02*
X71508124Y-58718875D01*
X71508124Y-59242684D02*
X71508124Y-58242684D01*
X72508124Y-59242684D02*
X71936696Y-59242684D01*
X72222410Y-59242684D02*
X72222410Y-58242684D01*
X72127172Y-58385542D01*
X72031934Y-58480780D01*
X71936696Y-58528399D01*
%TO.C,J1*%
X91106666Y-82166557D02*
X91106666Y-82880843D01*
X91059047Y-83023700D01*
X90963809Y-83118938D01*
X90820952Y-83166557D01*
X90725714Y-83166557D01*
X92106666Y-83166557D02*
X91535238Y-83166557D01*
X91820952Y-83166557D02*
X91820952Y-82166557D01*
X91725714Y-82309415D01*
X91630476Y-82404653D01*
X91535238Y-82452272D01*
%TO.C,SW6*%
X137223333Y-61269233D02*
X137080476Y-61221614D01*
X136842380Y-61221614D01*
X136747142Y-61269233D01*
X136699523Y-61316852D01*
X136651904Y-61412090D01*
X136651904Y-61507328D01*
X136699523Y-61602566D01*
X136747142Y-61650185D01*
X136842380Y-61697804D01*
X137032857Y-61745423D01*
X137128095Y-61793042D01*
X137175714Y-61840661D01*
X137223333Y-61935899D01*
X137223333Y-62031137D01*
X137175714Y-62126375D01*
X137128095Y-62173995D01*
X137032857Y-62221614D01*
X136794761Y-62221614D01*
X136651904Y-62173995D01*
X136318571Y-62221614D02*
X136080476Y-61221614D01*
X135890000Y-61935899D01*
X135699523Y-61221614D01*
X135461428Y-62221614D01*
X134651904Y-62221614D02*
X134842380Y-62221614D01*
X134937619Y-62173995D01*
X134985238Y-62126375D01*
X135080476Y-61983518D01*
X135128095Y-61793042D01*
X135128095Y-61412090D01*
X135080476Y-61316852D01*
X135032857Y-61269233D01*
X134937619Y-61221614D01*
X134747142Y-61221614D01*
X134651904Y-61269233D01*
X134604285Y-61316852D01*
X134556666Y-61412090D01*
X134556666Y-61650185D01*
X134604285Y-61745423D01*
X134651904Y-61793042D01*
X134747142Y-61840661D01*
X134937619Y-61840661D01*
X135032857Y-61793042D01*
X135080476Y-61745423D01*
X135128095Y-61650185D01*
X140270952Y-64131428D02*
X139937619Y-64131428D01*
X139794761Y-63607619D02*
X140270952Y-63607619D01*
X140270952Y-64607619D01*
X139794761Y-64607619D01*
X139366190Y-63607619D02*
X139366190Y-64607619D01*
X139032857Y-63893333D01*
X138699523Y-64607619D01*
X138699523Y-63607619D01*
X138223333Y-64131428D02*
X137890000Y-64131428D01*
X137747142Y-63607619D02*
X138223333Y-63607619D01*
X138223333Y-64607619D01*
X137747142Y-64607619D01*
X136747142Y-63607619D02*
X137080476Y-64083809D01*
X137318571Y-63607619D02*
X137318571Y-64607619D01*
X136937619Y-64607619D01*
X136842380Y-64560000D01*
X136794761Y-64512380D01*
X136747142Y-64417142D01*
X136747142Y-64274285D01*
X136794761Y-64179047D01*
X136842380Y-64131428D01*
X136937619Y-64083809D01*
X137318571Y-64083809D01*
X135794761Y-64560000D02*
X135890000Y-64607619D01*
X136032857Y-64607619D01*
X136175714Y-64560000D01*
X136270952Y-64464761D01*
X136318571Y-64369523D01*
X136366190Y-64179047D01*
X136366190Y-64036190D01*
X136318571Y-63845714D01*
X136270952Y-63750476D01*
X136175714Y-63655238D01*
X136032857Y-63607619D01*
X135937619Y-63607619D01*
X135794761Y-63655238D01*
X135747142Y-63702857D01*
X135747142Y-64036190D01*
X135937619Y-64036190D01*
X135318571Y-64131428D02*
X134985238Y-64131428D01*
X134842380Y-63607619D02*
X135318571Y-63607619D01*
X135318571Y-64607619D01*
X134842380Y-64607619D01*
X134413809Y-63607619D02*
X134413809Y-64607619D01*
X133842380Y-63607619D01*
X133842380Y-64607619D01*
X132794761Y-63702857D02*
X132842380Y-63655238D01*
X132985238Y-63607619D01*
X133080476Y-63607619D01*
X133223333Y-63655238D01*
X133318571Y-63750476D01*
X133366190Y-63845714D01*
X133413809Y-64036190D01*
X133413809Y-64179047D01*
X133366190Y-64369523D01*
X133318571Y-64464761D01*
X133223333Y-64560000D01*
X133080476Y-64607619D01*
X132985238Y-64607619D01*
X132842380Y-64560000D01*
X132794761Y-64512380D01*
X132366190Y-63607619D02*
X132366190Y-64607619D01*
X131937619Y-63893333D02*
X131461428Y-63893333D01*
X132032857Y-63607619D02*
X131699523Y-64607619D01*
X131366190Y-63607619D01*
%TO.C,H2*%
X150966917Y-59257178D02*
X150966917Y-58257178D01*
X150966917Y-58733369D02*
X151538345Y-58733369D01*
X151538345Y-59257178D02*
X151538345Y-58257178D01*
X151966917Y-58352417D02*
X152014536Y-58304798D01*
X152109774Y-58257178D01*
X152347869Y-58257178D01*
X152443107Y-58304798D01*
X152490726Y-58352417D01*
X152538345Y-58447655D01*
X152538345Y-58542893D01*
X152490726Y-58685750D01*
X151919298Y-59257178D01*
X152538345Y-59257178D01*
%TO.C,J5*%
X90498833Y-62222692D02*
X90498833Y-61508406D01*
X90546452Y-61365549D01*
X90641690Y-61270311D01*
X90784547Y-61222692D01*
X90879785Y-61222692D01*
X89546452Y-62222692D02*
X90022642Y-62222692D01*
X90070261Y-61746501D01*
X90022642Y-61794120D01*
X89927404Y-61841739D01*
X89689309Y-61841739D01*
X89594071Y-61794120D01*
X89546452Y-61746501D01*
X89498833Y-61651263D01*
X89498833Y-61413168D01*
X89546452Y-61317930D01*
X89594071Y-61270311D01*
X89689309Y-61222692D01*
X89927404Y-61222692D01*
X90022642Y-61270311D01*
X90070261Y-61317930D01*
X90855476Y-63612619D02*
X91331666Y-63612619D01*
X91331666Y-64612619D01*
X89950714Y-63707857D02*
X89998333Y-63660238D01*
X90141190Y-63612619D01*
X90236428Y-63612619D01*
X90379285Y-63660238D01*
X90474523Y-63755476D01*
X90522142Y-63850714D01*
X90569761Y-64041190D01*
X90569761Y-64184047D01*
X90522142Y-64374523D01*
X90474523Y-64469761D01*
X90379285Y-64565000D01*
X90236428Y-64612619D01*
X90141190Y-64612619D01*
X89998333Y-64565000D01*
X89950714Y-64517380D01*
X89522142Y-63612619D02*
X89522142Y-64612619D01*
X89284047Y-64612619D01*
X89141190Y-64565000D01*
X89045952Y-64469761D01*
X88998333Y-64374523D01*
X88950714Y-64184047D01*
X88950714Y-64041190D01*
X88998333Y-63850714D01*
X89045952Y-63755476D01*
X89141190Y-63660238D01*
X89284047Y-63612619D01*
X89522142Y-63612619D01*
%TO.C,SW4*%
X121983333Y-61318200D02*
X121840476Y-61270581D01*
X121602380Y-61270581D01*
X121507142Y-61318200D01*
X121459523Y-61365819D01*
X121411904Y-61461057D01*
X121411904Y-61556295D01*
X121459523Y-61651533D01*
X121507142Y-61699152D01*
X121602380Y-61746771D01*
X121792857Y-61794390D01*
X121888095Y-61842009D01*
X121935714Y-61889628D01*
X121983333Y-61984866D01*
X121983333Y-62080104D01*
X121935714Y-62175342D01*
X121888095Y-62222962D01*
X121792857Y-62270581D01*
X121554761Y-62270581D01*
X121411904Y-62222962D01*
X121078571Y-62270581D02*
X120840476Y-61270581D01*
X120650000Y-61984866D01*
X120459523Y-61270581D01*
X120221428Y-62270581D01*
X119411904Y-61937247D02*
X119411904Y-61270581D01*
X119650000Y-62318200D02*
X119888095Y-61603914D01*
X119269047Y-61603914D01*
X120840476Y-63607619D02*
X121316666Y-63607619D01*
X121316666Y-64607619D01*
X119935714Y-63607619D02*
X120269047Y-64083809D01*
X120507142Y-63607619D02*
X120507142Y-64607619D01*
X120126190Y-64607619D01*
X120030952Y-64560000D01*
X119983333Y-64512380D01*
X119935714Y-64417142D01*
X119935714Y-64274285D01*
X119983333Y-64179047D01*
X120030952Y-64131428D01*
X120126190Y-64083809D01*
X120507142Y-64083809D01*
%TO.C,SW5*%
X129603333Y-61293854D02*
X129460476Y-61246235D01*
X129222380Y-61246235D01*
X129127142Y-61293854D01*
X129079523Y-61341473D01*
X129031904Y-61436711D01*
X129031904Y-61531949D01*
X129079523Y-61627187D01*
X129127142Y-61674806D01*
X129222380Y-61722425D01*
X129412857Y-61770044D01*
X129508095Y-61817663D01*
X129555714Y-61865282D01*
X129603333Y-61960520D01*
X129603333Y-62055758D01*
X129555714Y-62150996D01*
X129508095Y-62198616D01*
X129412857Y-62246235D01*
X129174761Y-62246235D01*
X129031904Y-62198616D01*
X128698571Y-62246235D02*
X128460476Y-61246235D01*
X128270000Y-61960520D01*
X128079523Y-61246235D01*
X127841428Y-62246235D01*
X126984285Y-62246235D02*
X127460476Y-62246235D01*
X127508095Y-61770044D01*
X127460476Y-61817663D01*
X127365238Y-61865282D01*
X127127142Y-61865282D01*
X127031904Y-61817663D01*
X126984285Y-61770044D01*
X126936666Y-61674806D01*
X126936666Y-61436711D01*
X126984285Y-61341473D01*
X127031904Y-61293854D01*
X127127142Y-61246235D01*
X127365238Y-61246235D01*
X127460476Y-61293854D01*
X127508095Y-61341473D01*
X130365238Y-63607619D02*
X130365238Y-64607619D01*
X130031904Y-63893333D01*
X129698571Y-64607619D01*
X129698571Y-63607619D01*
X129222380Y-63607619D02*
X129222380Y-64607619D01*
X128174761Y-63702857D02*
X128222380Y-63655238D01*
X128365238Y-63607619D01*
X128460476Y-63607619D01*
X128603333Y-63655238D01*
X128698571Y-63750476D01*
X128746190Y-63845714D01*
X128793809Y-64036190D01*
X128793809Y-64179047D01*
X128746190Y-64369523D01*
X128698571Y-64464761D01*
X128603333Y-64560000D01*
X128460476Y-64607619D01*
X128365238Y-64607619D01*
X128222380Y-64560000D01*
X128174761Y-64512380D01*
X127174761Y-63607619D02*
X127508095Y-64083809D01*
X127746190Y-63607619D02*
X127746190Y-64607619D01*
X127365238Y-64607619D01*
X127270000Y-64560000D01*
X127222380Y-64512380D01*
X127174761Y-64417142D01*
X127174761Y-64274285D01*
X127222380Y-64179047D01*
X127270000Y-64131428D01*
X127365238Y-64083809D01*
X127746190Y-64083809D01*
X126555714Y-64607619D02*
X126365238Y-64607619D01*
X126270000Y-64560000D01*
X126174761Y-64464761D01*
X126127142Y-64274285D01*
X126127142Y-63940952D01*
X126174761Y-63750476D01*
X126270000Y-63655238D01*
X126365238Y-63607619D01*
X126555714Y-63607619D01*
X126650952Y-63655238D01*
X126746190Y-63750476D01*
X126793809Y-63940952D01*
X126793809Y-64274285D01*
X126746190Y-64464761D01*
X126650952Y-64560000D01*
X126555714Y-64607619D01*
%TO.C,J2*%
X103802166Y-82092695D02*
X103802166Y-82806981D01*
X103754547Y-82949838D01*
X103659309Y-83045076D01*
X103516452Y-83092695D01*
X103421214Y-83092695D01*
X104230738Y-82187934D02*
X104278357Y-82140315D01*
X104373595Y-82092695D01*
X104611690Y-82092695D01*
X104706928Y-82140315D01*
X104754547Y-82187934D01*
X104802166Y-82283172D01*
X104802166Y-82378410D01*
X104754547Y-82521267D01*
X104183119Y-83092695D01*
X104802166Y-83092695D01*
%TO.C,J3*%
X117772166Y-82092695D02*
X117772166Y-82806981D01*
X117724547Y-82949838D01*
X117629309Y-83045076D01*
X117486452Y-83092695D01*
X117391214Y-83092695D01*
X118153119Y-82092695D02*
X118772166Y-82092695D01*
X118438833Y-82473648D01*
X118581690Y-82473648D01*
X118676928Y-82521267D01*
X118724547Y-82568886D01*
X118772166Y-82664124D01*
X118772166Y-82902219D01*
X118724547Y-82997457D01*
X118676928Y-83045076D01*
X118581690Y-83092695D01*
X118295976Y-83092695D01*
X118200738Y-83045076D01*
X118153119Y-82997457D01*
D12*
%TO.C,SW3*%
X98710000Y-63060000D02*
X114650000Y-63060000D01*
X98710000Y-62540000D02*
X114650000Y-62540000D01*
X114650000Y-56320000D02*
X114650000Y-63060000D01*
X98470000Y-63300000D02*
X98870000Y-63300000D01*
X98470000Y-62660000D02*
X98470000Y-63300000D01*
X98710000Y-56320000D02*
X98710000Y-63060000D01*
X98710000Y-57440000D02*
X114650000Y-57440000D01*
X98710000Y-56320000D02*
X114650000Y-56320000D01*
%TO.C,J4*%
X126410000Y-84255000D02*
X126810000Y-84255000D01*
X126650000Y-78395000D02*
X134970000Y-78395000D01*
X126650000Y-84015000D02*
X134970000Y-84015000D01*
X126650000Y-83495000D02*
X134970000Y-83495000D01*
X126650000Y-77275000D02*
X134970000Y-77275000D01*
X134970000Y-77275000D02*
X134970000Y-84015000D01*
X126650000Y-77275000D02*
X126650000Y-84015000D01*
X126410000Y-83615000D02*
X126410000Y-84255000D01*
%TO.C,J1*%
X87040000Y-83620000D02*
X87040000Y-84260000D01*
X87280000Y-78400000D02*
X95600000Y-78400000D01*
X87040000Y-84260000D02*
X87440000Y-84260000D01*
X87280000Y-77280000D02*
X95600000Y-77280000D01*
X95600000Y-77280000D02*
X95600000Y-84020000D01*
X87280000Y-83500000D02*
X95600000Y-83500000D01*
X87280000Y-77280000D02*
X87280000Y-84020000D01*
X87280000Y-84020000D02*
X95600000Y-84020000D01*
%TO.C,SW6*%
X133000000Y-63060000D02*
X138780000Y-63060000D01*
X132760000Y-63300000D02*
X133160000Y-63300000D01*
X133000000Y-62540000D02*
X138780000Y-62540000D01*
X138780000Y-56320000D02*
X138780000Y-63060000D01*
X133000000Y-56320000D02*
X138780000Y-56320000D01*
X133000000Y-56320000D02*
X133000000Y-63060000D01*
X133000000Y-57440000D02*
X138780000Y-57440000D01*
X132760000Y-62660000D02*
X132760000Y-63300000D01*
%TO.C,J5*%
X84735000Y-56325000D02*
X95596000Y-56325000D01*
X84495000Y-63305000D02*
X84895000Y-63305000D01*
X95596000Y-56325000D02*
X95596000Y-63065000D01*
X84495000Y-62665000D02*
X84495000Y-63305000D01*
X84735000Y-57445000D02*
X95596000Y-57445000D01*
X84735000Y-56325000D02*
X84735000Y-63065000D01*
X84735000Y-62545000D02*
X95596000Y-62545000D01*
X84735000Y-63065000D02*
X95596000Y-63065000D01*
%TO.C,SW4*%
X117760000Y-57440000D02*
X123540000Y-57440000D01*
X123540000Y-56320000D02*
X123540000Y-63060000D01*
X117760000Y-56320000D02*
X123540000Y-56320000D01*
X117520000Y-63300000D02*
X117920000Y-63300000D01*
X117760000Y-62540000D02*
X123540000Y-62540000D01*
X117520000Y-62660000D02*
X117520000Y-63300000D01*
X117760000Y-63060000D02*
X123540000Y-63060000D01*
X117760000Y-56320000D02*
X117760000Y-63060000D01*
%TO.C,SW5*%
X125380000Y-62540000D02*
X131160000Y-62540000D01*
X125140000Y-62660000D02*
X125140000Y-63300000D01*
X125380000Y-63060000D02*
X131160000Y-63060000D01*
X125380000Y-56320000D02*
X131160000Y-56320000D01*
X125140000Y-63300000D02*
X125540000Y-63300000D01*
X131160000Y-56320000D02*
X131160000Y-63060000D01*
X125380000Y-57440000D02*
X131160000Y-57440000D01*
X125380000Y-56320000D02*
X125380000Y-63060000D01*
%TO.C,J2*%
X98705000Y-77275000D02*
X98705000Y-84015000D01*
X98705000Y-77275000D02*
X109566000Y-77275000D01*
X98465000Y-84255000D02*
X98865000Y-84255000D01*
X98705000Y-78395000D02*
X109566000Y-78395000D01*
X98465000Y-83615000D02*
X98465000Y-84255000D01*
X98705000Y-84015000D02*
X109566000Y-84015000D01*
X109566000Y-77275000D02*
X109566000Y-84015000D01*
X98705000Y-83495000D02*
X109566000Y-83495000D01*
%TO.C,J3*%
X112675000Y-84015000D02*
X123536000Y-84015000D01*
X112675000Y-77275000D02*
X112675000Y-84015000D01*
X112675000Y-83495000D02*
X123536000Y-83495000D01*
X112675000Y-77275000D02*
X123536000Y-77275000D01*
X112675000Y-78395000D02*
X123536000Y-78395000D01*
X123536000Y-77275000D02*
X123536000Y-84015000D01*
X112435000Y-83615000D02*
X112435000Y-84255000D01*
X112435000Y-84255000D02*
X112835000Y-84255000D01*
%TD*%
M02*
