%TF.GenerationSoftware,KiCad,Pcbnew,(6.0.2)*%
%TF.CreationDate,2022-03-23T11:18:18+01:00*%
%TF.ProjectId,tapa,74617061-2e6b-4696-9361-645f70636258,rev?*%
%TF.SameCoordinates,Original*%
%TF.FileFunction,Copper,L2,Bot*%
%TF.FilePolarity,Positive*%
%FSLAX46Y46*%
G04 Gerber Fmt 4.6, Leading zero omitted, Abs format (unit mm)*
G04 Created by KiCad (PCBNEW (6.0.2)) date 2022-03-23 11:18:18*
%MOMM*%
%LPD*%
G01*
G04 APERTURE LIST*
%TA.AperFunction,ComponentPad*%
%ADD10O,3.048000X1.850000*%
%TD*%
%TA.AperFunction,ComponentPad*%
%ADD11R,2.100000X2.100000*%
%TD*%
%TA.AperFunction,ComponentPad*%
%ADD12C,2.100000*%
%TD*%
%TA.AperFunction,ComponentPad*%
%ADD13C,5.600000*%
%TD*%
%TA.AperFunction,Conductor*%
%ADD14C,0.250000*%
%TD*%
%TA.AperFunction,Conductor*%
%ADD15C,0.500000*%
%TD*%
G04 APERTURE END LIST*
D10*
%TO.P,SW2,2,2*%
%TO.N,ESC*%
X164740000Y-57110000D03*
X177240000Y-57110000D03*
%TO.P,SW2,1,1*%
%TO.N,GND*%
X164740000Y-52110000D03*
X177240000Y-52110000D03*
%TD*%
%TO.P,SW1,1,1*%
%TO.N,GND*%
X109110000Y-52110000D03*
X96610000Y-52110000D03*
%TO.P,SW1,2,2*%
%TO.N,ENTER*%
X109110000Y-57110000D03*
X96610000Y-57110000D03*
%TD*%
D11*
%TO.P,SW3,1,B*%
%TO.N,GND*%
X125730000Y-92590545D03*
D12*
%TO.P,SW3,2,A*%
%TO.N,UP*%
X128270000Y-92590545D03*
%TO.P,SW3,3,C*%
%TO.N,DOWN*%
X130810000Y-92590545D03*
%TO.P,SW3,4,A*%
%TO.N,AVANCE*%
X133350000Y-92590545D03*
%TO.P,SW3,5,B*%
%TO.N,MICRO24V*%
X135890000Y-92590545D03*
%TO.P,SW3,6,C*%
%TO.N,RETROCESO*%
X138430000Y-92590545D03*
%TD*%
D13*
%TO.P,H3,1,1*%
%TO.N,GND*%
X97088161Y-117756599D03*
%TD*%
%TO.P,H4,1,1*%
%TO.N,GND*%
X177088161Y-117756599D03*
%TD*%
D11*
%TO.P,J4,1,Pin_1*%
%TO.N,LR24V*%
X153670000Y-113545545D03*
D12*
%TO.P,J4,2,Pin_2*%
%TO.N,MICRO24V*%
X156210000Y-113545545D03*
%TO.P,J4,3,Pin_3*%
%TO.N,EMER24V*%
X158750000Y-113545545D03*
%TD*%
D13*
%TO.P,H1,1,1*%
%TO.N,GND*%
X97088161Y-36830000D03*
%TD*%
D11*
%TO.P,J1,1,Pin_1*%
%TO.N,GND*%
X114300000Y-113550545D03*
D12*
%TO.P,J1,2,Pin_2*%
%TO.N,+5V*%
X116840000Y-113550545D03*
%TO.P,J1,3,Pin_3*%
%TO.N,+24V*%
X119380000Y-113550545D03*
%TD*%
D11*
%TO.P,SW6,1*%
%TO.N,EMER24V*%
X160020000Y-92590545D03*
D12*
%TO.P,SW6,2*%
%TO.N,+24V*%
X162560000Y-92590545D03*
%TD*%
D13*
%TO.P,H2,1,1*%
%TO.N,GND*%
X177088161Y-36830000D03*
%TD*%
D11*
%TO.P,J5,1,Pin_1*%
%TO.N,GND*%
X111755000Y-92595545D03*
D12*
%TO.P,J5,2,Pin_2*%
%TO.N,+5V*%
X114295000Y-92595545D03*
%TO.P,J5,3,Pin_3*%
%TO.N,SDA*%
X116835000Y-92595545D03*
%TO.P,J5,4,Pin_4*%
%TO.N,SCL*%
X119375000Y-92595545D03*
%TD*%
D11*
%TO.P,SW4,1*%
%TO.N,LR24V*%
X144780000Y-92590545D03*
D12*
%TO.P,SW4,2*%
%TO.N,+24V*%
X147320000Y-92590545D03*
%TD*%
D11*
%TO.P,SW5,1*%
%TO.N,MICRO24V*%
X152400000Y-92590545D03*
D12*
%TO.P,SW5,2*%
%TO.N,+24V*%
X154940000Y-92590545D03*
%TD*%
D11*
%TO.P,J2,1,Pin_1*%
%TO.N,ENTER*%
X125725000Y-113545545D03*
D12*
%TO.P,J2,2,Pin_2*%
%TO.N,ESC*%
X128265000Y-113545545D03*
%TO.P,J2,3,Pin_3*%
%TO.N,SDA*%
X130805000Y-113545545D03*
%TO.P,J2,4,Pin_4*%
%TO.N,SCL*%
X133345000Y-113545545D03*
%TD*%
D11*
%TO.P,J3,1,Pin_1*%
%TO.N,UP*%
X139695000Y-113545545D03*
D12*
%TO.P,J3,2,Pin_2*%
%TO.N,DOWN*%
X142235000Y-113545545D03*
%TO.P,J3,3,Pin_3*%
%TO.N,AVANCE*%
X144775000Y-113545545D03*
%TO.P,J3,4,Pin_4*%
%TO.N,RETROCESO*%
X147315000Y-113545545D03*
%TD*%
D14*
%TO.N,+5V*%
X114295000Y-92595545D02*
X114295000Y-98935545D01*
X116840000Y-101480545D02*
X116840000Y-113550545D01*
X114295000Y-98935545D02*
X116840000Y-101480545D01*
D15*
%TO.N,+24V*%
X155154924Y-101480545D02*
X162560000Y-94075469D01*
X119380000Y-105290545D02*
X123190000Y-101480545D01*
X147320000Y-96400545D02*
X147320000Y-92590545D01*
X142240000Y-101480545D02*
X147320000Y-96400545D01*
X147534924Y-101480545D02*
X155154924Y-101480545D01*
X123190000Y-101480545D02*
X142240000Y-101480545D01*
X147534924Y-101480545D02*
X154940000Y-94075469D01*
X142240000Y-101480545D02*
X147534924Y-101480545D01*
X162560000Y-94075469D02*
X162560000Y-92590545D01*
X154940000Y-94075469D02*
X154940000Y-92590545D01*
X119380000Y-113550545D02*
X119380000Y-105290545D01*
%TD*%
%TA.AperFunction,Conductor*%
%TO.N,GND*%
G36*
X112464121Y-32278002D02*
G01*
X112510614Y-32331658D01*
X112522000Y-32384000D01*
X112522000Y-82541298D01*
X112521998Y-82542068D01*
X112521524Y-82619652D01*
X112523990Y-82628281D01*
X112523991Y-82628286D01*
X112529639Y-82648048D01*
X112533217Y-82664809D01*
X112536130Y-82685152D01*
X112536133Y-82685162D01*
X112537405Y-82694045D01*
X112548021Y-82717395D01*
X112554464Y-82734907D01*
X112561512Y-82759565D01*
X112577274Y-82784548D01*
X112585404Y-82799614D01*
X112597633Y-82826510D01*
X112614374Y-82845939D01*
X112625479Y-82860947D01*
X112639160Y-82882631D01*
X112645888Y-82888573D01*
X112661296Y-82902181D01*
X112673340Y-82914373D01*
X112692619Y-82936747D01*
X112700147Y-82941626D01*
X112700150Y-82941629D01*
X112714139Y-82950696D01*
X112729013Y-82961986D01*
X112748228Y-82978956D01*
X112756354Y-82982771D01*
X112756355Y-82982772D01*
X112762021Y-82985432D01*
X112774966Y-82991510D01*
X112789935Y-82999824D01*
X112814727Y-83015893D01*
X112831650Y-83020954D01*
X112839290Y-83023239D01*
X112856736Y-83029901D01*
X112879948Y-83040799D01*
X112909130Y-83045343D01*
X112925849Y-83049126D01*
X112945536Y-83055014D01*
X112945539Y-83055015D01*
X112954141Y-83057587D01*
X112963116Y-83057642D01*
X112963117Y-83057642D01*
X112969810Y-83057683D01*
X112988556Y-83057797D01*
X112989328Y-83057830D01*
X112990423Y-83058000D01*
X113021298Y-83058000D01*
X113022068Y-83058002D01*
X113095716Y-83058452D01*
X113095717Y-83058452D01*
X113099652Y-83058476D01*
X113100996Y-83058092D01*
X113102341Y-83058000D01*
X161281298Y-83058000D01*
X161282069Y-83058002D01*
X161359652Y-83058476D01*
X161368281Y-83056010D01*
X161368286Y-83056009D01*
X161388048Y-83050361D01*
X161404809Y-83046783D01*
X161425152Y-83043870D01*
X161425162Y-83043867D01*
X161434045Y-83042595D01*
X161457395Y-83031979D01*
X161474907Y-83025536D01*
X161490937Y-83020954D01*
X161499565Y-83018488D01*
X161524548Y-83002726D01*
X161539614Y-82994596D01*
X161566510Y-82982367D01*
X161585939Y-82965626D01*
X161600947Y-82954521D01*
X161615039Y-82945630D01*
X161622631Y-82940840D01*
X161642182Y-82918703D01*
X161654374Y-82906659D01*
X161669949Y-82893239D01*
X161669950Y-82893237D01*
X161676747Y-82887381D01*
X161681626Y-82879853D01*
X161681629Y-82879850D01*
X161690696Y-82865861D01*
X161701986Y-82850987D01*
X161713012Y-82838502D01*
X161718956Y-82831772D01*
X161731510Y-82805034D01*
X161739824Y-82790065D01*
X161755893Y-82765273D01*
X161763239Y-82740709D01*
X161769901Y-82723264D01*
X161776983Y-82708179D01*
X161780799Y-82700052D01*
X161785343Y-82670870D01*
X161789126Y-82654151D01*
X161795014Y-82634464D01*
X161795015Y-82634461D01*
X161797587Y-82625859D01*
X161797797Y-82591444D01*
X161797830Y-82590672D01*
X161798000Y-82589577D01*
X161798000Y-82558702D01*
X161798002Y-82557932D01*
X161798452Y-82484284D01*
X161798452Y-82484283D01*
X161798476Y-82480348D01*
X161798092Y-82479004D01*
X161798000Y-82477659D01*
X161798000Y-57210339D01*
X162706091Y-57210339D01*
X162741747Y-57443349D01*
X162814980Y-57667407D01*
X162923825Y-57876496D01*
X162926928Y-57880629D01*
X162926930Y-57880632D01*
X162949026Y-57910061D01*
X163065358Y-58065000D01*
X163235777Y-58227857D01*
X163430508Y-58360693D01*
X163435192Y-58362867D01*
X163435195Y-58362869D01*
X163639628Y-58457764D01*
X163639633Y-58457766D01*
X163644319Y-58459941D01*
X163871468Y-58522935D01*
X163876605Y-58523484D01*
X164060563Y-58543144D01*
X164060571Y-58543144D01*
X164063898Y-58543500D01*
X165398757Y-58543500D01*
X165401330Y-58543288D01*
X165401341Y-58543288D01*
X165568779Y-58529522D01*
X165568785Y-58529521D01*
X165573930Y-58529098D01*
X165802551Y-58471673D01*
X166018723Y-58377678D01*
X166216641Y-58249640D01*
X166240581Y-58227857D01*
X166387167Y-58094473D01*
X166387168Y-58094471D01*
X166390989Y-58090995D01*
X166394188Y-58086944D01*
X166394192Y-58086940D01*
X166533883Y-57910061D01*
X166533885Y-57910057D01*
X166537085Y-57906006D01*
X166651005Y-57699639D01*
X166660794Y-57671998D01*
X166727965Y-57482311D01*
X166727966Y-57482307D01*
X166729691Y-57477436D01*
X166730599Y-57472340D01*
X166770123Y-57250456D01*
X166770124Y-57250450D01*
X166771029Y-57245367D01*
X166771457Y-57210339D01*
X175206091Y-57210339D01*
X175241747Y-57443349D01*
X175314980Y-57667407D01*
X175423825Y-57876496D01*
X175426928Y-57880629D01*
X175426930Y-57880632D01*
X175449026Y-57910061D01*
X175565358Y-58065000D01*
X175735777Y-58227857D01*
X175930508Y-58360693D01*
X175935192Y-58362867D01*
X175935195Y-58362869D01*
X176139628Y-58457764D01*
X176139633Y-58457766D01*
X176144319Y-58459941D01*
X176371468Y-58522935D01*
X176376605Y-58523484D01*
X176560563Y-58543144D01*
X176560571Y-58543144D01*
X176563898Y-58543500D01*
X177898757Y-58543500D01*
X177901330Y-58543288D01*
X177901341Y-58543288D01*
X178068779Y-58529522D01*
X178068785Y-58529521D01*
X178073930Y-58529098D01*
X178302551Y-58471673D01*
X178518723Y-58377678D01*
X178716641Y-58249640D01*
X178740581Y-58227857D01*
X178887167Y-58094473D01*
X178887168Y-58094471D01*
X178890989Y-58090995D01*
X178894188Y-58086944D01*
X178894192Y-58086940D01*
X179033883Y-57910061D01*
X179033885Y-57910057D01*
X179037085Y-57906006D01*
X179151005Y-57699639D01*
X179160794Y-57671998D01*
X179227965Y-57482311D01*
X179227966Y-57482307D01*
X179229691Y-57477436D01*
X179230599Y-57472340D01*
X179270123Y-57250456D01*
X179270124Y-57250450D01*
X179271029Y-57245367D01*
X179273909Y-57009661D01*
X179238253Y-56776651D01*
X179165020Y-56552593D01*
X179056175Y-56343504D01*
X179037415Y-56318517D01*
X178917747Y-56159135D01*
X178917745Y-56159132D01*
X178914642Y-56155000D01*
X178744223Y-55992143D01*
X178549492Y-55859307D01*
X178544808Y-55857133D01*
X178544805Y-55857131D01*
X178340372Y-55762236D01*
X178340367Y-55762234D01*
X178335681Y-55760059D01*
X178108532Y-55697065D01*
X178103395Y-55696516D01*
X177919437Y-55676856D01*
X177919429Y-55676856D01*
X177916102Y-55676500D01*
X176581243Y-55676500D01*
X176578670Y-55676712D01*
X176578659Y-55676712D01*
X176411221Y-55690478D01*
X176411215Y-55690479D01*
X176406070Y-55690902D01*
X176177449Y-55748327D01*
X175961277Y-55842322D01*
X175763359Y-55970360D01*
X175759536Y-55973839D01*
X175759533Y-55973841D01*
X175735495Y-55995714D01*
X175589011Y-56129005D01*
X175585812Y-56133056D01*
X175585808Y-56133060D01*
X175446117Y-56309939D01*
X175442915Y-56313994D01*
X175328995Y-56520361D01*
X175327271Y-56525230D01*
X175327269Y-56525234D01*
X175252035Y-56737689D01*
X175250309Y-56742564D01*
X175249402Y-56747657D01*
X175249401Y-56747660D01*
X175245113Y-56771736D01*
X175208971Y-56974633D01*
X175206091Y-57210339D01*
X166771457Y-57210339D01*
X166773909Y-57009661D01*
X166738253Y-56776651D01*
X166665020Y-56552593D01*
X166556175Y-56343504D01*
X166537415Y-56318517D01*
X166417747Y-56159135D01*
X166417745Y-56159132D01*
X166414642Y-56155000D01*
X166244223Y-55992143D01*
X166049492Y-55859307D01*
X166044808Y-55857133D01*
X166044805Y-55857131D01*
X165840372Y-55762236D01*
X165840367Y-55762234D01*
X165835681Y-55760059D01*
X165608532Y-55697065D01*
X165603395Y-55696516D01*
X165419437Y-55676856D01*
X165419429Y-55676856D01*
X165416102Y-55676500D01*
X164081243Y-55676500D01*
X164078670Y-55676712D01*
X164078659Y-55676712D01*
X163911221Y-55690478D01*
X163911215Y-55690479D01*
X163906070Y-55690902D01*
X163677449Y-55748327D01*
X163461277Y-55842322D01*
X163263359Y-55970360D01*
X163259536Y-55973839D01*
X163259533Y-55973841D01*
X163235495Y-55995714D01*
X163089011Y-56129005D01*
X163085812Y-56133056D01*
X163085808Y-56133060D01*
X162946117Y-56309939D01*
X162942915Y-56313994D01*
X162828995Y-56520361D01*
X162827271Y-56525230D01*
X162827269Y-56525234D01*
X162752035Y-56737689D01*
X162750309Y-56742564D01*
X162749402Y-56747657D01*
X162749401Y-56747660D01*
X162745113Y-56771736D01*
X162708971Y-56974633D01*
X162706091Y-57210339D01*
X161798000Y-57210339D01*
X161798000Y-52382194D01*
X162732895Y-52382194D01*
X162741453Y-52438121D01*
X162743841Y-52448146D01*
X162813836Y-52662295D01*
X162817833Y-52671804D01*
X162921861Y-52871640D01*
X162927355Y-52880365D01*
X163062628Y-53060532D01*
X163069471Y-53068239D01*
X163232356Y-53223896D01*
X163240362Y-53230379D01*
X163426485Y-53357343D01*
X163435444Y-53362432D01*
X163639807Y-53457294D01*
X163649475Y-53460851D01*
X163866580Y-53521060D01*
X163876699Y-53522991D01*
X164060595Y-53542644D01*
X164067287Y-53543000D01*
X164467885Y-53543000D01*
X164483124Y-53538525D01*
X164484329Y-53537135D01*
X164486000Y-53529452D01*
X164486000Y-53524885D01*
X164994000Y-53524885D01*
X164998475Y-53540124D01*
X164999865Y-53541329D01*
X165007548Y-53543000D01*
X165396145Y-53543000D01*
X165401318Y-53542788D01*
X165568687Y-53529027D01*
X165578867Y-53527342D01*
X165797377Y-53472456D01*
X165807128Y-53469136D01*
X166013749Y-53379296D01*
X166022824Y-53374430D01*
X166211990Y-53252052D01*
X166220161Y-53245760D01*
X166386800Y-53094131D01*
X166393825Y-53086598D01*
X166533466Y-52909782D01*
X166539162Y-52901209D01*
X166648052Y-52703955D01*
X166652273Y-52694560D01*
X166727481Y-52482180D01*
X166730113Y-52472217D01*
X166746148Y-52382194D01*
X175232895Y-52382194D01*
X175241453Y-52438121D01*
X175243841Y-52448146D01*
X175313836Y-52662295D01*
X175317833Y-52671804D01*
X175421861Y-52871640D01*
X175427355Y-52880365D01*
X175562628Y-53060532D01*
X175569471Y-53068239D01*
X175732356Y-53223896D01*
X175740362Y-53230379D01*
X175926485Y-53357343D01*
X175935444Y-53362432D01*
X176139807Y-53457294D01*
X176149475Y-53460851D01*
X176366580Y-53521060D01*
X176376699Y-53522991D01*
X176560595Y-53542644D01*
X176567287Y-53543000D01*
X176967885Y-53543000D01*
X176983124Y-53538525D01*
X176984329Y-53537135D01*
X176986000Y-53529452D01*
X176986000Y-53524885D01*
X177494000Y-53524885D01*
X177498475Y-53540124D01*
X177499865Y-53541329D01*
X177507548Y-53543000D01*
X177896145Y-53543000D01*
X177901318Y-53542788D01*
X178068687Y-53529027D01*
X178078867Y-53527342D01*
X178297377Y-53472456D01*
X178307128Y-53469136D01*
X178513749Y-53379296D01*
X178522824Y-53374430D01*
X178711990Y-53252052D01*
X178720161Y-53245760D01*
X178886800Y-53094131D01*
X178893825Y-53086598D01*
X179033466Y-52909782D01*
X179039162Y-52901209D01*
X179148052Y-52703955D01*
X179152273Y-52694560D01*
X179227481Y-52482180D01*
X179230113Y-52472217D01*
X179246212Y-52381837D01*
X179244752Y-52368540D01*
X179230197Y-52364000D01*
X177512115Y-52364000D01*
X177496876Y-52368475D01*
X177495671Y-52369865D01*
X177494000Y-52377548D01*
X177494000Y-53524885D01*
X176986000Y-53524885D01*
X176986000Y-52382115D01*
X176981525Y-52366876D01*
X176980135Y-52365671D01*
X176972452Y-52364000D01*
X175248226Y-52364000D01*
X175234882Y-52367918D01*
X175232895Y-52382194D01*
X166746148Y-52382194D01*
X166746212Y-52381837D01*
X166744752Y-52368540D01*
X166730197Y-52364000D01*
X165012115Y-52364000D01*
X164996876Y-52368475D01*
X164995671Y-52369865D01*
X164994000Y-52377548D01*
X164994000Y-53524885D01*
X164486000Y-53524885D01*
X164486000Y-52382115D01*
X164481525Y-52366876D01*
X164480135Y-52365671D01*
X164472452Y-52364000D01*
X162748226Y-52364000D01*
X162734882Y-52367918D01*
X162732895Y-52382194D01*
X161798000Y-52382194D01*
X161798000Y-51838163D01*
X162733788Y-51838163D01*
X162735248Y-51851460D01*
X162749803Y-51856000D01*
X164467885Y-51856000D01*
X164483124Y-51851525D01*
X164484329Y-51850135D01*
X164486000Y-51842452D01*
X164486000Y-51837885D01*
X164994000Y-51837885D01*
X164998475Y-51853124D01*
X164999865Y-51854329D01*
X165007548Y-51856000D01*
X166731774Y-51856000D01*
X166745118Y-51852082D01*
X166747055Y-51838163D01*
X175233788Y-51838163D01*
X175235248Y-51851460D01*
X175249803Y-51856000D01*
X176967885Y-51856000D01*
X176983124Y-51851525D01*
X176984329Y-51850135D01*
X176986000Y-51842452D01*
X176986000Y-51837885D01*
X177494000Y-51837885D01*
X177498475Y-51853124D01*
X177499865Y-51854329D01*
X177507548Y-51856000D01*
X179231774Y-51856000D01*
X179245118Y-51852082D01*
X179247105Y-51837806D01*
X179238547Y-51781879D01*
X179236159Y-51771854D01*
X179166164Y-51557705D01*
X179162167Y-51548196D01*
X179058139Y-51348360D01*
X179052645Y-51339635D01*
X178917372Y-51159468D01*
X178910529Y-51151761D01*
X178747644Y-50996104D01*
X178739638Y-50989621D01*
X178553515Y-50862657D01*
X178544556Y-50857568D01*
X178340193Y-50762706D01*
X178330525Y-50759149D01*
X178113420Y-50698940D01*
X178103301Y-50697009D01*
X177919405Y-50677356D01*
X177912713Y-50677000D01*
X177512115Y-50677000D01*
X177496876Y-50681475D01*
X177495671Y-50682865D01*
X177494000Y-50690548D01*
X177494000Y-51837885D01*
X176986000Y-51837885D01*
X176986000Y-50695115D01*
X176981525Y-50679876D01*
X176980135Y-50678671D01*
X176972452Y-50677000D01*
X176583855Y-50677000D01*
X176578682Y-50677212D01*
X176411313Y-50690973D01*
X176401133Y-50692658D01*
X176182623Y-50747544D01*
X176172872Y-50750864D01*
X175966251Y-50840704D01*
X175957176Y-50845570D01*
X175768010Y-50967948D01*
X175759839Y-50974240D01*
X175593200Y-51125869D01*
X175586175Y-51133402D01*
X175446534Y-51310218D01*
X175440838Y-51318791D01*
X175331948Y-51516045D01*
X175327727Y-51525440D01*
X175252519Y-51737820D01*
X175249887Y-51747783D01*
X175233788Y-51838163D01*
X166747055Y-51838163D01*
X166747105Y-51837806D01*
X166738547Y-51781879D01*
X166736159Y-51771854D01*
X166666164Y-51557705D01*
X166662167Y-51548196D01*
X166558139Y-51348360D01*
X166552645Y-51339635D01*
X166417372Y-51159468D01*
X166410529Y-51151761D01*
X166247644Y-50996104D01*
X166239638Y-50989621D01*
X166053515Y-50862657D01*
X166044556Y-50857568D01*
X165840193Y-50762706D01*
X165830525Y-50759149D01*
X165613420Y-50698940D01*
X165603301Y-50697009D01*
X165419405Y-50677356D01*
X165412713Y-50677000D01*
X165012115Y-50677000D01*
X164996876Y-50681475D01*
X164995671Y-50682865D01*
X164994000Y-50690548D01*
X164994000Y-51837885D01*
X164486000Y-51837885D01*
X164486000Y-50695115D01*
X164481525Y-50679876D01*
X164480135Y-50678671D01*
X164472452Y-50677000D01*
X164083855Y-50677000D01*
X164078682Y-50677212D01*
X163911313Y-50690973D01*
X163901133Y-50692658D01*
X163682623Y-50747544D01*
X163672872Y-50750864D01*
X163466251Y-50840704D01*
X163457176Y-50845570D01*
X163268010Y-50967948D01*
X163259839Y-50974240D01*
X163093200Y-51125869D01*
X163086175Y-51133402D01*
X162946534Y-51310218D01*
X162940838Y-51318791D01*
X162831948Y-51516045D01*
X162827727Y-51525440D01*
X162752519Y-51737820D01*
X162749887Y-51747783D01*
X162733788Y-51838163D01*
X161798000Y-51838163D01*
X161798000Y-39346381D01*
X174937321Y-39346381D01*
X174937398Y-39347470D01*
X174939859Y-39351206D01*
X175213793Y-39561404D01*
X175219423Y-39565259D01*
X175519752Y-39747862D01*
X175525754Y-39751080D01*
X175844058Y-39900184D01*
X175850363Y-39902732D01*
X176182904Y-40016587D01*
X176189474Y-40018446D01*
X176532344Y-40095714D01*
X176539073Y-40096853D01*
X176888304Y-40136643D01*
X176895094Y-40137046D01*
X177246580Y-40138886D01*
X177253381Y-40138554D01*
X177603014Y-40102423D01*
X177609742Y-40101357D01*
X177953435Y-40027676D01*
X177959983Y-40025897D01*
X178293710Y-39915527D01*
X178300052Y-39913041D01*
X178619879Y-39767288D01*
X178625938Y-39764121D01*
X178928156Y-39584676D01*
X178933820Y-39580884D01*
X179214893Y-39369849D01*
X179220119Y-39365464D01*
X179229774Y-39356428D01*
X179237843Y-39342750D01*
X179237815Y-39342024D01*
X179232673Y-39333723D01*
X177100971Y-37202020D01*
X177087030Y-37194408D01*
X177085195Y-37194539D01*
X177078581Y-37198790D01*
X174944935Y-39332437D01*
X174937321Y-39346381D01*
X161798000Y-39346381D01*
X161798000Y-36821832D01*
X173775494Y-36821832D01*
X173793278Y-37172893D01*
X173793988Y-37179649D01*
X173849581Y-37526723D01*
X173851020Y-37533378D01*
X173943769Y-37872410D01*
X173945918Y-37878871D01*
X174074742Y-38205912D01*
X174077573Y-38212095D01*
X174240964Y-38523310D01*
X174244447Y-38529152D01*
X174440491Y-38820896D01*
X174444594Y-38826340D01*
X174564586Y-38968836D01*
X174577325Y-38977279D01*
X174587769Y-38971181D01*
X176716141Y-36842810D01*
X176722518Y-36831131D01*
X177452569Y-36831131D01*
X177452700Y-36832966D01*
X177456951Y-36839580D01*
X179587170Y-38969798D01*
X179600766Y-38977223D01*
X179610379Y-38970522D01*
X179710679Y-38853912D01*
X179714837Y-38848514D01*
X179913923Y-38558840D01*
X179917471Y-38553029D01*
X180084103Y-38243559D01*
X180087010Y-38237381D01*
X180219251Y-37911713D01*
X180221465Y-37905283D01*
X180317759Y-37567237D01*
X180319266Y-37560607D01*
X180378493Y-37214118D01*
X180379273Y-37207378D01*
X180400829Y-36854925D01*
X180400945Y-36851323D01*
X180401014Y-36831819D01*
X180400922Y-36828194D01*
X180381827Y-36475615D01*
X180381092Y-36468849D01*
X180324291Y-36121985D01*
X180322824Y-36115313D01*
X180228897Y-35776627D01*
X180226723Y-35770163D01*
X180096759Y-35443578D01*
X180093903Y-35437398D01*
X179929430Y-35126763D01*
X179925930Y-35120937D01*
X179728858Y-34829862D01*
X179724751Y-34824453D01*
X179611726Y-34691179D01*
X179598901Y-34682743D01*
X179588577Y-34688795D01*
X177460181Y-36817190D01*
X177452569Y-36831131D01*
X176722518Y-36831131D01*
X176723753Y-36828869D01*
X176723622Y-36827034D01*
X176719371Y-36820420D01*
X174589153Y-34690203D01*
X174575616Y-34682811D01*
X174565914Y-34689599D01*
X174458591Y-34815257D01*
X174454457Y-34820664D01*
X174256376Y-35111041D01*
X174252858Y-35116851D01*
X174087295Y-35426922D01*
X174084420Y-35433087D01*
X173953316Y-35759218D01*
X173951123Y-35765658D01*
X173856007Y-36104044D01*
X173854524Y-36110679D01*
X173796511Y-36457354D01*
X173795752Y-36464126D01*
X173775518Y-36815037D01*
X173775494Y-36821832D01*
X161798000Y-36821832D01*
X161798000Y-34316862D01*
X174938111Y-34316862D01*
X174938147Y-34317704D01*
X174943198Y-34325826D01*
X177075351Y-36457980D01*
X177089292Y-36465592D01*
X177091127Y-36465461D01*
X177097741Y-36461210D01*
X179230959Y-34327991D01*
X179238573Y-34314047D01*
X179238505Y-34313089D01*
X179233997Y-34306272D01*
X179232579Y-34305065D01*
X178952974Y-34092064D01*
X178947348Y-34088240D01*
X178646375Y-33906681D01*
X178640363Y-33903484D01*
X178321531Y-33755487D01*
X178315231Y-33752967D01*
X177982290Y-33640273D01*
X177975712Y-33638437D01*
X177632578Y-33562367D01*
X177625839Y-33561251D01*
X177276471Y-33522680D01*
X177269690Y-33522301D01*
X176918176Y-33521687D01*
X176911403Y-33522042D01*
X176561881Y-33559395D01*
X176555171Y-33560482D01*
X176211747Y-33635361D01*
X176205172Y-33637172D01*
X175871844Y-33748702D01*
X175865522Y-33751205D01*
X175546195Y-33898079D01*
X175540152Y-33901265D01*
X175238562Y-34081763D01*
X175232916Y-34085571D01*
X174952569Y-34297596D01*
X174947372Y-34301987D01*
X174946133Y-34303155D01*
X174938111Y-34316862D01*
X161798000Y-34316862D01*
X161798000Y-32384000D01*
X161818002Y-32315879D01*
X161871658Y-32269386D01*
X161924000Y-32258000D01*
X180806000Y-32258000D01*
X180874121Y-32278002D01*
X180920614Y-32331658D01*
X180932000Y-32384000D01*
X180932000Y-120846545D01*
X180911998Y-120914666D01*
X180858342Y-120961159D01*
X180806000Y-120972545D01*
X178588740Y-120972545D01*
X178520619Y-120952543D01*
X178474126Y-120898887D01*
X178464022Y-120828613D01*
X178493516Y-120764033D01*
X178536489Y-120731890D01*
X178619879Y-120693887D01*
X178625938Y-120690720D01*
X178928156Y-120511275D01*
X178933820Y-120507483D01*
X179214893Y-120296448D01*
X179220119Y-120292063D01*
X179229774Y-120283027D01*
X179237843Y-120269349D01*
X179237815Y-120268623D01*
X179232673Y-120260322D01*
X177100971Y-118128619D01*
X177087030Y-118121007D01*
X177085195Y-118121138D01*
X177078581Y-118125389D01*
X174944935Y-120259036D01*
X174937321Y-120272980D01*
X174937398Y-120274069D01*
X174939859Y-120277805D01*
X175213793Y-120488003D01*
X175219423Y-120491858D01*
X175519752Y-120674461D01*
X175525754Y-120677679D01*
X175642663Y-120732443D01*
X175695866Y-120779453D01*
X175715208Y-120847764D01*
X175694548Y-120915688D01*
X175640445Y-120961660D01*
X175589214Y-120972545D01*
X98588740Y-120972545D01*
X98520619Y-120952543D01*
X98474126Y-120898887D01*
X98464022Y-120828613D01*
X98493516Y-120764033D01*
X98536489Y-120731890D01*
X98619879Y-120693887D01*
X98625938Y-120690720D01*
X98928156Y-120511275D01*
X98933820Y-120507483D01*
X99214893Y-120296448D01*
X99220119Y-120292063D01*
X99229774Y-120283027D01*
X99237843Y-120269349D01*
X99237815Y-120268623D01*
X99232673Y-120260322D01*
X97100971Y-118128619D01*
X97087030Y-118121007D01*
X97085195Y-118121138D01*
X97078581Y-118125389D01*
X94944935Y-120259036D01*
X94937321Y-120272980D01*
X94937398Y-120274069D01*
X94939859Y-120277805D01*
X95213793Y-120488003D01*
X95219423Y-120491858D01*
X95519752Y-120674461D01*
X95525754Y-120677679D01*
X95642663Y-120732443D01*
X95695866Y-120779453D01*
X95715208Y-120847764D01*
X95694548Y-120915688D01*
X95640445Y-120961660D01*
X95589214Y-120972545D01*
X92709000Y-120972545D01*
X92640879Y-120952543D01*
X92594386Y-120898887D01*
X92583000Y-120846545D01*
X92583000Y-117748431D01*
X93775494Y-117748431D01*
X93793278Y-118099492D01*
X93793988Y-118106248D01*
X93849581Y-118453322D01*
X93851020Y-118459977D01*
X93943769Y-118799009D01*
X93945918Y-118805470D01*
X94074742Y-119132511D01*
X94077573Y-119138694D01*
X94240964Y-119449909D01*
X94244447Y-119455751D01*
X94440491Y-119747495D01*
X94444594Y-119752939D01*
X94564586Y-119895435D01*
X94577325Y-119903878D01*
X94587769Y-119897780D01*
X96716141Y-117769409D01*
X96722518Y-117757730D01*
X97452569Y-117757730D01*
X97452700Y-117759565D01*
X97456951Y-117766179D01*
X99587170Y-119896397D01*
X99600766Y-119903822D01*
X99610379Y-119897121D01*
X99710679Y-119780511D01*
X99714837Y-119775113D01*
X99913923Y-119485439D01*
X99917471Y-119479628D01*
X100084103Y-119170158D01*
X100087010Y-119163980D01*
X100219251Y-118838312D01*
X100221465Y-118831882D01*
X100317759Y-118493836D01*
X100319266Y-118487206D01*
X100378493Y-118140717D01*
X100379273Y-118133977D01*
X100400829Y-117781524D01*
X100400945Y-117777922D01*
X100401014Y-117758418D01*
X100400922Y-117754793D01*
X100400577Y-117748431D01*
X173775494Y-117748431D01*
X173793278Y-118099492D01*
X173793988Y-118106248D01*
X173849581Y-118453322D01*
X173851020Y-118459977D01*
X173943769Y-118799009D01*
X173945918Y-118805470D01*
X174074742Y-119132511D01*
X174077573Y-119138694D01*
X174240964Y-119449909D01*
X174244447Y-119455751D01*
X174440491Y-119747495D01*
X174444594Y-119752939D01*
X174564586Y-119895435D01*
X174577325Y-119903878D01*
X174587769Y-119897780D01*
X176716141Y-117769409D01*
X176722518Y-117757730D01*
X177452569Y-117757730D01*
X177452700Y-117759565D01*
X177456951Y-117766179D01*
X179587170Y-119896397D01*
X179600766Y-119903822D01*
X179610379Y-119897121D01*
X179710679Y-119780511D01*
X179714837Y-119775113D01*
X179913923Y-119485439D01*
X179917471Y-119479628D01*
X180084103Y-119170158D01*
X180087010Y-119163980D01*
X180219251Y-118838312D01*
X180221465Y-118831882D01*
X180317759Y-118493836D01*
X180319266Y-118487206D01*
X180378493Y-118140717D01*
X180379273Y-118133977D01*
X180400829Y-117781524D01*
X180400945Y-117777922D01*
X180401014Y-117758418D01*
X180400922Y-117754793D01*
X180381827Y-117402214D01*
X180381092Y-117395448D01*
X180324291Y-117048584D01*
X180322824Y-117041912D01*
X180228897Y-116703226D01*
X180226723Y-116696762D01*
X180096759Y-116370177D01*
X180093903Y-116363997D01*
X179929430Y-116053362D01*
X179925930Y-116047536D01*
X179728858Y-115756461D01*
X179724751Y-115751052D01*
X179611726Y-115617778D01*
X179598901Y-115609342D01*
X179588577Y-115615394D01*
X177460181Y-117743789D01*
X177452569Y-117757730D01*
X176722518Y-117757730D01*
X176723753Y-117755468D01*
X176723622Y-117753633D01*
X176719371Y-117747019D01*
X174589153Y-115616802D01*
X174575616Y-115609410D01*
X174565914Y-115616198D01*
X174458591Y-115741856D01*
X174454457Y-115747263D01*
X174256376Y-116037640D01*
X174252858Y-116043450D01*
X174087295Y-116353521D01*
X174084420Y-116359686D01*
X173953316Y-116685817D01*
X173951123Y-116692257D01*
X173856007Y-117030643D01*
X173854524Y-117037278D01*
X173796511Y-117383953D01*
X173795752Y-117390725D01*
X173775518Y-117741636D01*
X173775494Y-117748431D01*
X100400577Y-117748431D01*
X100381827Y-117402214D01*
X100381092Y-117395448D01*
X100324291Y-117048584D01*
X100322824Y-117041912D01*
X100228897Y-116703226D01*
X100226723Y-116696762D01*
X100096759Y-116370177D01*
X100093903Y-116363997D01*
X99929430Y-116053362D01*
X99925930Y-116047536D01*
X99728858Y-115756461D01*
X99724751Y-115751052D01*
X99611726Y-115617778D01*
X99598901Y-115609342D01*
X99588577Y-115615394D01*
X97460181Y-117743789D01*
X97452569Y-117757730D01*
X96722518Y-117757730D01*
X96723753Y-117755468D01*
X96723622Y-117753633D01*
X96719371Y-117747019D01*
X94589153Y-115616802D01*
X94575616Y-115609410D01*
X94565914Y-115616198D01*
X94458591Y-115741856D01*
X94454457Y-115747263D01*
X94256376Y-116037640D01*
X94252858Y-116043450D01*
X94087295Y-116353521D01*
X94084420Y-116359686D01*
X93953316Y-116685817D01*
X93951123Y-116692257D01*
X93856007Y-117030643D01*
X93854524Y-117037278D01*
X93796511Y-117383953D01*
X93795752Y-117390725D01*
X93775518Y-117741636D01*
X93775494Y-117748431D01*
X92583000Y-117748431D01*
X92583000Y-115243461D01*
X94938111Y-115243461D01*
X94938147Y-115244303D01*
X94943198Y-115252425D01*
X97075351Y-117384579D01*
X97089292Y-117392191D01*
X97091127Y-117392060D01*
X97097741Y-117387809D01*
X99230959Y-115254590D01*
X99237036Y-115243461D01*
X174938111Y-115243461D01*
X174938147Y-115244303D01*
X174943198Y-115252425D01*
X177075351Y-117384579D01*
X177089292Y-117392191D01*
X177091127Y-117392060D01*
X177097741Y-117387809D01*
X179230959Y-115254590D01*
X179238573Y-115240646D01*
X179238505Y-115239688D01*
X179233997Y-115232871D01*
X179232579Y-115231664D01*
X178952974Y-115018663D01*
X178947348Y-115014839D01*
X178646375Y-114833280D01*
X178640363Y-114830083D01*
X178321531Y-114682086D01*
X178315231Y-114679566D01*
X177982290Y-114566872D01*
X177975712Y-114565036D01*
X177632578Y-114488966D01*
X177625839Y-114487850D01*
X177276471Y-114449279D01*
X177269690Y-114448900D01*
X176918176Y-114448286D01*
X176911403Y-114448641D01*
X176561881Y-114485994D01*
X176555171Y-114487081D01*
X176211747Y-114561960D01*
X176205172Y-114563771D01*
X175871844Y-114675301D01*
X175865522Y-114677804D01*
X175546195Y-114824678D01*
X175540152Y-114827864D01*
X175238562Y-115008362D01*
X175232916Y-115012170D01*
X174952569Y-115224195D01*
X174947372Y-115228586D01*
X174946133Y-115229754D01*
X174938111Y-115243461D01*
X99237036Y-115243461D01*
X99238573Y-115240646D01*
X99238505Y-115239688D01*
X99233997Y-115232871D01*
X99232579Y-115231664D01*
X98952974Y-115018663D01*
X98947348Y-115014839D01*
X98646375Y-114833280D01*
X98640363Y-114830083D01*
X98321531Y-114682086D01*
X98315231Y-114679566D01*
X98213742Y-114645214D01*
X112742001Y-114645214D01*
X112742371Y-114652035D01*
X112747895Y-114702897D01*
X112751521Y-114718149D01*
X112796676Y-114838599D01*
X112805214Y-114854194D01*
X112881715Y-114956269D01*
X112894276Y-114968830D01*
X112996351Y-115045331D01*
X113011946Y-115053869D01*
X113132394Y-115099023D01*
X113147649Y-115102650D01*
X113198514Y-115108176D01*
X113205328Y-115108545D01*
X114027885Y-115108545D01*
X114043124Y-115104070D01*
X114044329Y-115102680D01*
X114046000Y-115094997D01*
X114046000Y-113822660D01*
X114041525Y-113807421D01*
X114040135Y-113806216D01*
X114032452Y-113804545D01*
X112760116Y-113804545D01*
X112744877Y-113809020D01*
X112743672Y-113810410D01*
X112742001Y-113818093D01*
X112742001Y-114645214D01*
X98213742Y-114645214D01*
X97982290Y-114566872D01*
X97975712Y-114565036D01*
X97632578Y-114488966D01*
X97625839Y-114487850D01*
X97276471Y-114449279D01*
X97269690Y-114448900D01*
X96918176Y-114448286D01*
X96911403Y-114448641D01*
X96561881Y-114485994D01*
X96555171Y-114487081D01*
X96211747Y-114561960D01*
X96205172Y-114563771D01*
X95871844Y-114675301D01*
X95865522Y-114677804D01*
X95546195Y-114824678D01*
X95540152Y-114827864D01*
X95238562Y-115008362D01*
X95232916Y-115012170D01*
X94952569Y-115224195D01*
X94947372Y-115228586D01*
X94946133Y-115229754D01*
X94938111Y-115243461D01*
X92583000Y-115243461D01*
X92583000Y-113278430D01*
X112742000Y-113278430D01*
X112746475Y-113293669D01*
X112747865Y-113294874D01*
X112755548Y-113296545D01*
X114027885Y-113296545D01*
X114043124Y-113292070D01*
X114044329Y-113290680D01*
X114046000Y-113282997D01*
X114046000Y-112010661D01*
X114041525Y-111995422D01*
X114040135Y-111994217D01*
X114032452Y-111992546D01*
X113205331Y-111992546D01*
X113198510Y-111992916D01*
X113147648Y-111998440D01*
X113132396Y-112002066D01*
X113011946Y-112047221D01*
X112996351Y-112055759D01*
X112894276Y-112132260D01*
X112881715Y-112144821D01*
X112805214Y-112246896D01*
X112796676Y-112262491D01*
X112751522Y-112382939D01*
X112747895Y-112398194D01*
X112742369Y-112449059D01*
X112742000Y-112455873D01*
X112742000Y-113278430D01*
X92583000Y-113278430D01*
X92583000Y-93690214D01*
X110197001Y-93690214D01*
X110197371Y-93697035D01*
X110202895Y-93747897D01*
X110206521Y-93763149D01*
X110251676Y-93883599D01*
X110260214Y-93899194D01*
X110336715Y-94001269D01*
X110349276Y-94013830D01*
X110451351Y-94090331D01*
X110466946Y-94098869D01*
X110587394Y-94144023D01*
X110602649Y-94147650D01*
X110653514Y-94153176D01*
X110660328Y-94153545D01*
X111482885Y-94153545D01*
X111498124Y-94149070D01*
X111499329Y-94147680D01*
X111501000Y-94139997D01*
X111501000Y-94135429D01*
X112009000Y-94135429D01*
X112013475Y-94150668D01*
X112014865Y-94151873D01*
X112022548Y-94153544D01*
X112849669Y-94153544D01*
X112856490Y-94153174D01*
X112907352Y-94147650D01*
X112922604Y-94144024D01*
X113043054Y-94098869D01*
X113058649Y-94090331D01*
X113160724Y-94013830D01*
X113173281Y-94001273D01*
X113240698Y-93911318D01*
X113297558Y-93868803D01*
X113368376Y-93863777D01*
X113407359Y-93879450D01*
X113451632Y-93906580D01*
X113585268Y-93988472D01*
X113589846Y-93990368D01*
X113592703Y-93991824D01*
X113644318Y-94040572D01*
X113661500Y-94104091D01*
X113661500Y-98856778D01*
X113660973Y-98867961D01*
X113659298Y-98875454D01*
X113659547Y-98883380D01*
X113659547Y-98883381D01*
X113661438Y-98943531D01*
X113661500Y-98947490D01*
X113661500Y-98975401D01*
X113661997Y-98979335D01*
X113661997Y-98979336D01*
X113662005Y-98979401D01*
X113662938Y-98991238D01*
X113664327Y-99035434D01*
X113669978Y-99054884D01*
X113673987Y-99074245D01*
X113676526Y-99094342D01*
X113679445Y-99101713D01*
X113679445Y-99101715D01*
X113692804Y-99135457D01*
X113696649Y-99146687D01*
X113708982Y-99189138D01*
X113713015Y-99195957D01*
X113713017Y-99195962D01*
X113719293Y-99206573D01*
X113727988Y-99224321D01*
X113735448Y-99243162D01*
X113740110Y-99249578D01*
X113740110Y-99249579D01*
X113761436Y-99278932D01*
X113767952Y-99288852D01*
X113790458Y-99326907D01*
X113804779Y-99341228D01*
X113817619Y-99356261D01*
X113829528Y-99372652D01*
X113835634Y-99377703D01*
X113863605Y-99400843D01*
X113872384Y-99408833D01*
X116169595Y-101706044D01*
X116203621Y-101768356D01*
X116206500Y-101795139D01*
X116206500Y-112041999D01*
X116186498Y-112110120D01*
X116137703Y-112154266D01*
X116134846Y-112155722D01*
X116130268Y-112157618D01*
X116126044Y-112160207D01*
X116126043Y-112160207D01*
X115952359Y-112266640D01*
X115883826Y-112285178D01*
X115816149Y-112263721D01*
X115785698Y-112234772D01*
X115718281Y-112144817D01*
X115705724Y-112132260D01*
X115603649Y-112055759D01*
X115588054Y-112047221D01*
X115467606Y-112002067D01*
X115452351Y-111998440D01*
X115401486Y-111992914D01*
X115394672Y-111992545D01*
X114572115Y-111992545D01*
X114556876Y-111997020D01*
X114555671Y-111998410D01*
X114554000Y-112006093D01*
X114554000Y-115090429D01*
X114558475Y-115105668D01*
X114559865Y-115106873D01*
X114567548Y-115108544D01*
X115394669Y-115108544D01*
X115401490Y-115108174D01*
X115452352Y-115102650D01*
X115467604Y-115099024D01*
X115588054Y-115053869D01*
X115603649Y-115045331D01*
X115705724Y-114968830D01*
X115718281Y-114956273D01*
X115785698Y-114866318D01*
X115842558Y-114823803D01*
X115913376Y-114818777D01*
X115952359Y-114834450D01*
X116130268Y-114943472D01*
X116274967Y-115003409D01*
X116352335Y-115035456D01*
X116352337Y-115035457D01*
X116356908Y-115037350D01*
X116425715Y-115053869D01*
X116590630Y-115093462D01*
X116590636Y-115093463D01*
X116595443Y-115094617D01*
X116840000Y-115113864D01*
X117084557Y-115094617D01*
X117089364Y-115093463D01*
X117089370Y-115093462D01*
X117254285Y-115053869D01*
X117323092Y-115037350D01*
X117327663Y-115035457D01*
X117327665Y-115035456D01*
X117405033Y-115003409D01*
X117549732Y-114943472D01*
X117685485Y-114860283D01*
X117754670Y-114817887D01*
X117754673Y-114817885D01*
X117758896Y-114815297D01*
X117764751Y-114810297D01*
X117941677Y-114659186D01*
X117945433Y-114655978D01*
X118014189Y-114575476D01*
X118073640Y-114536667D01*
X118144635Y-114536161D01*
X118205811Y-114575476D01*
X118274567Y-114655978D01*
X118278323Y-114659186D01*
X118455250Y-114810297D01*
X118461104Y-114815297D01*
X118465327Y-114817885D01*
X118465330Y-114817887D01*
X118534515Y-114860283D01*
X118670268Y-114943472D01*
X118814967Y-115003409D01*
X118892335Y-115035456D01*
X118892337Y-115035457D01*
X118896908Y-115037350D01*
X118965715Y-115053869D01*
X119130630Y-115093462D01*
X119130636Y-115093463D01*
X119135443Y-115094617D01*
X119380000Y-115113864D01*
X119624557Y-115094617D01*
X119629364Y-115093463D01*
X119629370Y-115093462D01*
X119794285Y-115053869D01*
X119863092Y-115037350D01*
X119867663Y-115035457D01*
X119867665Y-115035456D01*
X119945033Y-115003409D01*
X120089732Y-114943472D01*
X120225485Y-114860283D01*
X120294670Y-114817887D01*
X120294673Y-114817885D01*
X120298896Y-114815297D01*
X120304751Y-114810297D01*
X120481677Y-114659186D01*
X120485433Y-114655978D01*
X120495937Y-114643679D01*
X124166500Y-114643679D01*
X124173255Y-114705861D01*
X124224385Y-114842250D01*
X124311739Y-114958806D01*
X124428295Y-115046160D01*
X124564684Y-115097290D01*
X124626866Y-115104045D01*
X126823134Y-115104045D01*
X126885316Y-115097290D01*
X127021705Y-115046160D01*
X127138261Y-114958806D01*
X127211128Y-114861580D01*
X127267988Y-114819066D01*
X127338806Y-114814041D01*
X127377789Y-114829713D01*
X127555268Y-114938472D01*
X127699967Y-114998409D01*
X127777335Y-115030456D01*
X127777337Y-115030457D01*
X127781908Y-115032350D01*
X127802735Y-115037350D01*
X128015630Y-115088462D01*
X128015636Y-115088463D01*
X128020443Y-115089617D01*
X128265000Y-115108864D01*
X128509557Y-115089617D01*
X128514364Y-115088463D01*
X128514370Y-115088462D01*
X128727265Y-115037350D01*
X128748092Y-115032350D01*
X128752663Y-115030457D01*
X128752665Y-115030456D01*
X128830033Y-114998409D01*
X128974732Y-114938472D01*
X129155229Y-114827864D01*
X129179670Y-114812887D01*
X129179673Y-114812885D01*
X129183896Y-114810297D01*
X129370433Y-114650978D01*
X129379585Y-114640262D01*
X129439189Y-114570476D01*
X129498640Y-114531667D01*
X129569635Y-114531161D01*
X129630811Y-114570476D01*
X129690415Y-114640262D01*
X129699567Y-114650978D01*
X129886104Y-114810297D01*
X129890327Y-114812885D01*
X129890330Y-114812887D01*
X129914771Y-114827864D01*
X130095268Y-114938472D01*
X130239967Y-114998409D01*
X130317335Y-115030456D01*
X130317337Y-115030457D01*
X130321908Y-115032350D01*
X130342735Y-115037350D01*
X130555630Y-115088462D01*
X130555636Y-115088463D01*
X130560443Y-115089617D01*
X130805000Y-115108864D01*
X131049557Y-115089617D01*
X131054364Y-115088463D01*
X131054370Y-115088462D01*
X131267265Y-115037350D01*
X131288092Y-115032350D01*
X131292663Y-115030457D01*
X131292665Y-115030456D01*
X131370033Y-114998409D01*
X131514732Y-114938472D01*
X131695229Y-114827864D01*
X131719670Y-114812887D01*
X131719673Y-114812885D01*
X131723896Y-114810297D01*
X131910433Y-114650978D01*
X131919585Y-114640262D01*
X131979189Y-114570476D01*
X132038640Y-114531667D01*
X132109635Y-114531161D01*
X132170811Y-114570476D01*
X132230415Y-114640262D01*
X132239567Y-114650978D01*
X132426104Y-114810297D01*
X132430327Y-114812885D01*
X132430330Y-114812887D01*
X132454771Y-114827864D01*
X132635268Y-114938472D01*
X132779967Y-114998409D01*
X132857335Y-115030456D01*
X132857337Y-115030457D01*
X132861908Y-115032350D01*
X132882735Y-115037350D01*
X133095630Y-115088462D01*
X133095636Y-115088463D01*
X133100443Y-115089617D01*
X133345000Y-115108864D01*
X133589557Y-115089617D01*
X133594364Y-115088463D01*
X133594370Y-115088462D01*
X133807265Y-115037350D01*
X133828092Y-115032350D01*
X133832663Y-115030457D01*
X133832665Y-115030456D01*
X133910033Y-114998409D01*
X134054732Y-114938472D01*
X134235229Y-114827864D01*
X134259670Y-114812887D01*
X134259673Y-114812885D01*
X134263896Y-114810297D01*
X134450433Y-114650978D01*
X134456667Y-114643679D01*
X138136500Y-114643679D01*
X138143255Y-114705861D01*
X138194385Y-114842250D01*
X138281739Y-114958806D01*
X138398295Y-115046160D01*
X138534684Y-115097290D01*
X138596866Y-115104045D01*
X140793134Y-115104045D01*
X140855316Y-115097290D01*
X140991705Y-115046160D01*
X141108261Y-114958806D01*
X141181128Y-114861580D01*
X141237988Y-114819066D01*
X141308806Y-114814041D01*
X141347789Y-114829713D01*
X141525268Y-114938472D01*
X141669967Y-114998409D01*
X141747335Y-115030456D01*
X141747337Y-115030457D01*
X141751908Y-115032350D01*
X141772735Y-115037350D01*
X141985630Y-115088462D01*
X141985636Y-115088463D01*
X141990443Y-115089617D01*
X142235000Y-115108864D01*
X142479557Y-115089617D01*
X142484364Y-115088463D01*
X142484370Y-115088462D01*
X142697265Y-115037350D01*
X142718092Y-115032350D01*
X142722663Y-115030457D01*
X142722665Y-115030456D01*
X142800033Y-114998409D01*
X142944732Y-114938472D01*
X143125229Y-114827864D01*
X143149670Y-114812887D01*
X143149673Y-114812885D01*
X143153896Y-114810297D01*
X143340433Y-114650978D01*
X143349585Y-114640262D01*
X143409189Y-114570476D01*
X143468640Y-114531667D01*
X143539635Y-114531161D01*
X143600811Y-114570476D01*
X143660415Y-114640262D01*
X143669567Y-114650978D01*
X143856104Y-114810297D01*
X143860327Y-114812885D01*
X143860330Y-114812887D01*
X143884771Y-114827864D01*
X144065268Y-114938472D01*
X144209967Y-114998409D01*
X144287335Y-115030456D01*
X144287337Y-115030457D01*
X144291908Y-115032350D01*
X144312735Y-115037350D01*
X144525630Y-115088462D01*
X144525636Y-115088463D01*
X144530443Y-115089617D01*
X144775000Y-115108864D01*
X145019557Y-115089617D01*
X145024364Y-115088463D01*
X145024370Y-115088462D01*
X145237265Y-115037350D01*
X145258092Y-115032350D01*
X145262663Y-115030457D01*
X145262665Y-115030456D01*
X145340033Y-114998409D01*
X145484732Y-114938472D01*
X145665229Y-114827864D01*
X145689670Y-114812887D01*
X145689673Y-114812885D01*
X145693896Y-114810297D01*
X145880433Y-114650978D01*
X145889585Y-114640262D01*
X145949189Y-114570476D01*
X146008640Y-114531667D01*
X146079635Y-114531161D01*
X146140811Y-114570476D01*
X146200415Y-114640262D01*
X146209567Y-114650978D01*
X146396104Y-114810297D01*
X146400327Y-114812885D01*
X146400330Y-114812887D01*
X146424771Y-114827864D01*
X146605268Y-114938472D01*
X146749967Y-114998409D01*
X146827335Y-115030456D01*
X146827337Y-115030457D01*
X146831908Y-115032350D01*
X146852735Y-115037350D01*
X147065630Y-115088462D01*
X147065636Y-115088463D01*
X147070443Y-115089617D01*
X147315000Y-115108864D01*
X147559557Y-115089617D01*
X147564364Y-115088463D01*
X147564370Y-115088462D01*
X147777265Y-115037350D01*
X147798092Y-115032350D01*
X147802663Y-115030457D01*
X147802665Y-115030456D01*
X147880033Y-114998409D01*
X148024732Y-114938472D01*
X148205229Y-114827864D01*
X148229670Y-114812887D01*
X148229673Y-114812885D01*
X148233896Y-114810297D01*
X148420433Y-114650978D01*
X148426667Y-114643679D01*
X152111500Y-114643679D01*
X152118255Y-114705861D01*
X152169385Y-114842250D01*
X152256739Y-114958806D01*
X152373295Y-115046160D01*
X152509684Y-115097290D01*
X152571866Y-115104045D01*
X154768134Y-115104045D01*
X154830316Y-115097290D01*
X154966705Y-115046160D01*
X155083261Y-114958806D01*
X155156128Y-114861580D01*
X155212988Y-114819066D01*
X155283806Y-114814041D01*
X155322789Y-114829713D01*
X155500268Y-114938472D01*
X155644967Y-114998409D01*
X155722335Y-115030456D01*
X155722337Y-115030457D01*
X155726908Y-115032350D01*
X155747735Y-115037350D01*
X155960630Y-115088462D01*
X155960636Y-115088463D01*
X155965443Y-115089617D01*
X156210000Y-115108864D01*
X156454557Y-115089617D01*
X156459364Y-115088463D01*
X156459370Y-115088462D01*
X156672265Y-115037350D01*
X156693092Y-115032350D01*
X156697663Y-115030457D01*
X156697665Y-115030456D01*
X156775033Y-114998409D01*
X156919732Y-114938472D01*
X157100229Y-114827864D01*
X157124670Y-114812887D01*
X157124673Y-114812885D01*
X157128896Y-114810297D01*
X157315433Y-114650978D01*
X157324585Y-114640262D01*
X157384189Y-114570476D01*
X157443640Y-114531667D01*
X157514635Y-114531161D01*
X157575811Y-114570476D01*
X157635415Y-114640262D01*
X157644567Y-114650978D01*
X157831104Y-114810297D01*
X157835327Y-114812885D01*
X157835330Y-114812887D01*
X157859771Y-114827864D01*
X158040268Y-114938472D01*
X158184967Y-114998409D01*
X158262335Y-115030456D01*
X158262337Y-115030457D01*
X158266908Y-115032350D01*
X158287735Y-115037350D01*
X158500630Y-115088462D01*
X158500636Y-115088463D01*
X158505443Y-115089617D01*
X158750000Y-115108864D01*
X158994557Y-115089617D01*
X158999364Y-115088463D01*
X158999370Y-115088462D01*
X159212265Y-115037350D01*
X159233092Y-115032350D01*
X159237663Y-115030457D01*
X159237665Y-115030456D01*
X159315033Y-114998409D01*
X159459732Y-114938472D01*
X159640229Y-114827864D01*
X159664670Y-114812887D01*
X159664673Y-114812885D01*
X159668896Y-114810297D01*
X159855433Y-114650978D01*
X159864585Y-114640262D01*
X160011535Y-114468208D01*
X160011537Y-114468205D01*
X160014752Y-114464441D01*
X160024276Y-114448900D01*
X160059738Y-114391030D01*
X160142927Y-114255277D01*
X160236805Y-114028637D01*
X160287352Y-113818093D01*
X160292917Y-113794915D01*
X160292918Y-113794909D01*
X160294072Y-113790102D01*
X160313319Y-113545545D01*
X160294072Y-113300988D01*
X160292605Y-113294874D01*
X160256649Y-113145108D01*
X160236805Y-113062453D01*
X160142927Y-112835813D01*
X160014752Y-112626649D01*
X159855433Y-112440112D01*
X159678517Y-112289010D01*
X159672663Y-112284010D01*
X159672660Y-112284008D01*
X159668896Y-112280793D01*
X159664673Y-112278205D01*
X159664670Y-112278203D01*
X159576825Y-112224372D01*
X159459732Y-112152618D01*
X159315033Y-112092681D01*
X159237665Y-112060634D01*
X159237663Y-112060633D01*
X159233092Y-112058740D01*
X159150437Y-112038896D01*
X158999370Y-112002628D01*
X158999364Y-112002627D01*
X158994557Y-112001473D01*
X158750000Y-111982226D01*
X158505443Y-112001473D01*
X158500636Y-112002627D01*
X158500630Y-112002628D01*
X158349563Y-112038896D01*
X158266908Y-112058740D01*
X158262337Y-112060633D01*
X158262335Y-112060634D01*
X158184967Y-112092681D01*
X158040268Y-112152618D01*
X157923175Y-112224372D01*
X157835330Y-112278203D01*
X157835327Y-112278205D01*
X157831104Y-112280793D01*
X157827340Y-112284008D01*
X157827337Y-112284010D01*
X157821483Y-112289010D01*
X157644567Y-112440112D01*
X157641359Y-112443868D01*
X157575811Y-112520614D01*
X157516360Y-112559423D01*
X157445365Y-112559929D01*
X157384189Y-112520614D01*
X157318641Y-112443868D01*
X157315433Y-112440112D01*
X157138517Y-112289010D01*
X157132663Y-112284010D01*
X157132660Y-112284008D01*
X157128896Y-112280793D01*
X157124673Y-112278205D01*
X157124670Y-112278203D01*
X157036825Y-112224372D01*
X156919732Y-112152618D01*
X156775033Y-112092681D01*
X156697665Y-112060634D01*
X156697663Y-112060633D01*
X156693092Y-112058740D01*
X156610437Y-112038896D01*
X156459370Y-112002628D01*
X156459364Y-112002627D01*
X156454557Y-112001473D01*
X156210000Y-111982226D01*
X155965443Y-112001473D01*
X155960636Y-112002627D01*
X155960630Y-112002628D01*
X155809563Y-112038896D01*
X155726908Y-112058740D01*
X155722337Y-112060633D01*
X155722335Y-112060634D01*
X155644967Y-112092681D01*
X155500268Y-112152618D01*
X155374791Y-112229510D01*
X155322788Y-112261377D01*
X155254255Y-112279915D01*
X155186578Y-112258458D01*
X155156128Y-112229510D01*
X155122814Y-112185060D01*
X155083261Y-112132284D01*
X154966705Y-112044930D01*
X154830316Y-111993800D01*
X154768134Y-111987045D01*
X152571866Y-111987045D01*
X152509684Y-111993800D01*
X152373295Y-112044930D01*
X152256739Y-112132284D01*
X152169385Y-112248840D01*
X152118255Y-112385229D01*
X152111500Y-112447411D01*
X152111500Y-114643679D01*
X148426667Y-114643679D01*
X148429585Y-114640262D01*
X148576535Y-114468208D01*
X148576537Y-114468205D01*
X148579752Y-114464441D01*
X148589276Y-114448900D01*
X148624738Y-114391030D01*
X148707927Y-114255277D01*
X148801805Y-114028637D01*
X148852352Y-113818093D01*
X148857917Y-113794915D01*
X148857918Y-113794909D01*
X148859072Y-113790102D01*
X148878319Y-113545545D01*
X148859072Y-113300988D01*
X148857605Y-113294874D01*
X148821649Y-113145108D01*
X148801805Y-113062453D01*
X148707927Y-112835813D01*
X148579752Y-112626649D01*
X148420433Y-112440112D01*
X148243517Y-112289010D01*
X148237663Y-112284010D01*
X148237660Y-112284008D01*
X148233896Y-112280793D01*
X148229673Y-112278205D01*
X148229670Y-112278203D01*
X148141825Y-112224372D01*
X148024732Y-112152618D01*
X147880033Y-112092681D01*
X147802665Y-112060634D01*
X147802663Y-112060633D01*
X147798092Y-112058740D01*
X147715437Y-112038896D01*
X147564370Y-112002628D01*
X147564364Y-112002627D01*
X147559557Y-112001473D01*
X147315000Y-111982226D01*
X147070443Y-112001473D01*
X147065636Y-112002627D01*
X147065630Y-112002628D01*
X146914563Y-112038896D01*
X146831908Y-112058740D01*
X146827337Y-112060633D01*
X146827335Y-112060634D01*
X146749967Y-112092681D01*
X146605268Y-112152618D01*
X146488175Y-112224372D01*
X146400330Y-112278203D01*
X146400327Y-112278205D01*
X146396104Y-112280793D01*
X146392340Y-112284008D01*
X146392337Y-112284010D01*
X146386483Y-112289010D01*
X146209567Y-112440112D01*
X146206359Y-112443868D01*
X146140811Y-112520614D01*
X146081360Y-112559423D01*
X146010365Y-112559929D01*
X145949189Y-112520614D01*
X145883641Y-112443868D01*
X145880433Y-112440112D01*
X145703517Y-112289010D01*
X145697663Y-112284010D01*
X145697660Y-112284008D01*
X145693896Y-112280793D01*
X145689673Y-112278205D01*
X145689670Y-112278203D01*
X145601825Y-112224372D01*
X145484732Y-112152618D01*
X145340033Y-112092681D01*
X145262665Y-112060634D01*
X145262663Y-112060633D01*
X145258092Y-112058740D01*
X145175437Y-112038896D01*
X145024370Y-112002628D01*
X145024364Y-112002627D01*
X145019557Y-112001473D01*
X144775000Y-111982226D01*
X144530443Y-112001473D01*
X144525636Y-112002627D01*
X144525630Y-112002628D01*
X144374563Y-112038896D01*
X144291908Y-112058740D01*
X144287337Y-112060633D01*
X144287335Y-112060634D01*
X144209967Y-112092681D01*
X144065268Y-112152618D01*
X143948175Y-112224372D01*
X143860330Y-112278203D01*
X143860327Y-112278205D01*
X143856104Y-112280793D01*
X143852340Y-112284008D01*
X143852337Y-112284010D01*
X143846483Y-112289010D01*
X143669567Y-112440112D01*
X143666359Y-112443868D01*
X143600811Y-112520614D01*
X143541360Y-112559423D01*
X143470365Y-112559929D01*
X143409189Y-112520614D01*
X143343641Y-112443868D01*
X143340433Y-112440112D01*
X143163517Y-112289010D01*
X143157663Y-112284010D01*
X143157660Y-112284008D01*
X143153896Y-112280793D01*
X143149673Y-112278205D01*
X143149670Y-112278203D01*
X143061825Y-112224372D01*
X142944732Y-112152618D01*
X142800033Y-112092681D01*
X142722665Y-112060634D01*
X142722663Y-112060633D01*
X142718092Y-112058740D01*
X142635437Y-112038896D01*
X142484370Y-112002628D01*
X142484364Y-112002627D01*
X142479557Y-112001473D01*
X142235000Y-111982226D01*
X141990443Y-112001473D01*
X141985636Y-112002627D01*
X141985630Y-112002628D01*
X141834563Y-112038896D01*
X141751908Y-112058740D01*
X141747337Y-112060633D01*
X141747335Y-112060634D01*
X141669967Y-112092681D01*
X141525268Y-112152618D01*
X141399791Y-112229510D01*
X141347788Y-112261377D01*
X141279255Y-112279915D01*
X141211578Y-112258458D01*
X141181128Y-112229510D01*
X141147814Y-112185060D01*
X141108261Y-112132284D01*
X140991705Y-112044930D01*
X140855316Y-111993800D01*
X140793134Y-111987045D01*
X138596866Y-111987045D01*
X138534684Y-111993800D01*
X138398295Y-112044930D01*
X138281739Y-112132284D01*
X138194385Y-112248840D01*
X138143255Y-112385229D01*
X138136500Y-112447411D01*
X138136500Y-114643679D01*
X134456667Y-114643679D01*
X134459585Y-114640262D01*
X134606535Y-114468208D01*
X134606537Y-114468205D01*
X134609752Y-114464441D01*
X134619276Y-114448900D01*
X134654738Y-114391030D01*
X134737927Y-114255277D01*
X134831805Y-114028637D01*
X134882352Y-113818093D01*
X134887917Y-113794915D01*
X134887918Y-113794909D01*
X134889072Y-113790102D01*
X134908319Y-113545545D01*
X134889072Y-113300988D01*
X134887605Y-113294874D01*
X134851649Y-113145108D01*
X134831805Y-113062453D01*
X134737927Y-112835813D01*
X134609752Y-112626649D01*
X134450433Y-112440112D01*
X134273517Y-112289010D01*
X134267663Y-112284010D01*
X134267660Y-112284008D01*
X134263896Y-112280793D01*
X134259673Y-112278205D01*
X134259670Y-112278203D01*
X134171825Y-112224372D01*
X134054732Y-112152618D01*
X133910033Y-112092681D01*
X133832665Y-112060634D01*
X133832663Y-112060633D01*
X133828092Y-112058740D01*
X133745437Y-112038896D01*
X133594370Y-112002628D01*
X133594364Y-112002627D01*
X133589557Y-112001473D01*
X133345000Y-111982226D01*
X133100443Y-112001473D01*
X133095636Y-112002627D01*
X133095630Y-112002628D01*
X132944563Y-112038896D01*
X132861908Y-112058740D01*
X132857337Y-112060633D01*
X132857335Y-112060634D01*
X132779967Y-112092681D01*
X132635268Y-112152618D01*
X132518175Y-112224372D01*
X132430330Y-112278203D01*
X132430327Y-112278205D01*
X132426104Y-112280793D01*
X132422340Y-112284008D01*
X132422337Y-112284010D01*
X132416483Y-112289010D01*
X132239567Y-112440112D01*
X132236359Y-112443868D01*
X132170811Y-112520614D01*
X132111360Y-112559423D01*
X132040365Y-112559929D01*
X131979189Y-112520614D01*
X131913641Y-112443868D01*
X131910433Y-112440112D01*
X131733517Y-112289010D01*
X131727663Y-112284010D01*
X131727660Y-112284008D01*
X131723896Y-112280793D01*
X131719673Y-112278205D01*
X131719670Y-112278203D01*
X131631825Y-112224372D01*
X131514732Y-112152618D01*
X131370033Y-112092681D01*
X131292665Y-112060634D01*
X131292663Y-112060633D01*
X131288092Y-112058740D01*
X131205437Y-112038896D01*
X131054370Y-112002628D01*
X131054364Y-112002627D01*
X131049557Y-112001473D01*
X130805000Y-111982226D01*
X130560443Y-112001473D01*
X130555636Y-112002627D01*
X130555630Y-112002628D01*
X130404563Y-112038896D01*
X130321908Y-112058740D01*
X130317337Y-112060633D01*
X130317335Y-112060634D01*
X130239967Y-112092681D01*
X130095268Y-112152618D01*
X129978175Y-112224372D01*
X129890330Y-112278203D01*
X129890327Y-112278205D01*
X129886104Y-112280793D01*
X129882340Y-112284008D01*
X129882337Y-112284010D01*
X129876483Y-112289010D01*
X129699567Y-112440112D01*
X129696359Y-112443868D01*
X129630811Y-112520614D01*
X129571360Y-112559423D01*
X129500365Y-112559929D01*
X129439189Y-112520614D01*
X129373641Y-112443868D01*
X129370433Y-112440112D01*
X129193517Y-112289010D01*
X129187663Y-112284010D01*
X129187660Y-112284008D01*
X129183896Y-112280793D01*
X129179673Y-112278205D01*
X129179670Y-112278203D01*
X129091825Y-112224372D01*
X128974732Y-112152618D01*
X128830033Y-112092681D01*
X128752665Y-112060634D01*
X128752663Y-112060633D01*
X128748092Y-112058740D01*
X128665437Y-112038896D01*
X128514370Y-112002628D01*
X128514364Y-112002627D01*
X128509557Y-112001473D01*
X128265000Y-111982226D01*
X128020443Y-112001473D01*
X128015636Y-112002627D01*
X128015630Y-112002628D01*
X127864563Y-112038896D01*
X127781908Y-112058740D01*
X127777337Y-112060633D01*
X127777335Y-112060634D01*
X127699967Y-112092681D01*
X127555268Y-112152618D01*
X127429791Y-112229510D01*
X127377788Y-112261377D01*
X127309255Y-112279915D01*
X127241578Y-112258458D01*
X127211128Y-112229510D01*
X127177814Y-112185060D01*
X127138261Y-112132284D01*
X127021705Y-112044930D01*
X126885316Y-111993800D01*
X126823134Y-111987045D01*
X124626866Y-111987045D01*
X124564684Y-111993800D01*
X124428295Y-112044930D01*
X124311739Y-112132284D01*
X124224385Y-112248840D01*
X124173255Y-112385229D01*
X124166500Y-112447411D01*
X124166500Y-114643679D01*
X120495937Y-114643679D01*
X120558459Y-114570476D01*
X120641535Y-114473208D01*
X120641537Y-114473205D01*
X120644752Y-114469441D01*
X120657340Y-114448900D01*
X120689738Y-114396030D01*
X120772927Y-114260277D01*
X120866805Y-114033637D01*
X120917456Y-113822660D01*
X120922917Y-113799915D01*
X120922918Y-113799909D01*
X120924072Y-113795102D01*
X120943319Y-113550545D01*
X120924072Y-113305988D01*
X120921717Y-113296175D01*
X120867960Y-113072265D01*
X120866805Y-113067453D01*
X120772927Y-112840813D01*
X120644752Y-112631649D01*
X120637265Y-112622882D01*
X120488641Y-112448868D01*
X120485433Y-112445112D01*
X120415320Y-112385229D01*
X120302663Y-112289010D01*
X120302660Y-112289008D01*
X120298896Y-112285793D01*
X120198665Y-112224372D01*
X120151034Y-112171724D01*
X120138500Y-112116939D01*
X120138500Y-105656916D01*
X120158502Y-105588795D01*
X120175405Y-105567821D01*
X123467276Y-102275950D01*
X123529588Y-102241924D01*
X123556371Y-102239045D01*
X142172930Y-102239045D01*
X142191880Y-102240478D01*
X142206115Y-102242644D01*
X142206119Y-102242644D01*
X142213349Y-102243744D01*
X142220641Y-102243151D01*
X142220644Y-102243151D01*
X142266018Y-102239460D01*
X142276233Y-102239045D01*
X147467854Y-102239045D01*
X147486804Y-102240478D01*
X147501039Y-102242644D01*
X147501043Y-102242644D01*
X147508273Y-102243744D01*
X147515565Y-102243151D01*
X147515568Y-102243151D01*
X147560942Y-102239460D01*
X147571157Y-102239045D01*
X155087854Y-102239045D01*
X155106804Y-102240478D01*
X155121039Y-102242644D01*
X155121043Y-102242644D01*
X155128273Y-102243744D01*
X155135565Y-102243151D01*
X155135568Y-102243151D01*
X155180942Y-102239460D01*
X155191157Y-102239045D01*
X155199217Y-102239045D01*
X155212507Y-102237496D01*
X155227431Y-102235756D01*
X155231806Y-102235323D01*
X155297263Y-102229999D01*
X155297266Y-102229998D01*
X155304561Y-102229405D01*
X155311525Y-102227149D01*
X155317484Y-102225958D01*
X155323339Y-102224574D01*
X155330605Y-102223727D01*
X155399251Y-102198810D01*
X155403379Y-102197393D01*
X155465860Y-102177152D01*
X155465862Y-102177151D01*
X155472823Y-102174896D01*
X155479078Y-102171100D01*
X155484552Y-102168594D01*
X155489982Y-102165875D01*
X155496861Y-102163378D01*
X155557900Y-102123359D01*
X155561604Y-102121022D01*
X155624031Y-102083140D01*
X155632408Y-102075742D01*
X155632432Y-102075769D01*
X155635424Y-102073116D01*
X155638657Y-102070413D01*
X155644776Y-102066401D01*
X155698052Y-102010162D01*
X155700430Y-102007720D01*
X163048911Y-94659239D01*
X163063323Y-94646853D01*
X163074918Y-94638320D01*
X163074923Y-94638315D01*
X163080818Y-94633977D01*
X163085557Y-94628399D01*
X163085560Y-94628396D01*
X163115035Y-94593701D01*
X163121965Y-94586185D01*
X163127660Y-94580490D01*
X163145281Y-94558218D01*
X163148072Y-94554814D01*
X163190591Y-94504766D01*
X163190592Y-94504764D01*
X163195333Y-94499184D01*
X163198661Y-94492668D01*
X163202028Y-94487619D01*
X163205195Y-94482490D01*
X163209734Y-94476753D01*
X163240655Y-94410594D01*
X163242561Y-94406694D01*
X163275769Y-94341661D01*
X163277508Y-94334553D01*
X163279607Y-94328910D01*
X163281524Y-94323147D01*
X163284622Y-94316519D01*
X163299487Y-94245052D01*
X163300457Y-94240768D01*
X163316473Y-94175314D01*
X163317808Y-94169859D01*
X163318500Y-94158705D01*
X163318536Y-94158707D01*
X163318775Y-94154714D01*
X163319149Y-94150522D01*
X163320640Y-94143354D01*
X163318546Y-94065948D01*
X163318500Y-94062541D01*
X163318500Y-94024151D01*
X163338502Y-93956030D01*
X163378665Y-93916718D01*
X163395209Y-93906580D01*
X163478896Y-93855297D01*
X163610499Y-93742897D01*
X163661677Y-93699186D01*
X163665433Y-93695978D01*
X163674626Y-93685214D01*
X163821535Y-93513208D01*
X163821537Y-93513205D01*
X163824752Y-93509441D01*
X163952927Y-93300277D01*
X164046805Y-93073637D01*
X164097456Y-92862660D01*
X164102917Y-92839915D01*
X164102918Y-92839909D01*
X164104072Y-92835102D01*
X164123319Y-92590545D01*
X164104072Y-92345988D01*
X164102605Y-92339874D01*
X164066649Y-92190108D01*
X164046805Y-92107453D01*
X163952927Y-91880813D01*
X163824752Y-91671649D01*
X163665433Y-91485112D01*
X163598493Y-91427939D01*
X163482663Y-91329010D01*
X163482660Y-91329008D01*
X163478896Y-91325793D01*
X163474673Y-91323205D01*
X163474670Y-91323203D01*
X163395209Y-91274510D01*
X163269732Y-91197618D01*
X163125033Y-91137681D01*
X163047665Y-91105634D01*
X163047663Y-91105633D01*
X163043092Y-91103740D01*
X162960437Y-91083896D01*
X162809370Y-91047628D01*
X162809364Y-91047627D01*
X162804557Y-91046473D01*
X162560000Y-91027226D01*
X162315443Y-91046473D01*
X162310636Y-91047627D01*
X162310630Y-91047628D01*
X162159563Y-91083896D01*
X162076908Y-91103740D01*
X162072337Y-91105633D01*
X162072335Y-91105634D01*
X161994967Y-91137681D01*
X161850268Y-91197618D01*
X161724791Y-91274510D01*
X161672788Y-91306377D01*
X161604255Y-91324915D01*
X161536578Y-91303458D01*
X161506128Y-91274510D01*
X161500918Y-91267558D01*
X161433261Y-91177284D01*
X161316705Y-91089930D01*
X161180316Y-91038800D01*
X161118134Y-91032045D01*
X158921866Y-91032045D01*
X158859684Y-91038800D01*
X158723295Y-91089930D01*
X158606739Y-91177284D01*
X158519385Y-91293840D01*
X158468255Y-91430229D01*
X158461500Y-91492411D01*
X158461500Y-93688679D01*
X158468255Y-93750861D01*
X158519385Y-93887250D01*
X158606739Y-94003806D01*
X158723295Y-94091160D01*
X158859684Y-94142290D01*
X158921866Y-94149045D01*
X161109553Y-94149045D01*
X161177674Y-94169047D01*
X161224167Y-94222703D01*
X161234271Y-94292977D01*
X161204777Y-94357557D01*
X161198648Y-94364140D01*
X154877648Y-100685140D01*
X154815336Y-100719166D01*
X154788553Y-100722045D01*
X149670295Y-100722045D01*
X149602174Y-100702043D01*
X149555681Y-100648387D01*
X149545577Y-100578113D01*
X149575071Y-100513533D01*
X149581200Y-100506950D01*
X155428911Y-94659239D01*
X155443323Y-94646853D01*
X155454918Y-94638320D01*
X155454923Y-94638315D01*
X155460818Y-94633977D01*
X155465557Y-94628399D01*
X155465560Y-94628396D01*
X155495035Y-94593701D01*
X155501965Y-94586185D01*
X155507660Y-94580490D01*
X155525281Y-94558218D01*
X155528072Y-94554814D01*
X155570591Y-94504766D01*
X155570592Y-94504764D01*
X155575333Y-94499184D01*
X155578661Y-94492668D01*
X155582028Y-94487619D01*
X155585195Y-94482490D01*
X155589734Y-94476753D01*
X155620655Y-94410594D01*
X155622561Y-94406694D01*
X155655769Y-94341661D01*
X155657508Y-94334553D01*
X155659607Y-94328910D01*
X155661524Y-94323147D01*
X155664622Y-94316519D01*
X155679487Y-94245052D01*
X155680457Y-94240768D01*
X155696473Y-94175314D01*
X155697808Y-94169859D01*
X155698500Y-94158705D01*
X155698536Y-94158707D01*
X155698775Y-94154714D01*
X155699149Y-94150522D01*
X155700640Y-94143354D01*
X155698546Y-94065948D01*
X155698500Y-94062541D01*
X155698500Y-94024151D01*
X155718502Y-93956030D01*
X155758665Y-93916718D01*
X155775209Y-93906580D01*
X155858896Y-93855297D01*
X155990499Y-93742897D01*
X156041677Y-93699186D01*
X156045433Y-93695978D01*
X156054626Y-93685214D01*
X156201535Y-93513208D01*
X156201537Y-93513205D01*
X156204752Y-93509441D01*
X156332927Y-93300277D01*
X156426805Y-93073637D01*
X156477456Y-92862660D01*
X156482917Y-92839915D01*
X156482918Y-92839909D01*
X156484072Y-92835102D01*
X156503319Y-92590545D01*
X156484072Y-92345988D01*
X156482605Y-92339874D01*
X156446649Y-92190108D01*
X156426805Y-92107453D01*
X156332927Y-91880813D01*
X156204752Y-91671649D01*
X156045433Y-91485112D01*
X155978493Y-91427939D01*
X155862663Y-91329010D01*
X155862660Y-91329008D01*
X155858896Y-91325793D01*
X155854673Y-91323205D01*
X155854670Y-91323203D01*
X155775209Y-91274510D01*
X155649732Y-91197618D01*
X155505033Y-91137681D01*
X155427665Y-91105634D01*
X155427663Y-91105633D01*
X155423092Y-91103740D01*
X155340437Y-91083896D01*
X155189370Y-91047628D01*
X155189364Y-91047627D01*
X155184557Y-91046473D01*
X154940000Y-91027226D01*
X154695443Y-91046473D01*
X154690636Y-91047627D01*
X154690630Y-91047628D01*
X154539563Y-91083896D01*
X154456908Y-91103740D01*
X154452337Y-91105633D01*
X154452335Y-91105634D01*
X154374967Y-91137681D01*
X154230268Y-91197618D01*
X154104791Y-91274510D01*
X154052788Y-91306377D01*
X153984255Y-91324915D01*
X153916578Y-91303458D01*
X153886128Y-91274510D01*
X153880918Y-91267558D01*
X153813261Y-91177284D01*
X153696705Y-91089930D01*
X153560316Y-91038800D01*
X153498134Y-91032045D01*
X151301866Y-91032045D01*
X151239684Y-91038800D01*
X151103295Y-91089930D01*
X150986739Y-91177284D01*
X150899385Y-91293840D01*
X150848255Y-91430229D01*
X150841500Y-91492411D01*
X150841500Y-93688679D01*
X150848255Y-93750861D01*
X150899385Y-93887250D01*
X150986739Y-94003806D01*
X151103295Y-94091160D01*
X151239684Y-94142290D01*
X151301866Y-94149045D01*
X153489553Y-94149045D01*
X153557674Y-94169047D01*
X153604167Y-94222703D01*
X153614271Y-94292977D01*
X153584777Y-94357557D01*
X153578648Y-94364140D01*
X147257648Y-100685140D01*
X147195336Y-100719166D01*
X147168553Y-100722045D01*
X144375371Y-100722045D01*
X144307250Y-100702043D01*
X144260757Y-100648387D01*
X144250653Y-100578113D01*
X144280147Y-100513533D01*
X144286276Y-100506950D01*
X147808911Y-96984315D01*
X147823323Y-96971929D01*
X147834918Y-96963396D01*
X147834923Y-96963391D01*
X147840818Y-96959053D01*
X147845557Y-96953475D01*
X147845560Y-96953472D01*
X147875035Y-96918777D01*
X147881965Y-96911261D01*
X147887660Y-96905566D01*
X147905281Y-96883294D01*
X147908072Y-96879890D01*
X147950591Y-96829842D01*
X147950592Y-96829840D01*
X147955333Y-96824260D01*
X147958661Y-96817744D01*
X147962028Y-96812695D01*
X147965195Y-96807566D01*
X147969734Y-96801829D01*
X148000655Y-96735670D01*
X148002561Y-96731770D01*
X148035769Y-96666737D01*
X148037508Y-96659629D01*
X148039607Y-96653986D01*
X148041524Y-96648223D01*
X148044622Y-96641595D01*
X148059487Y-96570128D01*
X148060457Y-96565844D01*
X148076473Y-96500390D01*
X148077808Y-96494935D01*
X148078500Y-96483781D01*
X148078536Y-96483783D01*
X148078775Y-96479790D01*
X148079149Y-96475598D01*
X148080640Y-96468430D01*
X148078546Y-96391024D01*
X148078500Y-96387617D01*
X148078500Y-94024151D01*
X148098502Y-93956030D01*
X148138665Y-93916718D01*
X148155209Y-93906580D01*
X148238896Y-93855297D01*
X148370499Y-93742897D01*
X148421677Y-93699186D01*
X148425433Y-93695978D01*
X148434626Y-93685214D01*
X148581535Y-93513208D01*
X148581537Y-93513205D01*
X148584752Y-93509441D01*
X148712927Y-93300277D01*
X148806805Y-93073637D01*
X148857456Y-92862660D01*
X148862917Y-92839915D01*
X148862918Y-92839909D01*
X148864072Y-92835102D01*
X148883319Y-92590545D01*
X148864072Y-92345988D01*
X148862605Y-92339874D01*
X148826649Y-92190108D01*
X148806805Y-92107453D01*
X148712927Y-91880813D01*
X148584752Y-91671649D01*
X148425433Y-91485112D01*
X148358493Y-91427939D01*
X148242663Y-91329010D01*
X148242660Y-91329008D01*
X148238896Y-91325793D01*
X148234673Y-91323205D01*
X148234670Y-91323203D01*
X148155209Y-91274510D01*
X148029732Y-91197618D01*
X147885033Y-91137681D01*
X147807665Y-91105634D01*
X147807663Y-91105633D01*
X147803092Y-91103740D01*
X147720437Y-91083896D01*
X147569370Y-91047628D01*
X147569364Y-91047627D01*
X147564557Y-91046473D01*
X147320000Y-91027226D01*
X147075443Y-91046473D01*
X147070636Y-91047627D01*
X147070630Y-91047628D01*
X146919563Y-91083896D01*
X146836908Y-91103740D01*
X146832337Y-91105633D01*
X146832335Y-91105634D01*
X146754967Y-91137681D01*
X146610268Y-91197618D01*
X146484791Y-91274510D01*
X146432788Y-91306377D01*
X146364255Y-91324915D01*
X146296578Y-91303458D01*
X146266128Y-91274510D01*
X146260918Y-91267558D01*
X146193261Y-91177284D01*
X146076705Y-91089930D01*
X145940316Y-91038800D01*
X145878134Y-91032045D01*
X143681866Y-91032045D01*
X143619684Y-91038800D01*
X143483295Y-91089930D01*
X143366739Y-91177284D01*
X143279385Y-91293840D01*
X143228255Y-91430229D01*
X143221500Y-91492411D01*
X143221500Y-93688679D01*
X143228255Y-93750861D01*
X143279385Y-93887250D01*
X143366739Y-94003806D01*
X143483295Y-94091160D01*
X143619684Y-94142290D01*
X143681866Y-94149045D01*
X145878134Y-94149045D01*
X145940316Y-94142290D01*
X146076705Y-94091160D01*
X146193261Y-94003806D01*
X146266128Y-93906580D01*
X146322988Y-93864066D01*
X146393806Y-93859041D01*
X146432787Y-93874712D01*
X146484791Y-93906580D01*
X146501335Y-93916718D01*
X146548966Y-93969366D01*
X146561500Y-94024151D01*
X146561500Y-96034174D01*
X146541498Y-96102295D01*
X146524595Y-96123269D01*
X141962724Y-100685140D01*
X141900412Y-100719166D01*
X141873629Y-100722045D01*
X123257070Y-100722045D01*
X123238120Y-100720612D01*
X123223885Y-100718446D01*
X123223881Y-100718446D01*
X123216651Y-100717346D01*
X123209359Y-100717939D01*
X123209356Y-100717939D01*
X123163982Y-100721630D01*
X123153767Y-100722045D01*
X123145707Y-100722045D01*
X123142073Y-100722469D01*
X123142067Y-100722469D01*
X123129042Y-100723988D01*
X123117480Y-100725336D01*
X123113132Y-100725766D01*
X123091059Y-100727561D01*
X123047662Y-100731091D01*
X123047659Y-100731092D01*
X123040364Y-100731685D01*
X123033400Y-100733941D01*
X123027461Y-100735128D01*
X123021590Y-100736515D01*
X123014319Y-100737363D01*
X123007443Y-100739859D01*
X123007434Y-100739861D01*
X122945702Y-100762270D01*
X122941598Y-100763680D01*
X122872101Y-100786193D01*
X122865846Y-100789989D01*
X122860387Y-100792488D01*
X122854939Y-100795216D01*
X122848063Y-100797712D01*
X122787010Y-100837740D01*
X122783327Y-100840064D01*
X122725686Y-100875041D01*
X122725682Y-100875044D01*
X122720893Y-100877950D01*
X122716694Y-100881659D01*
X122716689Y-100881662D01*
X122712516Y-100885348D01*
X122712492Y-100885321D01*
X122709500Y-100887974D01*
X122706267Y-100890677D01*
X122700148Y-100894689D01*
X122695116Y-100900001D01*
X122646872Y-100950928D01*
X122644494Y-100953370D01*
X118891089Y-104706775D01*
X118876677Y-104719161D01*
X118865082Y-104727694D01*
X118865077Y-104727699D01*
X118859182Y-104732037D01*
X118854443Y-104737615D01*
X118854440Y-104737618D01*
X118824965Y-104772313D01*
X118818035Y-104779829D01*
X118812340Y-104785524D01*
X118810060Y-104788406D01*
X118794719Y-104807796D01*
X118791928Y-104811200D01*
X118749409Y-104861248D01*
X118744667Y-104866830D01*
X118741339Y-104873346D01*
X118737972Y-104878395D01*
X118734805Y-104883524D01*
X118730266Y-104889261D01*
X118699345Y-104955420D01*
X118697442Y-104959314D01*
X118664231Y-105024353D01*
X118662492Y-105031461D01*
X118660393Y-105037104D01*
X118658476Y-105042867D01*
X118655378Y-105049495D01*
X118653888Y-105056657D01*
X118653888Y-105056658D01*
X118640514Y-105120957D01*
X118639544Y-105125241D01*
X118622192Y-105196155D01*
X118621500Y-105207309D01*
X118621464Y-105207307D01*
X118621225Y-105211300D01*
X118620851Y-105215492D01*
X118619360Y-105222660D01*
X118619558Y-105229977D01*
X118621454Y-105300066D01*
X118621500Y-105303473D01*
X118621500Y-112116939D01*
X118601498Y-112185060D01*
X118561335Y-112224372D01*
X118461104Y-112285793D01*
X118457340Y-112289008D01*
X118457337Y-112289010D01*
X118344680Y-112385229D01*
X118274567Y-112445112D01*
X118271359Y-112448868D01*
X118205811Y-112525614D01*
X118146360Y-112564423D01*
X118075365Y-112564929D01*
X118014189Y-112525614D01*
X117948641Y-112448868D01*
X117945433Y-112445112D01*
X117875320Y-112385229D01*
X117762663Y-112289010D01*
X117762660Y-112289008D01*
X117758896Y-112285793D01*
X117754673Y-112283205D01*
X117754670Y-112283203D01*
X117553957Y-112160207D01*
X117553956Y-112160207D01*
X117549732Y-112157618D01*
X117545154Y-112155722D01*
X117542297Y-112154266D01*
X117490682Y-112105518D01*
X117473500Y-112041999D01*
X117473500Y-101559313D01*
X117474027Y-101548130D01*
X117475702Y-101540637D01*
X117473562Y-101472546D01*
X117473500Y-101468589D01*
X117473500Y-101440689D01*
X117472996Y-101436698D01*
X117472063Y-101424856D01*
X117470923Y-101388581D01*
X117470674Y-101380656D01*
X117465021Y-101361197D01*
X117461012Y-101341838D01*
X117460846Y-101340528D01*
X117458474Y-101321748D01*
X117455558Y-101314382D01*
X117455556Y-101314376D01*
X117442200Y-101280643D01*
X117438355Y-101269413D01*
X117428230Y-101234562D01*
X117428230Y-101234561D01*
X117426019Y-101226952D01*
X117415705Y-101209511D01*
X117407008Y-101191758D01*
X117402472Y-101180303D01*
X117399552Y-101172928D01*
X117373563Y-101137157D01*
X117367047Y-101127237D01*
X117348578Y-101096008D01*
X117344542Y-101089183D01*
X117330221Y-101074862D01*
X117317380Y-101059828D01*
X117310131Y-101049851D01*
X117305472Y-101043438D01*
X117271395Y-101015247D01*
X117262616Y-101007257D01*
X114965405Y-98710045D01*
X114931379Y-98647733D01*
X114928500Y-98620950D01*
X114928500Y-94104091D01*
X114948502Y-94035970D01*
X114997297Y-93991824D01*
X115000154Y-93990368D01*
X115004732Y-93988472D01*
X115017111Y-93980886D01*
X115209670Y-93862887D01*
X115209673Y-93862885D01*
X115213896Y-93860297D01*
X115219751Y-93855297D01*
X115396677Y-93704186D01*
X115400433Y-93700978D01*
X115469189Y-93620476D01*
X115528640Y-93581667D01*
X115599635Y-93581161D01*
X115660811Y-93620476D01*
X115729567Y-93700978D01*
X115733323Y-93704186D01*
X115910250Y-93855297D01*
X115916104Y-93860297D01*
X115920327Y-93862885D01*
X115920330Y-93862887D01*
X115989515Y-93905283D01*
X116125268Y-93988472D01*
X116239938Y-94035970D01*
X116347335Y-94080456D01*
X116347337Y-94080457D01*
X116351908Y-94082350D01*
X116420715Y-94098869D01*
X116585630Y-94138462D01*
X116585636Y-94138463D01*
X116590443Y-94139617D01*
X116835000Y-94158864D01*
X117079557Y-94139617D01*
X117084364Y-94138463D01*
X117084370Y-94138462D01*
X117249285Y-94098869D01*
X117318092Y-94082350D01*
X117322663Y-94080457D01*
X117322665Y-94080456D01*
X117430062Y-94035970D01*
X117544732Y-93988472D01*
X117680485Y-93905283D01*
X117749670Y-93862887D01*
X117749673Y-93862885D01*
X117753896Y-93860297D01*
X117759751Y-93855297D01*
X117936677Y-93704186D01*
X117940433Y-93700978D01*
X118009189Y-93620476D01*
X118068640Y-93581667D01*
X118139635Y-93581161D01*
X118200811Y-93620476D01*
X118269567Y-93700978D01*
X118273323Y-93704186D01*
X118450250Y-93855297D01*
X118456104Y-93860297D01*
X118460327Y-93862885D01*
X118460330Y-93862887D01*
X118529515Y-93905283D01*
X118665268Y-93988472D01*
X118779938Y-94035970D01*
X118887335Y-94080456D01*
X118887337Y-94080457D01*
X118891908Y-94082350D01*
X118960715Y-94098869D01*
X119125630Y-94138462D01*
X119125636Y-94138463D01*
X119130443Y-94139617D01*
X119375000Y-94158864D01*
X119619557Y-94139617D01*
X119624364Y-94138463D01*
X119624370Y-94138462D01*
X119789285Y-94098869D01*
X119858092Y-94082350D01*
X119862663Y-94080457D01*
X119862665Y-94080456D01*
X119970062Y-94035970D01*
X120084732Y-93988472D01*
X120220485Y-93905283D01*
X120289670Y-93862887D01*
X120289673Y-93862885D01*
X120293896Y-93860297D01*
X120299751Y-93855297D01*
X120476677Y-93704186D01*
X120480433Y-93700978D01*
X120493897Y-93685214D01*
X124172001Y-93685214D01*
X124172371Y-93692035D01*
X124177895Y-93742897D01*
X124181521Y-93758149D01*
X124226676Y-93878599D01*
X124235214Y-93894194D01*
X124311715Y-93996269D01*
X124324276Y-94008830D01*
X124426351Y-94085331D01*
X124441946Y-94093869D01*
X124562394Y-94139023D01*
X124577649Y-94142650D01*
X124628514Y-94148176D01*
X124635328Y-94148545D01*
X125457885Y-94148545D01*
X125473124Y-94144070D01*
X125474329Y-94142680D01*
X125476000Y-94134997D01*
X125476000Y-94130429D01*
X125984000Y-94130429D01*
X125988475Y-94145668D01*
X125989865Y-94146873D01*
X125997548Y-94148544D01*
X126824669Y-94148544D01*
X126831490Y-94148174D01*
X126882352Y-94142650D01*
X126897604Y-94139024D01*
X127018054Y-94093869D01*
X127033649Y-94085331D01*
X127135724Y-94008830D01*
X127148281Y-93996273D01*
X127215698Y-93906318D01*
X127272558Y-93863803D01*
X127343376Y-93858777D01*
X127382359Y-93874450D01*
X127560268Y-93983472D01*
X127648572Y-94020049D01*
X127782335Y-94075456D01*
X127782337Y-94075457D01*
X127786908Y-94077350D01*
X127821997Y-94085774D01*
X128020630Y-94133462D01*
X128020636Y-94133463D01*
X128025443Y-94134617D01*
X128270000Y-94153864D01*
X128514557Y-94134617D01*
X128519364Y-94133463D01*
X128519370Y-94133462D01*
X128718003Y-94085774D01*
X128753092Y-94077350D01*
X128757663Y-94075457D01*
X128757665Y-94075456D01*
X128891428Y-94020049D01*
X128979732Y-93983472D01*
X129125027Y-93894436D01*
X129184670Y-93857887D01*
X129184676Y-93857883D01*
X129188896Y-93855297D01*
X129320499Y-93742897D01*
X129371677Y-93699186D01*
X129375433Y-93695978D01*
X129384626Y-93685214D01*
X129444189Y-93615476D01*
X129503640Y-93576667D01*
X129574635Y-93576161D01*
X129635811Y-93615476D01*
X129695374Y-93685214D01*
X129704567Y-93695978D01*
X129708323Y-93699186D01*
X129759502Y-93742897D01*
X129891104Y-93855297D01*
X129895324Y-93857883D01*
X129895330Y-93857887D01*
X129954973Y-93894436D01*
X130100268Y-93983472D01*
X130188572Y-94020049D01*
X130322335Y-94075456D01*
X130322337Y-94075457D01*
X130326908Y-94077350D01*
X130361997Y-94085774D01*
X130560630Y-94133462D01*
X130560636Y-94133463D01*
X130565443Y-94134617D01*
X130810000Y-94153864D01*
X131054557Y-94134617D01*
X131059364Y-94133463D01*
X131059370Y-94133462D01*
X131258003Y-94085774D01*
X131293092Y-94077350D01*
X131297663Y-94075457D01*
X131297665Y-94075456D01*
X131431428Y-94020049D01*
X131519732Y-93983472D01*
X131665027Y-93894436D01*
X131724670Y-93857887D01*
X131724676Y-93857883D01*
X131728896Y-93855297D01*
X131860499Y-93742897D01*
X131911677Y-93699186D01*
X131915433Y-93695978D01*
X131924626Y-93685214D01*
X131984189Y-93615476D01*
X132043640Y-93576667D01*
X132114635Y-93576161D01*
X132175811Y-93615476D01*
X132235374Y-93685214D01*
X132244567Y-93695978D01*
X132248323Y-93699186D01*
X132299502Y-93742897D01*
X132431104Y-93855297D01*
X132435324Y-93857883D01*
X132435330Y-93857887D01*
X132494973Y-93894436D01*
X132640268Y-93983472D01*
X132728572Y-94020049D01*
X132862335Y-94075456D01*
X132862337Y-94075457D01*
X132866908Y-94077350D01*
X132901997Y-94085774D01*
X133100630Y-94133462D01*
X133100636Y-94133463D01*
X133105443Y-94134617D01*
X133350000Y-94153864D01*
X133594557Y-94134617D01*
X133599364Y-94133463D01*
X133599370Y-94133462D01*
X133798003Y-94085774D01*
X133833092Y-94077350D01*
X133837663Y-94075457D01*
X133837665Y-94075456D01*
X133971428Y-94020049D01*
X134059732Y-93983472D01*
X134205027Y-93894436D01*
X134264670Y-93857887D01*
X134264676Y-93857883D01*
X134268896Y-93855297D01*
X134400499Y-93742897D01*
X134451677Y-93699186D01*
X134455433Y-93695978D01*
X134464626Y-93685214D01*
X134524189Y-93615476D01*
X134583640Y-93576667D01*
X134654635Y-93576161D01*
X134715811Y-93615476D01*
X134775374Y-93685214D01*
X134784567Y-93695978D01*
X134788323Y-93699186D01*
X134839502Y-93742897D01*
X134971104Y-93855297D01*
X134975324Y-93857883D01*
X134975330Y-93857887D01*
X135034973Y-93894436D01*
X135180268Y-93983472D01*
X135268572Y-94020049D01*
X135402335Y-94075456D01*
X135402337Y-94075457D01*
X135406908Y-94077350D01*
X135441997Y-94085774D01*
X135640630Y-94133462D01*
X135640636Y-94133463D01*
X135645443Y-94134617D01*
X135890000Y-94153864D01*
X136134557Y-94134617D01*
X136139364Y-94133463D01*
X136139370Y-94133462D01*
X136338003Y-94085774D01*
X136373092Y-94077350D01*
X136377663Y-94075457D01*
X136377665Y-94075456D01*
X136511428Y-94020049D01*
X136599732Y-93983472D01*
X136745027Y-93894436D01*
X136804670Y-93857887D01*
X136804676Y-93857883D01*
X136808896Y-93855297D01*
X136940499Y-93742897D01*
X136991677Y-93699186D01*
X136995433Y-93695978D01*
X137004626Y-93685214D01*
X137064189Y-93615476D01*
X137123640Y-93576667D01*
X137194635Y-93576161D01*
X137255811Y-93615476D01*
X137315374Y-93685214D01*
X137324567Y-93695978D01*
X137328323Y-93699186D01*
X137379502Y-93742897D01*
X137511104Y-93855297D01*
X137515324Y-93857883D01*
X137515330Y-93857887D01*
X137574973Y-93894436D01*
X137720268Y-93983472D01*
X137808572Y-94020049D01*
X137942335Y-94075456D01*
X137942337Y-94075457D01*
X137946908Y-94077350D01*
X137981997Y-94085774D01*
X138180630Y-94133462D01*
X138180636Y-94133463D01*
X138185443Y-94134617D01*
X138430000Y-94153864D01*
X138674557Y-94134617D01*
X138679364Y-94133463D01*
X138679370Y-94133462D01*
X138878003Y-94085774D01*
X138913092Y-94077350D01*
X138917663Y-94075457D01*
X138917665Y-94075456D01*
X139051428Y-94020049D01*
X139139732Y-93983472D01*
X139285027Y-93894436D01*
X139344670Y-93857887D01*
X139344676Y-93857883D01*
X139348896Y-93855297D01*
X139480499Y-93742897D01*
X139531677Y-93699186D01*
X139535433Y-93695978D01*
X139544626Y-93685214D01*
X139691535Y-93513208D01*
X139691537Y-93513205D01*
X139694752Y-93509441D01*
X139822927Y-93300277D01*
X139916805Y-93073637D01*
X139967456Y-92862660D01*
X139972917Y-92839915D01*
X139972918Y-92839909D01*
X139974072Y-92835102D01*
X139993319Y-92590545D01*
X139974072Y-92345988D01*
X139972605Y-92339874D01*
X139936649Y-92190108D01*
X139916805Y-92107453D01*
X139822927Y-91880813D01*
X139694752Y-91671649D01*
X139535433Y-91485112D01*
X139468493Y-91427939D01*
X139352663Y-91329010D01*
X139352660Y-91329008D01*
X139348896Y-91325793D01*
X139344673Y-91323205D01*
X139344670Y-91323203D01*
X139265209Y-91274510D01*
X139139732Y-91197618D01*
X138995033Y-91137681D01*
X138917665Y-91105634D01*
X138917663Y-91105633D01*
X138913092Y-91103740D01*
X138830437Y-91083896D01*
X138679370Y-91047628D01*
X138679364Y-91047627D01*
X138674557Y-91046473D01*
X138430000Y-91027226D01*
X138185443Y-91046473D01*
X138180636Y-91047627D01*
X138180630Y-91047628D01*
X138029563Y-91083896D01*
X137946908Y-91103740D01*
X137942337Y-91105633D01*
X137942335Y-91105634D01*
X137864967Y-91137681D01*
X137720268Y-91197618D01*
X137594791Y-91274510D01*
X137515330Y-91323203D01*
X137515327Y-91323205D01*
X137511104Y-91325793D01*
X137507340Y-91329008D01*
X137507337Y-91329010D01*
X137391507Y-91427939D01*
X137324567Y-91485112D01*
X137321359Y-91488868D01*
X137255811Y-91565614D01*
X137196360Y-91604423D01*
X137125365Y-91604929D01*
X137064189Y-91565614D01*
X136998641Y-91488868D01*
X136995433Y-91485112D01*
X136928493Y-91427939D01*
X136812663Y-91329010D01*
X136812660Y-91329008D01*
X136808896Y-91325793D01*
X136804673Y-91323205D01*
X136804670Y-91323203D01*
X136725209Y-91274510D01*
X136599732Y-91197618D01*
X136455033Y-91137681D01*
X136377665Y-91105634D01*
X136377663Y-91105633D01*
X136373092Y-91103740D01*
X136290437Y-91083896D01*
X136139370Y-91047628D01*
X136139364Y-91047627D01*
X136134557Y-91046473D01*
X135890000Y-91027226D01*
X135645443Y-91046473D01*
X135640636Y-91047627D01*
X135640630Y-91047628D01*
X135489563Y-91083896D01*
X135406908Y-91103740D01*
X135402337Y-91105633D01*
X135402335Y-91105634D01*
X135324967Y-91137681D01*
X135180268Y-91197618D01*
X135054791Y-91274510D01*
X134975330Y-91323203D01*
X134975327Y-91323205D01*
X134971104Y-91325793D01*
X134967340Y-91329008D01*
X134967337Y-91329010D01*
X134851507Y-91427939D01*
X134784567Y-91485112D01*
X134781359Y-91488868D01*
X134715811Y-91565614D01*
X134656360Y-91604423D01*
X134585365Y-91604929D01*
X134524189Y-91565614D01*
X134458641Y-91488868D01*
X134455433Y-91485112D01*
X134388493Y-91427939D01*
X134272663Y-91329010D01*
X134272660Y-91329008D01*
X134268896Y-91325793D01*
X134264673Y-91323205D01*
X134264670Y-91323203D01*
X134185209Y-91274510D01*
X134059732Y-91197618D01*
X133915033Y-91137681D01*
X133837665Y-91105634D01*
X133837663Y-91105633D01*
X133833092Y-91103740D01*
X133750437Y-91083896D01*
X133599370Y-91047628D01*
X133599364Y-91047627D01*
X133594557Y-91046473D01*
X133350000Y-91027226D01*
X133105443Y-91046473D01*
X133100636Y-91047627D01*
X133100630Y-91047628D01*
X132949563Y-91083896D01*
X132866908Y-91103740D01*
X132862337Y-91105633D01*
X132862335Y-91105634D01*
X132784967Y-91137681D01*
X132640268Y-91197618D01*
X132514791Y-91274510D01*
X132435330Y-91323203D01*
X132435327Y-91323205D01*
X132431104Y-91325793D01*
X132427340Y-91329008D01*
X132427337Y-91329010D01*
X132311507Y-91427939D01*
X132244567Y-91485112D01*
X132241359Y-91488868D01*
X132175811Y-91565614D01*
X132116360Y-91604423D01*
X132045365Y-91604929D01*
X131984189Y-91565614D01*
X131918641Y-91488868D01*
X131915433Y-91485112D01*
X131848493Y-91427939D01*
X131732663Y-91329010D01*
X131732660Y-91329008D01*
X131728896Y-91325793D01*
X131724673Y-91323205D01*
X131724670Y-91323203D01*
X131645209Y-91274510D01*
X131519732Y-91197618D01*
X131375033Y-91137681D01*
X131297665Y-91105634D01*
X131297663Y-91105633D01*
X131293092Y-91103740D01*
X131210437Y-91083896D01*
X131059370Y-91047628D01*
X131059364Y-91047627D01*
X131054557Y-91046473D01*
X130810000Y-91027226D01*
X130565443Y-91046473D01*
X130560636Y-91047627D01*
X130560630Y-91047628D01*
X130409563Y-91083896D01*
X130326908Y-91103740D01*
X130322337Y-91105633D01*
X130322335Y-91105634D01*
X130244967Y-91137681D01*
X130100268Y-91197618D01*
X129974791Y-91274510D01*
X129895330Y-91323203D01*
X129895327Y-91323205D01*
X129891104Y-91325793D01*
X129887340Y-91329008D01*
X129887337Y-91329010D01*
X129771507Y-91427939D01*
X129704567Y-91485112D01*
X129701359Y-91488868D01*
X129635811Y-91565614D01*
X129576360Y-91604423D01*
X129505365Y-91604929D01*
X129444189Y-91565614D01*
X129378641Y-91488868D01*
X129375433Y-91485112D01*
X129308493Y-91427939D01*
X129192663Y-91329010D01*
X129192660Y-91329008D01*
X129188896Y-91325793D01*
X129184673Y-91323205D01*
X129184670Y-91323203D01*
X129105209Y-91274510D01*
X128979732Y-91197618D01*
X128835033Y-91137681D01*
X128757665Y-91105634D01*
X128757663Y-91105633D01*
X128753092Y-91103740D01*
X128670437Y-91083896D01*
X128519370Y-91047628D01*
X128519364Y-91047627D01*
X128514557Y-91046473D01*
X128270000Y-91027226D01*
X128025443Y-91046473D01*
X128020636Y-91047627D01*
X128020630Y-91047628D01*
X127869563Y-91083896D01*
X127786908Y-91103740D01*
X127782337Y-91105633D01*
X127782335Y-91105634D01*
X127704967Y-91137681D01*
X127560268Y-91197618D01*
X127414579Y-91286896D01*
X127382359Y-91306640D01*
X127313826Y-91325178D01*
X127246149Y-91303721D01*
X127215698Y-91274772D01*
X127148281Y-91184817D01*
X127135724Y-91172260D01*
X127033649Y-91095759D01*
X127018054Y-91087221D01*
X126897606Y-91042067D01*
X126882351Y-91038440D01*
X126831486Y-91032914D01*
X126824672Y-91032545D01*
X126002115Y-91032545D01*
X125986876Y-91037020D01*
X125985671Y-91038410D01*
X125984000Y-91046093D01*
X125984000Y-94130429D01*
X125476000Y-94130429D01*
X125476000Y-92862660D01*
X125471525Y-92847421D01*
X125470135Y-92846216D01*
X125462452Y-92844545D01*
X124190116Y-92844545D01*
X124174877Y-92849020D01*
X124173672Y-92850410D01*
X124172001Y-92858093D01*
X124172001Y-93685214D01*
X120493897Y-93685214D01*
X120639752Y-93514441D01*
X120767927Y-93305277D01*
X120861805Y-93078637D01*
X120912456Y-92867660D01*
X120917917Y-92844915D01*
X120917918Y-92844909D01*
X120919072Y-92840102D01*
X120938319Y-92595545D01*
X120919072Y-92350988D01*
X120916717Y-92341175D01*
X120911256Y-92318430D01*
X124172000Y-92318430D01*
X124176475Y-92333669D01*
X124177865Y-92334874D01*
X124185548Y-92336545D01*
X125457885Y-92336545D01*
X125473124Y-92332070D01*
X125474329Y-92330680D01*
X125476000Y-92322997D01*
X125476000Y-91050661D01*
X125471525Y-91035422D01*
X125470135Y-91034217D01*
X125462452Y-91032546D01*
X124635331Y-91032546D01*
X124628510Y-91032916D01*
X124577648Y-91038440D01*
X124562396Y-91042066D01*
X124441946Y-91087221D01*
X124426351Y-91095759D01*
X124324276Y-91172260D01*
X124311715Y-91184821D01*
X124235214Y-91286896D01*
X124226676Y-91302491D01*
X124181522Y-91422939D01*
X124177895Y-91438194D01*
X124172369Y-91489059D01*
X124172000Y-91495873D01*
X124172000Y-92318430D01*
X120911256Y-92318430D01*
X120862960Y-92117265D01*
X120861805Y-92112453D01*
X120767927Y-91885813D01*
X120639752Y-91676649D01*
X120632265Y-91667882D01*
X120483641Y-91493868D01*
X120480433Y-91490112D01*
X120425500Y-91443194D01*
X120297663Y-91334010D01*
X120297660Y-91334008D01*
X120293896Y-91330793D01*
X120289673Y-91328205D01*
X120289670Y-91328203D01*
X120202050Y-91274510D01*
X120084732Y-91202618D01*
X119940033Y-91142681D01*
X119862665Y-91110634D01*
X119862663Y-91110633D01*
X119858092Y-91108740D01*
X119768459Y-91087221D01*
X119624370Y-91052628D01*
X119624364Y-91052627D01*
X119619557Y-91051473D01*
X119375000Y-91032226D01*
X119130443Y-91051473D01*
X119125636Y-91052627D01*
X119125630Y-91052628D01*
X118981541Y-91087221D01*
X118891908Y-91108740D01*
X118887337Y-91110633D01*
X118887335Y-91110634D01*
X118809967Y-91142681D01*
X118665268Y-91202618D01*
X118547950Y-91274510D01*
X118460330Y-91328203D01*
X118460327Y-91328205D01*
X118456104Y-91330793D01*
X118452340Y-91334008D01*
X118452337Y-91334010D01*
X118324500Y-91443194D01*
X118269567Y-91490112D01*
X118266359Y-91493868D01*
X118200811Y-91570614D01*
X118141360Y-91609423D01*
X118070365Y-91609929D01*
X118009189Y-91570614D01*
X117943641Y-91493868D01*
X117940433Y-91490112D01*
X117885500Y-91443194D01*
X117757663Y-91334010D01*
X117757660Y-91334008D01*
X117753896Y-91330793D01*
X117749673Y-91328205D01*
X117749670Y-91328203D01*
X117662050Y-91274510D01*
X117544732Y-91202618D01*
X117400033Y-91142681D01*
X117322665Y-91110634D01*
X117322663Y-91110633D01*
X117318092Y-91108740D01*
X117228459Y-91087221D01*
X117084370Y-91052628D01*
X117084364Y-91052627D01*
X117079557Y-91051473D01*
X116835000Y-91032226D01*
X116590443Y-91051473D01*
X116585636Y-91052627D01*
X116585630Y-91052628D01*
X116441541Y-91087221D01*
X116351908Y-91108740D01*
X116347337Y-91110633D01*
X116347335Y-91110634D01*
X116269967Y-91142681D01*
X116125268Y-91202618D01*
X116007950Y-91274510D01*
X115920330Y-91328203D01*
X115920327Y-91328205D01*
X115916104Y-91330793D01*
X115912340Y-91334008D01*
X115912337Y-91334010D01*
X115784500Y-91443194D01*
X115729567Y-91490112D01*
X115726359Y-91493868D01*
X115660811Y-91570614D01*
X115601360Y-91609423D01*
X115530365Y-91609929D01*
X115469189Y-91570614D01*
X115403641Y-91493868D01*
X115400433Y-91490112D01*
X115345500Y-91443194D01*
X115217663Y-91334010D01*
X115217660Y-91334008D01*
X115213896Y-91330793D01*
X115209673Y-91328205D01*
X115209670Y-91328203D01*
X115122050Y-91274510D01*
X115004732Y-91202618D01*
X114860033Y-91142681D01*
X114782665Y-91110634D01*
X114782663Y-91110633D01*
X114778092Y-91108740D01*
X114688459Y-91087221D01*
X114544370Y-91052628D01*
X114544364Y-91052627D01*
X114539557Y-91051473D01*
X114295000Y-91032226D01*
X114050443Y-91051473D01*
X114045636Y-91052627D01*
X114045630Y-91052628D01*
X113901541Y-91087221D01*
X113811908Y-91108740D01*
X113807337Y-91110633D01*
X113807335Y-91110634D01*
X113729967Y-91142681D01*
X113585268Y-91202618D01*
X113448133Y-91286654D01*
X113407359Y-91311640D01*
X113338826Y-91330178D01*
X113271149Y-91308721D01*
X113240698Y-91279772D01*
X113173281Y-91189817D01*
X113160724Y-91177260D01*
X113058649Y-91100759D01*
X113043054Y-91092221D01*
X112922606Y-91047067D01*
X112907351Y-91043440D01*
X112856486Y-91037914D01*
X112849672Y-91037545D01*
X112027115Y-91037545D01*
X112011876Y-91042020D01*
X112010671Y-91043410D01*
X112009000Y-91051093D01*
X112009000Y-94135429D01*
X111501000Y-94135429D01*
X111501000Y-92867660D01*
X111496525Y-92852421D01*
X111495135Y-92851216D01*
X111487452Y-92849545D01*
X110215116Y-92849545D01*
X110199877Y-92854020D01*
X110198672Y-92855410D01*
X110197001Y-92863093D01*
X110197001Y-93690214D01*
X92583000Y-93690214D01*
X92583000Y-92323430D01*
X110197000Y-92323430D01*
X110201475Y-92338669D01*
X110202865Y-92339874D01*
X110210548Y-92341545D01*
X111482885Y-92341545D01*
X111498124Y-92337070D01*
X111499329Y-92335680D01*
X111501000Y-92327997D01*
X111501000Y-91055661D01*
X111496525Y-91040422D01*
X111495135Y-91039217D01*
X111487452Y-91037546D01*
X110660331Y-91037546D01*
X110653510Y-91037916D01*
X110602648Y-91043440D01*
X110587396Y-91047066D01*
X110466946Y-91092221D01*
X110451351Y-91100759D01*
X110349276Y-91177260D01*
X110336715Y-91189821D01*
X110260214Y-91291896D01*
X110251676Y-91307491D01*
X110206522Y-91427939D01*
X110202895Y-91443194D01*
X110197369Y-91494059D01*
X110197000Y-91500873D01*
X110197000Y-92323430D01*
X92583000Y-92323430D01*
X92583000Y-57210339D01*
X94576091Y-57210339D01*
X94611747Y-57443349D01*
X94684980Y-57667407D01*
X94793825Y-57876496D01*
X94796928Y-57880629D01*
X94796930Y-57880632D01*
X94819026Y-57910061D01*
X94935358Y-58065000D01*
X95105777Y-58227857D01*
X95300508Y-58360693D01*
X95305192Y-58362867D01*
X95305195Y-58362869D01*
X95509628Y-58457764D01*
X95509633Y-58457766D01*
X95514319Y-58459941D01*
X95741468Y-58522935D01*
X95746605Y-58523484D01*
X95930563Y-58543144D01*
X95930571Y-58543144D01*
X95933898Y-58543500D01*
X97268757Y-58543500D01*
X97271330Y-58543288D01*
X97271341Y-58543288D01*
X97438779Y-58529522D01*
X97438785Y-58529521D01*
X97443930Y-58529098D01*
X97672551Y-58471673D01*
X97888723Y-58377678D01*
X98086641Y-58249640D01*
X98110581Y-58227857D01*
X98257167Y-58094473D01*
X98257168Y-58094471D01*
X98260989Y-58090995D01*
X98264188Y-58086944D01*
X98264192Y-58086940D01*
X98403883Y-57910061D01*
X98403885Y-57910057D01*
X98407085Y-57906006D01*
X98521005Y-57699639D01*
X98530794Y-57671998D01*
X98597965Y-57482311D01*
X98597966Y-57482307D01*
X98599691Y-57477436D01*
X98600599Y-57472340D01*
X98640123Y-57250456D01*
X98640124Y-57250450D01*
X98641029Y-57245367D01*
X98641457Y-57210339D01*
X107076091Y-57210339D01*
X107111747Y-57443349D01*
X107184980Y-57667407D01*
X107293825Y-57876496D01*
X107296928Y-57880629D01*
X107296930Y-57880632D01*
X107319026Y-57910061D01*
X107435358Y-58065000D01*
X107605777Y-58227857D01*
X107800508Y-58360693D01*
X107805192Y-58362867D01*
X107805195Y-58362869D01*
X108009628Y-58457764D01*
X108009633Y-58457766D01*
X108014319Y-58459941D01*
X108241468Y-58522935D01*
X108246605Y-58523484D01*
X108430563Y-58543144D01*
X108430571Y-58543144D01*
X108433898Y-58543500D01*
X109768757Y-58543500D01*
X109771330Y-58543288D01*
X109771341Y-58543288D01*
X109938779Y-58529522D01*
X109938785Y-58529521D01*
X109943930Y-58529098D01*
X110172551Y-58471673D01*
X110388723Y-58377678D01*
X110586641Y-58249640D01*
X110610581Y-58227857D01*
X110757167Y-58094473D01*
X110757168Y-58094471D01*
X110760989Y-58090995D01*
X110764188Y-58086944D01*
X110764192Y-58086940D01*
X110903883Y-57910061D01*
X110903885Y-57910057D01*
X110907085Y-57906006D01*
X111021005Y-57699639D01*
X111030794Y-57671998D01*
X111097965Y-57482311D01*
X111097966Y-57482307D01*
X111099691Y-57477436D01*
X111100599Y-57472340D01*
X111140123Y-57250456D01*
X111140124Y-57250450D01*
X111141029Y-57245367D01*
X111143909Y-57009661D01*
X111108253Y-56776651D01*
X111035020Y-56552593D01*
X110926175Y-56343504D01*
X110907415Y-56318517D01*
X110787747Y-56159135D01*
X110787745Y-56159132D01*
X110784642Y-56155000D01*
X110614223Y-55992143D01*
X110419492Y-55859307D01*
X110414808Y-55857133D01*
X110414805Y-55857131D01*
X110210372Y-55762236D01*
X110210367Y-55762234D01*
X110205681Y-55760059D01*
X109978532Y-55697065D01*
X109973395Y-55696516D01*
X109789437Y-55676856D01*
X109789429Y-55676856D01*
X109786102Y-55676500D01*
X108451243Y-55676500D01*
X108448670Y-55676712D01*
X108448659Y-55676712D01*
X108281221Y-55690478D01*
X108281215Y-55690479D01*
X108276070Y-55690902D01*
X108047449Y-55748327D01*
X107831277Y-55842322D01*
X107633359Y-55970360D01*
X107629536Y-55973839D01*
X107629533Y-55973841D01*
X107605495Y-55995714D01*
X107459011Y-56129005D01*
X107455812Y-56133056D01*
X107455808Y-56133060D01*
X107316117Y-56309939D01*
X107312915Y-56313994D01*
X107198995Y-56520361D01*
X107197271Y-56525230D01*
X107197269Y-56525234D01*
X107122035Y-56737689D01*
X107120309Y-56742564D01*
X107119402Y-56747657D01*
X107119401Y-56747660D01*
X107115113Y-56771736D01*
X107078971Y-56974633D01*
X107076091Y-57210339D01*
X98641457Y-57210339D01*
X98643909Y-57009661D01*
X98608253Y-56776651D01*
X98535020Y-56552593D01*
X98426175Y-56343504D01*
X98407415Y-56318517D01*
X98287747Y-56159135D01*
X98287745Y-56159132D01*
X98284642Y-56155000D01*
X98114223Y-55992143D01*
X97919492Y-55859307D01*
X97914808Y-55857133D01*
X97914805Y-55857131D01*
X97710372Y-55762236D01*
X97710367Y-55762234D01*
X97705681Y-55760059D01*
X97478532Y-55697065D01*
X97473395Y-55696516D01*
X97289437Y-55676856D01*
X97289429Y-55676856D01*
X97286102Y-55676500D01*
X95951243Y-55676500D01*
X95948670Y-55676712D01*
X95948659Y-55676712D01*
X95781221Y-55690478D01*
X95781215Y-55690479D01*
X95776070Y-55690902D01*
X95547449Y-55748327D01*
X95331277Y-55842322D01*
X95133359Y-55970360D01*
X95129536Y-55973839D01*
X95129533Y-55973841D01*
X95105495Y-55995714D01*
X94959011Y-56129005D01*
X94955812Y-56133056D01*
X94955808Y-56133060D01*
X94816117Y-56309939D01*
X94812915Y-56313994D01*
X94698995Y-56520361D01*
X94697271Y-56525230D01*
X94697269Y-56525234D01*
X94622035Y-56737689D01*
X94620309Y-56742564D01*
X94619402Y-56747657D01*
X94619401Y-56747660D01*
X94615113Y-56771736D01*
X94578971Y-56974633D01*
X94576091Y-57210339D01*
X92583000Y-57210339D01*
X92583000Y-52382194D01*
X94602895Y-52382194D01*
X94611453Y-52438121D01*
X94613841Y-52448146D01*
X94683836Y-52662295D01*
X94687833Y-52671804D01*
X94791861Y-52871640D01*
X94797355Y-52880365D01*
X94932628Y-53060532D01*
X94939471Y-53068239D01*
X95102356Y-53223896D01*
X95110362Y-53230379D01*
X95296485Y-53357343D01*
X95305444Y-53362432D01*
X95509807Y-53457294D01*
X95519475Y-53460851D01*
X95736580Y-53521060D01*
X95746699Y-53522991D01*
X95930595Y-53542644D01*
X95937287Y-53543000D01*
X96337885Y-53543000D01*
X96353124Y-53538525D01*
X96354329Y-53537135D01*
X96356000Y-53529452D01*
X96356000Y-53524885D01*
X96864000Y-53524885D01*
X96868475Y-53540124D01*
X96869865Y-53541329D01*
X96877548Y-53543000D01*
X97266145Y-53543000D01*
X97271318Y-53542788D01*
X97438687Y-53529027D01*
X97448867Y-53527342D01*
X97667377Y-53472456D01*
X97677128Y-53469136D01*
X97883749Y-53379296D01*
X97892824Y-53374430D01*
X98081990Y-53252052D01*
X98090161Y-53245760D01*
X98256800Y-53094131D01*
X98263825Y-53086598D01*
X98403466Y-52909782D01*
X98409162Y-52901209D01*
X98518052Y-52703955D01*
X98522273Y-52694560D01*
X98597481Y-52482180D01*
X98600113Y-52472217D01*
X98616148Y-52382194D01*
X107102895Y-52382194D01*
X107111453Y-52438121D01*
X107113841Y-52448146D01*
X107183836Y-52662295D01*
X107187833Y-52671804D01*
X107291861Y-52871640D01*
X107297355Y-52880365D01*
X107432628Y-53060532D01*
X107439471Y-53068239D01*
X107602356Y-53223896D01*
X107610362Y-53230379D01*
X107796485Y-53357343D01*
X107805444Y-53362432D01*
X108009807Y-53457294D01*
X108019475Y-53460851D01*
X108236580Y-53521060D01*
X108246699Y-53522991D01*
X108430595Y-53542644D01*
X108437287Y-53543000D01*
X108837885Y-53543000D01*
X108853124Y-53538525D01*
X108854329Y-53537135D01*
X108856000Y-53529452D01*
X108856000Y-53524885D01*
X109364000Y-53524885D01*
X109368475Y-53540124D01*
X109369865Y-53541329D01*
X109377548Y-53543000D01*
X109766145Y-53543000D01*
X109771318Y-53542788D01*
X109938687Y-53529027D01*
X109948867Y-53527342D01*
X110167377Y-53472456D01*
X110177128Y-53469136D01*
X110383749Y-53379296D01*
X110392824Y-53374430D01*
X110581990Y-53252052D01*
X110590161Y-53245760D01*
X110756800Y-53094131D01*
X110763825Y-53086598D01*
X110903466Y-52909782D01*
X110909162Y-52901209D01*
X111018052Y-52703955D01*
X111022273Y-52694560D01*
X111097481Y-52482180D01*
X111100113Y-52472217D01*
X111116212Y-52381837D01*
X111114752Y-52368540D01*
X111100197Y-52364000D01*
X109382115Y-52364000D01*
X109366876Y-52368475D01*
X109365671Y-52369865D01*
X109364000Y-52377548D01*
X109364000Y-53524885D01*
X108856000Y-53524885D01*
X108856000Y-52382115D01*
X108851525Y-52366876D01*
X108850135Y-52365671D01*
X108842452Y-52364000D01*
X107118226Y-52364000D01*
X107104882Y-52367918D01*
X107102895Y-52382194D01*
X98616148Y-52382194D01*
X98616212Y-52381837D01*
X98614752Y-52368540D01*
X98600197Y-52364000D01*
X96882115Y-52364000D01*
X96866876Y-52368475D01*
X96865671Y-52369865D01*
X96864000Y-52377548D01*
X96864000Y-53524885D01*
X96356000Y-53524885D01*
X96356000Y-52382115D01*
X96351525Y-52366876D01*
X96350135Y-52365671D01*
X96342452Y-52364000D01*
X94618226Y-52364000D01*
X94604882Y-52367918D01*
X94602895Y-52382194D01*
X92583000Y-52382194D01*
X92583000Y-51838163D01*
X94603788Y-51838163D01*
X94605248Y-51851460D01*
X94619803Y-51856000D01*
X96337885Y-51856000D01*
X96353124Y-51851525D01*
X96354329Y-51850135D01*
X96356000Y-51842452D01*
X96356000Y-51837885D01*
X96864000Y-51837885D01*
X96868475Y-51853124D01*
X96869865Y-51854329D01*
X96877548Y-51856000D01*
X98601774Y-51856000D01*
X98615118Y-51852082D01*
X98617055Y-51838163D01*
X107103788Y-51838163D01*
X107105248Y-51851460D01*
X107119803Y-51856000D01*
X108837885Y-51856000D01*
X108853124Y-51851525D01*
X108854329Y-51850135D01*
X108856000Y-51842452D01*
X108856000Y-51837885D01*
X109364000Y-51837885D01*
X109368475Y-51853124D01*
X109369865Y-51854329D01*
X109377548Y-51856000D01*
X111101774Y-51856000D01*
X111115118Y-51852082D01*
X111117105Y-51837806D01*
X111108547Y-51781879D01*
X111106159Y-51771854D01*
X111036164Y-51557705D01*
X111032167Y-51548196D01*
X110928139Y-51348360D01*
X110922645Y-51339635D01*
X110787372Y-51159468D01*
X110780529Y-51151761D01*
X110617644Y-50996104D01*
X110609638Y-50989621D01*
X110423515Y-50862657D01*
X110414556Y-50857568D01*
X110210193Y-50762706D01*
X110200525Y-50759149D01*
X109983420Y-50698940D01*
X109973301Y-50697009D01*
X109789405Y-50677356D01*
X109782713Y-50677000D01*
X109382115Y-50677000D01*
X109366876Y-50681475D01*
X109365671Y-50682865D01*
X109364000Y-50690548D01*
X109364000Y-51837885D01*
X108856000Y-51837885D01*
X108856000Y-50695115D01*
X108851525Y-50679876D01*
X108850135Y-50678671D01*
X108842452Y-50677000D01*
X108453855Y-50677000D01*
X108448682Y-50677212D01*
X108281313Y-50690973D01*
X108271133Y-50692658D01*
X108052623Y-50747544D01*
X108042872Y-50750864D01*
X107836251Y-50840704D01*
X107827176Y-50845570D01*
X107638010Y-50967948D01*
X107629839Y-50974240D01*
X107463200Y-51125869D01*
X107456175Y-51133402D01*
X107316534Y-51310218D01*
X107310838Y-51318791D01*
X107201948Y-51516045D01*
X107197727Y-51525440D01*
X107122519Y-51737820D01*
X107119887Y-51747783D01*
X107103788Y-51838163D01*
X98617055Y-51838163D01*
X98617105Y-51837806D01*
X98608547Y-51781879D01*
X98606159Y-51771854D01*
X98536164Y-51557705D01*
X98532167Y-51548196D01*
X98428139Y-51348360D01*
X98422645Y-51339635D01*
X98287372Y-51159468D01*
X98280529Y-51151761D01*
X98117644Y-50996104D01*
X98109638Y-50989621D01*
X97923515Y-50862657D01*
X97914556Y-50857568D01*
X97710193Y-50762706D01*
X97700525Y-50759149D01*
X97483420Y-50698940D01*
X97473301Y-50697009D01*
X97289405Y-50677356D01*
X97282713Y-50677000D01*
X96882115Y-50677000D01*
X96866876Y-50681475D01*
X96865671Y-50682865D01*
X96864000Y-50690548D01*
X96864000Y-51837885D01*
X96356000Y-51837885D01*
X96356000Y-50695115D01*
X96351525Y-50679876D01*
X96350135Y-50678671D01*
X96342452Y-50677000D01*
X95953855Y-50677000D01*
X95948682Y-50677212D01*
X95781313Y-50690973D01*
X95771133Y-50692658D01*
X95552623Y-50747544D01*
X95542872Y-50750864D01*
X95336251Y-50840704D01*
X95327176Y-50845570D01*
X95138010Y-50967948D01*
X95129839Y-50974240D01*
X94963200Y-51125869D01*
X94956175Y-51133402D01*
X94816534Y-51310218D01*
X94810838Y-51318791D01*
X94701948Y-51516045D01*
X94697727Y-51525440D01*
X94622519Y-51737820D01*
X94619887Y-51747783D01*
X94603788Y-51838163D01*
X92583000Y-51838163D01*
X92583000Y-39346381D01*
X94937321Y-39346381D01*
X94937398Y-39347470D01*
X94939859Y-39351206D01*
X95213793Y-39561404D01*
X95219423Y-39565259D01*
X95519752Y-39747862D01*
X95525754Y-39751080D01*
X95844058Y-39900184D01*
X95850363Y-39902732D01*
X96182904Y-40016587D01*
X96189474Y-40018446D01*
X96532344Y-40095714D01*
X96539073Y-40096853D01*
X96888304Y-40136643D01*
X96895094Y-40137046D01*
X97246580Y-40138886D01*
X97253381Y-40138554D01*
X97603014Y-40102423D01*
X97609742Y-40101357D01*
X97953435Y-40027676D01*
X97959983Y-40025897D01*
X98293710Y-39915527D01*
X98300052Y-39913041D01*
X98619879Y-39767288D01*
X98625938Y-39764121D01*
X98928156Y-39584676D01*
X98933820Y-39580884D01*
X99214893Y-39369849D01*
X99220119Y-39365464D01*
X99229774Y-39356428D01*
X99237843Y-39342750D01*
X99237815Y-39342024D01*
X99232673Y-39333723D01*
X97100971Y-37202020D01*
X97087030Y-37194408D01*
X97085195Y-37194539D01*
X97078581Y-37198790D01*
X94944935Y-39332437D01*
X94937321Y-39346381D01*
X92583000Y-39346381D01*
X92583000Y-36821832D01*
X93775494Y-36821832D01*
X93793278Y-37172893D01*
X93793988Y-37179649D01*
X93849581Y-37526723D01*
X93851020Y-37533378D01*
X93943769Y-37872410D01*
X93945918Y-37878871D01*
X94074742Y-38205912D01*
X94077573Y-38212095D01*
X94240964Y-38523310D01*
X94244447Y-38529152D01*
X94440491Y-38820896D01*
X94444594Y-38826340D01*
X94564586Y-38968836D01*
X94577325Y-38977279D01*
X94587769Y-38971181D01*
X96716141Y-36842810D01*
X96722518Y-36831131D01*
X97452569Y-36831131D01*
X97452700Y-36832966D01*
X97456951Y-36839580D01*
X99587170Y-38969798D01*
X99600766Y-38977223D01*
X99610379Y-38970522D01*
X99710679Y-38853912D01*
X99714837Y-38848514D01*
X99913923Y-38558840D01*
X99917471Y-38553029D01*
X100084103Y-38243559D01*
X100087010Y-38237381D01*
X100219251Y-37911713D01*
X100221465Y-37905283D01*
X100317759Y-37567237D01*
X100319266Y-37560607D01*
X100378493Y-37214118D01*
X100379273Y-37207378D01*
X100400829Y-36854925D01*
X100400945Y-36851323D01*
X100401014Y-36831819D01*
X100400922Y-36828194D01*
X100381827Y-36475615D01*
X100381092Y-36468849D01*
X100324291Y-36121985D01*
X100322824Y-36115313D01*
X100228897Y-35776627D01*
X100226723Y-35770163D01*
X100096759Y-35443578D01*
X100093903Y-35437398D01*
X99929430Y-35126763D01*
X99925930Y-35120937D01*
X99728858Y-34829862D01*
X99724751Y-34824453D01*
X99611726Y-34691179D01*
X99598901Y-34682743D01*
X99588577Y-34688795D01*
X97460181Y-36817190D01*
X97452569Y-36831131D01*
X96722518Y-36831131D01*
X96723753Y-36828869D01*
X96723622Y-36827034D01*
X96719371Y-36820420D01*
X94589153Y-34690203D01*
X94575616Y-34682811D01*
X94565914Y-34689599D01*
X94458591Y-34815257D01*
X94454457Y-34820664D01*
X94256376Y-35111041D01*
X94252858Y-35116851D01*
X94087295Y-35426922D01*
X94084420Y-35433087D01*
X93953316Y-35759218D01*
X93951123Y-35765658D01*
X93856007Y-36104044D01*
X93854524Y-36110679D01*
X93796511Y-36457354D01*
X93795752Y-36464126D01*
X93775518Y-36815037D01*
X93775494Y-36821832D01*
X92583000Y-36821832D01*
X92583000Y-34316862D01*
X94938111Y-34316862D01*
X94938147Y-34317704D01*
X94943198Y-34325826D01*
X97075351Y-36457980D01*
X97089292Y-36465592D01*
X97091127Y-36465461D01*
X97097741Y-36461210D01*
X99230959Y-34327991D01*
X99238573Y-34314047D01*
X99238505Y-34313089D01*
X99233997Y-34306272D01*
X99232579Y-34305065D01*
X98952974Y-34092064D01*
X98947348Y-34088240D01*
X98646375Y-33906681D01*
X98640363Y-33903484D01*
X98321531Y-33755487D01*
X98315231Y-33752967D01*
X97982290Y-33640273D01*
X97975712Y-33638437D01*
X97632578Y-33562367D01*
X97625839Y-33561251D01*
X97276471Y-33522680D01*
X97269690Y-33522301D01*
X96918176Y-33521687D01*
X96911403Y-33522042D01*
X96561881Y-33559395D01*
X96555171Y-33560482D01*
X96211747Y-33635361D01*
X96205172Y-33637172D01*
X95871844Y-33748702D01*
X95865522Y-33751205D01*
X95546195Y-33898079D01*
X95540152Y-33901265D01*
X95238562Y-34081763D01*
X95232916Y-34085571D01*
X94952569Y-34297596D01*
X94947372Y-34301987D01*
X94946133Y-34303155D01*
X94938111Y-34316862D01*
X92583000Y-34316862D01*
X92583000Y-32384000D01*
X92603002Y-32315879D01*
X92656658Y-32269386D01*
X92709000Y-32258000D01*
X112396000Y-32258000D01*
X112464121Y-32278002D01*
G37*
%TD.AperFunction*%
%TD*%
M02*
