%TF.GenerationSoftware,KiCad,Pcbnew,(6.0.2)*%
%TF.CreationDate,2022-02-22T20:29:46+01:00*%
%TF.ProjectId,fondo,666f6e64-6f2e-46b6-9963-61645f706362,rev?*%
%TF.SameCoordinates,Original*%
%TF.FileFunction,Legend,Bot*%
%TF.FilePolarity,Positive*%
%FSLAX46Y46*%
G04 Gerber Fmt 4.6, Leading zero omitted, Abs format (unit mm)*
G04 Created by KiCad (PCBNEW (6.0.2)) date 2022-02-22 20:29:46*
%MOMM*%
%LPD*%
G01*
G04 APERTURE LIST*
%ADD10C,0.150000*%
G04 APERTURE END LIST*
D10*
X147493333Y-123821666D02*
X147017142Y-123821666D01*
X147588571Y-124107380D02*
X147255238Y-123107380D01*
X146921904Y-124107380D01*
X146160000Y-123440714D02*
X146160000Y-124107380D01*
X146588571Y-123440714D02*
X146588571Y-123964523D01*
X146540952Y-124059761D01*
X146445714Y-124107380D01*
X146302857Y-124107380D01*
X146207619Y-124059761D01*
X146160000Y-124012142D01*
X145826666Y-123440714D02*
X145445714Y-123440714D01*
X145683809Y-123107380D02*
X145683809Y-123964523D01*
X145636190Y-124059761D01*
X145540952Y-124107380D01*
X145445714Y-124107380D01*
X144969523Y-124107380D02*
X145064761Y-124059761D01*
X145112380Y-124012142D01*
X145160000Y-123916904D01*
X145160000Y-123631190D01*
X145112380Y-123535952D01*
X145064761Y-123488333D01*
X144969523Y-123440714D01*
X144826666Y-123440714D01*
X144731428Y-123488333D01*
X144683809Y-123535952D01*
X144636190Y-123631190D01*
X144636190Y-123916904D01*
X144683809Y-124012142D01*
X144731428Y-124059761D01*
X144826666Y-124107380D01*
X144969523Y-124107380D01*
X144207619Y-124107380D02*
X144207619Y-123440714D01*
X144207619Y-123631190D02*
X144160000Y-123535952D01*
X144112380Y-123488333D01*
X144017142Y-123440714D01*
X143921904Y-123440714D01*
X143588571Y-124012142D02*
X143540952Y-124059761D01*
X143588571Y-124107380D01*
X143636190Y-124059761D01*
X143588571Y-124012142D01*
X143588571Y-124107380D01*
X143588571Y-123488333D02*
X143540952Y-123535952D01*
X143588571Y-123583571D01*
X143636190Y-123535952D01*
X143588571Y-123488333D01*
X143588571Y-123583571D01*
X142398095Y-123821666D02*
X141921904Y-123821666D01*
X142493333Y-124107380D02*
X142160000Y-123107380D01*
X141826666Y-124107380D01*
X141493333Y-123440714D02*
X141493333Y-124107380D01*
X141493333Y-123535952D02*
X141445714Y-123488333D01*
X141350476Y-123440714D01*
X141207619Y-123440714D01*
X141112380Y-123488333D01*
X141064761Y-123583571D01*
X141064761Y-124107380D01*
X140731428Y-123440714D02*
X140350476Y-123440714D01*
X140588571Y-123107380D02*
X140588571Y-123964523D01*
X140540952Y-124059761D01*
X140445714Y-124107380D01*
X140350476Y-124107380D01*
X139874285Y-124107380D02*
X139969523Y-124059761D01*
X140017142Y-124012142D01*
X140064761Y-123916904D01*
X140064761Y-123631190D01*
X140017142Y-123535952D01*
X139969523Y-123488333D01*
X139874285Y-123440714D01*
X139731428Y-123440714D01*
X139636190Y-123488333D01*
X139588571Y-123535952D01*
X139540952Y-123631190D01*
X139540952Y-123916904D01*
X139588571Y-124012142D01*
X139636190Y-124059761D01*
X139731428Y-124107380D01*
X139874285Y-124107380D01*
X139112380Y-123440714D02*
X139112380Y-124107380D01*
X139112380Y-123535952D02*
X139064761Y-123488333D01*
X138969523Y-123440714D01*
X138826666Y-123440714D01*
X138731428Y-123488333D01*
X138683809Y-123583571D01*
X138683809Y-124107380D01*
X138207619Y-124107380D02*
X138207619Y-123440714D01*
X138207619Y-123107380D02*
X138255238Y-123155000D01*
X138207619Y-123202619D01*
X138160000Y-123155000D01*
X138207619Y-123107380D01*
X138207619Y-123202619D01*
X137588571Y-124107380D02*
X137683809Y-124059761D01*
X137731428Y-124012142D01*
X137779047Y-123916904D01*
X137779047Y-123631190D01*
X137731428Y-123535952D01*
X137683809Y-123488333D01*
X137588571Y-123440714D01*
X137445714Y-123440714D01*
X137350476Y-123488333D01*
X137302857Y-123535952D01*
X137255238Y-123631190D01*
X137255238Y-123916904D01*
X137302857Y-124012142D01*
X137350476Y-124059761D01*
X137445714Y-124107380D01*
X137588571Y-124107380D01*
X136064761Y-124107380D02*
X136064761Y-123107380D01*
X135683809Y-123107380D01*
X135588571Y-123155000D01*
X135540952Y-123202619D01*
X135493333Y-123297857D01*
X135493333Y-123440714D01*
X135540952Y-123535952D01*
X135588571Y-123583571D01*
X135683809Y-123631190D01*
X136064761Y-123631190D01*
X134683809Y-124059761D02*
X134779047Y-124107380D01*
X134969523Y-124107380D01*
X135064761Y-124059761D01*
X135112380Y-123964523D01*
X135112380Y-123583571D01*
X135064761Y-123488333D01*
X134969523Y-123440714D01*
X134779047Y-123440714D01*
X134683809Y-123488333D01*
X134636190Y-123583571D01*
X134636190Y-123678809D01*
X135112380Y-123774047D01*
X134779047Y-123059761D02*
X134921904Y-123202619D01*
X134207619Y-124107380D02*
X134207619Y-123440714D01*
X134207619Y-123631190D02*
X134160000Y-123535952D01*
X134112380Y-123488333D01*
X134017142Y-123440714D01*
X133921904Y-123440714D01*
X133207619Y-124059761D02*
X133302857Y-124107380D01*
X133493333Y-124107380D01*
X133588571Y-124059761D01*
X133636190Y-123964523D01*
X133636190Y-123583571D01*
X133588571Y-123488333D01*
X133493333Y-123440714D01*
X133302857Y-123440714D01*
X133207619Y-123488333D01*
X133160000Y-123583571D01*
X133160000Y-123678809D01*
X133636190Y-123774047D01*
X132826666Y-123440714D02*
X132302857Y-123440714D01*
X132826666Y-124107380D01*
X132302857Y-124107380D01*
X130636190Y-123155000D02*
X130731428Y-123107380D01*
X130874285Y-123107380D01*
X131017142Y-123155000D01*
X131112380Y-123250238D01*
X131160000Y-123345476D01*
X131207619Y-123535952D01*
X131207619Y-123678809D01*
X131160000Y-123869285D01*
X131112380Y-123964523D01*
X131017142Y-124059761D01*
X130874285Y-124107380D01*
X130779047Y-124107380D01*
X130636190Y-124059761D01*
X130588571Y-124012142D01*
X130588571Y-123678809D01*
X130779047Y-123678809D01*
X129731428Y-124107380D02*
X129731428Y-123583571D01*
X129779047Y-123488333D01*
X129874285Y-123440714D01*
X130064761Y-123440714D01*
X130160000Y-123488333D01*
X129731428Y-124059761D02*
X129826666Y-124107380D01*
X130064761Y-124107380D01*
X130160000Y-124059761D01*
X130207619Y-123964523D01*
X130207619Y-123869285D01*
X130160000Y-123774047D01*
X130064761Y-123726428D01*
X129826666Y-123726428D01*
X129731428Y-123678809D01*
X129255238Y-124107380D02*
X129255238Y-123440714D01*
X129255238Y-123631190D02*
X129207619Y-123535952D01*
X129160000Y-123488333D01*
X129064761Y-123440714D01*
X128969523Y-123440714D01*
X128207619Y-124059761D02*
X128302857Y-124107380D01*
X128493333Y-124107380D01*
X128588571Y-124059761D01*
X128636190Y-124012142D01*
X128683809Y-123916904D01*
X128683809Y-123631190D01*
X128636190Y-123535952D01*
X128588571Y-123488333D01*
X128493333Y-123440714D01*
X128302857Y-123440714D01*
X128207619Y-123488333D01*
X127779047Y-124107380D02*
X127779047Y-123440714D01*
X127683809Y-123059761D02*
X127826666Y-123202619D01*
X126874285Y-124107380D02*
X126874285Y-123583571D01*
X126921904Y-123488333D01*
X127017142Y-123440714D01*
X127207619Y-123440714D01*
X127302857Y-123488333D01*
X126874285Y-124059761D02*
X126969523Y-124107380D01*
X127207619Y-124107380D01*
X127302857Y-124059761D01*
X127350476Y-123964523D01*
X127350476Y-123869285D01*
X127302857Y-123774047D01*
X127207619Y-123726428D01*
X126969523Y-123726428D01*
X126874285Y-123678809D01*
X147636190Y-124717380D02*
X147064761Y-124717380D01*
X147350476Y-125717380D02*
X147350476Y-124717380D01*
X146731428Y-125717380D02*
X146731428Y-125050714D01*
X146731428Y-125241190D02*
X146683809Y-125145952D01*
X146636190Y-125098333D01*
X146540952Y-125050714D01*
X146445714Y-125050714D01*
X145683809Y-125717380D02*
X145683809Y-125193571D01*
X145731428Y-125098333D01*
X145826666Y-125050714D01*
X146017142Y-125050714D01*
X146112380Y-125098333D01*
X145683809Y-125669761D02*
X145779047Y-125717380D01*
X146017142Y-125717380D01*
X146112380Y-125669761D01*
X146160000Y-125574523D01*
X146160000Y-125479285D01*
X146112380Y-125384047D01*
X146017142Y-125336428D01*
X145779047Y-125336428D01*
X145683809Y-125288809D01*
X145207619Y-125717380D02*
X145207619Y-124717380D01*
X145207619Y-125098333D02*
X145112380Y-125050714D01*
X144921904Y-125050714D01*
X144826666Y-125098333D01*
X144779047Y-125145952D01*
X144731428Y-125241190D01*
X144731428Y-125526904D01*
X144779047Y-125622142D01*
X144826666Y-125669761D01*
X144921904Y-125717380D01*
X145112380Y-125717380D01*
X145207619Y-125669761D01*
X143874285Y-125717380D02*
X143874285Y-125193571D01*
X143921904Y-125098333D01*
X144017142Y-125050714D01*
X144207619Y-125050714D01*
X144302857Y-125098333D01*
X143874285Y-125669761D02*
X143969523Y-125717380D01*
X144207619Y-125717380D01*
X144302857Y-125669761D01*
X144350476Y-125574523D01*
X144350476Y-125479285D01*
X144302857Y-125384047D01*
X144207619Y-125336428D01*
X143969523Y-125336428D01*
X143874285Y-125288809D01*
X143398095Y-125050714D02*
X143398095Y-125907857D01*
X143445714Y-126003095D01*
X143540952Y-126050714D01*
X143588571Y-126050714D01*
X143398095Y-124717380D02*
X143445714Y-124765000D01*
X143398095Y-124812619D01*
X143350476Y-124765000D01*
X143398095Y-124717380D01*
X143398095Y-124812619D01*
X142779047Y-125717380D02*
X142874285Y-125669761D01*
X142921904Y-125622142D01*
X142969523Y-125526904D01*
X142969523Y-125241190D01*
X142921904Y-125145952D01*
X142874285Y-125098333D01*
X142779047Y-125050714D01*
X142636190Y-125050714D01*
X142540952Y-125098333D01*
X142493333Y-125145952D01*
X142445714Y-125241190D01*
X142445714Y-125526904D01*
X142493333Y-125622142D01*
X142540952Y-125669761D01*
X142636190Y-125717380D01*
X142779047Y-125717380D01*
X140921904Y-125193571D02*
X141255238Y-125193571D01*
X141255238Y-125717380D02*
X141255238Y-124717380D01*
X140779047Y-124717380D01*
X140398095Y-125717380D02*
X140398095Y-125050714D01*
X140398095Y-124717380D02*
X140445714Y-124765000D01*
X140398095Y-124812619D01*
X140350476Y-124765000D01*
X140398095Y-124717380D01*
X140398095Y-124812619D01*
X139921904Y-125050714D02*
X139921904Y-125717380D01*
X139921904Y-125145952D02*
X139874285Y-125098333D01*
X139779047Y-125050714D01*
X139636190Y-125050714D01*
X139540952Y-125098333D01*
X139493333Y-125193571D01*
X139493333Y-125717380D01*
X137826666Y-125717380D02*
X137826666Y-124717380D01*
X137826666Y-125669761D02*
X137921904Y-125717380D01*
X138112380Y-125717380D01*
X138207619Y-125669761D01*
X138255238Y-125622142D01*
X138302857Y-125526904D01*
X138302857Y-125241190D01*
X138255238Y-125145952D01*
X138207619Y-125098333D01*
X138112380Y-125050714D01*
X137921904Y-125050714D01*
X137826666Y-125098333D01*
X136969523Y-125669761D02*
X137064761Y-125717380D01*
X137255238Y-125717380D01*
X137350476Y-125669761D01*
X137398095Y-125574523D01*
X137398095Y-125193571D01*
X137350476Y-125098333D01*
X137255238Y-125050714D01*
X137064761Y-125050714D01*
X136969523Y-125098333D01*
X136921904Y-125193571D01*
X136921904Y-125288809D01*
X137398095Y-125384047D01*
X135207619Y-124765000D02*
X135302857Y-124717380D01*
X135445714Y-124717380D01*
X135588571Y-124765000D01*
X135683809Y-124860238D01*
X135731428Y-124955476D01*
X135779047Y-125145952D01*
X135779047Y-125288809D01*
X135731428Y-125479285D01*
X135683809Y-125574523D01*
X135588571Y-125669761D01*
X135445714Y-125717380D01*
X135350476Y-125717380D01*
X135207619Y-125669761D01*
X135160000Y-125622142D01*
X135160000Y-125288809D01*
X135350476Y-125288809D01*
X134731428Y-125717380D02*
X134731428Y-125050714D01*
X134731428Y-125241190D02*
X134683809Y-125145952D01*
X134636190Y-125098333D01*
X134540952Y-125050714D01*
X134445714Y-125050714D01*
X133683809Y-125717380D02*
X133683809Y-125193571D01*
X133731428Y-125098333D01*
X133826666Y-125050714D01*
X134017142Y-125050714D01*
X134112380Y-125098333D01*
X133683809Y-125669761D02*
X133779047Y-125717380D01*
X134017142Y-125717380D01*
X134112380Y-125669761D01*
X134160000Y-125574523D01*
X134160000Y-125479285D01*
X134112380Y-125384047D01*
X134017142Y-125336428D01*
X133779047Y-125336428D01*
X133683809Y-125288809D01*
X132779047Y-125717380D02*
X132779047Y-124717380D01*
X132779047Y-125669761D02*
X132874285Y-125717380D01*
X133064761Y-125717380D01*
X133160000Y-125669761D01*
X133207619Y-125622142D01*
X133255238Y-125526904D01*
X133255238Y-125241190D01*
X133207619Y-125145952D01*
X133160000Y-125098333D01*
X133064761Y-125050714D01*
X132874285Y-125050714D01*
X132779047Y-125098333D01*
X132160000Y-125717380D02*
X132255238Y-125669761D01*
X132302857Y-125622142D01*
X132350476Y-125526904D01*
X132350476Y-125241190D01*
X132302857Y-125145952D01*
X132255238Y-125098333D01*
X132160000Y-125050714D01*
X132017142Y-125050714D01*
X131921904Y-125098333D01*
X131874285Y-125145952D01*
X131826666Y-125241190D01*
X131826666Y-125526904D01*
X131874285Y-125622142D01*
X131921904Y-125669761D01*
X132017142Y-125717380D01*
X132160000Y-125717380D01*
X131398095Y-125622142D02*
X131350476Y-125669761D01*
X131398095Y-125717380D01*
X131445714Y-125669761D01*
X131398095Y-125622142D01*
X131398095Y-125717380D01*
X130207619Y-124812619D02*
X130160000Y-124765000D01*
X130064761Y-124717380D01*
X129826666Y-124717380D01*
X129731428Y-124765000D01*
X129683809Y-124812619D01*
X129636190Y-124907857D01*
X129636190Y-125003095D01*
X129683809Y-125145952D01*
X130255238Y-125717380D01*
X129636190Y-125717380D01*
X129017142Y-124717380D02*
X128921904Y-124717380D01*
X128826666Y-124765000D01*
X128779047Y-124812619D01*
X128731428Y-124907857D01*
X128683809Y-125098333D01*
X128683809Y-125336428D01*
X128731428Y-125526904D01*
X128779047Y-125622142D01*
X128826666Y-125669761D01*
X128921904Y-125717380D01*
X129017142Y-125717380D01*
X129112380Y-125669761D01*
X129160000Y-125622142D01*
X129207619Y-125526904D01*
X129255238Y-125336428D01*
X129255238Y-125098333D01*
X129207619Y-124907857D01*
X129160000Y-124812619D01*
X129112380Y-124765000D01*
X129017142Y-124717380D01*
X128302857Y-124812619D02*
X128255238Y-124765000D01*
X128160000Y-124717380D01*
X127921904Y-124717380D01*
X127826666Y-124765000D01*
X127779047Y-124812619D01*
X127731428Y-124907857D01*
X127731428Y-125003095D01*
X127779047Y-125145952D01*
X128350476Y-125717380D01*
X127731428Y-125717380D01*
X127350476Y-124812619D02*
X127302857Y-124765000D01*
X127207619Y-124717380D01*
X126969523Y-124717380D01*
X126874285Y-124765000D01*
X126826666Y-124812619D01*
X126779047Y-124907857D01*
X126779047Y-125003095D01*
X126826666Y-125145952D01*
X127398095Y-125717380D01*
X126779047Y-125717380D01*
M02*
