%TF.GenerationSoftware,KiCad,Pcbnew,(6.0.2)*%
%TF.CreationDate,2022-02-22T00:14:35+01:00*%
%TF.ProjectId,fondo,666f6e64-6f2e-46b6-9963-61645f706362,rev?*%
%TF.SameCoordinates,Original*%
%TF.FileFunction,Legend,Top*%
%TF.FilePolarity,Positive*%
%FSLAX46Y46*%
G04 Gerber Fmt 4.6, Leading zero omitted, Abs format (unit mm)*
G04 Created by KiCad (PCBNEW (6.0.2)) date 2022-02-22 00:14:35*
%MOMM*%
%LPD*%
G01*
G04 APERTURE LIST*
%ADD10C,0.150000*%
%ADD11C,0.120000*%
G04 APERTURE END LIST*
D10*
%TO.C,J0*%
X168792380Y-110711694D02*
X169506666Y-110711694D01*
X169649523Y-110759313D01*
X169744761Y-110854551D01*
X169792380Y-110997408D01*
X169792380Y-111092646D01*
X168792380Y-110045027D02*
X168792380Y-109949789D01*
X168840000Y-109854551D01*
X168887619Y-109806932D01*
X168982857Y-109759313D01*
X169173333Y-109711694D01*
X169411428Y-109711694D01*
X169601904Y-109759313D01*
X169697142Y-109806932D01*
X169744761Y-109854551D01*
X169792380Y-109949789D01*
X169792380Y-110045027D01*
X169744761Y-110140265D01*
X169697142Y-110187884D01*
X169601904Y-110235503D01*
X169411428Y-110283122D01*
X169173333Y-110283122D01*
X168982857Y-110235503D01*
X168887619Y-110187884D01*
X168840000Y-110140265D01*
X168792380Y-110045027D01*
%TO.C,U3*%
X145298095Y-108750741D02*
X145298095Y-109560265D01*
X145345714Y-109655503D01*
X145393333Y-109703122D01*
X145488571Y-109750741D01*
X145679047Y-109750741D01*
X145774285Y-109703122D01*
X145821904Y-109655503D01*
X145869523Y-109560265D01*
X145869523Y-108750741D01*
X146250476Y-108750741D02*
X146869523Y-108750741D01*
X146536190Y-109131694D01*
X146679047Y-109131694D01*
X146774285Y-109179313D01*
X146821904Y-109226932D01*
X146869523Y-109322170D01*
X146869523Y-109560265D01*
X146821904Y-109655503D01*
X146774285Y-109703122D01*
X146679047Y-109750741D01*
X146393333Y-109750741D01*
X146298095Y-109703122D01*
X146250476Y-109655503D01*
%TO.C,H4*%
X175768095Y-131130741D02*
X175768095Y-130130741D01*
X175768095Y-130606932D02*
X176339523Y-130606932D01*
X176339523Y-131130741D02*
X176339523Y-130130741D01*
X177244285Y-130464075D02*
X177244285Y-131130741D01*
X177006190Y-130083122D02*
X176768095Y-130797408D01*
X177387142Y-130797408D01*
%TO.C,R3*%
X133183333Y-74140741D02*
X132850000Y-73664551D01*
X132611904Y-74140741D02*
X132611904Y-73140741D01*
X132992857Y-73140741D01*
X133088095Y-73188361D01*
X133135714Y-73235980D01*
X133183333Y-73331218D01*
X133183333Y-73474075D01*
X133135714Y-73569313D01*
X133088095Y-73616932D01*
X132992857Y-73664551D01*
X132611904Y-73664551D01*
X133516666Y-73140741D02*
X134135714Y-73140741D01*
X133802380Y-73521694D01*
X133945238Y-73521694D01*
X134040476Y-73569313D01*
X134088095Y-73616932D01*
X134135714Y-73712170D01*
X134135714Y-73950265D01*
X134088095Y-74045503D01*
X134040476Y-74093122D01*
X133945238Y-74140741D01*
X133659523Y-74140741D01*
X133564285Y-74093122D01*
X133516666Y-74045503D01*
%TO.C,J6*%
X133021166Y-128215741D02*
X133021166Y-128930027D01*
X132973547Y-129072884D01*
X132878309Y-129168122D01*
X132735452Y-129215741D01*
X132640214Y-129215741D01*
X133925928Y-128215741D02*
X133735452Y-128215741D01*
X133640214Y-128263361D01*
X133592595Y-128310980D01*
X133497357Y-128453837D01*
X133449738Y-128644313D01*
X133449738Y-129025265D01*
X133497357Y-129120503D01*
X133544976Y-129168122D01*
X133640214Y-129215741D01*
X133830690Y-129215741D01*
X133925928Y-129168122D01*
X133973547Y-129120503D01*
X134021166Y-129025265D01*
X134021166Y-128787170D01*
X133973547Y-128691932D01*
X133925928Y-128644313D01*
X133830690Y-128596694D01*
X133640214Y-128596694D01*
X133544976Y-128644313D01*
X133497357Y-128691932D01*
X133449738Y-128787170D01*
%TO.C,Q1*%
X157384761Y-118765980D02*
X157289523Y-118718361D01*
X157194285Y-118623122D01*
X157051428Y-118480265D01*
X156956190Y-118432646D01*
X156860952Y-118432646D01*
X156908571Y-118670741D02*
X156813333Y-118623122D01*
X156718095Y-118527884D01*
X156670476Y-118337408D01*
X156670476Y-118004075D01*
X156718095Y-117813599D01*
X156813333Y-117718361D01*
X156908571Y-117670741D01*
X157099047Y-117670741D01*
X157194285Y-117718361D01*
X157289523Y-117813599D01*
X157337142Y-118004075D01*
X157337142Y-118337408D01*
X157289523Y-118527884D01*
X157194285Y-118623122D01*
X157099047Y-118670741D01*
X156908571Y-118670741D01*
X158289523Y-118670741D02*
X157718095Y-118670741D01*
X158003809Y-118670741D02*
X158003809Y-117670741D01*
X157908571Y-117813599D01*
X157813333Y-117908837D01*
X157718095Y-117956456D01*
%TO.C,H2*%
X173228095Y-51252380D02*
X173228095Y-50252380D01*
X173228095Y-50728571D02*
X173799523Y-50728571D01*
X173799523Y-51252380D02*
X173799523Y-50252380D01*
X174228095Y-50347619D02*
X174275714Y-50300000D01*
X174370952Y-50252380D01*
X174609047Y-50252380D01*
X174704285Y-50300000D01*
X174751904Y-50347619D01*
X174799523Y-50442857D01*
X174799523Y-50538095D01*
X174751904Y-50680952D01*
X174180476Y-51252380D01*
X174799523Y-51252380D01*
%TO.C,R9*%
X133183333Y-86670741D02*
X132850000Y-86194551D01*
X132611904Y-86670741D02*
X132611904Y-85670741D01*
X132992857Y-85670741D01*
X133088095Y-85718361D01*
X133135714Y-85765980D01*
X133183333Y-85861218D01*
X133183333Y-86004075D01*
X133135714Y-86099313D01*
X133088095Y-86146932D01*
X132992857Y-86194551D01*
X132611904Y-86194551D01*
X133659523Y-86670741D02*
X133850000Y-86670741D01*
X133945238Y-86623122D01*
X133992857Y-86575503D01*
X134088095Y-86432646D01*
X134135714Y-86242170D01*
X134135714Y-85861218D01*
X134088095Y-85765980D01*
X134040476Y-85718361D01*
X133945238Y-85670741D01*
X133754761Y-85670741D01*
X133659523Y-85718361D01*
X133611904Y-85765980D01*
X133564285Y-85861218D01*
X133564285Y-86099313D01*
X133611904Y-86194551D01*
X133659523Y-86242170D01*
X133754761Y-86289789D01*
X133945238Y-86289789D01*
X134040476Y-86242170D01*
X134088095Y-86194551D01*
X134135714Y-86099313D01*
%TO.C,R11*%
X132707142Y-97000741D02*
X132373809Y-96524551D01*
X132135714Y-97000741D02*
X132135714Y-96000741D01*
X132516666Y-96000741D01*
X132611904Y-96048361D01*
X132659523Y-96095980D01*
X132707142Y-96191218D01*
X132707142Y-96334075D01*
X132659523Y-96429313D01*
X132611904Y-96476932D01*
X132516666Y-96524551D01*
X132135714Y-96524551D01*
X133659523Y-97000741D02*
X133088095Y-97000741D01*
X133373809Y-97000741D02*
X133373809Y-96000741D01*
X133278571Y-96143599D01*
X133183333Y-96238837D01*
X133088095Y-96286456D01*
X134611904Y-97000741D02*
X134040476Y-97000741D01*
X134326190Y-97000741D02*
X134326190Y-96000741D01*
X134230952Y-96143599D01*
X134135714Y-96238837D01*
X134040476Y-96286456D01*
%TO.C,Q2*%
X173894761Y-119927619D02*
X173799523Y-119880000D01*
X173704285Y-119784761D01*
X173561428Y-119641904D01*
X173466190Y-119594285D01*
X173370952Y-119594285D01*
X173418571Y-119832380D02*
X173323333Y-119784761D01*
X173228095Y-119689523D01*
X173180476Y-119499047D01*
X173180476Y-119165714D01*
X173228095Y-118975238D01*
X173323333Y-118880000D01*
X173418571Y-118832380D01*
X173609047Y-118832380D01*
X173704285Y-118880000D01*
X173799523Y-118975238D01*
X173847142Y-119165714D01*
X173847142Y-119499047D01*
X173799523Y-119689523D01*
X173704285Y-119784761D01*
X173609047Y-119832380D01*
X173418571Y-119832380D01*
X174228095Y-118927619D02*
X174275714Y-118880000D01*
X174370952Y-118832380D01*
X174609047Y-118832380D01*
X174704285Y-118880000D01*
X174751904Y-118927619D01*
X174799523Y-119022857D01*
X174799523Y-119118095D01*
X174751904Y-119260952D01*
X174180476Y-119832380D01*
X174799523Y-119832380D01*
%TO.C,J5*%
X145716166Y-128215741D02*
X145716166Y-128930027D01*
X145668547Y-129072884D01*
X145573309Y-129168122D01*
X145430452Y-129215741D01*
X145335214Y-129215741D01*
X146668547Y-128215741D02*
X146192357Y-128215741D01*
X146144738Y-128691932D01*
X146192357Y-128644313D01*
X146287595Y-128596694D01*
X146525690Y-128596694D01*
X146620928Y-128644313D01*
X146668547Y-128691932D01*
X146716166Y-128787170D01*
X146716166Y-129025265D01*
X146668547Y-129120503D01*
X146620928Y-129168122D01*
X146525690Y-129215741D01*
X146287595Y-129215741D01*
X146192357Y-129168122D01*
X146144738Y-129120503D01*
%TO.C,R4*%
X133183333Y-79220741D02*
X132850000Y-78744551D01*
X132611904Y-79220741D02*
X132611904Y-78220741D01*
X132992857Y-78220741D01*
X133088095Y-78268361D01*
X133135714Y-78315980D01*
X133183333Y-78411218D01*
X133183333Y-78554075D01*
X133135714Y-78649313D01*
X133088095Y-78696932D01*
X132992857Y-78744551D01*
X132611904Y-78744551D01*
X134040476Y-78554075D02*
X134040476Y-79220741D01*
X133802380Y-78173122D02*
X133564285Y-78887408D01*
X134183333Y-78887408D01*
%TO.C,R15*%
X132707142Y-119520741D02*
X132373809Y-119044551D01*
X132135714Y-119520741D02*
X132135714Y-118520741D01*
X132516666Y-118520741D01*
X132611904Y-118568361D01*
X132659523Y-118615980D01*
X132707142Y-118711218D01*
X132707142Y-118854075D01*
X132659523Y-118949313D01*
X132611904Y-118996932D01*
X132516666Y-119044551D01*
X132135714Y-119044551D01*
X133659523Y-119520741D02*
X133088095Y-119520741D01*
X133373809Y-119520741D02*
X133373809Y-118520741D01*
X133278571Y-118663599D01*
X133183333Y-118758837D01*
X133088095Y-118806456D01*
X134564285Y-118520741D02*
X134088095Y-118520741D01*
X134040476Y-118996932D01*
X134088095Y-118949313D01*
X134183333Y-118901694D01*
X134421428Y-118901694D01*
X134516666Y-118949313D01*
X134564285Y-118996932D01*
X134611904Y-119092170D01*
X134611904Y-119330265D01*
X134564285Y-119425503D01*
X134516666Y-119473122D01*
X134421428Y-119520741D01*
X134183333Y-119520741D01*
X134088095Y-119473122D01*
X134040476Y-119425503D01*
%TO.C,R1*%
X133183333Y-63980741D02*
X132850000Y-63504551D01*
X132611904Y-63980741D02*
X132611904Y-62980741D01*
X132992857Y-62980741D01*
X133088095Y-63028361D01*
X133135714Y-63075980D01*
X133183333Y-63171218D01*
X133183333Y-63314075D01*
X133135714Y-63409313D01*
X133088095Y-63456932D01*
X132992857Y-63504551D01*
X132611904Y-63504551D01*
X134135714Y-63980741D02*
X133564285Y-63980741D01*
X133850000Y-63980741D02*
X133850000Y-62980741D01*
X133754761Y-63123599D01*
X133659523Y-63218837D01*
X133564285Y-63266456D01*
%TO.C,J2B1*%
X132670976Y-55911808D02*
X132670976Y-56626094D01*
X132623357Y-56768951D01*
X132528119Y-56864189D01*
X132385261Y-56911808D01*
X132290023Y-56911808D01*
X133099547Y-56007047D02*
X133147166Y-55959428D01*
X133242404Y-55911808D01*
X133480500Y-55911808D01*
X133575738Y-55959428D01*
X133623357Y-56007047D01*
X133670976Y-56102285D01*
X133670976Y-56197523D01*
X133623357Y-56340380D01*
X133051928Y-56911808D01*
X133670976Y-56911808D01*
X134432880Y-56387999D02*
X134575738Y-56435618D01*
X134623357Y-56483237D01*
X134670976Y-56578475D01*
X134670976Y-56721332D01*
X134623357Y-56816570D01*
X134575738Y-56864189D01*
X134480500Y-56911808D01*
X134099547Y-56911808D01*
X134099547Y-55911808D01*
X134432880Y-55911808D01*
X134528119Y-55959428D01*
X134575738Y-56007047D01*
X134623357Y-56102285D01*
X134623357Y-56197523D01*
X134575738Y-56292761D01*
X134528119Y-56340380D01*
X134432880Y-56387999D01*
X134099547Y-56387999D01*
X135623357Y-56911808D02*
X135051928Y-56911808D01*
X135337642Y-56911808D02*
X135337642Y-55911808D01*
X135242404Y-56054666D01*
X135147166Y-56149904D01*
X135051928Y-56197523D01*
%TO.C,R2*%
X133183333Y-69060741D02*
X132850000Y-68584551D01*
X132611904Y-69060741D02*
X132611904Y-68060741D01*
X132992857Y-68060741D01*
X133088095Y-68108361D01*
X133135714Y-68155980D01*
X133183333Y-68251218D01*
X133183333Y-68394075D01*
X133135714Y-68489313D01*
X133088095Y-68536932D01*
X132992857Y-68584551D01*
X132611904Y-68584551D01*
X133564285Y-68155980D02*
X133611904Y-68108361D01*
X133707142Y-68060741D01*
X133945238Y-68060741D01*
X134040476Y-68108361D01*
X134088095Y-68155980D01*
X134135714Y-68251218D01*
X134135714Y-68346456D01*
X134088095Y-68489313D01*
X133516666Y-69060741D01*
X134135714Y-69060741D01*
%TO.C,R13*%
X158107142Y-86840741D02*
X157773809Y-86364551D01*
X157535714Y-86840741D02*
X157535714Y-85840741D01*
X157916666Y-85840741D01*
X158011904Y-85888361D01*
X158059523Y-85935980D01*
X158107142Y-86031218D01*
X158107142Y-86174075D01*
X158059523Y-86269313D01*
X158011904Y-86316932D01*
X157916666Y-86364551D01*
X157535714Y-86364551D01*
X159059523Y-86840741D02*
X158488095Y-86840741D01*
X158773809Y-86840741D02*
X158773809Y-85840741D01*
X158678571Y-85983599D01*
X158583333Y-86078837D01*
X158488095Y-86126456D01*
X159392857Y-85840741D02*
X160011904Y-85840741D01*
X159678571Y-86221694D01*
X159821428Y-86221694D01*
X159916666Y-86269313D01*
X159964285Y-86316932D01*
X160011904Y-86412170D01*
X160011904Y-86650265D01*
X159964285Y-86745503D01*
X159916666Y-86793122D01*
X159821428Y-86840741D01*
X159535714Y-86840741D01*
X159440476Y-86793122D01*
X159392857Y-86745503D01*
%TO.C,J3B1*%
X168362380Y-82589523D02*
X169076666Y-82589523D01*
X169219523Y-82637142D01*
X169314761Y-82732380D01*
X169362380Y-82875238D01*
X169362380Y-82970476D01*
X168362380Y-82208571D02*
X168362380Y-81589523D01*
X168743333Y-81922857D01*
X168743333Y-81780000D01*
X168790952Y-81684761D01*
X168838571Y-81637142D01*
X168933809Y-81589523D01*
X169171904Y-81589523D01*
X169267142Y-81637142D01*
X169314761Y-81684761D01*
X169362380Y-81780000D01*
X169362380Y-82065714D01*
X169314761Y-82160952D01*
X169267142Y-82208571D01*
X168838571Y-80827619D02*
X168886190Y-80684761D01*
X168933809Y-80637142D01*
X169029047Y-80589523D01*
X169171904Y-80589523D01*
X169267142Y-80637142D01*
X169314761Y-80684761D01*
X169362380Y-80780000D01*
X169362380Y-81160952D01*
X168362380Y-81160952D01*
X168362380Y-80827619D01*
X168410000Y-80732380D01*
X168457619Y-80684761D01*
X168552857Y-80637142D01*
X168648095Y-80637142D01*
X168743333Y-80684761D01*
X168790952Y-80732380D01*
X168838571Y-80827619D01*
X168838571Y-81160952D01*
X169362380Y-79637142D02*
X169362380Y-80208571D01*
X169362380Y-79922857D02*
X168362380Y-79922857D01*
X168505238Y-80018095D01*
X168600476Y-80113333D01*
X168648095Y-80208571D01*
%TO.C,J4*%
X120326166Y-128215741D02*
X120326166Y-128930027D01*
X120278547Y-129072884D01*
X120183309Y-129168122D01*
X120040452Y-129215741D01*
X119945214Y-129215741D01*
X121230928Y-128549075D02*
X121230928Y-129215741D01*
X120992833Y-128168122D02*
X120754738Y-128882408D01*
X121373785Y-128882408D01*
%TO.C,J1C1*%
X111922380Y-86257884D02*
X112636666Y-86257884D01*
X112779523Y-86305503D01*
X112874761Y-86400741D01*
X112922380Y-86543599D01*
X112922380Y-86638837D01*
X112922380Y-85257884D02*
X112922380Y-85829313D01*
X112922380Y-85543599D02*
X111922380Y-85543599D01*
X112065238Y-85638837D01*
X112160476Y-85734075D01*
X112208095Y-85829313D01*
X112827142Y-84257884D02*
X112874761Y-84305503D01*
X112922380Y-84448361D01*
X112922380Y-84543599D01*
X112874761Y-84686456D01*
X112779523Y-84781694D01*
X112684285Y-84829313D01*
X112493809Y-84876932D01*
X112350952Y-84876932D01*
X112160476Y-84829313D01*
X112065238Y-84781694D01*
X111970000Y-84686456D01*
X111922380Y-84543599D01*
X111922380Y-84448361D01*
X111970000Y-84305503D01*
X112017619Y-84257884D01*
X112922380Y-83305503D02*
X112922380Y-83876932D01*
X112922380Y-83591218D02*
X111922380Y-83591218D01*
X112065238Y-83686456D01*
X112160476Y-83781694D01*
X112208095Y-83876932D01*
%TO.C,R17*%
X154292380Y-131311218D02*
X153816190Y-131644551D01*
X154292380Y-131882646D02*
X153292380Y-131882646D01*
X153292380Y-131501694D01*
X153340000Y-131406456D01*
X153387619Y-131358837D01*
X153482857Y-131311218D01*
X153625714Y-131311218D01*
X153720952Y-131358837D01*
X153768571Y-131406456D01*
X153816190Y-131501694D01*
X153816190Y-131882646D01*
X154292380Y-130358837D02*
X154292380Y-130930265D01*
X154292380Y-130644551D02*
X153292380Y-130644551D01*
X153435238Y-130739789D01*
X153530476Y-130835027D01*
X153578095Y-130930265D01*
X153292380Y-130025503D02*
X153292380Y-129358837D01*
X154292380Y-129787408D01*
%TO.C,H1*%
X114808095Y-51252380D02*
X114808095Y-50252380D01*
X114808095Y-50728571D02*
X115379523Y-50728571D01*
X115379523Y-51252380D02*
X115379523Y-50252380D01*
X116379523Y-51252380D02*
X115808095Y-51252380D01*
X116093809Y-51252380D02*
X116093809Y-50252380D01*
X115998571Y-50395238D01*
X115903333Y-50490476D01*
X115808095Y-50538095D01*
%TO.C,U2*%
X142758095Y-83355741D02*
X142758095Y-84165265D01*
X142805714Y-84260503D01*
X142853333Y-84308122D01*
X142948571Y-84355741D01*
X143139047Y-84355741D01*
X143234285Y-84308122D01*
X143281904Y-84260503D01*
X143329523Y-84165265D01*
X143329523Y-83355741D01*
X143758095Y-83450980D02*
X143805714Y-83403361D01*
X143900952Y-83355741D01*
X144139047Y-83355741D01*
X144234285Y-83403361D01*
X144281904Y-83450980D01*
X144329523Y-83546218D01*
X144329523Y-83641456D01*
X144281904Y-83784313D01*
X143710476Y-84355741D01*
X144329523Y-84355741D01*
%TO.C,R12*%
X132707142Y-102080741D02*
X132373809Y-101604551D01*
X132135714Y-102080741D02*
X132135714Y-101080741D01*
X132516666Y-101080741D01*
X132611904Y-101128361D01*
X132659523Y-101175980D01*
X132707142Y-101271218D01*
X132707142Y-101414075D01*
X132659523Y-101509313D01*
X132611904Y-101556932D01*
X132516666Y-101604551D01*
X132135714Y-101604551D01*
X133659523Y-102080741D02*
X133088095Y-102080741D01*
X133373809Y-102080741D02*
X133373809Y-101080741D01*
X133278571Y-101223599D01*
X133183333Y-101318837D01*
X133088095Y-101366456D01*
X134040476Y-101175980D02*
X134088095Y-101128361D01*
X134183333Y-101080741D01*
X134421428Y-101080741D01*
X134516666Y-101128361D01*
X134564285Y-101175980D01*
X134611904Y-101271218D01*
X134611904Y-101366456D01*
X134564285Y-101509313D01*
X133992857Y-102080741D01*
X134611904Y-102080741D01*
%TO.C,R20*%
X166822380Y-124961218D02*
X166346190Y-125294551D01*
X166822380Y-125532646D02*
X165822380Y-125532646D01*
X165822380Y-125151694D01*
X165870000Y-125056456D01*
X165917619Y-125008837D01*
X166012857Y-124961218D01*
X166155714Y-124961218D01*
X166250952Y-125008837D01*
X166298571Y-125056456D01*
X166346190Y-125151694D01*
X166346190Y-125532646D01*
X165917619Y-124580265D02*
X165870000Y-124532646D01*
X165822380Y-124437408D01*
X165822380Y-124199313D01*
X165870000Y-124104075D01*
X165917619Y-124056456D01*
X166012857Y-124008837D01*
X166108095Y-124008837D01*
X166250952Y-124056456D01*
X166822380Y-124627884D01*
X166822380Y-124008837D01*
X165822380Y-123389789D02*
X165822380Y-123294551D01*
X165870000Y-123199313D01*
X165917619Y-123151694D01*
X166012857Y-123104075D01*
X166203333Y-123056456D01*
X166441428Y-123056456D01*
X166631904Y-123104075D01*
X166727142Y-123151694D01*
X166774761Y-123199313D01*
X166822380Y-123294551D01*
X166822380Y-123389789D01*
X166774761Y-123485027D01*
X166727142Y-123532646D01*
X166631904Y-123580265D01*
X166441428Y-123627884D01*
X166203333Y-123627884D01*
X166012857Y-123580265D01*
X165917619Y-123532646D01*
X165870000Y-123485027D01*
X165822380Y-123389789D01*
%TO.C,R10*%
X132707142Y-91920741D02*
X132373809Y-91444551D01*
X132135714Y-91920741D02*
X132135714Y-90920741D01*
X132516666Y-90920741D01*
X132611904Y-90968361D01*
X132659523Y-91015980D01*
X132707142Y-91111218D01*
X132707142Y-91254075D01*
X132659523Y-91349313D01*
X132611904Y-91396932D01*
X132516666Y-91444551D01*
X132135714Y-91444551D01*
X133659523Y-91920741D02*
X133088095Y-91920741D01*
X133373809Y-91920741D02*
X133373809Y-90920741D01*
X133278571Y-91063599D01*
X133183333Y-91158837D01*
X133088095Y-91206456D01*
X134278571Y-90920741D02*
X134373809Y-90920741D01*
X134469047Y-90968361D01*
X134516666Y-91015980D01*
X134564285Y-91111218D01*
X134611904Y-91301694D01*
X134611904Y-91539789D01*
X134564285Y-91730265D01*
X134516666Y-91825503D01*
X134469047Y-91873122D01*
X134373809Y-91920741D01*
X134278571Y-91920741D01*
X134183333Y-91873122D01*
X134135714Y-91825503D01*
X134088095Y-91730265D01*
X134040476Y-91539789D01*
X134040476Y-91301694D01*
X134088095Y-91111218D01*
X134135714Y-91015980D01*
X134183333Y-90968361D01*
X134278571Y-90920741D01*
%TO.C,J7*%
X168362380Y-67501694D02*
X169076666Y-67501694D01*
X169219523Y-67549313D01*
X169314761Y-67644551D01*
X169362380Y-67787408D01*
X169362380Y-67882646D01*
X168362380Y-67120741D02*
X168362380Y-66454075D01*
X169362380Y-66882646D01*
%TO.C,R6*%
X158583333Y-69060741D02*
X158250000Y-68584551D01*
X158011904Y-69060741D02*
X158011904Y-68060741D01*
X158392857Y-68060741D01*
X158488095Y-68108361D01*
X158535714Y-68155980D01*
X158583333Y-68251218D01*
X158583333Y-68394075D01*
X158535714Y-68489313D01*
X158488095Y-68536932D01*
X158392857Y-68584551D01*
X158011904Y-68584551D01*
X159440476Y-68060741D02*
X159250000Y-68060741D01*
X159154761Y-68108361D01*
X159107142Y-68155980D01*
X159011904Y-68298837D01*
X158964285Y-68489313D01*
X158964285Y-68870265D01*
X159011904Y-68965503D01*
X159059523Y-69013122D01*
X159154761Y-69060741D01*
X159345238Y-69060741D01*
X159440476Y-69013122D01*
X159488095Y-68965503D01*
X159535714Y-68870265D01*
X159535714Y-68632170D01*
X159488095Y-68536932D01*
X159440476Y-68489313D01*
X159345238Y-68441694D01*
X159154761Y-68441694D01*
X159059523Y-68489313D01*
X159011904Y-68536932D01*
X158964285Y-68632170D01*
%TO.C,J2A1*%
X121935864Y-55917721D02*
X121935864Y-56632007D01*
X121888245Y-56774864D01*
X121793007Y-56870102D01*
X121650150Y-56917721D01*
X121554912Y-56917721D01*
X122364436Y-56012960D02*
X122412055Y-55965341D01*
X122507293Y-55917721D01*
X122745388Y-55917721D01*
X122840626Y-55965341D01*
X122888245Y-56012960D01*
X122935864Y-56108198D01*
X122935864Y-56203436D01*
X122888245Y-56346293D01*
X122316817Y-56917721D01*
X122935864Y-56917721D01*
X123316817Y-56632007D02*
X123793007Y-56632007D01*
X123221579Y-56917721D02*
X123554912Y-55917721D01*
X123888245Y-56917721D01*
X124745388Y-56917721D02*
X124173960Y-56917721D01*
X124459674Y-56917721D02*
X124459674Y-55917721D01*
X124364436Y-56060579D01*
X124269198Y-56155817D01*
X124173960Y-56203436D01*
%TO.C,R14*%
X158107142Y-91920741D02*
X157773809Y-91444551D01*
X157535714Y-91920741D02*
X157535714Y-90920741D01*
X157916666Y-90920741D01*
X158011904Y-90968361D01*
X158059523Y-91015980D01*
X158107142Y-91111218D01*
X158107142Y-91254075D01*
X158059523Y-91349313D01*
X158011904Y-91396932D01*
X157916666Y-91444551D01*
X157535714Y-91444551D01*
X159059523Y-91920741D02*
X158488095Y-91920741D01*
X158773809Y-91920741D02*
X158773809Y-90920741D01*
X158678571Y-91063599D01*
X158583333Y-91158837D01*
X158488095Y-91206456D01*
X159916666Y-91254075D02*
X159916666Y-91920741D01*
X159678571Y-90873122D02*
X159440476Y-91587408D01*
X160059523Y-91587408D01*
%TO.C,J2D1*%
X158075476Y-55825741D02*
X158075476Y-56540027D01*
X158027857Y-56682884D01*
X157932619Y-56778122D01*
X157789761Y-56825741D01*
X157694523Y-56825741D01*
X158504047Y-55920980D02*
X158551666Y-55873361D01*
X158646904Y-55825741D01*
X158885000Y-55825741D01*
X158980238Y-55873361D01*
X159027857Y-55920980D01*
X159075476Y-56016218D01*
X159075476Y-56111456D01*
X159027857Y-56254313D01*
X158456428Y-56825741D01*
X159075476Y-56825741D01*
X159504047Y-56825741D02*
X159504047Y-55825741D01*
X159742142Y-55825741D01*
X159885000Y-55873361D01*
X159980238Y-55968599D01*
X160027857Y-56063837D01*
X160075476Y-56254313D01*
X160075476Y-56397170D01*
X160027857Y-56587646D01*
X159980238Y-56682884D01*
X159885000Y-56778122D01*
X159742142Y-56825741D01*
X159504047Y-56825741D01*
X161027857Y-56825741D02*
X160456428Y-56825741D01*
X160742142Y-56825741D02*
X160742142Y-55825741D01*
X160646904Y-55968599D01*
X160551666Y-56063837D01*
X160456428Y-56111456D01*
%TO.C,J1D1*%
X111922380Y-72292884D02*
X112636666Y-72292884D01*
X112779523Y-72340503D01*
X112874761Y-72435741D01*
X112922380Y-72578599D01*
X112922380Y-72673837D01*
X112922380Y-71292884D02*
X112922380Y-71864313D01*
X112922380Y-71578599D02*
X111922380Y-71578599D01*
X112065238Y-71673837D01*
X112160476Y-71769075D01*
X112208095Y-71864313D01*
X112922380Y-70864313D02*
X111922380Y-70864313D01*
X111922380Y-70626218D01*
X111970000Y-70483361D01*
X112065238Y-70388122D01*
X112160476Y-70340503D01*
X112350952Y-70292884D01*
X112493809Y-70292884D01*
X112684285Y-70340503D01*
X112779523Y-70388122D01*
X112874761Y-70483361D01*
X112922380Y-70626218D01*
X112922380Y-70864313D01*
X112922380Y-69340503D02*
X112922380Y-69911932D01*
X112922380Y-69626218D02*
X111922380Y-69626218D01*
X112065238Y-69721456D01*
X112160476Y-69816694D01*
X112208095Y-69911932D01*
%TO.C,J2C1*%
X146010476Y-55825741D02*
X146010476Y-56540027D01*
X145962857Y-56682884D01*
X145867619Y-56778122D01*
X145724761Y-56825741D01*
X145629523Y-56825741D01*
X146439047Y-55920980D02*
X146486666Y-55873361D01*
X146581904Y-55825741D01*
X146820000Y-55825741D01*
X146915238Y-55873361D01*
X146962857Y-55920980D01*
X147010476Y-56016218D01*
X147010476Y-56111456D01*
X146962857Y-56254313D01*
X146391428Y-56825741D01*
X147010476Y-56825741D01*
X148010476Y-56730503D02*
X147962857Y-56778122D01*
X147820000Y-56825741D01*
X147724761Y-56825741D01*
X147581904Y-56778122D01*
X147486666Y-56682884D01*
X147439047Y-56587646D01*
X147391428Y-56397170D01*
X147391428Y-56254313D01*
X147439047Y-56063837D01*
X147486666Y-55968599D01*
X147581904Y-55873361D01*
X147724761Y-55825741D01*
X147820000Y-55825741D01*
X147962857Y-55873361D01*
X148010476Y-55920980D01*
X148962857Y-56825741D02*
X148391428Y-56825741D01*
X148677142Y-56825741D02*
X148677142Y-55825741D01*
X148581904Y-55968599D01*
X148486666Y-56063837D01*
X148391428Y-56111456D01*
%TO.C,R19*%
X169532380Y-131311218D02*
X169056190Y-131644551D01*
X169532380Y-131882646D02*
X168532380Y-131882646D01*
X168532380Y-131501694D01*
X168580000Y-131406456D01*
X168627619Y-131358837D01*
X168722857Y-131311218D01*
X168865714Y-131311218D01*
X168960952Y-131358837D01*
X169008571Y-131406456D01*
X169056190Y-131501694D01*
X169056190Y-131882646D01*
X169532380Y-130358837D02*
X169532380Y-130930265D01*
X169532380Y-130644551D02*
X168532380Y-130644551D01*
X168675238Y-130739789D01*
X168770476Y-130835027D01*
X168818095Y-130930265D01*
X169532380Y-129882646D02*
X169532380Y-129692170D01*
X169484761Y-129596932D01*
X169437142Y-129549313D01*
X169294285Y-129454075D01*
X169103809Y-129406456D01*
X168722857Y-129406456D01*
X168627619Y-129454075D01*
X168580000Y-129501694D01*
X168532380Y-129596932D01*
X168532380Y-129787408D01*
X168580000Y-129882646D01*
X168627619Y-129930265D01*
X168722857Y-129977884D01*
X168960952Y-129977884D01*
X169056190Y-129930265D01*
X169103809Y-129882646D01*
X169151428Y-129787408D01*
X169151428Y-129596932D01*
X169103809Y-129501694D01*
X169056190Y-129454075D01*
X168960952Y-129406456D01*
%TO.C,R18*%
X163012380Y-124961218D02*
X162536190Y-125294551D01*
X163012380Y-125532646D02*
X162012380Y-125532646D01*
X162012380Y-125151694D01*
X162060000Y-125056456D01*
X162107619Y-125008837D01*
X162202857Y-124961218D01*
X162345714Y-124961218D01*
X162440952Y-125008837D01*
X162488571Y-125056456D01*
X162536190Y-125151694D01*
X162536190Y-125532646D01*
X163012380Y-124008837D02*
X163012380Y-124580265D01*
X163012380Y-124294551D02*
X162012380Y-124294551D01*
X162155238Y-124389789D01*
X162250476Y-124485027D01*
X162298095Y-124580265D01*
X162440952Y-123437408D02*
X162393333Y-123532646D01*
X162345714Y-123580265D01*
X162250476Y-123627884D01*
X162202857Y-123627884D01*
X162107619Y-123580265D01*
X162060000Y-123532646D01*
X162012380Y-123437408D01*
X162012380Y-123246932D01*
X162060000Y-123151694D01*
X162107619Y-123104075D01*
X162202857Y-123056456D01*
X162250476Y-123056456D01*
X162345714Y-123104075D01*
X162393333Y-123151694D01*
X162440952Y-123246932D01*
X162440952Y-123437408D01*
X162488571Y-123532646D01*
X162536190Y-123580265D01*
X162631428Y-123627884D01*
X162821904Y-123627884D01*
X162917142Y-123580265D01*
X162964761Y-123532646D01*
X163012380Y-123437408D01*
X163012380Y-123246932D01*
X162964761Y-123151694D01*
X162917142Y-123104075D01*
X162821904Y-123056456D01*
X162631428Y-123056456D01*
X162536190Y-123104075D01*
X162488571Y-123151694D01*
X162440952Y-123246932D01*
%TO.C,U1*%
X145298095Y-60495741D02*
X145298095Y-61305265D01*
X145345714Y-61400503D01*
X145393333Y-61448122D01*
X145488571Y-61495741D01*
X145679047Y-61495741D01*
X145774285Y-61448122D01*
X145821904Y-61400503D01*
X145869523Y-61305265D01*
X145869523Y-60495741D01*
X146869523Y-61495741D02*
X146298095Y-61495741D01*
X146583809Y-61495741D02*
X146583809Y-60495741D01*
X146488571Y-60638599D01*
X146393333Y-60733837D01*
X146298095Y-60781456D01*
%TO.C,J3A1*%
X168362380Y-95076456D02*
X169076666Y-95076456D01*
X169219523Y-95124075D01*
X169314761Y-95219313D01*
X169362380Y-95362170D01*
X169362380Y-95457408D01*
X168362380Y-94695503D02*
X168362380Y-94076456D01*
X168743333Y-94409789D01*
X168743333Y-94266932D01*
X168790952Y-94171694D01*
X168838571Y-94124075D01*
X168933809Y-94076456D01*
X169171904Y-94076456D01*
X169267142Y-94124075D01*
X169314761Y-94171694D01*
X169362380Y-94266932D01*
X169362380Y-94552646D01*
X169314761Y-94647884D01*
X169267142Y-94695503D01*
X169076666Y-93695503D02*
X169076666Y-93219313D01*
X169362380Y-93790741D02*
X168362380Y-93457408D01*
X169362380Y-93124075D01*
X169362380Y-92266932D02*
X169362380Y-92838361D01*
X169362380Y-92552646D02*
X168362380Y-92552646D01*
X168505238Y-92647884D01*
X168600476Y-92743122D01*
X168648095Y-92838361D01*
%TO.C,J1B1*%
X111922380Y-101497884D02*
X112636666Y-101497884D01*
X112779523Y-101545503D01*
X112874761Y-101640741D01*
X112922380Y-101783599D01*
X112922380Y-101878837D01*
X112922380Y-100497884D02*
X112922380Y-101069313D01*
X112922380Y-100783599D02*
X111922380Y-100783599D01*
X112065238Y-100878837D01*
X112160476Y-100974075D01*
X112208095Y-101069313D01*
X112398571Y-99735980D02*
X112446190Y-99593122D01*
X112493809Y-99545503D01*
X112589047Y-99497884D01*
X112731904Y-99497884D01*
X112827142Y-99545503D01*
X112874761Y-99593122D01*
X112922380Y-99688361D01*
X112922380Y-100069313D01*
X111922380Y-100069313D01*
X111922380Y-99735980D01*
X111970000Y-99640741D01*
X112017619Y-99593122D01*
X112112857Y-99545503D01*
X112208095Y-99545503D01*
X112303333Y-99593122D01*
X112350952Y-99640741D01*
X112398571Y-99735980D01*
X112398571Y-100069313D01*
X112922380Y-98545503D02*
X112922380Y-99116932D01*
X112922380Y-98831218D02*
X111922380Y-98831218D01*
X112065238Y-98926456D01*
X112160476Y-99021694D01*
X112208095Y-99116932D01*
%TO.C,R16*%
X132707142Y-110970741D02*
X132373809Y-110494551D01*
X132135714Y-110970741D02*
X132135714Y-109970741D01*
X132516666Y-109970741D01*
X132611904Y-110018361D01*
X132659523Y-110065980D01*
X132707142Y-110161218D01*
X132707142Y-110304075D01*
X132659523Y-110399313D01*
X132611904Y-110446932D01*
X132516666Y-110494551D01*
X132135714Y-110494551D01*
X133659523Y-110970741D02*
X133088095Y-110970741D01*
X133373809Y-110970741D02*
X133373809Y-109970741D01*
X133278571Y-110113599D01*
X133183333Y-110208837D01*
X133088095Y-110256456D01*
X134516666Y-109970741D02*
X134326190Y-109970741D01*
X134230952Y-110018361D01*
X134183333Y-110065980D01*
X134088095Y-110208837D01*
X134040476Y-110399313D01*
X134040476Y-110780265D01*
X134088095Y-110875503D01*
X134135714Y-110923122D01*
X134230952Y-110970741D01*
X134421428Y-110970741D01*
X134516666Y-110923122D01*
X134564285Y-110875503D01*
X134611904Y-110780265D01*
X134611904Y-110542170D01*
X134564285Y-110446932D01*
X134516666Y-110399313D01*
X134421428Y-110351694D01*
X134230952Y-110351694D01*
X134135714Y-110399313D01*
X134088095Y-110446932D01*
X134040476Y-110542170D01*
%TO.C,R5*%
X158583333Y-63980741D02*
X158250000Y-63504551D01*
X158011904Y-63980741D02*
X158011904Y-62980741D01*
X158392857Y-62980741D01*
X158488095Y-63028361D01*
X158535714Y-63075980D01*
X158583333Y-63171218D01*
X158583333Y-63314075D01*
X158535714Y-63409313D01*
X158488095Y-63456932D01*
X158392857Y-63504551D01*
X158011904Y-63504551D01*
X159488095Y-62980741D02*
X159011904Y-62980741D01*
X158964285Y-63456932D01*
X159011904Y-63409313D01*
X159107142Y-63361694D01*
X159345238Y-63361694D01*
X159440476Y-63409313D01*
X159488095Y-63456932D01*
X159535714Y-63552170D01*
X159535714Y-63790265D01*
X159488095Y-63885503D01*
X159440476Y-63933122D01*
X159345238Y-63980741D01*
X159107142Y-63980741D01*
X159011904Y-63933122D01*
X158964285Y-63885503D01*
%TO.C,H3*%
X112268095Y-131130741D02*
X112268095Y-130130741D01*
X112268095Y-130606932D02*
X112839523Y-130606932D01*
X112839523Y-131130741D02*
X112839523Y-130130741D01*
X113220476Y-130130741D02*
X113839523Y-130130741D01*
X113506190Y-130511694D01*
X113649047Y-130511694D01*
X113744285Y-130559313D01*
X113791904Y-130606932D01*
X113839523Y-130702170D01*
X113839523Y-130940265D01*
X113791904Y-131035503D01*
X113744285Y-131083122D01*
X113649047Y-131130741D01*
X113363333Y-131130741D01*
X113268095Y-131083122D01*
X113220476Y-131035503D01*
%TO.C,R8*%
X158583333Y-79220741D02*
X158250000Y-78744551D01*
X158011904Y-79220741D02*
X158011904Y-78220741D01*
X158392857Y-78220741D01*
X158488095Y-78268361D01*
X158535714Y-78315980D01*
X158583333Y-78411218D01*
X158583333Y-78554075D01*
X158535714Y-78649313D01*
X158488095Y-78696932D01*
X158392857Y-78744551D01*
X158011904Y-78744551D01*
X159154761Y-78649313D02*
X159059523Y-78601694D01*
X159011904Y-78554075D01*
X158964285Y-78458837D01*
X158964285Y-78411218D01*
X159011904Y-78315980D01*
X159059523Y-78268361D01*
X159154761Y-78220741D01*
X159345238Y-78220741D01*
X159440476Y-78268361D01*
X159488095Y-78315980D01*
X159535714Y-78411218D01*
X159535714Y-78458837D01*
X159488095Y-78554075D01*
X159440476Y-78601694D01*
X159345238Y-78649313D01*
X159154761Y-78649313D01*
X159059523Y-78696932D01*
X159011904Y-78744551D01*
X158964285Y-78839789D01*
X158964285Y-79030265D01*
X159011904Y-79125503D01*
X159059523Y-79173122D01*
X159154761Y-79220741D01*
X159345238Y-79220741D01*
X159440476Y-79173122D01*
X159488095Y-79125503D01*
X159535714Y-79030265D01*
X159535714Y-78839789D01*
X159488095Y-78744551D01*
X159440476Y-78696932D01*
X159345238Y-78649313D01*
%TO.C,J1A1*%
X111922380Y-116666456D02*
X112636666Y-116666456D01*
X112779523Y-116714075D01*
X112874761Y-116809313D01*
X112922380Y-116952170D01*
X112922380Y-117047408D01*
X112922380Y-115666456D02*
X112922380Y-116237884D01*
X112922380Y-115952170D02*
X111922380Y-115952170D01*
X112065238Y-116047408D01*
X112160476Y-116142646D01*
X112208095Y-116237884D01*
X112636666Y-115285503D02*
X112636666Y-114809313D01*
X112922380Y-115380741D02*
X111922380Y-115047408D01*
X112922380Y-114714075D01*
X112922380Y-113856932D02*
X112922380Y-114428361D01*
X112922380Y-114142646D02*
X111922380Y-114142646D01*
X112065238Y-114237884D01*
X112160476Y-114333122D01*
X112208095Y-114428361D01*
%TO.C,R7*%
X158583333Y-74140741D02*
X158250000Y-73664551D01*
X158011904Y-74140741D02*
X158011904Y-73140741D01*
X158392857Y-73140741D01*
X158488095Y-73188361D01*
X158535714Y-73235980D01*
X158583333Y-73331218D01*
X158583333Y-73474075D01*
X158535714Y-73569313D01*
X158488095Y-73616932D01*
X158392857Y-73664551D01*
X158011904Y-73664551D01*
X158916666Y-73140741D02*
X159583333Y-73140741D01*
X159154761Y-74140741D01*
D11*
%TO.C,J0*%
X177800000Y-117968361D02*
X170180000Y-117968361D01*
X170180000Y-117968361D02*
X170180000Y-102728361D01*
X176530000Y-117968361D02*
X176530000Y-102728361D01*
X177800000Y-102728361D02*
X170180000Y-102728361D01*
X177800000Y-117968361D02*
X177800000Y-102728361D01*
%TO.C,U3*%
X143410000Y-120578361D02*
X148710000Y-120578361D01*
X148710000Y-120578361D02*
X148710000Y-110298361D01*
X148710000Y-110298361D02*
X147060000Y-110298361D01*
X145060000Y-110298361D02*
X143410000Y-110298361D01*
X143410000Y-110298361D02*
X143410000Y-120578361D01*
X145060000Y-110298361D02*
G75*
G03*
X147060000Y-110298361I1000000J0D01*
G01*
%TO.C,R3*%
X130080000Y-74688361D02*
X130080000Y-77428361D01*
X130080000Y-77428361D02*
X136620000Y-77428361D01*
X136620000Y-74688361D02*
X130080000Y-74688361D01*
X136620000Y-77428361D02*
X136620000Y-74688361D01*
X137390000Y-76058361D02*
X136620000Y-76058361D01*
X129310000Y-76058361D02*
X130080000Y-76058361D01*
%TO.C,J6*%
X138785000Y-127818361D02*
X127924000Y-127818361D01*
X138785000Y-134038361D02*
X138785000Y-127298361D01*
X139025000Y-127058361D02*
X138625000Y-127058361D01*
X138785000Y-127298361D02*
X127924000Y-127298361D01*
X127924000Y-134038361D02*
X127924000Y-127298361D01*
X138785000Y-134038361D02*
X127924000Y-134038361D01*
X139025000Y-127698361D02*
X139025000Y-127058361D01*
X138785000Y-132918361D02*
X127924000Y-132918361D01*
%TO.C,Q1*%
X155680000Y-123628361D02*
X159280000Y-123628361D01*
X157480000Y-119178360D02*
G75*
G03*
X155641522Y-123616839I0J-2600001D01*
G01*
X159318478Y-123616839D02*
G75*
G03*
X157480000Y-119178361I-1838478J1838478D01*
G01*
%TO.C,R9*%
X129310000Y-88758361D02*
X130080000Y-88758361D01*
X130080000Y-90128361D02*
X136620000Y-90128361D01*
X137390000Y-88758361D02*
X136620000Y-88758361D01*
X136620000Y-90128361D02*
X136620000Y-87388361D01*
X130080000Y-87388361D02*
X130080000Y-90128361D01*
X136620000Y-87388361D02*
X130080000Y-87388361D01*
%TO.C,R11*%
X129310000Y-98918361D02*
X130080000Y-98918361D01*
X137390000Y-98918361D02*
X136620000Y-98918361D01*
X136620000Y-97548361D02*
X130080000Y-97548361D01*
X130080000Y-100288361D02*
X136620000Y-100288361D01*
X136620000Y-100288361D02*
X136620000Y-97548361D01*
X130080000Y-97548361D02*
X130080000Y-100288361D01*
%TO.C,Q2*%
X169650000Y-123628361D02*
X173250000Y-123628361D01*
X173288478Y-123616839D02*
G75*
G03*
X171450000Y-119178361I-1838478J1838478D01*
G01*
X171450000Y-119178360D02*
G75*
G03*
X169611522Y-123616839I0J-2600001D01*
G01*
%TO.C,J5*%
X151720000Y-127698361D02*
X151720000Y-127058361D01*
X140619000Y-134038361D02*
X140619000Y-127298361D01*
X151480000Y-127298361D02*
X140619000Y-127298361D01*
X151480000Y-132918361D02*
X140619000Y-132918361D01*
X151480000Y-127818361D02*
X140619000Y-127818361D01*
X151480000Y-134038361D02*
X151480000Y-127298361D01*
X151480000Y-134038361D02*
X140619000Y-134038361D01*
X151720000Y-127058361D02*
X151320000Y-127058361D01*
%TO.C,R4*%
X129310000Y-81138361D02*
X130080000Y-81138361D01*
X130080000Y-82508361D02*
X136620000Y-82508361D01*
X130080000Y-79768361D02*
X130080000Y-82508361D01*
X136620000Y-79768361D02*
X130080000Y-79768361D01*
X136620000Y-82508361D02*
X136620000Y-79768361D01*
X137390000Y-81138361D02*
X136620000Y-81138361D01*
%TO.C,R15*%
X130080000Y-115328361D02*
X130080000Y-118068361D01*
X129310000Y-116698361D02*
X130080000Y-116698361D01*
X137390000Y-116698361D02*
X136620000Y-116698361D01*
X136620000Y-118068361D02*
X136620000Y-115328361D01*
X136620000Y-115328361D02*
X130080000Y-115328361D01*
X130080000Y-118068361D02*
X136620000Y-118068361D01*
%TO.C,R1*%
X136620000Y-67268361D02*
X136620000Y-64528361D01*
X129310000Y-65898361D02*
X130080000Y-65898361D01*
X136620000Y-64528361D02*
X130080000Y-64528361D01*
X130080000Y-64528361D02*
X130080000Y-67268361D01*
X137390000Y-65898361D02*
X136620000Y-65898361D01*
X130080000Y-67268361D02*
X136620000Y-67268361D01*
%TO.C,J2B1*%
X128550000Y-51098361D02*
X128550000Y-57838361D01*
X128550000Y-51098361D02*
X139411000Y-51098361D01*
X128550000Y-57838361D02*
X139411000Y-57838361D01*
X128310000Y-58078361D02*
X128710000Y-58078361D01*
X128550000Y-52218361D02*
X139411000Y-52218361D01*
X139411000Y-51098361D02*
X139411000Y-57838361D01*
X128550000Y-57318361D02*
X139411000Y-57318361D01*
X128310000Y-57438361D02*
X128310000Y-58078361D01*
%TO.C,R2*%
X136620000Y-69608361D02*
X130080000Y-69608361D01*
X129310000Y-70978361D02*
X130080000Y-70978361D01*
X130080000Y-72348361D02*
X136620000Y-72348361D01*
X130080000Y-69608361D02*
X130080000Y-72348361D01*
X136620000Y-72348361D02*
X136620000Y-69608361D01*
X137390000Y-70978361D02*
X136620000Y-70978361D01*
%TO.C,R13*%
X162790000Y-88758361D02*
X162020000Y-88758361D01*
X155480000Y-90128361D02*
X162020000Y-90128361D01*
X155480000Y-87388361D02*
X155480000Y-90128361D01*
X162020000Y-87388361D02*
X155480000Y-87388361D01*
X154710000Y-88758361D02*
X155480000Y-88758361D01*
X162020000Y-90128361D02*
X162020000Y-87388361D01*
%TO.C,J3B1*%
X171740000Y-85440000D02*
X171740000Y-77120000D01*
X170620000Y-77120000D02*
X177360000Y-77120000D01*
X170620000Y-85440000D02*
X177360000Y-85440000D01*
X170620000Y-85440000D02*
X170620000Y-77120000D01*
X177360000Y-85440000D02*
X177360000Y-77120000D01*
X176960000Y-85680000D02*
X177600000Y-85680000D01*
X176840000Y-85440000D02*
X176840000Y-77120000D01*
X177600000Y-85680000D02*
X177600000Y-85280000D01*
%TO.C,J4*%
X126330000Y-127698361D02*
X126330000Y-127058361D01*
X126090000Y-134038361D02*
X126090000Y-127298361D01*
X126090000Y-134038361D02*
X115229000Y-134038361D01*
X126330000Y-127058361D02*
X125930000Y-127058361D01*
X126090000Y-127818361D02*
X115229000Y-127818361D01*
X126090000Y-132918361D02*
X115229000Y-132918361D01*
X126090000Y-127298361D02*
X115229000Y-127298361D01*
X115229000Y-134038361D02*
X115229000Y-127298361D01*
%TO.C,J1C1*%
X119810000Y-91888361D02*
X120450000Y-91888361D01*
X120450000Y-91888361D02*
X120450000Y-91488361D01*
X119690000Y-91648361D02*
X119690000Y-78248361D01*
X113470000Y-78248361D02*
X120210000Y-78248361D01*
X114590000Y-91648361D02*
X114590000Y-78248361D01*
X113470000Y-91648361D02*
X120210000Y-91648361D01*
X120210000Y-91648361D02*
X120210000Y-78248361D01*
X113470000Y-91648361D02*
X113470000Y-78248361D01*
%TO.C,R17*%
X154840000Y-133938361D02*
X157580000Y-133938361D01*
X157580000Y-127398361D02*
X154840000Y-127398361D01*
X156210000Y-126628361D02*
X156210000Y-127398361D01*
X154840000Y-127398361D02*
X154840000Y-133938361D01*
X157580000Y-133938361D02*
X157580000Y-127398361D01*
X156210000Y-134708361D02*
X156210000Y-133938361D01*
%TO.C,U2*%
X148710000Y-84903361D02*
X147060000Y-84903361D01*
X143410000Y-84903361D02*
X143410000Y-105343361D01*
X143410000Y-105343361D02*
X148710000Y-105343361D01*
X145060000Y-84903361D02*
X143410000Y-84903361D01*
X148710000Y-105343361D02*
X148710000Y-84903361D01*
X145060000Y-84903361D02*
G75*
G03*
X147060000Y-84903361I1000000J0D01*
G01*
%TO.C,R12*%
X136620000Y-105368361D02*
X136620000Y-102628361D01*
X130080000Y-102628361D02*
X130080000Y-105368361D01*
X130080000Y-105368361D02*
X136620000Y-105368361D01*
X129310000Y-103998361D02*
X130080000Y-103998361D01*
X137390000Y-103998361D02*
X136620000Y-103998361D01*
X136620000Y-102628361D02*
X130080000Y-102628361D01*
%TO.C,R20*%
X166370000Y-128358361D02*
X166370000Y-127588361D01*
X165000000Y-127588361D02*
X167740000Y-127588361D01*
X167740000Y-121048361D02*
X165000000Y-121048361D01*
X166370000Y-120278361D02*
X166370000Y-121048361D01*
X165000000Y-121048361D02*
X165000000Y-127588361D01*
X167740000Y-127588361D02*
X167740000Y-121048361D01*
%TO.C,R10*%
X137390000Y-93838361D02*
X136620000Y-93838361D01*
X130080000Y-95208361D02*
X136620000Y-95208361D01*
X136620000Y-92468361D02*
X130080000Y-92468361D01*
X136620000Y-95208361D02*
X136620000Y-92468361D01*
X129310000Y-93838361D02*
X130080000Y-93838361D01*
X130080000Y-92468361D02*
X130080000Y-95208361D01*
%TO.C,J7*%
X170620000Y-59198361D02*
X177360000Y-59198361D01*
X176840000Y-75138361D02*
X176840000Y-59198361D01*
X176960000Y-75378361D02*
X177600000Y-75378361D01*
X177600000Y-75378361D02*
X177600000Y-74978361D01*
X177360000Y-75138361D02*
X177360000Y-59198361D01*
X171740000Y-75138361D02*
X171740000Y-59198361D01*
X170620000Y-75138361D02*
X177360000Y-75138361D01*
X170620000Y-75138361D02*
X170620000Y-59198361D01*
%TO.C,R6*%
X155480000Y-72348361D02*
X162020000Y-72348361D01*
X162790000Y-70978361D02*
X162020000Y-70978361D01*
X154710000Y-70978361D02*
X155480000Y-70978361D01*
X162020000Y-72348361D02*
X162020000Y-69608361D01*
X162020000Y-69608361D02*
X155480000Y-69608361D01*
X155480000Y-69608361D02*
X155480000Y-72348361D01*
%TO.C,J2A1*%
X118790000Y-58078361D02*
X119190000Y-58078361D01*
X119030000Y-57318361D02*
X127350000Y-57318361D01*
X118790000Y-57438361D02*
X118790000Y-58078361D01*
X119030000Y-51098361D02*
X127350000Y-51098361D01*
X119030000Y-57838361D02*
X127350000Y-57838361D01*
X119030000Y-51098361D02*
X119030000Y-57838361D01*
X119030000Y-52218361D02*
X127350000Y-52218361D01*
X127350000Y-51098361D02*
X127350000Y-57838361D01*
%TO.C,R14*%
X162020000Y-95208361D02*
X162020000Y-92468361D01*
X154710000Y-93838361D02*
X155480000Y-93838361D01*
X155480000Y-92468361D02*
X155480000Y-95208361D01*
X162790000Y-93838361D02*
X162020000Y-93838361D01*
X162020000Y-92468361D02*
X155480000Y-92468361D01*
X155480000Y-95208361D02*
X162020000Y-95208361D01*
%TO.C,J2D1*%
X155225000Y-51098361D02*
X163545000Y-51098361D01*
X155225000Y-52218361D02*
X163545000Y-52218361D01*
X155225000Y-57838361D02*
X163545000Y-57838361D01*
X154985000Y-57438361D02*
X154985000Y-58078361D01*
X155225000Y-51098361D02*
X155225000Y-57838361D01*
X155225000Y-57318361D02*
X163545000Y-57318361D01*
X163545000Y-51098361D02*
X163545000Y-57838361D01*
X154985000Y-58078361D02*
X155385000Y-58078361D01*
%TO.C,J1D1*%
X114590000Y-76413361D02*
X114590000Y-65552361D01*
X120210000Y-76413361D02*
X120210000Y-65552361D01*
X119690000Y-76413361D02*
X119690000Y-65552361D01*
X113470000Y-76413361D02*
X113470000Y-65552361D01*
X119810000Y-76653361D02*
X120450000Y-76653361D01*
X113470000Y-76413361D02*
X120210000Y-76413361D01*
X113470000Y-65552361D02*
X120210000Y-65552361D01*
X120450000Y-76653361D02*
X120450000Y-76253361D01*
%TO.C,J2C1*%
X140620000Y-52218361D02*
X154020000Y-52218361D01*
X140620000Y-57318361D02*
X154020000Y-57318361D01*
X140380000Y-58078361D02*
X140780000Y-58078361D01*
X140380000Y-57438361D02*
X140380000Y-58078361D01*
X140620000Y-51098361D02*
X140620000Y-57838361D01*
X140620000Y-51098361D02*
X154020000Y-51098361D01*
X140620000Y-57838361D02*
X154020000Y-57838361D01*
X154020000Y-51098361D02*
X154020000Y-57838361D01*
%TO.C,R19*%
X170080000Y-127398361D02*
X170080000Y-133938361D01*
X171450000Y-134708361D02*
X171450000Y-133938361D01*
X170080000Y-133938361D02*
X172820000Y-133938361D01*
X172820000Y-133938361D02*
X172820000Y-127398361D01*
X171450000Y-126628361D02*
X171450000Y-127398361D01*
X172820000Y-127398361D02*
X170080000Y-127398361D01*
%TO.C,R18*%
X162560000Y-128358361D02*
X162560000Y-127588361D01*
X163930000Y-121048361D02*
X161190000Y-121048361D01*
X161190000Y-127588361D02*
X163930000Y-127588361D01*
X162560000Y-120278361D02*
X162560000Y-121048361D01*
X161190000Y-121048361D02*
X161190000Y-127588361D01*
X163930000Y-127588361D02*
X163930000Y-121048361D01*
%TO.C,U1*%
X145060000Y-62043361D02*
X143410000Y-62043361D01*
X148710000Y-62043361D02*
X147060000Y-62043361D01*
X143410000Y-82483361D02*
X148710000Y-82483361D01*
X143410000Y-62043361D02*
X143410000Y-82483361D01*
X148710000Y-82483361D02*
X148710000Y-62043361D01*
X145060000Y-62043361D02*
G75*
G03*
X147060000Y-62043361I1000000J0D01*
G01*
%TO.C,J3A1*%
X176530000Y-101458361D02*
X176530000Y-86218361D01*
X170180000Y-101458361D02*
X170180000Y-86218361D01*
X177800000Y-101458361D02*
X170180000Y-101458361D01*
X177800000Y-86218361D02*
X170180000Y-86218361D01*
X177800000Y-101458361D02*
X177800000Y-86218361D01*
%TO.C,J1B1*%
X113470000Y-106888361D02*
X120210000Y-106888361D01*
X113470000Y-106888361D02*
X113470000Y-93488361D01*
X120210000Y-106888361D02*
X120210000Y-93488361D01*
X114590000Y-106888361D02*
X114590000Y-93488361D01*
X119810000Y-107128361D02*
X120450000Y-107128361D01*
X120450000Y-107128361D02*
X120450000Y-106728361D01*
X113470000Y-93488361D02*
X120210000Y-93488361D01*
X119690000Y-106888361D02*
X119690000Y-93488361D01*
%TO.C,R16*%
X136620000Y-111518361D02*
X130080000Y-111518361D01*
X130080000Y-111518361D02*
X130080000Y-114258361D01*
X137390000Y-112888361D02*
X136620000Y-112888361D01*
X129310000Y-112888361D02*
X130080000Y-112888361D01*
X136620000Y-114258361D02*
X136620000Y-111518361D01*
X130080000Y-114258361D02*
X136620000Y-114258361D01*
%TO.C,R5*%
X162020000Y-64528361D02*
X155480000Y-64528361D01*
X162020000Y-67268361D02*
X162020000Y-64528361D01*
X154710000Y-65898361D02*
X155480000Y-65898361D01*
X155480000Y-64528361D02*
X155480000Y-67268361D01*
X155480000Y-67268361D02*
X162020000Y-67268361D01*
X162790000Y-65898361D02*
X162020000Y-65898361D01*
%TO.C,R8*%
X162790000Y-81138361D02*
X162020000Y-81138361D01*
X155480000Y-82508361D02*
X162020000Y-82508361D01*
X162020000Y-79768361D02*
X155480000Y-79768361D01*
X162020000Y-82508361D02*
X162020000Y-79768361D01*
X155480000Y-79768361D02*
X155480000Y-82508361D01*
X154710000Y-81138361D02*
X155480000Y-81138361D01*
%TO.C,J1A1*%
X119690000Y-122128361D02*
X119690000Y-108728361D01*
X119810000Y-122368361D02*
X120450000Y-122368361D01*
X120450000Y-122368361D02*
X120450000Y-121968361D01*
X113470000Y-108728361D02*
X120210000Y-108728361D01*
X113470000Y-122128361D02*
X113470000Y-108728361D01*
X113470000Y-122128361D02*
X120210000Y-122128361D01*
X120210000Y-122128361D02*
X120210000Y-108728361D01*
X114590000Y-122128361D02*
X114590000Y-108728361D01*
%TO.C,R7*%
X155480000Y-74688361D02*
X155480000Y-77428361D01*
X162790000Y-76058361D02*
X162020000Y-76058361D01*
X162020000Y-74688361D02*
X155480000Y-74688361D01*
X155480000Y-77428361D02*
X162020000Y-77428361D01*
X162020000Y-77428361D02*
X162020000Y-74688361D01*
X154710000Y-76058361D02*
X155480000Y-76058361D01*
%TD*%
M02*
