%TF.GenerationSoftware,KiCad,Pcbnew,(6.0.2)*%
%TF.CreationDate,2022-02-22T20:29:46+01:00*%
%TF.ProjectId,fondo,666f6e64-6f2e-46b6-9963-61645f706362,rev?*%
%TF.SameCoordinates,Original*%
%TF.FileFunction,Soldermask,Top*%
%TF.FilePolarity,Negative*%
%FSLAX46Y46*%
G04 Gerber Fmt 4.6, Leading zero omitted, Abs format (unit mm)*
G04 Created by KiCad (PCBNEW (6.0.2)) date 2022-02-22 20:29:46*
%MOMM*%
%LPD*%
G01*
G04 APERTURE LIST*
%ADD10R,3.000000X3.000000*%
%ADD11C,3.000000*%
%ADD12R,1.600000X1.600000*%
%ADD13O,1.600000X1.600000*%
%ADD14C,5.600000*%
%ADD15C,1.600000*%
%ADD16R,2.100000X2.100000*%
%ADD17C,2.100000*%
%ADD18R,1.300000X1.300000*%
%ADD19C,1.300000*%
%ADD20R,1.800000X1.800000*%
%ADD21C,1.800000*%
G04 APERTURE END LIST*
D10*
%TO.C,J0*%
X173990000Y-115428361D03*
D11*
X173990000Y-110348361D03*
X173990000Y-105268361D03*
%TD*%
D12*
%TO.C,U3*%
X143520000Y-111770000D03*
D13*
X143520000Y-114310000D03*
X143520000Y-116850000D03*
X143520000Y-119390000D03*
X151140000Y-119390000D03*
X151140000Y-116850000D03*
X151140000Y-114310000D03*
X151140000Y-111770000D03*
%TD*%
D14*
%TO.C,H4*%
X177800000Y-134478361D03*
%TD*%
D15*
%TO.C,R3*%
X128270000Y-76058361D03*
D13*
X138430000Y-76058361D03*
%TD*%
D16*
%TO.C,J14*%
X137165000Y-130668361D03*
D17*
X134625000Y-130668361D03*
X132085000Y-130668361D03*
X129545000Y-130668361D03*
%TD*%
D18*
%TO.C,Q1*%
X156210000Y-121778361D03*
D19*
X157480000Y-120508361D03*
X158750000Y-121778361D03*
%TD*%
D14*
%TO.C,H2*%
X177800000Y-53198361D03*
%TD*%
D20*
%TO.C,D4*%
X164734775Y-106680000D03*
D21*
X167274775Y-106680000D03*
%TD*%
D15*
%TO.C,R9*%
X128270000Y-88758361D03*
D13*
X138430000Y-88758361D03*
%TD*%
D15*
%TO.C,R11*%
X128270000Y-98918361D03*
D13*
X138430000Y-98918361D03*
%TD*%
D20*
%TO.C,D1*%
X158384775Y-100330000D03*
D21*
X160924775Y-100330000D03*
%TD*%
D18*
%TO.C,Q2*%
X170180000Y-121778361D03*
D19*
X171450000Y-120508361D03*
X172720000Y-121778361D03*
%TD*%
D16*
%TO.C,J13*%
X149860000Y-130668361D03*
D17*
X147320000Y-130668361D03*
X144780000Y-130668361D03*
X142240000Y-130668361D03*
%TD*%
D15*
%TO.C,R4*%
X128270000Y-81138361D03*
D13*
X138430000Y-81138361D03*
%TD*%
D15*
%TO.C,R15*%
X138430000Y-118110000D03*
D13*
X128270000Y-118110000D03*
%TD*%
D15*
%TO.C,R1*%
X128270000Y-65898361D03*
D13*
X138430000Y-65898361D03*
%TD*%
D16*
%TO.C,J6*%
X130170000Y-54468361D03*
D17*
X132710000Y-54468361D03*
X135250000Y-54468361D03*
X137790000Y-54468361D03*
%TD*%
D15*
%TO.C,R2*%
X128270000Y-70978361D03*
D13*
X138430000Y-70978361D03*
%TD*%
D15*
%TO.C,R13*%
X156210000Y-88758361D03*
D13*
X166370000Y-88758361D03*
%TD*%
D16*
%TO.C,J11*%
X173990000Y-83820000D03*
D17*
X173990000Y-81280000D03*
X173990000Y-78740000D03*
%TD*%
D16*
%TO.C,J12*%
X124470000Y-130668361D03*
D17*
X121930000Y-130668361D03*
X119390000Y-130668361D03*
X116850000Y-130668361D03*
%TD*%
D16*
%TO.C,J3*%
X116840000Y-90028361D03*
D17*
X116840000Y-87488361D03*
X116840000Y-84948361D03*
X116840000Y-82408361D03*
X116840000Y-79868361D03*
%TD*%
D15*
%TO.C,R17*%
X156210000Y-135748361D03*
D13*
X156210000Y-125588361D03*
%TD*%
D14*
%TO.C,H1*%
X111760000Y-53198361D03*
%TD*%
D12*
%TO.C,U2*%
X142250000Y-86233361D03*
D13*
X142250000Y-88773361D03*
X142250000Y-91313361D03*
X142250000Y-93853361D03*
X142250000Y-96393361D03*
X142250000Y-98933361D03*
X142250000Y-101473361D03*
X142250000Y-104013361D03*
X152410000Y-104013361D03*
X152410000Y-101473361D03*
X152410000Y-98933361D03*
X152410000Y-96393361D03*
X152410000Y-93853361D03*
X152410000Y-91313361D03*
X152410000Y-88773361D03*
X152410000Y-86233361D03*
%TD*%
D15*
%TO.C,R12*%
X128270000Y-103998361D03*
D13*
X138430000Y-103998361D03*
%TD*%
D15*
%TO.C,R20*%
X166370000Y-129398361D03*
D13*
X166370000Y-119238361D03*
%TD*%
D15*
%TO.C,R10*%
X128270000Y-93838361D03*
D13*
X138430000Y-93838361D03*
%TD*%
D16*
%TO.C,J9*%
X173990000Y-73518361D03*
D17*
X173990000Y-70978361D03*
X173990000Y-68438361D03*
X173990000Y-65898361D03*
X173990000Y-63358361D03*
X173990000Y-60818361D03*
%TD*%
D15*
%TO.C,R6*%
X156210000Y-70978361D03*
D13*
X166370000Y-70978361D03*
%TD*%
D16*
%TO.C,J5*%
X120650000Y-54468361D03*
D17*
X123190000Y-54468361D03*
X125730000Y-54468361D03*
%TD*%
D15*
%TO.C,R14*%
X156210000Y-93838361D03*
D13*
X166370000Y-93838361D03*
%TD*%
D16*
%TO.C,J8*%
X154357992Y-54459946D03*
D17*
X156897992Y-54459946D03*
X159437992Y-54459946D03*
%TD*%
D16*
%TO.C,J4*%
X116840000Y-74793361D03*
D17*
X116840000Y-72253361D03*
X116840000Y-69713361D03*
X116840000Y-67173361D03*
%TD*%
D15*
%TO.C,R19*%
X171450000Y-135748361D03*
D13*
X171450000Y-125588361D03*
%TD*%
D15*
%TO.C,R18*%
X162560000Y-129398361D03*
D13*
X162560000Y-119238361D03*
%TD*%
D12*
%TO.C,U1*%
X142250000Y-63373361D03*
D13*
X142250000Y-65913361D03*
X142250000Y-68453361D03*
X142250000Y-70993361D03*
X142250000Y-73533361D03*
X142250000Y-76073361D03*
X142250000Y-78613361D03*
X142250000Y-81153361D03*
X152410000Y-81153361D03*
X152410000Y-78613361D03*
X152410000Y-76073361D03*
X152410000Y-73533361D03*
X152410000Y-70993361D03*
X152410000Y-68453361D03*
X152410000Y-65913361D03*
X152410000Y-63373361D03*
%TD*%
D16*
%TO.C,J7*%
X142240000Y-54472329D03*
D17*
X144780000Y-54472329D03*
X147320000Y-54472329D03*
X149860000Y-54472329D03*
%TD*%
D10*
%TO.C,J10*%
X173990000Y-98918361D03*
D11*
X173990000Y-93838361D03*
X173990000Y-88758361D03*
%TD*%
D16*
%TO.C,J2*%
X116840000Y-105268361D03*
D17*
X116840000Y-102728361D03*
X116840000Y-100188361D03*
X116840000Y-97648361D03*
X116840000Y-95108361D03*
%TD*%
D15*
%TO.C,R16*%
X128270000Y-112888361D03*
D13*
X138430000Y-112888361D03*
%TD*%
D15*
%TO.C,R5*%
X156210000Y-65898361D03*
D13*
X166370000Y-65898361D03*
%TD*%
D14*
%TO.C,H3*%
X111760000Y-134478361D03*
%TD*%
D20*
%TO.C,D3*%
X158384775Y-106680000D03*
D21*
X160924775Y-106680000D03*
%TD*%
D15*
%TO.C,R8*%
X156210000Y-81138361D03*
D13*
X166370000Y-81138361D03*
%TD*%
D16*
%TO.C,J1*%
X116840000Y-120508361D03*
D17*
X116840000Y-117968361D03*
X116840000Y-115428361D03*
X116840000Y-112888361D03*
X116840000Y-110348361D03*
%TD*%
D15*
%TO.C,R7*%
X156210000Y-76058361D03*
D13*
X166370000Y-76058361D03*
%TD*%
D20*
%TO.C,D2*%
X164734775Y-100330000D03*
D21*
X167274775Y-100330000D03*
%TD*%
M02*
