M48
; DRILL file {KiCad (6.0.2)} date Tue Feb 22 20:29:48 2022
; FORMAT={-:-/ absolute / inch / decimal}
; #@! TF.CreationDate,2022-02-22T20:29:48+01:00
; #@! TF.GenerationSoftware,Kicad,Pcbnew,(6.0.2)
; #@! TF.FileFunction,Plated,1,2,PTH
FMAT,2
INCH
; #@! TA.AperFunction,Plated,PTH,ViaDrill
T1C0.0157
; #@! TA.AperFunction,Plated,PTH,ComponentDrill
T2C0.0295
; #@! TA.AperFunction,Plated,PTH,ComponentDrill
T3C0.0315
; #@! TA.AperFunction,Plated,PTH,ComponentDrill
T4C0.0354
; #@! TA.AperFunction,Plated,PTH,ComponentDrill
T5C0.0433
; #@! TA.AperFunction,Plated,PTH,ComponentDrill
T6C0.0598
; #@! TA.AperFunction,Plated,PTH,ComponentDrill
T7C0.1260
%
G90
G05
T1
X4.875Y-3.4444
X4.9485Y-1.9926
X4.95Y-2.9444
X4.95Y-3.4444
X5.2Y-4.4444
X5.3Y-3.3444
X5.325Y-2.7444
X5.375Y-3.3944
X5.475Y-2.3442
X5.5235Y-2.0692
X5.525Y-2.2944
X5.5844Y-2.0575
X5.7Y-2.4694
X5.7Y-3.35
X5.7005Y-3.1
X5.7248Y-2.5952
X5.725Y-3.1694
X5.75Y-2.05
X5.775Y-2.3944
X5.8148Y-2.5169
X6.0984Y-4.292
X6.15Y-2.9194
X6.15Y-3.95
X6.275Y-2.3694
T2
X6.15Y-4.7944
X6.2Y-4.7444
X6.25Y-4.7944
X6.7Y-4.7944
X6.75Y-4.7444
X6.8Y-4.7944
T3
X5.05Y-2.5944
X5.05Y-2.7944
X5.05Y-2.9944
X5.05Y-3.1944
X5.05Y-3.4944
X5.05Y-3.6944
X5.05Y-3.8944
X5.05Y-4.0944
X5.05Y-4.4444
X5.05Y-4.65
X5.45Y-2.5944
X5.45Y-2.7944
X5.45Y-2.9944
X5.45Y-3.1944
X5.45Y-3.4944
X5.45Y-3.6944
X5.45Y-3.8944
X5.45Y-4.0944
X5.45Y-4.4444
X5.45Y-4.65
X5.6004Y-2.495
X5.6004Y-2.595
X5.6004Y-2.695
X5.6004Y-2.795
X5.6004Y-2.895
X5.6004Y-2.995
X5.6004Y-3.095
X5.6004Y-3.195
X5.6004Y-3.395
X5.6004Y-3.495
X5.6004Y-3.595
X5.6004Y-3.695
X5.6004Y-3.795
X5.6004Y-3.895
X5.6004Y-3.995
X5.6004Y-4.095
X5.6504Y-4.4004
X5.6504Y-4.5004
X5.6504Y-4.6004
X5.6504Y-4.7004
X5.9504Y-4.4004
X5.9504Y-4.5004
X5.9504Y-4.6004
X5.9504Y-4.7004
X6.0004Y-2.495
X6.0004Y-2.595
X6.0004Y-2.695
X6.0004Y-2.795
X6.0004Y-2.895
X6.0004Y-2.995
X6.0004Y-3.095
X6.0004Y-3.195
X6.0004Y-3.395
X6.0004Y-3.495
X6.0004Y-3.595
X6.0004Y-3.695
X6.0004Y-3.795
X6.0004Y-3.895
X6.0004Y-3.995
X6.0004Y-4.095
X6.15Y-2.5944
X6.15Y-2.7944
X6.15Y-2.9944
X6.15Y-3.1944
X6.15Y-3.4944
X6.15Y-3.6944
X6.15Y-4.9444
X6.15Y-5.3444
X6.4Y-4.6944
X6.4Y-5.0944
X6.55Y-2.5944
X6.55Y-2.7944
X6.55Y-2.9944
X6.55Y-3.1944
X6.55Y-3.4944
X6.55Y-3.6944
X6.55Y-4.6944
X6.55Y-5.0944
X6.75Y-4.9444
X6.75Y-5.3444
T4
X6.2356Y-3.95
X6.2356Y-4.2
X6.3356Y-3.95
X6.3356Y-4.2
X6.4856Y-3.95
X6.4856Y-4.2
X6.5856Y-3.95
X6.5856Y-4.2
T5
X4.6Y-2.6446
X4.6Y-2.7446
X4.6Y-2.8446
X4.6Y-2.9446
X4.6Y-3.1444
X4.6Y-3.2444
X4.6Y-3.3444
X4.6Y-3.4444
X4.6Y-3.5444
X4.6Y-3.7444
X4.6Y-3.8444
X4.6Y-3.9444
X4.6Y-4.0444
X4.6Y-4.1444
X4.6Y-4.3444
X4.6Y-4.4444
X4.6Y-4.5444
X4.6Y-4.6444
X4.6Y-4.7444
X4.6004Y-5.1444
X4.7004Y-5.1444
X4.75Y-2.1444
X4.8004Y-5.1444
X4.85Y-2.1444
X4.9004Y-5.1444
X4.95Y-2.1444
X5.1002Y-5.1444
X5.1248Y-2.1444
X5.2002Y-5.1444
X5.2248Y-2.1444
X5.3002Y-5.1444
X5.3248Y-2.1444
X5.4002Y-5.1444
X5.4248Y-2.1444
X5.6Y-2.1446
X5.6Y-5.1444
X5.7Y-2.1446
X5.7Y-5.1444
X5.8Y-2.1446
X5.8Y-5.1444
X5.9Y-2.1446
X5.9Y-5.1444
X6.0771Y-2.1441
X6.1771Y-2.1441
X6.2771Y-2.1441
X6.85Y-2.3944
X6.85Y-2.4944
X6.85Y-2.5944
X6.85Y-2.6944
X6.85Y-2.7944
X6.85Y-2.8944
X6.85Y-3.1
X6.85Y-3.2
X6.85Y-3.3
T6
X6.85Y-3.4944
X6.85Y-3.6944
X6.85Y-3.8944
X6.85Y-4.1444
X6.85Y-4.3444
X6.85Y-4.5444
T7
X4.4Y-2.0944
X4.4Y-5.2944
X7.0Y-2.0944
X7.0Y-5.2944
T0
M30
